<svg width="180" height="76" viewBox="0 0 180 76" fill="none" xmlns="http://www.w3.org/2000/svg">
<g clip-path="url(#clip0_4060_917)">
<path fill-rule="evenodd" clip-rule="evenodd" d="M144.996 28.6984C146.696 28.6984 147.955 29.0338 148.773 29.7079C149.592 30.3798 150 31.5002 150 33.0714V41.3309H146.415V33.8008C146.415 32.3912 145.629 31.6872 144.057 31.6872C143.4 31.6872 142.847 31.8405 142.398 32.1497C142.43 32.5373 142.446 32.8462 142.446 33.0718V41.3312H138.862V33.8011C138.862 32.3916 138.075 31.6875 136.503 31.6875C135.862 31.6875 135.269 31.8242 134.724 32.1013V41.3316H131.139V30.0823C131.764 29.7424 132.719 29.4275 134.002 29.1364C135.285 28.8438 136.433 28.6984 137.442 28.6984C139.062 28.6984 140.256 28.991 141.027 29.5724C141.652 29.2984 142.314 29.0834 143.012 28.9293C143.709 28.776 144.371 28.6984 144.996 28.6984M123.813 41.6957C122.032 41.6957 120.634 41.2733 119.614 40.4319C118.597 39.5901 118.088 38.3259 118.088 36.6426V29.038H121.672V36.3515C121.672 37.1275 121.843 37.7077 122.189 38.0893C122.534 38.4674 123.083 38.6574 123.836 38.6574C124.59 38.6574 125.14 38.4674 125.485 38.0893C125.83 37.7077 126.002 37.1279 126.002 36.3515V29.038H129.37V36.6426C129.37 38.3429 128.885 39.6105 127.914 40.4436C126.945 41.2775 125.577 41.6957 123.813 41.6957ZM112.684 29.2083H116.27L116.294 41.3305H112.684V29.2083H112.684ZM112.613 24.5697H116.318V27.3631H112.613V24.5693V24.5697ZM105.839 28.6984C107.54 28.6984 108.798 29.0338 109.617 29.7079C110.434 30.3798 110.844 31.5002 110.844 33.0714V41.3309H107.259V33.8008C107.259 32.3912 106.473 31.6872 104.901 31.6872C104.243 31.6872 103.69 31.8405 103.241 32.1497C103.274 32.5373 103.289 32.8462 103.289 33.0718V41.3312H99.7047V33.8011C99.7047 32.3916 98.9186 31.6875 97.3465 31.6875C96.7055 31.6875 96.1114 31.8242 95.5667 32.1013V41.3316H91.9817V30.0823C92.607 29.7424 93.5621 29.4275 94.8448 29.1364C96.1279 28.8438 97.2745 28.6984 98.2848 28.6984C99.9056 28.6984 101.1 28.991 101.87 29.5724C102.495 29.2984 103.157 29.0834 103.854 28.9293C104.552 28.776 105.214 28.6984 105.839 28.6984H105.839ZM85.1123 31.3953C83.8296 31.3953 83.0679 32.2042 82.8276 33.8242H87.3265C87.2137 32.9503 86.9858 32.3257 86.6409 31.9548C86.2964 31.5816 85.7863 31.3953 85.1127 31.3953H85.1123ZM85.2577 28.6265C89.0583 28.6265 90.9344 31.1273 90.8868 36.1328H82.8508C83.156 37.833 84.2865 38.6828 86.2443 38.6828C86.8377 38.6828 87.4183 38.5991 87.9873 38.4288C88.5564 38.2589 89.1625 38.0355 89.8035 37.7588V40.8702C88.4893 41.4206 87.0127 41.6957 85.378 41.6957C84.1429 41.6957 83.06 41.4395 82.13 40.9296C81.1985 40.4194 80.4777 39.6858 79.9634 38.732C79.4513 37.7751 79.195 36.6517 79.195 35.3542C79.195 33.2163 79.7201 31.5611 80.7697 30.3881C81.8215 29.2125 83.316 28.6265 85.2573 28.6265H85.2577ZM70.9787 30.326C71.219 30.1152 71.6399 29.8798 72.2412 29.622C72.8435 29.3616 73.516 29.1409 74.2623 28.9547C75.0087 28.7677 75.7257 28.6738 76.4155 28.6738C77.7469 28.6738 78.669 28.8763 79.1818 29.2817V31.9305C78.5408 31.7844 77.6183 31.7114 76.4155 31.7114C75.662 31.7114 75.0443 31.7526 74.5633 31.8318V41.3309H70.9787V30.326ZM63.4356 38.7808C64.4132 38.7808 65.1356 38.5045 65.6008 37.9534C66.0656 37.4049 66.2987 36.481 66.2987 35.1842C66.2987 34.0184 66.0941 33.1403 65.6847 32.5483C65.2765 31.9593 64.5744 31.6618 63.5796 31.6618C62.1518 31.6618 61.4388 31.9377 61.4388 32.4888V38.2691C61.7267 38.4493 62.0483 38.5783 62.4003 38.6578C62.7546 38.7399 63.099 38.7812 63.4356 38.7812V38.7808ZM63.7247 28.6265C65.6814 28.6265 67.1961 29.1405 68.2708 30.169C69.3451 31.197 69.8826 32.9094 69.8826 35.3053C69.8826 37.235 69.4021 38.7808 68.4395 39.9463C67.4769 41.1121 66.1627 41.6961 64.4946 41.6961C63.2756 41.6961 62.2564 41.4762 61.4388 41.0402V45.7284H57.9258V31.6372C57.9258 30.65 58.4674 29.9048 59.5496 29.4029C60.6329 28.9009 62.024 28.6432 63.7247 28.6265Z" fill="#B9B9B9"/>
<path fill-rule="evenodd" clip-rule="evenodd" d="M138.244 49.769V50.2872H135.249V46.1187H138.162V46.6376H135.838V47.9177H137.907V48.4234H135.838V49.769M130.952 46.6376H129.538V46.1187H132.952V46.6376H131.537V50.2872H130.952V46.6376H130.952ZM126.586 48.7675L125.695 46.725L124.806 48.7675H126.586ZM126.792 49.2451H124.599L124.145 50.2876H123.538L125.407 46.119H125.99L127.865 50.2876H127.245L126.792 49.2451ZM119.005 46.119H119.595V49.7694H121.83V50.2876H119.005V46.119ZM114.686 48.5071C115.06 48.5071 115.344 48.4253 115.541 48.2656C115.738 48.1036 115.836 47.8746 115.836 47.5714C115.836 47.2682 115.738 47.0392 115.541 46.8772C115.344 46.7171 115.06 46.638 114.686 46.638H113.683V48.5071H114.686ZM114.704 46.119C115.239 46.119 115.659 46.2481 115.967 46.5059C116.272 46.7648 116.426 47.1191 116.426 47.571C116.426 48.0229 116.272 48.3784 115.967 48.6361C115.659 48.8939 115.239 49.023 114.704 49.023H113.683V50.2872H113.094V46.1187H114.704V46.119ZM109.636 50.2876L109.63 47.25L108.138 49.7807H107.867L106.374 47.2682V50.2876H105.809V46.119H106.292L108.013 49.0483L109.712 46.119H110.195L110.201 50.2876H109.635H109.636ZM103.199 49.7694V50.2876H100.205V46.119H103.117V46.638H100.794V47.9181H102.864V48.4238H100.794V49.7694H103.199ZM95.9089 46.638H94.4931V46.119H97.908V46.638H96.4922V50.2876H95.9093V46.638H95.9089ZM88.5465 49.8038C88.8483 49.8038 89.1212 49.7342 89.3622 49.5956C89.6047 49.4582 89.7955 49.2652 89.9346 49.0218C90.0748 48.7784 90.1434 48.5036 90.1434 48.2031C90.1434 47.9026 90.0744 47.6297 89.9346 47.3859C89.7955 47.1399 89.6051 46.9499 89.3622 46.8098C89.1212 46.6709 88.8483 46.6016 88.5465 46.6016C88.2448 46.6016 87.9693 46.6709 87.7238 46.8098C87.4782 46.9499 87.2856 47.1399 87.1457 47.3859C87.0056 47.6297 86.9355 47.9014 86.9355 48.2031C86.9355 48.5048 87.0056 48.7784 87.1457 49.0218C87.2856 49.2656 87.4782 49.4582 87.7238 49.5956C87.9693 49.7342 88.2425 49.8038 88.5465 49.8038ZM88.5465 50.3345C88.1293 50.3345 87.7541 50.2421 87.4194 50.0586C87.0858 49.8731 86.823 49.6176 86.6326 49.2921C86.4422 48.9658 86.3466 48.6036 86.3466 48.2024C86.3466 47.8011 86.4422 47.4378 86.6326 47.1122C86.8234 46.7867 87.0858 46.5331 87.4194 46.3488C87.7541 46.1645 88.1293 46.0702 88.5465 46.0702C88.9637 46.0702 89.3322 46.1645 89.6658 46.3488C90.0006 46.5331 90.2622 46.7867 90.4508 47.1107C90.6393 47.4336 90.7338 47.7989 90.7338 48.2027C90.7338 48.6066 90.6393 48.9722 90.4508 49.2966C90.2622 49.6195 90.0006 49.8731 89.6658 50.0586C89.3322 50.2421 88.9589 50.3345 88.5465 50.3345ZM83.3354 48.18H83.9014V49.8035C83.6975 49.9757 83.4595 50.1051 83.1885 50.1967C82.9175 50.2887 82.6341 50.3341 82.3395 50.3341C81.9226 50.3341 81.5478 50.2418 81.213 50.0582C80.8791 49.8727 80.6167 49.6187 80.4262 49.2962C80.2358 48.9719 80.1402 48.6074 80.1402 48.2024C80.1402 47.7973 80.2358 47.4321 80.4262 47.1066C80.617 46.7807 80.8806 46.5267 81.216 46.3446C81.5519 46.1618 81.9313 46.0702 82.3511 46.0702C82.6817 46.0702 82.9808 46.1251 83.2507 46.2341C83.5195 46.3446 83.7485 46.5044 83.9374 46.7125L83.5723 47.0835C83.2428 46.7621 82.8436 46.6009 82.3747 46.6009C82.0602 46.6009 81.7783 46.6701 81.529 46.8049C81.2794 46.9423 81.0837 47.1331 80.9424 47.3783C80.8003 47.6221 80.7295 47.8965 80.7295 48.2024C80.7295 48.5082 80.8003 48.7777 80.9424 49.0211C81.0837 49.2648 81.2794 49.4575 81.529 49.5949C81.7783 49.7334 82.0594 49.8031 82.3694 49.8031C82.7387 49.8031 83.061 49.7149 83.3362 49.5347V48.1793L83.3354 48.18ZM75.7317 49.8035C76.0345 49.8035 76.3063 49.7338 76.5481 49.5953C76.7899 49.4579 76.9807 49.2648 77.1208 49.0214C77.2599 48.7781 77.3296 48.5033 77.3296 48.2027C77.3296 47.9022 77.2599 47.6293 77.1208 47.3855C76.9807 47.1395 76.7899 46.9495 76.5481 46.8094C76.3063 46.6705 76.0345 46.6013 75.7317 46.6013C75.4288 46.6013 75.1555 46.6705 74.9089 46.8094C74.6637 46.9495 74.4711 47.1395 74.332 47.3855C74.1922 47.6293 74.1224 47.9011 74.1224 48.2027C74.1224 48.5044 74.1922 48.7781 74.332 49.0214C74.4711 49.2652 74.6637 49.4579 74.9089 49.5953C75.1555 49.7338 75.4295 49.8035 75.7317 49.8035ZM75.7317 50.3341C75.316 50.3341 74.9392 50.2418 74.606 50.0582C74.272 49.8727 74.0092 49.6172 73.8177 49.2917C73.6277 48.9654 73.5328 48.6032 73.5328 48.202C73.5328 47.8008 73.628 47.4374 73.8177 47.1119C74.0089 46.7863 74.272 46.5327 74.606 46.3484C74.9392 46.1641 75.3156 46.0698 75.7317 46.0698C76.1477 46.0698 76.5185 46.1641 76.8521 46.3484C77.1868 46.5327 77.4485 46.7863 77.6363 47.1103C77.8259 47.4332 77.9196 47.7985 77.9196 48.2024C77.9196 48.6062 77.8263 48.9719 77.6363 49.2962C77.4488 49.6191 77.1868 49.8727 76.8521 50.0582C76.5185 50.2418 76.1444 50.3341 75.7317 50.3341ZM68.7119 46.1187H69.3019V49.769H71.5364V50.2872H68.7119V46.1187Z" fill="#E3E3E3"/>
<path d="M45.5921 39.6427C44.9657 40.0072 44.2742 40.2635 43.55 40.3907V45.3696C45.1502 45.214 46.6807 44.7121 48.0429 43.9172C49.6997 42.9528 51.1114 41.5493 52.1051 39.8127L52.1066 39.8142C53.098 38.0802 53.5943 36.1426 53.5943 34.2073H53.5898C53.5898 32.2671 53.095 30.3321 52.1069 28.6012L52.1051 28.6027C51.1114 26.8661 49.6997 25.4633 48.0429 24.4966H48.0387C46.3823 23.5329 44.4747 23 42.4876 23H30V41.6768C30 45.0766 31.3731 48.1653 33.5888 50.4019C35.6276 52.4602 38.3774 53.7975 41.4261 54V47.5032C39.1654 47.2538 37.1386 46.2235 35.6141 44.6852C33.8557 42.9096 32.7671 40.4558 32.7671 37.7445C32.7671 35.0332 33.8557 32.5816 35.6141 30.8056C37.3736 29.0293 39.8041 27.9305 42.4876 27.9305V27.9346C43.5968 27.9346 44.6644 28.2337 45.5921 28.773C46.5255 29.317 47.3175 30.1001 47.8701 31.0676V31.0732C48.4278 32.0464 48.7067 33.1301 48.7067 34.2077C48.7067 35.2853 48.4278 36.372 47.8701 37.3463C47.3175 38.3138 46.5255 39.1003 45.5921 39.6423" fill="#E3E3E3"/>
<path d="M42.4873 38.3471C43.2197 38.3471 43.9259 38.1503 44.5392 37.7918C45.1491 37.4375 45.669 36.9178 46.0371 36.2763C46.4007 35.6392 46.5825 34.925 46.5825 34.2085C46.5825 33.4919 46.401 32.7766 46.0382 32.1391L46.0371 32.1418C45.669 31.4991 45.1491 30.9801 44.5392 30.6262C43.9259 30.2678 43.2197 30.0717 42.4873 30.0717V30.0759C40.3896 30.0759 38.4895 30.9332 37.1157 32.3223C35.7408 33.7103 34.8906 35.6275 34.8906 37.7456C34.8906 39.8638 35.7408 41.7824 37.1157 43.1712C38.2549 44.3196 39.7528 45.1061 41.4257 45.3435V38.3452" fill="#B9B9B9"/>
</g>
<defs>
<clipPath id="clip0_4060_917">
<rect width="120" height="31" fill="white" transform="translate(30 23)"/>
</clipPath>
</defs>
</svg>
