<svg width="180" height="76" viewBox="0 0 180 76" fill="none" xmlns="http://www.w3.org/2000/svg">
<g clip-path="url(#clip0_4060_926)">
<path d="M78.845 45.2066H76.2504L74.2997 39.1865L72.3109 45.2066H69.7354L66.6104 35.3262H69.5268L71.1556 41.2726L73.0681 35.2894H75.5494L77.481 41.2911L79.1478 35.3262H82.0072L78.8439 45.2066H78.845Z" fill="#B9B9B9"/>
<path d="M87.8782 45.3529C84.7341 45.3529 82.4043 43.102 82.4043 40.2843V40.2475C82.4043 37.4298 84.7531 35.1421 87.9153 35.1421C91.0775 35.1421 93.3893 37.393 93.3893 40.2107V40.2475C93.3893 43.0652 91.0404 45.3529 87.8782 45.3529ZM90.549 40.2475C90.549 38.8018 89.4699 37.5393 87.8782 37.5393C86.2866 37.5393 85.2456 38.765 85.2456 40.2107V40.2475C85.2456 41.6932 86.3247 42.9557 87.9163 42.9557C89.508 42.9557 90.549 41.73 90.549 40.2843V40.2475Z" fill="#B9B9B9"/>
<path d="M101.513 45.1329V39.6622C101.513 38.3445 100.87 37.6681 99.7714 37.6681C98.6732 37.6681 97.9721 38.3454 97.9721 39.6622V45.1329H95.0938V35.3252H97.9721V36.7157C98.635 35.8921 99.4875 35.1421 100.946 35.1421C103.124 35.1421 104.393 36.5325 104.393 38.7834V45.1329H101.513Z" fill="#B9B9B9"/>
<path d="M113.843 45.133V43.7241C113.142 44.6388 112.176 45.3161 110.68 45.3161C108.313 45.3161 106.059 43.5226 106.059 40.2475V40.2107C106.059 36.9357 108.274 35.1421 110.68 35.1421C112.215 35.1421 113.161 35.8194 113.843 36.6062V31.776H116.723V45.133H113.843ZM113.881 40.2107C113.881 38.5819 112.764 37.5025 111.419 37.5025C110.074 37.5025 108.938 38.5635 108.938 40.2107V40.2475C108.938 41.8763 110.074 42.9558 111.419 42.9558C112.764 42.9558 113.881 41.8763 113.881 40.2475V40.2107Z" fill="#B9B9B9"/>
<path d="M123.294 33.99C122.631 33.99 122.252 34.3195 122.252 35.051V35.4357H124.581V37.705H122.29V45.1339H119.411V37.705H118.218V35.4173H119.411V34.7952C119.411 32.6364 120.528 31.6481 122.555 31.6481C123.464 31.6481 124.071 31.7576 124.6 31.9223V34.2284C124.184 34.0821 123.786 33.991 123.294 33.991V33.99Z" fill="#B9B9B9"/>
<path d="M131.436 45.133V44.072C130.735 44.8219 129.769 45.3161 128.368 45.3161C126.455 45.3161 124.883 44.2551 124.883 42.3153V42.2784C124.883 40.138 126.569 39.1497 128.974 39.1497C129.997 39.1497 130.735 39.3144 131.455 39.5518V39.3871C131.455 38.234 130.717 37.5936 129.277 37.5936C128.178 37.5936 127.402 37.7951 126.473 38.1245L125.753 36.0016C126.871 35.5258 127.969 35.2148 129.693 35.2148C132.837 35.2148 134.219 36.7884 134.219 39.4413V45.132H131.435L131.436 45.133ZM131.493 41.1806C131.001 40.9607 130.357 40.8144 129.656 40.8144C128.425 40.8144 127.667 41.2901 127.667 42.1689V42.2058C127.667 42.9557 128.311 43.3947 129.238 43.3947C130.583 43.3947 131.492 42.6815 131.492 41.6748V41.1806H131.493Z" fill="#B9B9B9"/>
<path d="M139.883 45.3161C138.463 45.3161 136.871 44.8588 135.527 43.8336L136.758 42.0033C137.856 42.7717 139.011 43.1747 139.958 43.1747C140.792 43.1747 141.171 42.8821 141.171 42.4432V42.4064C141.171 41.8027 140.186 41.6012 139.069 41.2717C137.649 40.8696 136.039 40.2291 136.039 38.3261V38.2893C136.039 36.2952 137.706 35.179 139.751 35.179C141.038 35.179 142.439 35.5995 143.539 36.3136L142.44 38.235C141.437 37.6682 140.433 37.3203 139.694 37.3203C138.956 37.3203 138.633 37.613 138.633 37.9976V38.0345C138.633 38.5838 139.599 38.8397 140.697 39.2059C142.118 39.6633 143.765 40.3221 143.765 42.1157V42.1525C143.765 44.3297 142.079 45.3181 139.883 45.3181V45.3161Z" fill="#B9B9B9"/>
<path d="M148.69 45.2977C146.928 45.2977 145.735 44.6204 145.735 42.3521V37.704H144.522V35.3252H145.735V32.8185H148.613V35.3252H150.999V37.704H148.613V41.8937C148.613 42.5342 148.897 42.8453 149.541 42.8453C150.072 42.8453 150.545 42.7174 150.961 42.4974V44.7299C150.355 45.0777 149.654 45.2967 148.689 45.2967L148.69 45.2977Z" fill="#B9B9B9"/>
<path d="M49.4936 38.2922L42.743 27H29L31.2505 30.7644H40.2477L44.8712 38.5015L42.6226 42.2658L37.9992 34.5297H33.5001L42.6226 49.7917L49.4936 38.2941V38.2922Z" fill="#E7E7E7"/>
<path d="M65.4882 27H51.7452L51.7432 27.0019L51.7412 27H47.2451V27.0019L49.4937 30.7644V30.7663L54.1151 38.4995L49.4937 46.2337V46.2356L51.7432 50L60.9891 34.5297H56.2403L53.9917 30.7644H63.2377L65.4882 27Z" fill="#B9B9B9"/>
</g>
<defs>
<clipPath id="clip0_4060_926">
<rect width="122" height="23" fill="white" transform="translate(29 27)"/>
</clipPath>
</defs>
</svg>
