<svg width="180" height="76" viewBox="0 0 180 76" fill="none" xmlns="http://www.w3.org/2000/svg">
<g clip-path="url(#clip0_4060_832)">
<path d="M36.4216 42.9098H28.5342L27.0296 46.639H23L30.5726 29.2366H34.4559L42.0524 46.6399H37.9261L36.4216 42.9107V42.9098ZM35.1838 39.8519L32.4903 33.1892L29.7959 39.8519H35.1838Z" fill="#B9B9B9"/>
<path d="M59.2929 46.639L59.2689 36.1972L54.2693 44.799H52.4979L47.5222 36.4206V46.639H43.833V29.2366H47.0851L53.4439 40.0516L59.706 29.2366H62.9342L62.983 46.6399H59.2938L59.2929 46.639Z" fill="#B9B9B9"/>
<path d="M107.312 46.7012L104.036 41.8531H100.42V46.7012H96.4883V29.2979H103.842C108.38 29.2979 111.22 31.7092 111.22 35.6128C111.22 38.223 109.934 40.1375 107.725 41.1075L111.536 46.7012H107.313H107.312ZM103.623 32.5802H100.42V38.6462H103.623C106.026 38.6462 107.239 37.5028 107.239 35.6128C107.239 33.7228 106.026 32.5793 103.623 32.5793V32.5802Z" fill="#B9B9B9"/>
<path d="M114.305 29.2979H118.236V46.7012H114.305V29.2979Z" fill="#B9B9B9"/>
<path d="M121.153 37.9996C121.153 32.7537 125.085 29 130.376 29C133.312 29 135.764 30.0935 137.366 32.0825L134.842 34.4693C133.701 33.127 132.269 32.4304 130.57 32.4304C127.391 32.4304 125.133 34.7173 125.133 37.9996C125.133 41.2818 127.391 43.5688 130.57 43.5688C132.269 43.5688 133.701 42.873 134.842 41.5053L137.366 43.8921C135.764 45.9056 133.313 47 130.352 47C125.085 47 121.153 43.2463 121.153 38.0004V37.9996Z" fill="#B9B9B9"/>
<path d="M151.369 42.9721H143.482L141.977 46.7012H137.948L145.52 29.2979H149.403L157 46.7012H152.874L151.369 42.9721ZM150.131 39.9141L147.437 33.2514L144.742 39.9141H150.13H150.131Z" fill="#B9B9B9"/>
<path d="M92.5691 29.2979H79.5205V32.5303H92.5691V29.2979Z" fill="#EBEBEB"/>
<path d="M92.5691 43.4689H66.9004V46.7012H92.5691V43.4689Z" fill="#EBEBEB"/>
<path d="M92.5691 36.3839H79.5205V39.6162H92.5691V36.3839Z" fill="#EBEBEB"/>
<path d="M70.0558 29.2979H66.9004V32.5303H70.0558V29.2979Z" fill="#B9B9B9"/>
<path d="M70.0558 36.3839H66.9004V39.6162H70.0558V36.3839Z" fill="#B9B9B9"/>
<path d="M76.3664 29.2979H73.2109V32.5303H76.3664V29.2979Z" fill="#B9B9B9"/>
<path d="M76.3664 36.3839H73.2109V39.6162H76.3664V36.3839Z" fill="#B9B9B9"/>
</g>
<defs>
<clipPath id="clip0_4060_832">
<rect width="134" height="18" fill="white" transform="translate(23 29)"/>
</clipPath>
</defs>
</svg>
