<svg width="180" height="76" viewBox="0 0 180 76" fill="none" xmlns="http://www.w3.org/2000/svg">
<g clip-path="url(#clip0_4368_24947)">
<path fill-rule="evenodd" clip-rule="evenodd" d="M69.2456 45.6594C69.2456 46.6038 70.0095 47.3677 70.9539 47.3677C71.8983 47.3677 72.6639 46.6038 72.6639 45.6594V32.3907C72.6639 31.4463 71.9 30.6824 70.9539 30.6824C70.0078 30.6824 69.2456 31.4463 69.2456 32.3907V45.6594Z" fill="#E3E3E3"/>
<path fill-rule="evenodd" clip-rule="evenodd" d="M85.1205 46.0405C85.3679 45.8148 85.5702 45.4788 85.5702 45.0292C85.5702 44.2653 85.0085 43.6803 84.243 43.6803C83.8836 43.6803 83.6579 43.7705 83.4105 43.9494C82.7135 44.4659 81.9262 44.7584 80.9818 44.7584C79.4523 44.7584 78.3725 43.9494 78.0365 42.3965H84.8063C85.7056 42.3965 86.4026 41.7446 86.4026 40.7551C86.4026 38.2594 84.6257 34.9531 80.6007 34.9531C77.0921 34.9531 74.6416 37.7864 74.6416 41.2281V41.2732C74.6416 44.9607 77.3177 47.5031 80.9383 47.5031C82.6918 47.5031 84.0641 46.9415 85.1205 46.0405ZM77.9914 40.2603C78.2605 38.7091 79.1832 37.6961 80.6007 37.6961C82.0181 37.6961 82.9392 38.7308 83.1414 40.2603H77.9914Z" fill="#E3E3E3"/>
<path fill-rule="evenodd" clip-rule="evenodd" d="M92.808 45.0956C91.7064 45.0956 90.9409 44.5557 90.9409 43.633V43.5879C90.9409 42.5081 91.8402 41.923 93.3028 41.923C94.1352 41.923 94.8991 42.1035 95.4841 42.3727V42.9794C95.4841 44.2164 94.4043 45.0939 92.808 45.0939M91.7733 47.4558C93.4382 47.4558 94.5848 46.8491 95.4156 45.9264V45.9481C95.4156 46.6685 96.0675 47.3656 97.0571 47.3656C97.9798 47.3656 98.7219 46.6468 98.7219 45.7241V40.2364C98.7219 38.6167 98.3174 37.2912 97.4181 36.3902C96.564 35.536 95.215 35.0413 93.3479 35.0413C91.7516 35.0413 90.5815 35.2669 89.5017 35.6714C88.9618 35.8737 88.579 36.3919 88.579 36.9986C88.579 37.7859 89.2092 38.3927 89.9965 38.3927C90.1536 38.3927 90.289 38.371 90.4912 38.3024C91.1431 38.1002 91.9087 37.9648 92.8531 37.9648C94.5614 37.9648 95.439 38.7521 95.439 40.1679V40.3701C94.5848 40.0776 93.7073 39.8754 92.4937 39.8754C89.6371 39.8754 87.6362 41.0906 87.6362 43.7216V43.7667C87.6362 46.1504 89.5033 47.4542 91.7733 47.4542V47.4558Z" fill="#E3E3E3"/>
<path fill-rule="evenodd" clip-rule="evenodd" d="M101.598 45.6589C101.598 46.6033 102.362 47.3672 103.307 47.3672C104.251 47.3672 105.015 46.6033 105.015 45.6589V38.1035H106.454C107.241 38.1035 107.872 37.4967 107.872 36.7094C107.872 35.9221 107.241 35.3154 106.454 35.3154H104.97V34.8423C104.97 33.943 105.419 33.5385 106.207 33.5385H106.499C107.263 33.5385 107.893 32.8866 107.893 32.121C107.893 31.3555 107.308 30.839 106.723 30.7487C106.34 30.6818 105.869 30.6584 105.329 30.6584C104.114 30.6584 103.193 30.9727 102.563 31.6029C101.933 32.233 101.597 33.1992 101.597 34.5264V35.2903H101.461C100.674 35.2903 100.044 35.9205 100.044 36.7078C100.044 37.4951 100.674 38.1018 101.461 38.1018H101.597V45.6572L101.598 45.6589Z" fill="#E3E3E3"/>
<path fill-rule="evenodd" clip-rule="evenodd" d="M108.861 45.6594C108.861 46.6038 109.625 47.3677 110.569 47.3677C111.514 47.3677 112.277 46.6038 112.277 45.6594V32.3907C112.277 31.4463 111.514 30.6824 110.569 30.6824C109.625 30.6824 108.861 31.4463 108.861 32.3907V45.6594Z" fill="#B9B9B9"/>
<path fill-rule="evenodd" clip-rule="evenodd" d="M121.7 44.5559C119.812 44.5559 118.529 43.0047 118.529 41.2278V41.1827C118.529 39.4058 119.7 37.8998 121.655 37.8998C123.611 37.8998 124.826 39.451 124.826 41.2278V41.273C124.826 43.0498 123.656 44.5559 121.7 44.5559ZM121.655 47.5011C125.411 47.5011 128.199 44.6896 128.199 41.2262V41.181C128.199 37.7176 125.433 34.9512 121.7 34.9512C117.968 34.9512 115.156 37.7627 115.156 41.2262V41.2713C115.156 44.7347 117.923 47.5011 121.655 47.5011Z" fill="#B9B9B9"/>
<path fill-rule="evenodd" clip-rule="evenodd" d="M135.82 43.4095C134.155 43.4095 132.897 42.2845 132.897 40.6213V40.5762C132.897 38.9347 134.155 37.7881 135.82 37.7881C137.485 37.7881 138.765 38.9347 138.765 40.5762V40.6213C138.765 42.2628 137.483 43.4095 135.82 43.4095ZM135.416 50.8763C137.754 50.8763 139.486 50.3815 140.611 49.2565C141.622 48.2453 142.14 46.6707 142.14 44.511V36.7517C142.14 35.8073 141.376 35.0434 140.432 35.0434C139.488 35.0434 138.722 35.8073 138.722 36.73V36.7517C137.799 35.7404 136.698 34.9531 134.832 34.9531C132.066 34.9531 129.48 36.9774 129.48 40.5745V40.6197C129.48 44.1951 132.021 46.2411 134.832 46.2411C136.654 46.2411 137.756 45.4989 138.767 44.2837V44.8687C138.767 47.0284 137.666 48.1516 135.327 48.1516C134.045 48.1516 132.989 47.8825 131.999 47.4329C131.842 47.366 131.661 47.3209 131.437 47.3209C130.673 47.3209 130.043 47.9511 130.043 48.715C130.043 49.3451 130.426 49.8165 131.011 50.0422C132.429 50.6038 133.823 50.8746 135.419 50.8746L135.416 50.8763Z" fill="#B9B9B9"/>
<path fill-rule="evenodd" clip-rule="evenodd" d="M150.501 44.5559C148.612 44.5559 147.33 43.0047 147.33 41.2278V41.1827C147.33 39.4058 148.5 37.8998 150.456 37.8998C152.412 37.8998 153.627 39.451 153.627 41.2278V41.273C153.627 43.0498 152.457 44.5559 150.501 44.5559ZM150.456 47.5011C154.212 47.5011 157 44.6896 157 41.2262V41.181C157 37.7176 154.234 34.9512 150.501 34.9512C146.769 34.9512 143.957 37.7627 143.957 41.2262V41.2713C143.957 44.7347 146.723 47.5011 150.456 47.5011Z" fill="#B9B9B9"/>
<path fill-rule="evenodd" clip-rule="evenodd" d="M123.805 52.7582H125.465C125.625 52.7582 125.756 52.6312 125.756 52.4707C125.756 52.3102 125.625 52.1798 125.465 52.1798H124.126V51.5597H125.252C125.413 51.5597 125.543 51.4327 125.543 51.2722C125.543 51.1117 125.413 50.9813 125.252 50.9813H124.126V50.3813H125.443C125.603 50.3813 125.734 50.2542 125.734 50.0938C125.734 49.9333 125.603 49.8029 125.443 49.8029H123.805C123.624 49.8029 123.481 49.9467 123.481 50.1289V52.4339C123.481 52.6161 123.624 52.7599 123.805 52.7599M120.26 51.2404V50.3913H120.905C121.221 50.3913 121.416 50.535 121.416 50.8142V50.8226C121.416 51.0716 121.234 51.2404 120.918 51.2404H120.26ZM119.609 52.4607C119.609 52.6429 119.753 52.7866 119.934 52.7866C120.114 52.7866 120.26 52.6429 120.26 52.4607V51.8154H120.779L121.413 52.6178C121.488 52.7147 121.587 52.7866 121.734 52.7866C121.889 52.7866 122.041 52.6679 122.041 52.4874C122.041 52.3854 122 52.3186 121.936 52.2384L121.485 51.6901C121.844 51.543 122.077 51.2555 122.077 50.7908V50.7824C122.077 50.5033 121.988 50.2709 121.822 50.1071C121.629 49.9132 121.336 49.8079 120.962 49.8079H119.935C119.753 49.8079 119.611 49.9517 119.611 50.1339V52.464L119.609 52.4607ZM116.286 52.7599H117.946C118.107 52.7599 118.237 52.6328 118.237 52.4724C118.237 52.3119 118.107 52.1815 117.946 52.1815H116.607V51.5614H117.734C117.894 51.5614 118.025 51.4343 118.025 51.2739C118.025 51.1134 117.894 50.983 117.734 50.983H116.607V50.3829H117.924C118.085 50.3829 118.215 50.2559 118.215 50.0954C118.215 49.935 118.085 49.8046 117.924 49.8046H116.286C116.104 49.8046 115.96 49.9483 115.96 50.1305V52.4356C115.96 52.6178 116.104 52.7615 116.286 52.7615V52.7599ZM111.934 52.4607C111.934 52.6429 112.077 52.7866 112.258 52.7866C112.438 52.7866 112.584 52.6429 112.584 52.4607V51.5747H113.782V52.4607C113.782 52.6429 113.926 52.7866 114.107 52.7866C114.287 52.7866 114.433 52.6429 114.433 52.4607V50.1055C114.433 49.9233 114.289 49.7795 114.107 49.7795C113.924 49.7795 113.782 49.9233 113.782 50.1055V50.9747H112.584V50.1055C112.584 49.9233 112.44 49.7795 112.258 49.7795C112.076 49.7795 111.934 49.9233 111.934 50.1055V52.4607ZM108.198 52.8033C108.835 52.8033 109.283 52.474 109.283 51.8873V51.879C109.283 51.3641 108.945 51.1485 108.345 50.993C107.833 50.8627 107.708 50.7991 107.708 50.6052V50.5969C107.708 50.4531 107.838 50.3395 108.087 50.3395C108.29 50.3395 108.492 50.4113 108.708 50.5384C108.758 50.5685 108.809 50.5852 108.871 50.5852C109.04 50.5852 109.176 50.4548 109.176 50.286C109.176 50.1589 109.104 50.0704 109.032 50.0286C108.766 49.8597 108.453 49.7661 108.094 49.7661C107.491 49.7661 107.059 50.1205 107.059 50.6571V50.6654C107.059 51.2521 107.444 51.4176 108.039 51.5681C108.532 51.6951 108.634 51.7787 108.634 51.9442V51.9525C108.634 52.1264 108.473 52.2317 108.208 52.2317C107.92 52.2317 107.676 52.1297 107.452 51.9659C107.41 51.9358 107.35 51.9074 107.267 51.9074C107.098 51.9074 106.962 52.0378 106.962 52.2066C106.962 52.3086 107.013 52.4005 107.084 52.4506C107.414 52.6863 107.807 52.805 108.194 52.805L108.198 52.8033ZM103.825 52.7615H105.485C105.645 52.7615 105.776 52.6345 105.776 52.474C105.776 52.3136 105.645 52.1832 105.485 52.1832H104.146V51.563H105.272C105.433 51.563 105.563 51.436 105.563 51.2755C105.563 51.1151 105.433 50.9847 105.272 50.9847H104.146V50.3846H105.463C105.624 50.3846 105.754 50.2576 105.754 50.0971C105.754 49.9366 105.624 49.8063 105.463 49.8063H103.825C103.643 49.8063 103.499 49.95 103.499 50.1322V52.4373C103.499 52.6195 103.643 52.7632 103.825 52.7632V52.7615ZM100.537 52.2133C100.014 52.2133 99.6427 51.7904 99.6427 51.2839V51.2755C99.6427 50.7691 100.005 50.3545 100.529 50.3545C101.052 50.3545 101.423 50.7774 101.423 51.2839V51.2923C101.423 51.7987 101.06 52.2133 100.537 52.2133ZM100.529 52.8134C101.441 52.8134 102.103 52.1247 102.103 51.2856V51.2772C102.103 50.4364 101.45 49.7578 100.537 49.7578C99.6243 49.7578 98.9624 50.4465 98.9624 51.2856V51.2939C98.9624 52.1347 99.616 52.8134 100.529 52.8134ZM96.3866 52.8134C96.8295 52.8134 97.1805 52.6663 97.4212 52.5175C97.5767 52.4256 97.6486 52.2935 97.6486 52.1046V51.3875C97.6486 51.2053 97.5048 51.0633 97.3243 51.0633H96.5805C96.425 51.0633 96.298 51.1903 96.298 51.3457C96.298 51.5012 96.425 51.6249 96.5805 51.6249H97.0201V52.0478C96.8546 52.1665 96.644 52.225 96.4083 52.225C95.8851 52.225 95.514 51.8288 95.514 51.2872V51.2789C95.514 50.7757 95.8901 50.3579 96.3632 50.3579C96.6423 50.3579 96.8312 50.4331 97.0084 50.5601C97.0552 50.5935 97.1137 50.627 97.2073 50.627C97.3845 50.627 97.5282 50.4832 97.5282 50.306C97.5282 50.179 97.4563 50.0904 97.3928 50.0436C97.127 49.8581 96.8312 49.7561 96.3832 49.7561C95.4889 49.7561 94.8337 50.4448 94.8337 51.2839V51.2923C94.8337 52.1665 95.4672 52.8117 96.3866 52.8117V52.8134ZM89.5432 52.4674C89.5432 52.6445 89.687 52.7883 89.8642 52.7883C90.0414 52.7883 90.1851 52.6445 90.1851 52.4674V50.8844L91.4856 52.5894C91.5742 52.703 91.6678 52.7799 91.8232 52.7799H91.845C92.0272 52.7799 92.1692 52.6362 92.1692 52.4556V50.1038C92.1692 49.9266 92.0255 49.7828 91.8483 49.7828C91.6711 49.7828 91.5274 49.9266 91.5274 50.1038V51.6282L90.2737 49.9818C90.1851 49.8681 90.0915 49.7912 89.9361 49.7912H89.8692C89.687 49.7912 89.5449 49.935 89.5449 50.1172V52.469L89.5432 52.4674ZM86.3356 51.5263L86.7451 50.5518L87.1546 51.5263H86.3356ZM85.2892 52.4841C85.2892 52.6529 85.4195 52.7883 85.5884 52.7883C85.7238 52.7883 85.8341 52.7114 85.8876 52.586L86.0948 52.1013H87.3953L87.5942 52.566C87.6527 52.7014 87.7547 52.79 87.9068 52.79C88.0806 52.79 88.2144 52.6512 88.2144 52.4774C88.2144 52.4356 88.201 52.3921 88.1809 52.347L87.1513 50.0202C87.0794 49.8597 86.9523 49.7628 86.7752 49.7628H86.7367C86.5595 49.7628 86.4292 49.8597 86.3573 50.0202L85.3276 52.347C85.3059 52.3938 85.2892 52.4406 85.2892 52.4857V52.4841ZM82.7852 52.8134C83.2281 52.8134 83.5792 52.6663 83.8199 52.5175C83.9753 52.4256 84.0472 52.2935 84.0472 52.1046V51.3875C84.0472 51.2053 83.9035 51.0633 83.7229 51.0633H82.9791C82.8236 51.0633 82.6966 51.1903 82.6966 51.3457C82.6966 51.5012 82.8236 51.6249 82.9791 51.6249H83.4187V52.0478C83.2549 52.1665 83.0426 52.225 82.8069 52.225C82.2837 52.225 81.9126 51.8288 81.9126 51.2872V51.2789C81.9126 50.7757 82.2887 50.3579 82.7618 50.3579C83.0409 50.3579 83.2298 50.4331 83.407 50.5601C83.4538 50.5935 83.5123 50.627 83.6059 50.627C83.7831 50.627 83.9269 50.4832 83.9269 50.306C83.9269 50.179 83.855 50.0904 83.7915 50.0436C83.5257 49.8581 83.2298 49.7561 82.7818 49.7561C81.8876 49.7561 81.2323 50.4448 81.2323 51.2839V51.2923C81.2323 52.1665 81.8658 52.8117 82.7852 52.8117V52.8134ZM78.399 52.2133C77.8759 52.2133 77.5048 51.7904 77.5048 51.2839V51.2755C77.5048 50.7691 77.8675 50.3545 78.3907 50.3545C78.9139 50.3545 79.285 50.7774 79.285 51.2839V51.2923C79.285 51.7987 78.9222 52.2133 78.399 52.2133ZM78.3907 52.8134C79.3017 52.8134 79.9653 52.1247 79.9653 51.2856V51.2772C79.9653 50.4364 79.31 49.7578 78.399 49.7578C77.4881 49.7578 76.8245 50.4465 76.8245 51.2856V51.2939C76.8245 52.1347 77.4797 52.8134 78.3907 52.8134ZM73.692 52.4373C73.692 52.6195 73.8357 52.7632 74.0163 52.7632H75.5441C75.7079 52.7632 75.8399 52.6328 75.8399 52.4674C75.8399 52.3019 75.7095 52.1715 75.5441 52.1715H74.3405V50.1071C74.3405 49.9249 74.1968 49.7812 74.0163 49.7812C73.8357 49.7812 73.692 49.9249 73.692 50.1071V52.4373ZM71.2231 52.805C71.86 52.805 72.3079 52.4757 72.3079 51.889V51.8806C72.3079 51.3658 71.9703 51.1502 71.3702 50.9947C70.8587 50.8643 70.7333 50.8008 70.7333 50.6069V50.5986C70.7333 50.4548 70.8637 50.3411 71.1128 50.3411C71.315 50.3411 71.5173 50.413 71.7329 50.5401C71.7831 50.5701 71.8349 50.5869 71.8984 50.5869C72.0672 50.5869 72.2026 50.4565 72.2026 50.2877C72.2026 50.1606 72.1308 50.072 72.0589 50.0302C71.7931 49.8614 71.4805 49.7678 71.1211 49.7678C70.5177 49.7678 70.0864 50.1222 70.0864 50.6587V50.6671C70.0864 51.2538 70.4709 51.4193 71.066 51.5697C71.5608 51.6968 71.661 51.7803 71.661 51.9458V51.9542C71.661 52.128 71.5006 52.2333 71.2348 52.2333C70.9473 52.2333 70.7033 52.1314 70.4793 51.9676C70.4375 51.9375 70.3773 51.9091 70.2937 51.9091C70.1249 51.9091 69.9895 52.0394 69.9895 52.2083C69.9895 52.3102 70.0397 52.4022 70.1115 52.4523C70.4408 52.688 70.8336 52.8067 71.2214 52.8067L71.2231 52.805Z" fill="#E3E3E3"/>
<path fill-rule="evenodd" clip-rule="evenodd" d="M58.1753 34.3413C60.8013 37.1746 62.4077 40.9673 62.4077 45.1345C62.4077 53.9068 55.2969 61.0175 46.5246 61.0175C37.7524 61.0175 30.6416 53.9068 30.6416 45.1345C30.6416 40.9673 32.248 37.1746 34.874 34.3413C32.9517 36.8286 31.8067 39.9477 31.8067 43.3342C31.8067 51.463 38.3959 58.0539 46.5263 58.0539C54.6567 58.0539 61.2459 51.4646 61.2459 43.3342C61.2459 39.9477 60.1009 36.8286 58.1786 34.3413" fill="#B9B9B9"/>
<path fill-rule="evenodd" clip-rule="evenodd" d="M51.2467 45.1277C60.6943 42.0437 64.4485 37.7795 66.1936 32.8836C68.0056 27.7987 67.6813 22.0319 70.9609 16.2734C43.8935 17.8748 38.3641 32.7933 44.8647 43.8239C45.7022 36.0161 51.7197 28.113 60.594 24.9956C48.9734 34.4381 44.5789 45.8046 47.1581 57.7462C48.1978 51.2622 49.5116 47.0733 51.2467 45.1277Z" fill="white"/>
<path fill-rule="evenodd" clip-rule="evenodd" d="M50.1231 44.3254C70.4157 37.6994 64.4967 26.3162 69.8373 15.4712C42.7683 17.0725 37.2388 31.9911 43.7411 43.0216C44.5786 35.2138 50.5961 27.3107 59.4704 24.1933C47.8515 31.4595 43.457 43.7404 46.0345 56.9439C47.0742 50.46 48.388 46.2711 50.1231 44.3254Z" fill="#B9B9B9"/>
<path fill-rule="evenodd" clip-rule="evenodd" d="M38.603 47.9977C29.7739 49.7378 30.1049 43.5414 22.9507 38.4298C34.1935 34.4716 39.9637 37.9634 40.6189 45.5706C38.0247 42.0821 33.5667 39.7888 29.4931 39.8857C36.4651 41.7211 41.2809 46.5401 43.6544 53.5623C41.4547 50.4131 39.7949 48.5544 38.603 47.9961" fill="white"/>
<path fill-rule="evenodd" clip-rule="evenodd" d="M39.2442 47.3556C30.415 49.0957 30.746 42.8993 23.5918 37.7877C34.8346 33.8295 40.6031 37.3214 41.26 44.9286C38.6641 41.44 34.2078 39.1467 30.1342 39.2436C37.1062 41.079 41.922 45.8981 44.2956 52.9202C42.0958 49.771 40.436 47.9123 39.2458 47.354" fill="#E3E3E3"/>
</g>
<defs>
<clipPath id="clip0_4368_24947">
<rect width="134.05" height="45.548" fill="white" transform="translate(22.9504 15.4712)"/>
</clipPath>
</defs>
</svg>
