<svg width="180" height="76" viewBox="0 0 180 76" fill="none" xmlns="http://www.w3.org/2000/svg">
<g clip-path="url(#clip0_4060_848)">
<path d="M62.3564 41.4415V29.5029H63.9682L67.6329 35.5416C68.4825 36.9396 69.1441 38.1988 69.6857 39.4207L69.7181 39.4038C69.5819 37.8095 69.5495 36.3574 69.5495 34.4991V29.5063H70.9407V41.4449H69.4489L65.8168 35.3893C65.019 34.0624 64.2569 32.6983 63.6796 31.4053L63.6277 31.4222C63.712 32.9285 63.7477 34.3637 63.7477 36.3472V41.4483H62.3564V41.4415Z" fill="#B9B9B9"/>
<path d="M83.297 35.3486C83.297 39.4579 80.9037 41.6344 77.9849 41.6344C75.0662 41.6344 72.8447 39.1905 72.8447 35.5788C72.8447 31.7877 75.1019 29.3099 78.1568 29.3099C81.2117 29.3099 83.297 31.808 83.297 35.3486ZM74.4241 35.5449C74.4241 38.0938 75.7472 40.3786 78.0725 40.3786C80.3977 40.3786 81.7371 38.1276 81.7371 35.4197C81.7371 33.0469 80.5502 30.5657 78.0887 30.5657C75.6272 30.5657 74.4241 32.9216 74.4241 35.5416V35.5449Z" fill="#B9B9B9"/>
<path d="M85.2129 29.662C85.9588 29.5029 87.029 29.4149 88.0473 29.4149C89.6267 29.4149 90.645 29.7162 91.3552 30.3898C91.9324 30.9212 92.2535 31.737 92.2535 32.6577C92.2535 34.235 91.3033 35.2776 90.0969 35.7041V35.7582C90.979 36.0764 91.5044 36.926 91.7768 38.1683C92.1497 39.8337 92.4221 40.9845 92.6589 41.4449H91.1314C90.9433 41.1098 90.6904 40.0808 90.3693 38.5948C90.0288 36.9463 89.4191 36.3269 88.0797 36.2761H86.6885V41.4483H85.2129V29.662ZM86.6885 35.0982H88.1997C89.7791 35.0982 90.7779 34.1944 90.7779 32.8303C90.7779 31.2902 89.7077 30.6166 88.1478 30.5996C87.4344 30.5996 86.9252 30.6707 86.6885 30.7418V35.0982Z" fill="#B9B9B9"/>
<path d="M96.6643 30.8129H93.1846V29.5029H101.652V30.8129H98.1561V41.4381H96.6643V30.8129Z" fill="#B9B9B9"/>
<path d="M104.402 29.5029V34.4957H109.935V29.5029H111.427V41.4415H109.935V35.8463H104.402V41.4415H102.927V29.5029H104.402Z" fill="#B9B9B9"/>
<path d="M117.958 41.5633C115.496 41.5633 113.596 40.2162 113.563 37.8806H116.109C116.177 38.8723 116.807 39.529 117.909 39.529C119.012 39.529 119.69 38.9096 119.69 38.0227C119.69 35.3486 113.58 36.9599 113.599 32.4782C113.599 30.2476 115.331 28.9004 117.773 28.9004C120.215 28.9004 121.862 30.1934 122.015 32.4241H119.401C119.349 31.6083 118.723 30.972 117.705 30.955C116.771 30.9212 116.077 31.3985 116.077 32.4072C116.077 34.8883 122.151 33.5039 122.151 37.8636C122.151 39.8133 120.659 41.5667 117.961 41.5667L117.958 41.5633Z" fill="#B9B9B9"/>
<path d="M123.575 29.0764H132.263V31.0769H129.108V41.4381H126.731V31.0769H123.575V29.0764Z" fill="#B9B9B9"/>
<path d="M141.256 39.0856H136.541L135.76 41.4415H133.266L137.524 29.0629H140.29L144.548 41.4415H142.038L141.256 39.0856ZM138.899 31.9299L137.186 37.102H140.614L138.902 31.9299H138.899Z" fill="#B9B9B9"/>
<path d="M150.586 29.0764C153.436 29.0764 154.863 30.796 154.863 32.8675C154.863 34.3738 154.066 35.897 152.165 36.4284L155 41.4415H152.25L149.636 36.6248H148.517V41.4415H146.14V29.0764H150.586ZM150.502 31.1311H148.517V34.7631H150.502C151.825 34.7631 152.418 34.0353 152.418 32.9217C152.418 31.808 151.825 31.1344 150.502 31.1344V31.1311Z" fill="#B9B9B9"/>
<path d="M65.0219 49.1218C64.85 49.2132 64.503 49.3012 64.0619 49.3012C63.0372 49.3012 62.2686 48.6276 62.2686 47.382C62.2686 46.1363 63.0404 45.3917 64.1657 45.3917C64.6197 45.3917 64.9051 45.4932 65.0284 45.5609L64.9149 45.9603C64.7365 45.8689 64.4835 45.8012 64.1819 45.8012C63.329 45.8012 62.7647 46.3699 62.7647 47.3651C62.7647 48.2925 63.2771 48.8883 64.1592 48.8883C64.4446 48.8883 64.7365 48.8274 64.9246 48.7326L65.0219 49.1218Z" fill="#B9B9B9"/>
<path d="M70.7554 47.3109C70.7554 48.6141 69.9966 49.308 69.0691 49.308C68.1415 49.308 67.4346 48.5328 67.4346 47.3853C67.4346 46.1803 68.1513 45.395 69.1209 45.395C70.0906 45.395 70.7522 46.1871 70.7522 47.3143L70.7554 47.3109ZM67.9372 47.3718C67.9372 48.1808 68.3588 48.9086 69.095 48.9086C69.8312 48.9086 70.2592 48.1943 70.2592 47.3346C70.2592 46.5797 69.8831 45.7944 69.1015 45.7944C68.3199 45.7944 67.9372 46.5425 67.9372 47.3752V47.3718Z" fill="#B9B9B9"/>
<path d="M73.5215 49.2471V45.456H74.0339L75.1981 47.3752C75.4673 47.8187 75.6781 48.2181 75.85 48.6073L75.8597 48.6006C75.8176 48.0928 75.8046 47.6325 75.8046 47.0435V45.456H76.2456V49.2471H75.7721L74.6176 47.3245C74.3647 46.9014 74.1214 46.4681 73.9398 46.0585L73.9236 46.0653C73.9496 46.5426 73.9625 46.9995 73.9625 47.6291V49.2505H73.5215V49.2471Z" fill="#B9B9B9"/>
<path d="M79.1581 48.6513C79.3689 48.7867 79.677 48.8984 79.998 48.8984C80.478 48.8984 80.7569 48.6344 80.7569 48.2519C80.7569 47.8965 80.5623 47.6968 80.0726 47.4971C79.4791 47.277 79.1127 46.9588 79.1127 46.424C79.1127 45.8351 79.5829 45.395 80.2866 45.395C80.6596 45.395 80.9288 45.4864 81.0909 45.5812L80.9612 45.9806C80.8412 45.9129 80.6012 45.8012 80.2704 45.8012C79.7742 45.8012 79.5862 46.1092 79.5862 46.3699C79.5862 46.7253 79.8067 46.8979 80.3094 47.101C80.9223 47.3481 81.2369 47.6595 81.2369 48.2147C81.2369 48.8002 80.8218 49.3046 79.9656 49.3046C79.6153 49.3046 79.2327 49.1963 79.0381 49.0643L79.1581 48.6547V48.6513Z" fill="#B9B9B9"/>
<path d="M84.5057 45.456V47.7002C84.5057 48.5498 84.8657 48.9086 85.3521 48.9086C85.8905 48.9086 86.2375 48.5362 86.2375 47.7002V45.456H86.711V47.6663C86.711 48.8307 86.124 49.308 85.3359 49.308C84.5933 49.308 84.0322 48.8646 84.0322 47.6866V45.4526H84.5057V45.456Z" fill="#B9B9B9"/>
<path d="M89.6787 45.456H90.1489V48.8375H91.7024V49.2471H89.682V45.456H89.6787Z" fill="#B9B9B9"/>
<path d="M94.5951 45.8723H93.4893V45.456H96.1777V45.8723H95.0686V49.2471H94.5951V45.8723Z" fill="#B9B9B9"/>
<path d="M99.2095 45.456V49.2471H98.7393V45.456H99.2095Z" fill="#B9B9B9"/>
<path d="M102.184 49.2471V45.456H102.696L103.86 47.3752C104.129 47.8187 104.34 48.2181 104.512 48.6073L104.522 48.6006C104.48 48.0928 104.467 47.6325 104.467 47.0435V45.456H104.908V49.2471H104.434L103.28 47.3245C103.027 46.9014 102.784 46.4681 102.602 46.0585L102.586 46.0653C102.612 46.5426 102.625 46.9995 102.625 47.6291V49.2505H102.184V49.2471Z" fill="#B9B9B9"/>
<path d="M110.651 49.0778C110.44 49.1557 110.025 49.2843 109.536 49.2843C108.984 49.2843 108.534 49.1388 108.177 48.7833C107.865 48.4685 107.671 47.9608 107.671 47.3718C107.677 46.2413 108.42 45.4153 109.636 45.4153C110.058 45.4153 110.385 45.5101 110.541 45.5914L110.427 45.9908C110.233 45.8994 109.99 45.8283 109.623 45.8283C108.741 45.8283 108.164 46.4037 108.164 47.3515C108.164 48.2993 108.718 48.8815 109.565 48.8815C109.873 48.8815 110.084 48.8375 110.191 48.7799V47.6494H109.451V47.2567H110.648V49.0778H110.651Z" fill="#B9B9B9"/>
<path d="M116.823 45.5067C117.028 45.4627 117.352 45.4289 117.679 45.4289C118.15 45.4289 118.451 45.5135 118.675 45.7031C118.863 45.8486 118.977 46.0754 118.977 46.3733C118.977 46.7389 118.746 47.0604 118.364 47.206V47.2161C118.707 47.3075 119.113 47.6054 119.113 48.1673C119.113 48.4922 118.99 48.7427 118.805 48.9255C118.552 49.1658 118.143 49.2809 117.55 49.2809C117.225 49.2809 116.979 49.2572 116.823 49.2369V45.5067ZM117.293 47.0604H117.718C118.214 47.0604 118.506 46.7896 118.506 46.4241C118.506 45.9806 118.182 45.8046 117.709 45.8046C117.491 45.8046 117.368 45.8215 117.293 45.8385V47.0604ZM117.293 48.8781C117.384 48.895 117.52 48.9018 117.686 48.9018C118.172 48.9018 118.617 48.7156 118.617 48.1639C118.617 47.646 118.192 47.4328 117.679 47.4328H117.29V48.8781H117.293Z" fill="#B9B9B9"/>
<path d="M122.368 45.456V47.7002C122.368 48.5498 122.728 48.9086 123.214 48.9086C123.753 48.9086 124.1 48.5362 124.1 47.7002V45.456H124.573V47.6663C124.573 48.8307 123.986 49.308 123.198 49.308C122.456 49.308 121.895 48.8646 121.895 47.6866V45.4526H122.368V45.456Z" fill="#B9B9B9"/>
<path d="M127.479 48.6513C127.69 48.7867 127.995 48.8984 128.319 48.8984C128.799 48.8984 129.078 48.6344 129.078 48.2519C129.078 47.8965 128.884 47.6968 128.394 47.4971C127.8 47.277 127.434 46.9588 127.434 46.424C127.434 45.8351 127.904 45.395 128.608 45.395C128.981 45.395 129.25 45.4864 129.412 45.5812L129.282 45.9806C129.162 45.9129 128.923 45.8012 128.592 45.8012C128.096 45.8012 127.907 46.1092 127.907 46.3699C127.907 46.7253 128.128 46.8979 128.631 47.101C129.244 47.3481 129.558 47.6595 129.558 48.2147C129.558 48.8002 129.143 49.3046 128.287 49.3046C127.937 49.3046 127.554 49.1963 127.359 49.0643L127.479 48.6547V48.6513Z" fill="#B9B9B9"/>
<path d="M132.827 45.456V49.2471H132.356V45.456H132.827Z" fill="#B9B9B9"/>
<path d="M135.801 49.2471V45.456H136.313L137.477 47.3752C137.747 47.8187 137.957 48.2181 138.129 48.6073L138.139 48.6006C138.097 48.0928 138.084 47.6325 138.084 47.0435V45.456H138.525V49.2471H138.051L136.897 47.3245C136.644 46.9014 136.401 46.4681 136.219 46.0585L136.203 46.0653C136.229 46.5426 136.242 46.9995 136.242 47.6291V49.2505H135.801V49.2471Z" fill="#B9B9B9"/>
<path d="M143.383 47.47H141.972V48.8375H143.545V49.2471H141.502V45.456H143.464V45.8656H141.972V47.0638H143.383V47.47Z" fill="#B9B9B9"/>
<path d="M146.247 48.6513C146.458 48.7867 146.766 48.8984 147.087 48.8984C147.567 48.8984 147.846 48.6344 147.846 48.2519C147.846 47.8965 147.651 47.6968 147.161 47.4971C146.568 47.277 146.202 46.9588 146.202 46.424C146.202 45.8351 146.672 45.395 147.376 45.395C147.748 45.395 148.018 45.4864 148.18 45.5812L148.05 45.9806C147.93 45.9129 147.69 45.8012 147.359 45.8012C146.863 45.8012 146.675 46.1092 146.675 46.3699C146.675 46.7253 146.896 46.8979 147.398 47.101C148.011 47.3481 148.326 47.6595 148.326 48.2147C148.326 48.8002 147.911 49.3046 147.054 49.3046C146.704 49.3046 146.322 49.1963 146.127 49.0643L146.247 48.6547V48.6513Z" fill="#B9B9B9"/>
<path d="M151.059 48.6513C151.27 48.7867 151.578 48.8984 151.899 48.8984C152.379 48.8984 152.658 48.6344 152.658 48.2519C152.658 47.8965 152.464 47.6968 151.974 47.4971C151.381 47.277 151.014 46.9588 151.014 46.424C151.014 45.8351 151.484 45.395 152.188 45.395C152.561 45.395 152.83 45.4864 152.992 45.5812L152.863 45.9806C152.743 45.9129 152.503 45.8012 152.172 45.8012C151.676 45.8012 151.488 46.1092 151.488 46.3699C151.488 46.7253 151.708 46.8979 152.211 47.101C152.824 47.3481 153.138 47.6595 153.138 48.2147C153.138 48.8002 152.723 49.3046 151.867 49.3046C151.517 49.3046 151.134 49.1963 150.939 49.0643L151.059 48.6547V48.6513Z" fill="#B9B9B9"/>
<path d="M65.0219 49.1218C64.85 49.2132 64.503 49.3012 64.0619 49.3012C63.0372 49.3012 62.2686 48.6276 62.2686 47.382C62.2686 46.1363 63.0404 45.3917 64.1657 45.3917C64.6197 45.3917 64.9051 45.4932 65.0284 45.5609L64.9149 45.9603C64.7365 45.8689 64.4835 45.8012 64.1819 45.8012C63.329 45.8012 62.7647 46.3699 62.7647 47.3651C62.7647 48.2925 63.2771 48.8883 64.1592 48.8883C64.4446 48.8883 64.7365 48.8274 64.9246 48.7326L65.0219 49.1218Z" fill="#B9B9B9"/>
<path d="M70.7554 47.3109C70.7554 48.6141 69.9966 49.308 69.0691 49.308C68.1415 49.308 67.4346 48.5328 67.4346 47.3853C67.4346 46.1803 68.1513 45.395 69.1209 45.395C70.0906 45.395 70.7522 46.1871 70.7522 47.3143L70.7554 47.3109ZM67.9372 47.3718C67.9372 48.1808 68.3588 48.9086 69.095 48.9086C69.8312 48.9086 70.2592 48.1943 70.2592 47.3346C70.2592 46.5797 69.8831 45.7944 69.1015 45.7944C68.3199 45.7944 67.9372 46.5425 67.9372 47.3752V47.3718Z" fill="#B9B9B9"/>
<path d="M73.5215 49.2471V45.456H74.0339L75.1981 47.3752C75.4673 47.8187 75.6781 48.2181 75.85 48.6073L75.8597 48.6006C75.8176 48.0928 75.8046 47.6325 75.8046 47.0435V45.456H76.2456V49.2471H75.7721L74.6176 47.3245C74.3647 46.9014 74.1214 46.4681 73.9398 46.0585L73.9236 46.0653C73.9496 46.5426 73.9625 46.9995 73.9625 47.6291V49.2505H73.5215V49.2471Z" fill="#B9B9B9"/>
<path d="M79.1581 48.6513C79.3689 48.7867 79.677 48.8984 79.998 48.8984C80.478 48.8984 80.7569 48.6344 80.7569 48.2519C80.7569 47.8965 80.5623 47.6968 80.0726 47.4971C79.4791 47.277 79.1127 46.9588 79.1127 46.424C79.1127 45.8351 79.5829 45.395 80.2866 45.395C80.6596 45.395 80.9288 45.4864 81.0909 45.5812L80.9612 45.9806C80.8412 45.9129 80.6012 45.8012 80.2704 45.8012C79.7742 45.8012 79.5862 46.1092 79.5862 46.3699C79.5862 46.7253 79.8067 46.8979 80.3094 47.101C80.9223 47.3481 81.2369 47.6595 81.2369 48.2147C81.2369 48.8002 80.8218 49.3046 79.9656 49.3046C79.6153 49.3046 79.2327 49.1963 79.0381 49.0643L79.1581 48.6547V48.6513Z" fill="#B9B9B9"/>
<path d="M84.5057 45.456V47.7002C84.5057 48.5498 84.8657 48.9086 85.3521 48.9086C85.8905 48.9086 86.2375 48.5362 86.2375 47.7002V45.456H86.711V47.6663C86.711 48.8307 86.124 49.308 85.3359 49.308C84.5933 49.308 84.0322 48.8646 84.0322 47.6866V45.4526H84.5057V45.456Z" fill="#B9B9B9"/>
<path d="M89.6787 45.456H90.1489V48.8375H91.7024V49.2471H89.682V45.456H89.6787Z" fill="#B9B9B9"/>
<path d="M94.5951 45.8723H93.4893V45.456H96.1777V45.8723H95.0686V49.2471H94.5951V45.8723Z" fill="#B9B9B9"/>
<path d="M99.2095 45.456V49.2471H98.7393V45.456H99.2095Z" fill="#B9B9B9"/>
<path d="M102.184 49.2471V45.456H102.696L103.86 47.3752C104.129 47.8187 104.34 48.2181 104.512 48.6073L104.522 48.6006C104.48 48.0928 104.467 47.6325 104.467 47.0435V45.456H104.908V49.2471H104.434L103.28 47.3245C103.027 46.9014 102.784 46.4681 102.602 46.0585L102.586 46.0653C102.612 46.5426 102.625 46.9995 102.625 47.6291V49.2505H102.184V49.2471Z" fill="#B9B9B9"/>
<path d="M110.651 49.0778C110.44 49.1557 110.025 49.2843 109.536 49.2843C108.984 49.2843 108.534 49.1388 108.177 48.7833C107.865 48.4685 107.671 47.9608 107.671 47.3718C107.677 46.2413 108.42 45.4153 109.636 45.4153C110.058 45.4153 110.385 45.5101 110.541 45.5914L110.427 45.9908C110.233 45.8994 109.99 45.8283 109.623 45.8283C108.741 45.8283 108.164 46.4037 108.164 47.3515C108.164 48.2993 108.718 48.8815 109.565 48.8815C109.873 48.8815 110.084 48.8375 110.191 48.7799V47.6494H109.451V47.2567H110.648V49.0778H110.651Z" fill="#B9B9B9"/>
<path d="M116.823 45.5067C117.028 45.4627 117.352 45.4289 117.679 45.4289C118.15 45.4289 118.451 45.5135 118.675 45.7031C118.863 45.8486 118.977 46.0754 118.977 46.3733C118.977 46.7389 118.746 47.0604 118.364 47.206V47.2161C118.707 47.3075 119.113 47.6054 119.113 48.1673C119.113 48.4922 118.99 48.7427 118.805 48.9255C118.552 49.1658 118.143 49.2809 117.55 49.2809C117.225 49.2809 116.979 49.2572 116.823 49.2369V45.5067ZM117.293 47.0604H117.718C118.214 47.0604 118.506 46.7896 118.506 46.4241C118.506 45.9806 118.182 45.8046 117.709 45.8046C117.491 45.8046 117.368 45.8215 117.293 45.8385V47.0604ZM117.293 48.8781C117.384 48.895 117.52 48.9018 117.686 48.9018C118.172 48.9018 118.617 48.7156 118.617 48.1639C118.617 47.646 118.192 47.4328 117.679 47.4328H117.29V48.8781H117.293Z" fill="#B9B9B9"/>
<path d="M122.368 45.456V47.7002C122.368 48.5498 122.728 48.9086 123.214 48.9086C123.753 48.9086 124.1 48.5362 124.1 47.7002V45.456H124.573V47.6663C124.573 48.8307 123.986 49.308 123.198 49.308C122.456 49.308 121.895 48.8646 121.895 47.6866V45.4526H122.368V45.456Z" fill="#B9B9B9"/>
<path d="M127.479 48.6513C127.69 48.7867 127.995 48.8984 128.319 48.8984C128.799 48.8984 129.078 48.6344 129.078 48.2519C129.078 47.8965 128.884 47.6968 128.394 47.4971C127.8 47.277 127.434 46.9588 127.434 46.424C127.434 45.8351 127.904 45.395 128.608 45.395C128.981 45.395 129.25 45.4864 129.412 45.5812L129.282 45.9806C129.162 45.9129 128.923 45.8012 128.592 45.8012C128.096 45.8012 127.907 46.1092 127.907 46.3699C127.907 46.7253 128.128 46.8979 128.631 47.101C129.244 47.3481 129.558 47.6595 129.558 48.2147C129.558 48.8002 129.143 49.3046 128.287 49.3046C127.937 49.3046 127.554 49.1963 127.359 49.0643L127.479 48.6547V48.6513Z" fill="#B9B9B9"/>
<path d="M132.827 45.456V49.2471H132.356V45.456H132.827Z" fill="#B9B9B9"/>
<path d="M135.801 49.2471V45.456H136.313L137.477 47.3752C137.747 47.8187 137.957 48.2181 138.129 48.6073L138.139 48.6006C138.097 48.0928 138.084 47.6325 138.084 47.0435V45.456H138.525V49.2471H138.051L136.897 47.3245C136.644 46.9014 136.401 46.4681 136.219 46.0585L136.203 46.0653C136.229 46.5426 136.242 46.9995 136.242 47.6291V49.2505H135.801V49.2471Z" fill="#B9B9B9"/>
<path d="M143.383 47.47H141.972V48.8375H143.545V49.2471H141.502V45.456H143.464V45.8656H141.972V47.0638H143.383V47.47Z" fill="#B9B9B9"/>
<path d="M146.247 48.6513C146.458 48.7867 146.766 48.8984 147.087 48.8984C147.567 48.8984 147.846 48.6344 147.846 48.2519C147.846 47.8965 147.651 47.6968 147.161 47.4971C146.568 47.277 146.202 46.9588 146.202 46.424C146.202 45.8351 146.672 45.395 147.376 45.395C147.748 45.395 148.018 45.4864 148.18 45.5812L148.05 45.9806C147.93 45.9129 147.69 45.8012 147.359 45.8012C146.863 45.8012 146.675 46.1092 146.675 46.3699C146.675 46.7253 146.896 46.8979 147.398 47.101C148.011 47.3481 148.326 47.6595 148.326 48.2147C148.326 48.8002 147.911 49.3046 147.054 49.3046C146.704 49.3046 146.322 49.1963 146.127 49.0643L146.247 48.6547V48.6513Z" fill="#B9B9B9"/>
<path d="M151.059 48.6513C151.27 48.7867 151.578 48.8984 151.899 48.8984C152.379 48.8984 152.658 48.6344 152.658 48.2519C152.658 47.8965 152.464 47.6968 151.974 47.4971C151.381 47.277 151.014 46.9588 151.014 46.424C151.014 45.8351 151.484 45.395 152.188 45.395C152.561 45.395 152.83 45.4864 152.992 45.5812L152.863 45.9806C152.743 45.9129 152.503 45.8012 152.172 45.8012C151.676 45.8012 151.488 46.1092 151.488 46.3699C151.488 46.7253 151.708 46.8979 152.211 47.101C152.824 47.3481 153.138 47.6595 153.138 48.2147C153.138 48.8002 152.723 49.3046 151.867 49.3046C151.517 49.3046 151.134 49.1963 150.939 49.0643L151.059 48.6547V48.6513Z" fill="#B9B9B9"/>
<path d="M50.911 48.0429C55.9605 42.7725 55.9605 34.2275 50.911 28.9571C45.8615 23.6868 37.6747 23.6868 32.6253 28.9571C27.5758 34.2275 27.5758 42.7725 32.6253 48.0429C37.6747 53.3132 45.8615 53.3132 50.911 48.0429Z" stroke="#E3E3E3" stroke-miterlimit="10"/>
<path d="M40.1097 41.0996V36.4893H40.7323L42.1463 38.8216C42.4739 39.3631 42.7301 39.8472 42.9376 40.3177L42.9506 40.3109C42.8987 39.6949 42.8857 39.1363 42.8857 38.4154V36.486H43.4241V41.0962H42.8468L41.4458 38.7572C41.1377 38.2461 40.8426 37.7181 40.6188 37.2171L40.5994 37.2239C40.6318 37.8061 40.6448 38.3578 40.6448 39.1262V41.0962H40.1064L40.1097 41.0996Z" fill="#E3E3E3"/>
<path d="M42.9761 34.411H40.5568L41.7665 21L42.9761 34.411ZM41.7665 56L42.9761 42.589H40.5568L41.7665 56ZM58.5329 38.5L45.684 37.2374V39.7626L58.5329 38.5ZM25 38.5L37.8489 39.7626V37.2374L25 38.5Z" fill="#EBEBEB"/>
<path d="M45.5935 35.8597L44.4941 34.7123L50.8829 29.1915L45.5935 35.8597ZM32.6992 29.1915L37.9886 35.8597L39.088 34.7123L32.6992 29.1915ZM32.6992 47.8356L39.088 42.3148L37.9886 41.1673L32.6992 47.8356ZM50.8796 47.8356L45.5903 41.1673L44.4909 42.3148L50.8796 47.8356Z" fill="#B9B9B9"/>
<path d="M38.144 28.6499C38.0661 28.457 37.8521 28.3689 37.6705 28.4502C37.4856 28.5314 37.4013 28.7548 37.4791 28.9444C37.557 29.1373 37.771 29.2253 37.9526 29.1441C38.1375 29.0629 38.2218 28.8394 38.144 28.6499Z" fill="#B9B9B9"/>
<path d="M46.0541 48.0522C45.9763 47.8593 45.7622 47.7713 45.5806 47.8525C45.3958 47.9338 45.3115 48.1572 45.3893 48.3467C45.4671 48.5397 45.6812 48.6277 45.8628 48.5464C46.0476 48.4652 46.1319 48.2418 46.0541 48.0522Z" fill="#B9B9B9"/>
<path d="M51.2036 34.719C51.3884 34.6378 51.4728 34.4144 51.3949 34.2248C51.3171 34.0319 51.1031 33.9439 50.9214 34.0251C50.7366 34.1064 50.6523 34.3298 50.7301 34.5193C50.8079 34.7089 51.022 34.8003 51.2036 34.719Z" fill="#B9B9B9"/>
<path d="M32.6147 42.9748C32.7996 42.8936 32.8839 42.6702 32.8061 42.4806C32.7282 42.2877 32.5142 42.1997 32.3326 42.2809C32.1477 42.3622 32.0634 42.5856 32.1412 42.7751C32.2191 42.9681 32.4331 43.0561 32.6147 42.9748Z" fill="#B9B9B9"/>
<path d="M45.8781 28.8632C45.9527 28.6702 45.8619 28.4502 45.677 28.3723C45.4922 28.2945 45.2814 28.3893 45.2068 28.5822C45.1322 28.7752 45.223 28.9952 45.4078 29.073C45.5927 29.1509 45.8035 29.0561 45.8781 28.8632Z" fill="#B9B9B9"/>
<path d="M38.3253 48.4178C38.3999 48.2248 38.3091 48.0048 38.1243 47.927C37.9394 47.8491 37.7286 47.9439 37.654 48.1368C37.5795 48.3298 37.6703 48.5498 37.8551 48.6277C38.04 48.7055 38.2508 48.6107 38.3253 48.4178Z" fill="#B9B9B9"/>
<path d="M32.5335 34.2079C32.3486 34.1301 32.1378 34.2248 32.0632 34.4178C31.9886 34.6107 32.0794 34.8307 32.2643 34.9086C32.4491 34.9864 32.6599 34.8917 32.7345 34.6987C32.8091 34.5058 32.7183 34.2858 32.5335 34.2079Z" fill="#B9B9B9"/>
<path d="M51.2688 42.0914C51.084 42.0136 50.8732 42.1083 50.7986 42.3013C50.724 42.4942 50.8148 42.7142 50.9996 42.7921C51.1845 42.8699 51.3953 42.7752 51.4699 42.5822C51.5445 42.3893 51.4537 42.1693 51.2688 42.0914Z" fill="#B9B9B9"/>
</g>
<defs>
<clipPath id="clip0_4060_848">
<rect width="130" height="35" fill="white" transform="translate(25 21)"/>
</clipPath>
</defs>
</svg>
