<svg width="231" height="60" viewBox="0 0 231 60" fill="none" xmlns="http://www.w3.org/2000/svg">
<rect width="60" height="60" rx="16" fill="#DCA546"/>
<path d="M44.158 21.277C45.7351 19.6456 47.5845 16.2954 45.6787 14.3202C45.3684 14.0069 44.9879 13.7721 44.5687 13.6354C44.1495 13.4986 43.7037 13.4637 43.2683 13.5337C41.5458 13.7982 39.9531 14.6069 38.7233 15.8416L34.8877 19.6772L32.5915 19.1774C33.5822 17.6601 31.5334 15.964 30.2278 17.2496L29.068 18.4094L26.3469 17.8168C28.0423 16.3999 26.0224 14.0218 24.3683 15.4601L22.787 17.0413L17.155 15.8148C16.9375 15.7671 16.7115 15.775 16.4979 15.8378C16.2843 15.9005 16.0899 16.016 15.9327 16.1737L14.799 17.3074C14.1754 17.8966 14.3328 19.0172 15.096 19.4104L28.3228 26.7172L21.6272 34.0432L14.8272 34.4048L13.7739 35.4574C13.2947 35.9104 13.4797 36.7836 14.1039 36.9987L20.541 39.4572L23.0002 45.895C23.2174 46.5172 24.0864 46.7062 24.5422 46.2236L25.5941 45.1717L25.9557 38.371L33.2817 31.6754L40.5837 44.8974C40.9769 45.6606 42.0968 45.8187 42.6867 45.1951C43.3213 44.4636 44.422 43.8717 44.18 42.8397L42.9555 37.2132L44.5388 35.6306C44.8283 35.3412 44.9878 34.9562 44.9878 34.5464C44.9816 33.0463 43.08 32.4791 42.1807 33.6527L41.5888 30.9316L42.7493 29.7711C44.0335 28.46 42.3567 26.4449 40.8222 27.4109L40.3217 25.1112L44.158 21.277Z" fill="white"/>
<path d="M84.18 31.33C82.56 31.33 81.06 31.06 79.68 30.52C78.32 29.96 77.12 29.18 76.08 28.18C75.06 27.18 74.26 26.02 73.68 24.7C73.12 23.36 72.84 21.91 72.84 20.35C72.84 18.77 73.13 17.32 73.71 16C74.31 14.66 75.14 13.5 76.2 12.52C77.26 11.52 78.49 10.75 79.89 10.21C81.31 9.65 82.82 9.37 84.42 9.37C86.32 9.37 88.04 9.71 89.58 10.39C91.12 11.05 92.37 11.97 93.33 13.15L89.73 16.75C89.01 15.89 88.22 15.25 87.36 14.83C86.5 14.39 85.5 14.17 84.36 14.17C83.2 14.17 82.16 14.43 81.24 14.95C80.34 15.45 79.62 16.16 79.08 17.08C78.54 18 78.27 19.08 78.27 20.32C78.27 21.56 78.52 22.65 79.02 23.59C79.54 24.53 80.24 25.26 81.12 25.78C82.02 26.3 83.05 26.56 84.21 26.56C85.37 26.56 86.35 26.34 87.15 25.9C87.97 25.46 88.59 24.82 89.01 23.98C89.45 23.14 89.67 22.14 89.67 20.98L93.3 23.32L83.61 23.08V18.7H95.07V19.51C95.07 22.05 94.61 24.2 93.69 25.96C92.77 27.72 91.49 29.06 89.85 29.98C88.23 30.88 86.34 31.33 84.18 31.33ZM97.2605 31V9.13H102.48V31H97.2605ZM112.781 31.33C111.201 31.33 109.791 31 108.551 30.34C107.331 29.66 106.361 28.74 105.641 27.58C104.921 26.4 104.561 25.08 104.561 23.62C104.561 22.16 104.911 20.86 105.611 19.72C106.331 18.56 107.311 17.65 108.551 16.99C109.791 16.31 111.191 15.97 112.751 15.97C114.311 15.97 115.701 16.31 116.921 16.99C118.161 17.65 119.141 18.56 119.861 19.72C120.581 20.86 120.941 22.16 120.941 23.62C120.941 25.08 120.581 26.4 119.861 27.58C119.161 28.74 118.191 29.66 116.951 30.34C115.731 31 114.341 31.33 112.781 31.33ZM112.751 26.68C113.331 26.68 113.831 26.56 114.251 26.32C114.691 26.06 115.031 25.7 115.271 25.24C115.511 24.78 115.631 24.25 115.631 23.65C115.631 23.05 115.501 22.53 115.241 22.09C115.001 21.63 114.671 21.28 114.251 21.04C113.831 20.78 113.331 20.65 112.751 20.65C112.191 20.65 111.691 20.78 111.251 21.04C110.811 21.3 110.471 21.66 110.231 22.12C109.991 22.56 109.871 23.08 109.871 23.68C109.871 24.26 109.991 24.78 110.231 25.24C110.471 25.7 110.811 26.06 111.251 26.32C111.691 26.56 112.191 26.68 112.751 26.68ZM131.742 31.3C130.802 31.3 129.932 31.12 129.132 30.76C128.332 30.38 127.672 29.87 127.152 29.23C126.632 28.59 126.312 27.89 126.192 27.13V19.96C126.312 19.2 126.632 18.52 127.152 17.92C127.692 17.32 128.362 16.86 129.162 16.54C129.962 16.2 130.822 16.03 131.742 16.03C133.162 16.03 134.412 16.36 135.492 17.02C136.572 17.66 137.412 18.56 138.012 19.72C138.632 20.88 138.942 22.2 138.942 23.68C138.942 25.14 138.632 26.45 138.012 27.61C137.412 28.75 136.572 29.65 135.492 30.31C134.412 30.97 133.162 31.3 131.742 31.3ZM123.012 31V9.13H128.232V19.93L127.362 23.47L128.112 27.07V31H123.012ZM130.812 26.65C131.372 26.65 131.862 26.52 132.282 26.26C132.722 26 133.062 25.65 133.302 25.21C133.542 24.75 133.662 24.23 133.662 23.65C133.662 23.09 133.542 22.59 133.302 22.15C133.062 21.69 132.722 21.33 132.282 21.07C131.842 20.81 131.342 20.68 130.782 20.68C130.222 20.68 129.722 20.81 129.282 21.07C128.862 21.33 128.532 21.68 128.292 22.12C128.052 22.56 127.932 23.07 127.932 23.65C127.932 24.25 128.052 24.78 128.292 25.24C128.532 25.68 128.872 26.03 129.312 26.29C129.752 26.53 130.252 26.65 130.812 26.65ZM148.499 31.33C146.859 31.33 145.409 31.01 144.149 30.37C142.889 29.71 141.899 28.8 141.179 27.64C140.459 26.48 140.099 25.15 140.099 23.65C140.099 22.17 140.449 20.86 141.149 19.72C141.849 18.56 142.799 17.65 143.999 16.99C145.219 16.31 146.589 15.97 148.109 15.97C149.589 15.97 150.899 16.29 152.039 16.93C153.199 17.55 154.099 18.42 154.739 19.54C155.399 20.64 155.729 21.9 155.729 23.32C155.729 23.62 155.709 23.93 155.669 24.25C155.649 24.55 155.589 24.9 155.489 25.3L142.559 25.36V22L153.419 21.91L151.079 23.38C151.059 22.56 150.939 21.89 150.719 21.37C150.499 20.83 150.179 20.42 149.759 20.14C149.339 19.86 148.809 19.72 148.169 19.72C147.509 19.72 146.939 19.88 146.459 20.2C145.979 20.52 145.609 20.97 145.349 21.55C145.089 22.13 144.959 22.83 144.959 23.65C144.959 24.49 145.099 25.21 145.379 25.81C145.659 26.39 146.059 26.83 146.579 27.13C147.099 27.43 147.739 27.58 148.499 27.58C149.219 27.58 149.849 27.46 150.389 27.22C150.949 26.98 151.449 26.61 151.889 26.11L154.619 28.84C153.899 29.66 153.019 30.28 151.979 30.7C150.959 31.12 149.799 31.33 148.499 31.33ZM163.22 31V9.88H168.59V31H163.22ZM156.71 14.35V9.73H175.1V14.35H156.71ZM174.341 31V16.33H179.561V31H174.341ZM179.561 23.02L177.221 21.04C177.801 19.38 178.571 18.13 179.531 17.29C180.491 16.45 181.741 16.03 183.281 16.03C183.981 16.03 184.581 16.12 185.081 16.3C185.601 16.48 186.041 16.76 186.401 17.14L183.371 21.19C183.211 21.01 182.981 20.87 182.681 20.77C182.401 20.65 182.081 20.59 181.721 20.59C181.041 20.59 180.511 20.8 180.131 21.22C179.751 21.62 179.561 22.22 179.561 23.02ZM194.436 31.33C192.796 31.33 191.346 31.01 190.086 30.37C188.826 29.71 187.836 28.8 187.116 27.64C186.396 26.48 186.036 25.15 186.036 23.65C186.036 22.17 186.386 20.86 187.086 19.72C187.786 18.56 188.736 17.65 189.936 16.99C191.156 16.31 192.526 15.97 194.046 15.97C195.526 15.97 196.836 16.29 197.976 16.93C199.136 17.55 200.036 18.42 200.676 19.54C201.336 20.64 201.666 21.9 201.666 23.32C201.666 23.62 201.646 23.93 201.606 24.25C201.586 24.55 201.526 24.9 201.426 25.3L188.496 25.36V22L199.356 21.91L197.016 23.38C196.996 22.56 196.876 21.89 196.656 21.37C196.436 20.83 196.116 20.42 195.696 20.14C195.276 19.86 194.746 19.72 194.106 19.72C193.446 19.72 192.876 19.88 192.396 20.2C191.916 20.52 191.546 20.97 191.286 21.55C191.026 22.13 190.896 22.83 190.896 23.65C190.896 24.49 191.036 25.21 191.316 25.81C191.596 26.39 191.996 26.83 192.516 27.13C193.036 27.43 193.676 27.58 194.436 27.58C195.156 27.58 195.786 27.46 196.326 27.22C196.886 26.98 197.386 26.61 197.826 26.11L200.556 28.84C199.836 29.66 198.956 30.28 197.916 30.7C196.896 31.12 195.736 31.33 194.436 31.33ZM213.057 31L208.437 23.32L213.027 16.33H218.757L213.057 24.22L213.207 22.3L219.057 31H213.057ZM203.637 31V9.13H208.857V31H203.637Z" fill="#24272C"/>
<path d="M73.312 55V43.896H74.816V55H73.312ZM74.336 55V53.624H80.704V55H74.336ZM74.336 49.976V48.664H80.176V49.976H74.336ZM74.336 45.272V43.896H80.624V45.272H74.336ZM87.4855 55L85.1175 51.672L84.8455 51.416L81.8535 47.4H83.5975L85.7575 50.36L86.0295 50.584L89.2295 55H87.4855ZM81.7095 55L84.8455 50.776L85.6615 51.832L83.4055 55H81.7095ZM86.1415 51.4L85.3095 50.376L87.4055 47.4H89.0855L86.1415 51.4ZM94.556 55.16C93.98 55.16 93.4573 55.0427 92.988 54.808C92.5293 54.5627 92.1613 54.2267 91.884 53.8C91.6067 53.3733 91.452 52.888 91.42 52.344V50.056C91.452 49.5013 91.6067 49.016 91.884 48.6C92.172 48.1733 92.5453 47.8427 93.004 47.608C93.4733 47.3627 93.9907 47.24 94.556 47.24C95.2493 47.24 95.8733 47.416 96.428 47.768C96.9933 48.12 97.436 48.5947 97.756 49.192C98.076 49.7893 98.236 50.4613 98.236 51.208C98.236 51.9547 98.076 52.6267 97.756 53.224C97.436 53.8213 96.9933 54.296 96.428 54.648C95.8733 54.9893 95.2493 55.16 94.556 55.16ZM90.556 58.184V47.4H91.996V49.4L91.724 51.24L91.996 53.096V58.184H90.556ZM94.316 53.8C94.796 53.8 95.2173 53.688 95.58 53.464C95.9427 53.24 96.2307 52.936 96.444 52.552C96.6573 52.1573 96.764 51.704 96.764 51.192C96.764 50.6907 96.6573 50.2427 96.444 49.848C96.2307 49.4533 95.9427 49.1493 95.58 48.936C95.2173 48.712 94.8013 48.6 94.332 48.6C93.852 48.6 93.4307 48.712 93.068 48.936C92.7053 49.1493 92.4227 49.4533 92.22 49.848C92.0173 50.2427 91.916 50.696 91.916 51.208C91.916 51.7093 92.012 52.1573 92.204 52.552C92.4067 52.936 92.6893 53.24 93.052 53.464C93.4253 53.688 93.8467 53.8 94.316 53.8ZM99.8685 55V43.576H101.309V55H99.8685ZM106.887 55.16C106.141 55.16 105.469 54.984 104.871 54.632C104.274 54.28 103.799 53.8053 103.447 53.208C103.095 52.6 102.919 51.9227 102.919 51.176C102.919 50.44 103.095 49.7787 103.447 49.192C103.799 48.5947 104.274 48.12 104.871 47.768C105.469 47.416 106.141 47.24 106.887 47.24C107.623 47.24 108.29 47.416 108.887 47.768C109.495 48.1093 109.975 48.5787 110.327 49.176C110.679 49.7733 110.855 50.44 110.855 51.176C110.855 51.9227 110.679 52.6 110.327 53.208C109.975 53.8053 109.495 54.28 108.887 54.632C108.29 54.984 107.623 55.16 106.887 55.16ZM106.887 53.768C107.367 53.768 107.794 53.656 108.167 53.432C108.541 53.208 108.834 52.904 109.047 52.52C109.261 52.1253 109.367 51.6773 109.367 51.176C109.367 50.6853 109.255 50.248 109.031 49.864C108.818 49.48 108.525 49.1813 108.151 48.968C107.789 48.744 107.367 48.632 106.887 48.632C106.407 48.632 105.981 48.744 105.607 48.968C105.234 49.1813 104.941 49.48 104.727 49.864C104.514 50.248 104.407 50.6853 104.407 51.176C104.407 51.6773 104.514 52.1253 104.727 52.52C104.941 52.904 105.234 53.208 105.607 53.432C105.981 53.656 106.407 53.768 106.887 53.768ZM112.478 55V47.4H113.918V55H112.478ZM113.918 50.664L113.374 50.424C113.374 49.4533 113.598 48.68 114.046 48.104C114.494 47.528 115.139 47.24 115.982 47.24C116.366 47.24 116.713 47.3093 117.022 47.448C117.331 47.576 117.619 47.7947 117.886 48.104L116.942 49.08C116.782 48.9093 116.606 48.7867 116.414 48.712C116.222 48.6373 115.998 48.6 115.742 48.6C115.209 48.6 114.771 48.7707 114.43 49.112C114.089 49.4533 113.918 49.9707 113.918 50.664ZM122.17 55.16C121.412 55.16 120.73 54.9893 120.122 54.648C119.514 54.296 119.034 53.8213 118.682 53.224C118.33 52.6267 118.154 51.9493 118.154 51.192C118.154 50.4453 118.324 49.7733 118.666 49.176C119.018 48.5787 119.487 48.1093 120.074 47.768C120.671 47.416 121.338 47.24 122.074 47.24C122.778 47.24 123.396 47.4 123.93 47.72C124.474 48.04 124.895 48.4827 125.194 49.048C125.503 49.6133 125.658 50.2533 125.658 50.968C125.658 51.0747 125.652 51.192 125.642 51.32C125.631 51.4373 125.61 51.576 125.578 51.736H119.162V50.536H124.81L124.282 51C124.282 50.488 124.191 50.056 124.01 49.704C123.828 49.3413 123.572 49.064 123.242 48.872C122.911 48.6693 122.511 48.568 122.042 48.568C121.551 48.568 121.119 48.6747 120.746 48.888C120.372 49.1013 120.084 49.4 119.882 49.784C119.679 50.168 119.578 50.6213 119.578 51.144C119.578 51.6773 119.684 52.1467 119.898 52.552C120.111 52.9467 120.415 53.256 120.81 53.48C121.204 53.6933 121.658 53.8 122.17 53.8C122.596 53.8 122.986 53.7253 123.338 53.576C123.7 53.4267 124.01 53.2027 124.266 52.904L125.194 53.848C124.831 54.2747 124.383 54.6 123.85 54.824C123.327 55.048 122.767 55.16 122.17 55.16ZM135.932 55V50.568C135.932 49.992 135.751 49.5173 135.388 49.144C135.025 48.7707 134.556 48.584 133.98 48.584C133.596 48.584 133.255 48.6693 132.956 48.84C132.657 49.0107 132.423 49.2453 132.252 49.544C132.081 49.8427 131.996 50.184 131.996 50.568L131.404 50.232C131.404 49.656 131.532 49.144 131.788 48.696C132.044 48.248 132.401 47.896 132.86 47.64C133.319 47.3733 133.836 47.24 134.412 47.24C134.988 47.24 135.495 47.384 135.932 47.672C136.38 47.96 136.732 48.3387 136.988 48.808C137.244 49.2667 137.372 49.7573 137.372 50.28V55H135.932ZM130.556 55V47.4H131.996V55H130.556ZM142.842 55.16C142.084 55.16 141.402 54.9893 140.794 54.648C140.186 54.296 139.706 53.8213 139.354 53.224C139.002 52.6267 138.826 51.9493 138.826 51.192C138.826 50.4453 138.996 49.7733 139.338 49.176C139.69 48.5787 140.159 48.1093 140.746 47.768C141.343 47.416 142.01 47.24 142.746 47.24C143.45 47.24 144.068 47.4 144.602 47.72C145.146 48.04 145.567 48.4827 145.866 49.048C146.175 49.6133 146.33 50.2533 146.33 50.968C146.33 51.0747 146.324 51.192 146.314 51.32C146.303 51.4373 146.282 51.576 146.25 51.736H139.834V50.536H145.482L144.954 51C144.954 50.488 144.863 50.056 144.682 49.704C144.5 49.3413 144.244 49.064 143.914 48.872C143.583 48.6693 143.183 48.568 142.714 48.568C142.223 48.568 141.791 48.6747 141.418 48.888C141.044 49.1013 140.756 49.4 140.554 49.784C140.351 50.168 140.25 50.6213 140.25 51.144C140.25 51.6773 140.356 52.1467 140.57 52.552C140.783 52.9467 141.087 53.256 141.482 53.48C141.876 53.6933 142.33 53.8 142.842 53.8C143.268 53.8 143.658 53.7253 144.01 53.576C144.372 53.4267 144.682 53.2027 144.938 52.904L145.866 53.848C145.503 54.2747 145.055 54.6 144.522 54.824C143.999 55.048 143.439 55.16 142.842 55.16ZM149.982 55L146.974 47.4H148.478L150.654 53.32H150.174L152.334 47.4H153.166L155.326 53.32H154.846L157.022 47.4H158.526L155.534 55H154.686L152.494 49.256H153.022L150.814 55H149.982ZM163.134 55V43.576H164.574V55H163.134ZM169.913 55.16C169.22 55.16 168.59 54.9893 168.025 54.648C167.46 54.296 167.012 53.8213 166.681 53.224C166.361 52.6267 166.201 51.9547 166.201 51.208C166.201 50.4613 166.361 49.7893 166.681 49.192C167.012 48.5947 167.454 48.12 168.009 47.768C168.574 47.416 169.209 47.24 169.913 47.24C170.489 47.24 171.001 47.3627 171.449 47.608C171.908 47.8427 172.276 48.1733 172.553 48.6C172.83 49.016 172.985 49.5013 173.017 50.056V52.344C172.985 52.888 172.83 53.3733 172.553 53.8C172.286 54.2267 171.924 54.5627 171.465 54.808C171.017 55.0427 170.5 55.16 169.913 55.16ZM170.153 53.8C170.868 53.8 171.444 53.56 171.881 53.08C172.318 52.5893 172.537 51.9653 172.537 51.208C172.537 50.6853 172.436 50.232 172.233 49.848C172.041 49.4533 171.764 49.1493 171.401 48.936C171.038 48.712 170.617 48.6 170.137 48.6C169.657 48.6 169.23 48.712 168.857 48.936C168.494 49.16 168.206 49.4693 167.993 49.864C167.79 50.248 167.689 50.6907 167.689 51.192C167.689 51.704 167.79 52.1573 167.993 52.552C168.206 52.936 168.5 53.24 168.873 53.464C169.246 53.688 169.673 53.8 170.153 53.8ZM172.441 55V52.952L172.713 51.096L172.441 49.256V47.4H173.897V55H172.441ZM181.37 55V50.568C181.37 49.992 181.188 49.5173 180.826 49.144C180.463 48.7707 179.994 48.584 179.418 48.584C179.034 48.584 178.692 48.6693 178.394 48.84C178.095 49.0107 177.86 49.2453 177.69 49.544C177.519 49.8427 177.434 50.184 177.434 50.568L176.842 50.232C176.842 49.656 176.97 49.144 177.226 48.696C177.482 48.248 177.839 47.896 178.298 47.64C178.756 47.3733 179.274 47.24 179.85 47.24C180.426 47.24 180.932 47.384 181.37 47.672C181.818 47.96 182.17 48.3387 182.426 48.808C182.682 49.2667 182.81 49.7573 182.81 50.28V55H181.37ZM175.993 55V47.4H177.434V55H175.993ZM187.975 55.16C187.271 55.16 186.642 54.9893 186.087 54.648C185.532 54.296 185.09 53.8213 184.759 53.224C184.439 52.6267 184.279 51.9547 184.279 51.208C184.279 50.4613 184.439 49.7893 184.759 49.192C185.09 48.5947 185.532 48.12 186.087 47.768C186.642 47.416 187.271 47.24 187.975 47.24C188.54 47.24 189.052 47.3627 189.511 47.608C189.97 47.8427 190.338 48.1733 190.615 48.6C190.903 49.016 191.063 49.5013 191.095 50.056V52.344C191.063 52.888 190.908 53.3733 190.631 53.8C190.354 54.2267 189.986 54.5627 189.527 54.808C189.068 55.0427 188.551 55.16 187.975 55.16ZM188.215 53.8C188.695 53.8 189.111 53.688 189.463 53.464C189.826 53.24 190.108 52.936 190.311 52.552C190.514 52.1573 190.615 51.7093 190.615 51.208C190.615 50.6853 190.508 50.232 190.295 49.848C190.092 49.464 189.81 49.16 189.447 48.936C189.095 48.712 188.679 48.6 188.199 48.6C187.719 48.6 187.298 48.712 186.935 48.936C186.572 49.16 186.284 49.4693 186.071 49.864C185.868 50.248 185.767 50.6907 185.767 51.192C185.767 51.704 185.868 52.1573 186.071 52.552C186.284 52.936 186.572 53.24 186.935 53.464C187.308 53.688 187.735 53.8 188.215 53.8ZM191.975 55H190.519V52.952L190.791 51.096L190.519 49.256V43.576H191.975V55ZM196.488 55.16C196.061 55.16 195.656 55.1067 195.272 55C194.898 54.8827 194.552 54.7227 194.232 54.52C193.912 54.3067 193.634 54.056 193.4 53.768L194.328 52.84C194.605 53.1813 194.925 53.4373 195.288 53.608C195.65 53.768 196.056 53.848 196.504 53.848C196.952 53.848 197.298 53.7733 197.544 53.624C197.789 53.464 197.912 53.2453 197.912 52.968C197.912 52.6907 197.81 52.4773 197.608 52.328C197.416 52.168 197.165 52.04 196.856 51.944C196.546 51.8373 196.216 51.736 195.864 51.64C195.522 51.5333 195.197 51.4 194.888 51.24C194.578 51.08 194.322 50.8613 194.12 50.584C193.928 50.3067 193.832 49.9387 193.832 49.48C193.832 49.0213 193.944 48.6267 194.168 48.296C194.392 47.9547 194.701 47.6933 195.096 47.512C195.501 47.3307 195.986 47.24 196.552 47.24C197.149 47.24 197.677 47.3467 198.136 47.56C198.605 47.7627 198.989 48.072 199.288 48.488L198.36 49.416C198.146 49.1387 197.88 48.9253 197.56 48.776C197.25 48.6267 196.898 48.552 196.504 48.552C196.088 48.552 195.768 48.6267 195.544 48.776C195.33 48.9147 195.224 49.112 195.224 49.368C195.224 49.624 195.32 49.8213 195.512 49.96C195.704 50.0987 195.954 50.216 196.264 50.312C196.584 50.408 196.914 50.5093 197.256 50.616C197.597 50.712 197.922 50.8453 198.232 51.016C198.541 51.1867 198.792 51.416 198.984 51.704C199.186 51.992 199.288 52.3707 199.288 52.84C199.288 53.5547 199.032 54.12 198.52 54.536C198.018 54.952 197.341 55.16 196.488 55.16Z" fill="#5F615E"/>
</svg>
