<svg width="180" height="76" viewBox="0 0 180 76" fill="none" xmlns="http://www.w3.org/2000/svg">
<g clip-path="url(#clip0_4368_25039)">
<path d="M74.9716 39.52L73.7131 38.152C73.1949 38.608 72.6766 38.988 72.1584 39.292C71.6402 39.52 71.0479 39.672 70.3076 39.672C69.7894 39.672 69.2712 39.596 68.827 39.368C68.3088 39.14 67.9386 38.836 67.5684 38.456C67.1983 38.076 66.9762 37.62 66.7541 37.088C66.606 36.556 66.458 36.024 66.458 35.416C66.458 34.808 66.606 34.276 66.7541 33.744C66.9762 33.212 67.1983 32.756 67.5684 32.376C67.9386 31.996 68.3088 31.692 68.827 31.464C69.2712 31.312 69.7894 31.16 70.3076 31.16C70.9739 31.16 71.5662 31.312 72.0844 31.54C72.6766 31.844 73.1208 32.224 73.6391 32.68L74.8976 31.084C74.6755 30.856 74.3794 30.552 74.0092 30.324C73.7131 30.096 73.417 29.944 73.0468 29.716C72.6766 29.564 72.2324 29.488 71.7883 29.336C71.3441 29.26 70.8999 29.26 70.3816 29.26C69.4933 29.26 68.6789 29.412 67.9386 29.716C67.1983 30.02 66.532 30.476 66.0138 31.084C65.4955 31.616 65.0514 32.3 64.7552 33.06C64.4591 33.82 64.311 34.58 64.311 35.416C64.311 36.328 64.4591 37.088 64.7552 37.848C65.0514 38.608 65.4955 39.292 66.0138 39.824C66.532 40.356 67.1983 40.812 67.8646 41.116C68.6049 41.496 69.4192 41.648 70.2336 41.648C70.8258 41.648 71.3441 41.572 71.7883 41.496C72.2324 41.42 72.6026 41.268 72.9728 41.04C73.417 40.888 73.7131 40.66 74.0832 40.356C74.3794 40.128 74.6755 39.824 74.9716 39.52ZM89.0377 35.416C89.0377 34.58 88.8896 33.744 88.5935 32.984C88.2974 32.224 87.8532 31.616 87.335 31.008C86.8167 30.476 86.1504 30.02 85.4101 29.716C84.6698 29.412 83.8555 29.26 82.9671 29.26C82.0047 29.26 81.1903 29.412 80.45 29.716C79.7097 30.02 79.0434 30.476 78.5252 31.084C78.0069 31.616 77.5627 32.3 77.2666 33.06C76.9705 33.82 76.8224 34.58 76.8224 35.416C76.8224 36.328 76.9705 37.088 77.2666 37.848C77.5627 38.608 78.0069 39.216 78.5252 39.824C79.0434 40.356 79.7097 40.812 80.45 41.116C81.1903 41.496 82.0047 41.648 82.893 41.648C83.7814 41.648 84.5958 41.496 85.4101 41.116C86.1504 40.812 86.7427 40.356 87.335 39.824C87.8532 39.216 88.2974 38.532 88.5935 37.772C88.8896 37.088 89.0377 36.252 89.0377 35.416ZM86.8908 35.416C86.8908 36.024 86.7427 36.556 86.5946 37.088C86.3725 37.62 86.1504 38.076 85.7803 38.456C85.4101 38.836 85.04 39.14 84.5217 39.368C84.0775 39.596 83.4853 39.672 82.9671 39.672C82.3748 39.672 81.8566 39.596 81.3384 39.368C80.8201 39.14 80.45 38.836 80.0798 38.456C79.7097 38 79.4876 37.62 79.2655 37.088C79.0434 36.556 78.9693 36.024 78.9693 35.416C78.9693 34.808 79.0434 34.276 79.2655 33.744C79.4876 33.212 79.7097 32.756 80.0798 32.376C80.45 31.996 80.8201 31.692 81.3384 31.464C81.7826 31.312 82.3008 31.16 82.893 31.16C83.4853 31.16 84.0035 31.312 84.5217 31.54C84.9659 31.768 85.4101 32.072 85.7803 32.452C86.1504 32.832 86.3725 33.288 86.5946 33.82C86.7427 34.276 86.8908 34.884 86.8908 35.416ZM101.475 32.832V41.42H103.474V29.412H101.327L97.7734 35.112L94.2199 29.412H91.999V41.42H94.0719V32.832L97.6994 38.456H97.7734L101.475 32.832ZM116.059 33.44C116.059 32.832 115.911 32.3 115.763 31.768C115.541 31.312 115.245 30.856 114.875 30.552C114.505 30.172 113.986 29.868 113.468 29.716C112.876 29.564 112.284 29.412 111.617 29.412H107.027V41.42H109.026V37.544H111.395C111.988 37.544 112.654 37.468 113.172 37.316C113.764 37.164 114.283 36.86 114.653 36.556C115.097 36.176 115.467 35.72 115.689 35.264C115.911 34.732 116.059 34.124 116.059 33.44ZM113.986 33.516C113.986 34.124 113.764 34.656 113.32 35.112C112.802 35.492 112.21 35.644 111.469 35.644H109.026V31.312H111.469C112.21 31.312 112.802 31.54 113.246 31.844C113.764 32.224 113.986 32.756 113.986 33.516ZM123.537 29.336H121.612L116.504 41.42H118.576L119.761 38.532H125.313L126.498 41.42H128.645L123.537 29.336ZM124.573 36.632H120.575L122.574 31.844L124.573 36.632ZM139.305 37.696L133.087 29.412H131.162V41.42H133.235V32.908L139.675 41.42H141.378V29.412H139.305V37.696ZM150.336 36.632L155 29.412H152.631L149.374 34.732L146.116 29.412H143.673L148.337 36.708V41.42H150.336V36.632Z" fill="#B9B9B9"/>
<path d="M65.3475 46.816C65.3475 46.664 65.4215 46.512 65.5696 46.36C65.7176 46.284 65.8657 46.208 66.0878 46.208C66.3099 46.208 66.532 46.284 66.7541 46.36C66.9762 46.436 67.1983 46.512 67.4204 46.74L67.8646 46.056C67.5684 45.828 67.3463 45.676 67.0502 45.6C66.7541 45.524 66.458 45.448 66.1618 45.448C65.8657 45.448 65.6436 45.448 65.4955 45.524C65.2734 45.6 65.1254 45.752 64.9773 45.828C64.8293 45.98 64.6812 46.132 64.6072 46.284C64.5331 46.436 64.5331 46.664 64.5331 46.892C64.5331 47.12 64.5331 47.272 64.6072 47.424C64.6812 47.576 64.8293 47.728 64.9033 47.88C65.0514 47.956 65.1994 48.032 65.4215 48.108L66.0878 48.336C66.3099 48.412 66.532 48.412 66.606 48.488C66.7541 48.564 66.9022 48.564 66.9762 48.64C67.0502 48.716 67.1242 48.792 67.1242 48.868C67.1242 48.944 67.1983 49.02 67.1983 49.096C67.1983 49.248 67.1242 49.4 66.9762 49.552C66.8281 49.628 66.606 49.704 66.3099 49.704C66.0138 49.704 65.7917 49.628 65.4955 49.552L64.8293 49.096L64.311 49.704C64.6072 49.932 64.9033 50.16 65.2734 50.236C65.5696 50.388 65.9397 50.464 66.3099 50.464C66.532 50.464 66.7541 50.464 66.9762 50.388C67.1983 50.312 67.3463 50.236 67.4944 50.084C67.6425 49.932 67.7905 49.78 67.8646 49.628C67.9386 49.4 68.0126 49.248 68.0126 49.02C68.0126 48.792 67.9386 48.64 67.8646 48.488C67.8646 48.336 67.7165 48.184 67.6425 48.032C67.4944 47.956 67.3463 47.88 67.1242 47.804C66.9762 47.728 66.7541 47.652 66.458 47.576C66.2359 47.5 66.0878 47.424 65.9397 47.424C65.7917 47.348 65.6436 47.272 65.5696 47.272C65.4955 47.196 65.4215 47.12 65.4215 47.044C65.3475 46.968 65.3475 46.892 65.3475 46.816ZM73.417 50.388H76.7484V49.628H74.3053V45.524H73.417V50.388ZM86.5946 47.956C86.5946 47.576 86.5206 47.272 86.3725 46.968C86.2985 46.664 86.0764 46.436 85.8543 46.208C85.7063 45.98 85.4101 45.752 85.114 45.6C84.8179 45.524 84.4477 45.448 84.0775 45.448C83.7074 45.448 83.4113 45.524 83.1151 45.6C82.819 45.752 82.5229 45.98 82.3008 46.208C82.0787 46.436 81.9306 46.664 81.7826 46.968C81.7085 47.272 81.6345 47.652 81.6345 47.956C81.6345 48.336 81.7085 48.64 81.7826 48.944C81.9306 49.248 82.0787 49.476 82.3008 49.704C82.5229 49.932 82.819 50.16 83.1151 50.312C83.4113 50.388 83.7074 50.464 84.0775 50.464C84.4477 50.464 84.8179 50.388 85.114 50.236C85.4101 50.16 85.6322 49.932 85.8543 49.704C86.0764 49.476 86.2985 49.248 86.3725 48.944C86.5206 48.64 86.5946 48.26 86.5946 47.956ZM85.7063 47.956C85.7063 48.184 85.6322 48.412 85.5582 48.64C85.4842 48.868 85.4101 49.02 85.2621 49.172C85.114 49.324 84.9659 49.476 84.7438 49.552C84.5217 49.628 84.3737 49.704 84.0775 49.704C83.8555 49.704 83.6334 49.628 83.4853 49.552C83.2632 49.476 83.1151 49.324 82.9671 49.172C82.819 49.02 82.6709 48.792 82.5969 48.64C82.5229 48.412 82.5229 48.184 82.5229 47.956C82.5229 47.728 82.5229 47.5 82.5969 47.272C82.6709 47.044 82.819 46.892 82.9671 46.74C83.1151 46.588 83.2632 46.436 83.4113 46.36C83.6334 46.284 83.8555 46.208 84.0775 46.208C84.2996 46.208 84.5217 46.284 84.7438 46.36C84.9659 46.436 85.114 46.588 85.2621 46.74C85.4101 46.892 85.4842 47.044 85.5582 47.272C85.6322 47.5 85.7063 47.728 85.7063 47.956ZM96.2928 49.704V47.652H94.294V48.412H95.4785V49.324C95.3304 49.476 95.1823 49.552 94.9602 49.628C94.7381 49.704 94.516 49.704 94.294 49.704C94.0719 49.704 93.8498 49.628 93.7017 49.552C93.4796 49.476 93.3315 49.324 93.1835 49.172C93.0354 49.02 92.8873 48.868 92.8133 48.64C92.7393 48.412 92.7393 48.184 92.7393 47.956C92.7393 47.728 92.7393 47.5 92.8133 47.272C92.8873 47.044 93.0354 46.892 93.1835 46.74C93.3315 46.588 93.4796 46.436 93.6277 46.36C93.8498 46.284 94.0719 46.208 94.2199 46.208C94.368 46.208 94.516 46.208 94.6641 46.284C94.8122 46.284 94.8862 46.284 95.0343 46.36C95.1083 46.436 95.1823 46.436 95.3304 46.512L95.5525 46.74L96.1447 46.132C95.9967 45.98 95.8486 45.904 95.7006 45.828C95.6265 45.752 95.4785 45.676 95.3304 45.6C95.1823 45.524 95.0343 45.524 94.8862 45.448H94.294C93.9238 45.448 93.6277 45.524 93.3315 45.6C93.0354 45.752 92.7393 45.98 92.5172 46.208C92.2951 46.436 92.147 46.664 91.999 46.968C91.9249 47.272 91.8509 47.652 91.8509 47.956C91.8509 48.336 91.9249 48.64 91.999 48.944C92.147 49.248 92.2951 49.552 92.5172 49.78C92.7393 50.008 92.9614 50.16 93.2575 50.312C93.6277 50.388 93.9238 50.464 94.294 50.464C94.516 50.464 94.7381 50.464 94.8862 50.388C95.1083 50.388 95.2564 50.312 95.4044 50.236C95.6265 50.16 95.7746 50.084 95.9227 50.008C95.9967 49.932 96.1447 49.78 96.2928 49.704ZM104.288 45.448H103.474L101.401 50.388H102.289L102.734 49.248H105.029L105.473 50.388H106.361L104.288 45.448ZM104.732 48.488H103.03L103.844 46.512L104.732 48.488ZM114.949 48.868L112.432 45.524H111.617V50.388H112.432V46.892L115.097 50.388H115.763V45.524H114.949V48.868ZM126.572 48.336V50.388H127.386V45.524H126.572V47.576H124.277V45.524H123.463V50.388H124.277V48.336H126.572ZM136.64 45.524H133.087V50.388H136.64V49.628H133.901V48.336H136.27V47.576H133.901V46.284H136.64V45.524ZM146.116 50.388L144.858 48.564L145.302 48.336C145.45 48.26 145.524 48.184 145.672 48.032C145.746 47.88 145.82 47.804 145.894 47.576C145.968 47.424 145.968 47.272 145.968 47.044C145.968 46.816 145.968 46.588 145.82 46.436C145.746 46.208 145.672 46.056 145.524 45.904C145.376 45.828 145.154 45.676 144.932 45.6C144.71 45.524 144.488 45.524 144.191 45.524H142.119V50.388H142.933V48.716H143.969L145.154 50.388H146.116ZM145.154 47.12C145.154 47.348 145.006 47.576 144.858 47.728C144.71 47.88 144.414 47.956 144.117 47.956H142.933V46.284H144.117C144.488 46.284 144.71 46.36 144.858 46.512C145.08 46.664 145.154 46.816 145.154 47.12ZM155 45.524H151.447V50.388H155V49.628H152.261V48.336H154.704V47.576H152.261V46.284H155V45.524Z" fill="#E7E7E7"/>
<path d="M48.3941 27.816C62.5342 44.84 45.1367 56.924 39.4362 49.02C44.7665 52.592 52.0216 46.816 50.541 38.532C50.7631 52.364 31.885 51.224 44.4704 40.356C48.0239 37.24 49.8007 32.452 48.3941 27.816ZM46.1731 23.256C45.0626 21.66 43.656 20.216 42.1014 19C43.2859 20.368 44.2483 21.66 44.9886 23.028C48.7642 29.488 47.8759 35.264 42.2494 40.28C36.7711 45.6 36.2528 49.552 40.8428 51.908C33.0695 50.16 31.2927 43.244 37.8075 36.1C40.0285 33.668 41.7312 31.236 42.1754 28.196C40.9909 31.236 38.918 33.972 36.4749 36.1C33.3656 38.836 31.5888 43.472 32.6253 47.88C30.4784 45.144 29.5159 41.724 29.8861 38.228C30.7005 30.932 37.3633 28.044 40.6207 22.724C31.885 23.332 25 30.78 25 39.824C25 49.324 32.4772 57 41.7312 57C50.9852 57 58.4624 49.324 58.4624 39.824C58.4624 31.92 53.2062 25.308 46.1731 23.256Z" fill="#B9B9B9"/>
<path d="M32.6252 47.88C31.5887 43.472 33.3655 38.836 36.4748 36.1C38.9179 33.972 40.9908 31.236 42.1753 28.196C38.2516 35.568 27.9612 37.392 32.6252 47.88Z" fill="url(#paint0_linear_4368_25039)"/>
<path d="M50.541 38.532C49.6527 46.208 42.3975 49.704 40.1025 46.588C40.1025 50.844 50.6891 48.868 50.541 38.532Z" fill="url(#paint1_linear_4368_25039)"/>
<path d="M48.3941 27.8159C58.3144 41.7999 48.3941 55.5559 39.4363 49.0199C45.1367 56.9239 62.5342 44.8399 48.3941 27.8159Z" fill="url(#paint2_linear_4368_25039)"/>
<path d="M39.9544 40.28C34.9943 44.536 34.402 49.476 40.8428 51.908C36.2528 49.552 36.7711 45.6 42.2494 40.28C47.8758 35.264 48.7642 29.488 44.9886 23.028C44.2483 21.66 43.2859 20.368 42.1014 19C48.0979 27.284 47.2096 33.972 39.9544 40.28Z" fill="url(#paint3_linear_4368_25039)"/>
</g>
<defs>
<linearGradient id="paint0_linear_4368_25039" x1="40.457" y1="27.2833" x2="30.4572" y2="46.7642" gradientUnits="userSpaceOnUse">
<stop stop-color="#E6E6E5"/>
<stop offset="1" stop-color="#DBDBD8"/>
</linearGradient>
<linearGradient id="paint1_linear_4368_25039" x1="51.8714" y1="40.337" x2="41.2788" y2="48.14" gradientUnits="userSpaceOnUse">
<stop stop-color="#E6E6E5"/>
<stop offset="1" stop-color="#DBDBD8"/>
</linearGradient>
<linearGradient id="paint2_linear_4368_25039" x1="44.4194" y1="51.2338" x2="53.7666" y2="30.159" gradientUnits="userSpaceOnUse">
<stop stop-color="#DBDBD8"/>
<stop offset="1" stop-color="#E6E6E5"/>
</linearGradient>
<linearGradient id="paint3_linear_4368_25039" x1="43.9692" y1="22.8562" x2="39.6478" y2="51.697" gradientUnits="userSpaceOnUse">
<stop stop-color="#E6E6E5"/>
<stop offset="1" stop-color="#DBDBD8"/>
</linearGradient>
<clipPath id="clip0_4368_25039">
<rect width="130" height="38" fill="white" transform="translate(25 19)"/>
</clipPath>
</defs>
</svg>
