<svg width="59" height="20" viewBox="0 0 59 20" fill="none" xmlns="http://www.w3.org/2000/svg">
<path d="M6.75 13.75L3 10L6.75 6.25" stroke="#8A8C8A" stroke-width="1.3" stroke-linecap="round" stroke-linejoin="round"/>
<path d="M15 14.5V13C15 12.2044 14.6839 11.4413 14.1213 10.8787C13.5587 10.3161 12.7956 10 12 10H3" stroke="#8A8C8A" stroke-width="1.3" stroke-linecap="round" stroke-linejoin="round"/>
<path d="M26.03 10.772V9.666H28.662C29.2313 9.666 29.67 9.52133 29.978 9.232C30.286 8.94267 30.44 8.55067 30.44 8.056C30.44 7.58933 30.286 7.202 29.978 6.894C29.6793 6.586 29.2453 6.432 28.676 6.432H26.03V5.284H28.718C29.334 5.284 29.8707 5.40533 30.328 5.648C30.7853 5.88133 31.1353 6.20333 31.378 6.614C31.63 7.02467 31.756 7.496 31.756 8.028C31.756 8.57867 31.63 9.05933 31.378 9.47C31.1353 9.88067 30.7853 10.2027 30.328 10.436C29.8707 10.66 29.334 10.772 28.718 10.772H26.03ZM25.148 15V5.284H26.464V15H25.148ZM30.748 15L27.22 10.646L28.466 10.212L32.414 15H30.748ZM36.4122 15.14C35.7495 15.14 35.1522 14.9907 34.6202 14.692C34.0882 14.384 33.6682 13.9687 33.3602 13.446C33.0522 12.9233 32.8982 12.3307 32.8982 11.668C32.8982 11.0147 33.0475 10.4267 33.3462 9.904C33.6542 9.38133 34.0649 8.97067 34.5782 8.672C35.1009 8.364 35.6842 8.21 36.3282 8.21C36.9442 8.21 37.4855 8.35 37.9522 8.63C38.4282 8.91 38.7969 9.29733 39.0582 9.792C39.3289 10.2867 39.4642 10.8467 39.4642 11.472C39.4642 11.5653 39.4595 11.668 39.4502 11.78C39.4409 11.8827 39.4222 12.004 39.3942 12.144H33.7802V11.094H38.7222L38.2602 11.5C38.2602 11.052 38.1809 10.674 38.0222 10.366C37.8635 10.0487 37.6395 9.806 37.3502 9.638C37.0609 9.46067 36.7109 9.372 36.3002 9.372C35.8709 9.372 35.4929 9.46533 35.1662 9.652C34.8395 9.83867 34.5875 10.1 34.4102 10.436C34.2329 10.772 34.1442 11.1687 34.1442 11.626C34.1442 12.0927 34.2375 12.5033 34.4242 12.858C34.6109 13.2033 34.8769 13.474 35.2222 13.67C35.5675 13.8567 35.9642 13.95 36.4122 13.95C36.7855 13.95 37.1262 13.8847 37.4342 13.754C37.7515 13.6233 38.0222 13.4273 38.2462 13.166L39.0582 13.992C38.7409 14.3653 38.3489 14.65 37.8822 14.846C37.4249 15.042 36.9349 15.14 36.4122 15.14ZM44.3381 15.14C43.8341 15.14 43.3767 15.0373 42.9661 14.832C42.5647 14.6173 42.2427 14.3233 42.0001 13.95C41.7574 13.5767 41.6221 13.152 41.5941 12.676V10.674C41.6221 10.1887 41.7574 9.764 42.0001 9.4C42.2521 9.02667 42.5787 8.73733 42.9801 8.532C43.3907 8.31733 43.8434 8.21 44.3381 8.21C44.9447 8.21 45.4907 8.364 45.9761 8.672C46.4707 8.98 46.8581 9.39533 47.1381 9.918C47.4181 10.4407 47.5581 11.0287 47.5581 11.682C47.5581 12.3353 47.4181 12.9233 47.1381 13.446C46.8581 13.9687 46.4707 14.384 45.9761 14.692C45.4907 14.9907 44.9447 15.14 44.3381 15.14ZM40.8381 17.786V8.35H42.0981V10.1L41.8601 11.71L42.0981 13.334V17.786H40.8381ZM44.1281 13.95C44.5481 13.95 44.9167 13.852 45.2341 13.656C45.5514 13.46 45.8034 13.194 45.9901 12.858C46.1767 12.5127 46.2701 12.116 46.2701 11.668C46.2701 11.2293 46.1767 10.8373 45.9901 10.492C45.8034 10.1467 45.5514 9.88067 45.2341 9.694C44.9167 9.498 44.5527 9.4 44.1421 9.4C43.7221 9.4 43.3534 9.498 43.0361 9.694C42.7187 9.88067 42.4714 10.1467 42.2941 10.492C42.1167 10.8373 42.0281 11.234 42.0281 11.682C42.0281 12.1207 42.1121 12.5127 42.2801 12.858C42.4574 13.194 42.7047 13.46 43.0221 13.656C43.3487 13.852 43.7174 13.95 44.1281 13.95ZM48.9865 15V5.004H50.2465V15H48.9865ZM54.274 15.056L51.39 8.35H52.79L54.932 13.6H54.484L56.738 8.35H58.138L55.03 15.056H54.274ZM52.37 17.786L54.33 13.768L55.03 15.056L53.77 17.786H52.37Z" fill="#8A8C8A"/>
</svg>
