<svg width="80" height="80" viewBox="0 0 80 80" fill="none" xmlns="http://www.w3.org/2000/svg">
<g clip-path="url(#clip0_4191_18325)">
<path fill-rule="evenodd" clip-rule="evenodd" d="M27.8475 80.0002C27.5666 80.0002 27.2972 79.8886 27.0985 79.6899C26.8999 79.4912 26.7883 79.2218 26.7883 78.9409C26.7883 78.6599 26.8999 78.3905 27.0985 78.1918C27.2972 77.9932 27.5666 77.8816 27.8475 77.8816H52.682C52.9629 77.8816 53.2323 77.9932 53.431 78.1918C53.6296 78.3905 53.7412 78.6599 53.7412 78.9409C53.7412 79.2218 53.6296 79.4912 53.431 79.6899C53.2323 79.8886 52.9629 80.0002 52.682 80.0002H27.8475ZM10.736 75.1111C10.455 75.1111 10.1856 74.9995 9.98693 74.8008C9.78827 74.6021 9.67667 74.3327 9.67667 74.0518C9.67667 73.7708 9.78827 73.5014 9.98693 73.3027C10.1856 73.1041 10.455 72.9925 10.736 72.9925H69.7935C70.0745 72.9925 70.3439 73.1041 70.5426 73.3027C70.7412 73.5014 70.8528 73.7708 70.8528 74.0518C70.8528 74.3327 70.7412 74.6021 70.5426 74.8008C70.3439 74.9995 70.0745 75.1111 69.7935 75.1111H10.736ZM43.3383 58.6954C32.8599 57.6886 22.6098 61.8696 15.8484 70.0332C15.8237 70.0623 15.808 70.0981 15.8032 70.136C15.7984 70.174 15.8047 70.2125 15.8214 70.2469C15.8372 70.2817 15.8628 70.3112 15.8951 70.3318C15.9274 70.3523 15.965 70.363 16.0033 70.3626H64.5261C64.6058 70.3626 64.674 70.3193 64.708 70.247C64.7247 70.2126 64.731 70.1741 64.7262 70.1362C64.7214 70.0982 64.7056 70.0625 64.6809 70.0334C59.3204 63.5618 51.6638 59.4945 43.3383 58.6954ZM55.4476 23.7723C51.5837 21.6265 46.7665 22.2908 43.6179 25.3464C43.5943 25.3688 43.5781 25.3978 43.5714 25.4296C43.5647 25.4614 43.5679 25.4945 43.5805 25.5245C43.5923 25.5548 43.6131 25.5808 43.6401 25.599C43.6671 25.6171 43.6989 25.6267 43.7315 25.6263H54.0255C54.0571 25.6267 54.0881 25.6175 54.1143 25.5999C54.7763 25.169 55.5452 24.9308 56.3349 24.9118C56.3668 24.9114 56.3979 24.9014 56.4242 24.8832C56.4504 24.8649 56.4705 24.8392 56.482 24.8093C56.4942 24.7798 56.4973 24.7472 56.4909 24.7159C56.4844 24.6846 56.4688 24.6559 56.4459 24.6336L55.7874 23.9751C55.7781 23.9657 55.7677 23.9576 55.7563 23.9509C55.6545 23.8895 55.5516 23.8299 55.4476 23.7723ZM58.6467 20.8141C58.6579 20.8446 58.6596 20.8777 58.6516 20.9091C58.6435 20.9405 58.6262 20.9687 58.6017 20.9901C58.154 21.3905 57.7952 21.8805 57.5487 22.4282C57.5261 22.4786 57.4838 22.5117 57.4294 22.5217C57.3751 22.5317 57.3239 22.5157 57.2848 22.4767L49.2453 14.4372C49.1973 14.3892 49.1841 14.3208 49.2105 14.2585C49.2369 14.1961 49.2953 14.158 49.3631 14.1591C53.5225 14.2247 57.2432 16.8616 58.6467 20.8141ZM64.657 21.1004L71.32 14.4374C71.368 14.3894 71.3812 14.3208 71.3548 14.2585C71.3284 14.1961 71.27 14.158 71.2023 14.1591C67.4524 14.2187 64.0127 16.3718 62.3491 19.789C62.3381 19.8108 62.3323 19.8348 62.3322 19.8593C62.332 19.8837 62.3375 19.9078 62.3483 19.9298C62.37 19.9761 62.408 20.0069 62.4576 20.0187C63.1996 20.1975 63.8801 20.5717 64.4286 21.1024C64.4593 21.132 64.5005 21.1484 64.5432 21.148C64.5859 21.1477 64.6267 21.1306 64.657 21.1004ZM65.7096 25.6263H76.8338C76.9015 25.6263 76.9594 25.5874 76.9848 25.5247C77.0102 25.462 76.9958 25.3937 76.9474 25.3466C73.9944 22.4807 69.5531 21.7012 65.7893 23.432C65.7574 23.4463 65.731 23.4706 65.7141 23.5013C65.6973 23.5319 65.6909 23.5673 65.696 23.6019C65.7788 24.2136 65.7286 24.8342 65.5536 25.4165C65.5458 25.4408 65.5441 25.4665 65.5485 25.4916C65.5529 25.5167 65.5633 25.5404 65.5788 25.5606C65.6106 25.6034 65.6564 25.6263 65.7096 25.6263ZM62.0415 28.4209C61.6943 28.4683 61.3426 28.4735 60.9942 28.4363C60.9567 28.432 60.9189 28.441 60.8873 28.4618C60.8557 28.4825 60.8324 28.5136 60.8213 28.5497C60.3917 29.9237 61.4206 31.3523 62.8864 31.3523C64.9048 31.3523 65.7944 28.8333 64.3002 27.5551C64.2717 27.5304 64.2354 27.5164 64.1977 27.5156C64.16 27.5148 64.1232 27.5273 64.0936 27.5508C63.4988 28.0177 62.7906 28.318 62.0415 28.4209ZM59.2968 24.3045C59.4047 26.2136 61.7764 27.0553 63.0618 25.6263C64.3986 24.1402 63.1603 21.7592 61.1527 22.04C60.0521 22.194 59.2316 23.1707 59.2968 24.3045ZM55.2804 31.0124C56.7081 31.9265 58.6061 30.9029 58.6061 29.1908C58.6061 27.2199 56.1605 26.2744 54.8377 27.7451C53.9437 28.7386 54.1588 30.2944 55.2804 31.0124ZM54.0432 32.9286C49.6539 39.9788 46.6889 47.5889 45.2125 55.8675C45.205 55.9099 45.2145 55.9535 45.239 55.9888C45.2635 56.0242 45.3009 56.0484 45.3432 56.0563C46.446 56.2601 47.5352 56.5309 48.605 56.8673C48.6269 56.8745 48.6501 56.8769 48.6731 56.8742C48.696 56.8714 48.718 56.8637 48.7376 56.8516C48.7576 56.84 48.7748 56.8242 48.788 56.8052C48.8011 56.7863 48.81 56.7646 48.8139 56.7419C50.3433 48.6045 53.3625 40.8899 57.5433 33.6113C57.5761 33.5542 57.5724 33.4869 57.5334 33.4338C57.4945 33.3806 57.4314 33.3568 57.3671 33.3711C56.3073 33.6041 55.1985 33.4267 54.2645 32.8744C54.2278 32.8529 54.1842 32.8464 54.1428 32.8566C54.1015 32.8667 54.0658 32.8925 54.0432 32.9286ZM35.7413 36.9741C32.6912 31.0609 28.9267 25.465 24.503 20.1622C24.4977 20.1559 24.492 20.1501 24.4859 20.1446L23.5821 19.344C23.5778 19.3402 23.5732 19.3365 23.5684 19.3332C22.3135 18.4421 21.1663 19.5117 22.1374 20.5926C30.8992 30.6407 36.3009 42.2269 38.3628 55.5084C38.3689 55.5485 38.3899 55.5849 38.4215 55.6104C38.4531 55.6359 38.4932 55.6487 38.5337 55.6461C39.8468 55.5654 41.1639 55.5767 42.4754 55.6798C42.529 55.6839 42.5772 55.664 42.6122 55.6231C42.6471 55.5821 42.6593 55.5314 42.6466 55.4791C41.0758 48.9799 38.7563 42.8197 35.7413 36.9741ZM30.3062 13.6418C28.2236 14.4541 26.446 15.9127 25.2337 17.7826C25.2173 17.807 25.2081 17.8355 25.2069 17.8649C25.2058 17.8943 25.2129 17.9234 25.2273 17.949C25.2566 18.0028 25.3093 18.0341 25.3705 18.0341H43.0026C43.032 18.0345 43.061 18.0267 43.0863 18.0117C43.1116 17.9966 43.1322 17.9749 43.1459 17.9488C43.1603 17.9232 43.1673 17.8941 43.1662 17.8647C43.1651 17.8354 43.1558 17.8069 43.1395 17.7824C40.4088 13.5692 35.0587 11.7881 30.3062 13.6418ZM26.6463 7.06752C29.2443 4.46956 32.9234 3.43536 36.4171 4.17895C36.446 4.18465 36.4726 4.19824 36.4942 4.21819C36.5158 4.23814 36.5314 4.26368 36.5394 4.29198C36.5481 4.32006 36.5489 4.35001 36.5416 4.37852C36.5344 4.40702 36.5195 4.43298 36.4984 4.45351L29.119 11.8329C29.1048 11.8474 29.0879 11.8589 29.0692 11.8668C28.3816 12.1685 27.7218 12.5301 27.0974 12.9473C25.8621 13.7735 24.7794 14.8077 23.8977 16.004C23.8574 16.0588 23.7912 16.0822 23.7253 16.065C23.6594 16.0478 23.6132 15.9949 23.6049 15.9274C23.2041 12.6959 24.2844 9.42922 26.6463 7.06752ZM17.0124 12.373C17.7779 14.6609 19.3097 16.6228 21.3296 17.9324C21.3541 17.9488 21.3826 17.958 21.4119 17.9591C21.4413 17.9602 21.4704 17.9532 21.496 17.9388C21.522 17.9251 21.5437 17.9045 21.5588 17.8792C21.5738 17.854 21.5815 17.825 21.5811 17.7956V16.7143C21.5812 16.7054 21.5804 16.6965 21.579 16.6877C21.3507 15.3049 21.3507 13.8939 21.579 12.5111C21.5804 12.5023 21.5812 12.4934 21.5811 12.4845V0.163529C21.5816 0.134115 21.5738 0.105157 21.5588 0.0798851C21.5437 0.0546128 21.5219 0.034018 21.4958 0.0203961C21.4702 0.00601333 21.4411 -0.00100523 21.4118 0.000116111C21.3824 0.00123746 21.3539 0.0104551 21.3295 0.0267502C17.2771 2.65281 15.4543 7.7158 17.0124 12.373ZM3.16663 18.578C3.13719 18.5784 3.10823 18.5707 3.08293 18.5556C3.05764 18.5406 3.03701 18.5188 3.02333 18.4928C3.00894 18.4671 3.00192 18.438 3.00305 18.4087C3.00417 18.3793 3.01338 18.3508 3.02968 18.3264C5.64286 14.2944 10.6682 12.4695 15.3062 13.9862C15.3282 13.9931 15.3484 14.0047 15.3655 14.0202C15.3825 14.0357 15.396 14.0548 15.4048 14.076C16.0694 15.5981 17.0236 16.9764 18.2143 18.1343C18.2636 18.1822 18.2775 18.252 18.2504 18.3152C18.2234 18.3784 18.1632 18.4163 18.0944 18.4138C17.2309 18.3806 16.3662 18.4349 15.5135 18.5757C15.5047 18.5772 15.4958 18.5779 15.4869 18.5779L3.16663 18.578ZM7.45677 33.4953L14.836 26.1161C14.8505 26.1019 14.862 26.0849 14.8699 26.0663C15.1716 25.3787 15.5332 24.7189 15.9504 24.0947C16.7765 22.8591 17.8108 21.7765 19.0074 20.8949C19.034 20.8758 19.054 20.849 19.0649 20.8181C19.0758 20.7872 19.077 20.7537 19.0683 20.7222C19.0604 20.6905 19.043 20.6621 19.0184 20.6405C18.9939 20.619 18.9634 20.6055 18.931 20.6018C11.7088 19.6982 5.63851 26.204 7.18188 33.4144C7.18766 33.4432 7.20129 33.4698 7.22127 33.4914C7.24125 33.5129 7.26679 33.5285 7.29508 33.5364C7.32321 33.5451 7.35318 33.5458 7.3817 33.5386C7.41022 33.5313 7.43619 33.5163 7.45677 33.4953ZM16.6449 27.303C17.4572 25.2202 18.9158 23.4429 20.7857 22.2304C20.837 22.1972 20.8982 22.1948 20.9521 22.2241C21.0059 22.2533 21.0372 22.306 21.0372 22.3672V39.9993C21.0376 40.0288 21.0298 40.0577 21.0148 40.083C20.9997 40.1083 20.978 40.1289 20.9519 40.1426C20.9263 40.157 20.8972 40.164 20.8678 40.1629C20.8385 40.1618 20.81 40.1526 20.7855 40.1363C16.5725 37.4057 14.7912 32.0556 16.6449 27.303Z" fill="#DCA546"/>
</g>
<defs>
<clipPath id="clip0_4191_18325">
<rect width="80" height="80" fill="white"/>
</clipPath>
</defs>
</svg>
