<svg width="42" height="42" viewBox="0 0 42 42" fill="none" xmlns="http://www.w3.org/2000/svg">
<path fill-rule="evenodd" clip-rule="evenodd" d="M16.1521 21.2186C16.0022 21.2186 15.8584 21.159 15.7523 21.053C15.6463 20.9469 15.5867 20.8031 15.5867 20.6532C15.5867 20.5032 15.6463 20.3594 15.7523 20.2533C15.8584 20.1473 16.0022 20.0877 16.1521 20.0877H18.0449C18.0645 20.0879 18.0836 20.0813 18.099 20.0692C18.1143 20.057 18.1251 20.04 18.1295 20.0209C18.4879 18.5155 18.7609 16.9922 18.9853 15.4613C18.9882 15.4406 18.9986 15.4216 19.0144 15.4079C19.0302 15.3943 19.0504 15.3868 19.0713 15.3869H23.6186C23.6621 15.3869 23.6984 15.4183 23.7047 15.4613C23.9291 16.9921 24.2021 18.5154 24.5605 20.0209C24.5699 20.0606 24.6043 20.0877 24.645 20.0877H26.5037C26.6537 20.0877 26.7975 20.1473 26.9035 20.2533C27.0096 20.3594 27.0691 20.5032 27.0691 20.6532C27.0691 20.8031 27.0096 20.9469 26.9035 21.053C26.7975 21.159 26.6537 21.2186 26.5037 21.2186H16.1521ZM26.0352 24.7984C25.7307 24.0129 25.4551 23.2165 25.2088 22.4109C25.2035 22.393 25.1925 22.3774 25.1775 22.3663C25.1625 22.3552 25.1443 22.3493 25.1256 22.3495H17.5645C17.5459 22.3493 17.5276 22.3552 17.5126 22.3663C17.4976 22.3774 17.4867 22.393 17.4814 22.4109C16.5485 25.4554 15.3905 27.8442 13.7314 30.6065L13.614 30.802C13.6055 30.8166 13.5927 30.8283 13.5774 30.8355C13.501 30.8725 13.4247 30.9102 13.3488 30.9483C13.329 30.9584 13.3061 30.9604 13.2848 30.954C13.2635 30.9477 13.2455 30.9334 13.2344 30.9141L10.6948 26.5154C10.4058 26.015 9.76008 25.842 9.25969 26.1309L3.36679 29.5332C2.8664 29.8221 2.69341 30.4678 2.98226 30.9682L6.45964 36.9911C6.47652 37.0203 6.47548 37.0543 6.45691 37.0825C6.24821 37.3992 6.0497 37.7225 5.86168 38.052C5.79046 38.1818 5.7732 38.3345 5.81363 38.477C5.85406 38.6195 5.94893 38.7403 6.07774 38.8134C6.20655 38.8865 6.35895 38.906 6.50201 38.8677C6.64507 38.8293 6.7673 38.7363 6.84229 38.6085C9.77988 33.4471 15.2822 30.1927 21.328 30.1927C27.3738 30.1927 32.8761 33.4472 35.8137 38.6085C35.8887 38.7363 36.011 38.8293 36.154 38.8677C36.2971 38.906 36.4495 38.8865 36.5783 38.8134C36.7071 38.7403 36.802 38.6195 36.8424 38.477C36.8828 38.3345 36.8656 38.1818 36.7943 38.052C36.1674 36.9539 35.4256 35.9254 34.5814 34.984C34.569 34.9704 34.5613 34.9532 34.5594 34.935C34.5575 34.9167 34.5615 34.8983 34.5709 34.8825L35.5475 33.1908C35.559 33.1708 35.5621 33.1471 35.5561 33.1248C35.5502 33.1025 35.5356 33.0835 35.5156 33.072L30.9742 30.45C30.9542 30.4385 30.9305 30.4354 30.9082 30.4414C30.886 30.4473 30.867 30.4619 30.8554 30.4819L30.3248 31.401C30.3132 31.421 30.2942 31.4355 30.272 31.4415C30.2497 31.4475 30.226 31.4444 30.206 31.4329C29.8445 31.2244 29.4758 31.0287 29.1006 30.8462C29.0834 30.8382 29.0695 30.8245 29.0612 30.8075L28.9588 30.6065C27.9705 28.6672 26.8232 26.8277 26.0352 24.7984ZM17.4396 29.3565C17.9567 27.6185 18.4249 25.8052 20.5883 25.2422C21.0844 25.1126 21.6055 25.1126 22.1017 25.2422C24.3641 25.831 25.0431 28.0698 25.3921 29.3981C25.3961 29.4126 25.3963 29.4278 25.3925 29.4423C25.3887 29.4568 25.3811 29.47 25.3706 29.4806C25.3603 29.4916 25.3473 29.4996 25.3329 29.5039C25.3186 29.5081 25.3033 29.5085 25.2887 29.5049C22.7506 28.9274 20.0874 28.914 17.5413 29.4663C17.5266 29.4697 17.5112 29.4691 17.4967 29.4646C17.4822 29.46 17.4693 29.4517 17.4591 29.4405C17.4487 29.4295 17.4414 29.4159 17.4379 29.4011C17.4345 29.3864 17.4351 29.3709 17.4396 29.3565ZM34.5418 21.8778C34.5534 21.8579 34.5724 21.8433 34.5946 21.8374C34.6169 21.8314 34.6406 21.8345 34.6606 21.846L41.1228 25.5769C41.1643 25.6008 41.1785 25.6542 41.1546 25.6956L37.2419 32.4727C37.2303 32.4926 37.2113 32.5072 37.189 32.5132C37.1668 32.5191 37.1431 32.516 37.1231 32.5046L30.661 28.7736C30.641 28.762 30.6265 28.743 30.6205 28.7208C30.6145 28.6985 30.6176 28.6748 30.6291 28.6548L34.5418 21.8778ZM36.8513 25.5133C37.7692 26.0433 38.0837 27.2169 37.5537 28.1348C37.0238 29.0526 35.8501 29.3671 34.9322 28.8372C34.0144 28.3072 33.6999 27.1336 34.2298 26.2157C34.7598 25.2979 35.9335 24.9834 36.8513 25.5133ZM20.7625 3.06544C20.7625 2.91548 20.8221 2.77165 20.9281 2.66561C21.0341 2.55957 21.178 2.5 21.3279 2.5C21.4779 2.5 21.6217 2.55957 21.7277 2.66561C21.8338 2.77165 21.8934 2.91548 21.8934 3.06544V4.77995C21.8934 4.82784 21.9324 4.86696 21.9803 4.86696H22.4234C22.4448 4.8669 22.4654 4.87472 22.4814 4.88894C22.4974 4.90315 22.5075 4.92275 22.5099 4.94398C22.8202 7.64504 23.0642 10.3538 23.3864 13.0487C23.3889 13.0698 23.399 13.0893 23.415 13.1035C23.4309 13.1176 23.4515 13.1254 23.4728 13.1253H24.8474C24.9974 13.1253 25.1412 13.1849 25.2473 13.2909C25.3533 13.397 25.4129 13.5408 25.4129 13.6908C25.4129 13.8407 25.3533 13.9845 25.2473 14.0906C25.1412 14.1966 24.9974 14.2562 24.8474 14.2562H17.8083C17.6583 14.2562 17.5145 14.1966 17.4085 14.0906C17.3024 13.9845 17.2429 13.8407 17.2429 13.6908C17.2429 13.5408 17.3024 13.397 17.4085 13.2909C17.5145 13.1849 17.6583 13.1253 17.8083 13.1253H19.2171C19.2614 13.1253 19.2983 13.0926 19.3034 13.0487C19.6257 10.3538 19.8696 7.64504 20.18 4.94398C20.1823 4.92276 20.1925 4.90316 20.2084 4.88894C20.2243 4.87473 20.245 4.8669 20.2663 4.86696H20.6754C20.6984 4.86691 20.7205 4.85773 20.7368 4.84142C20.7532 4.82512 20.7623 4.80301 20.7624 4.77995V3.06544H20.7625ZM38.7983 19.6562L40.9512 20.8993C40.9712 20.9108 40.9949 20.9139 41.0172 20.9079C41.0395 20.9019 41.0585 20.8874 41.07 20.8674L41.8653 19.49C41.8731 19.4769 41.8771 19.4618 41.8769 19.4465L41.8745 16.9631C41.8747 16.9478 41.8708 16.9327 41.8632 16.9195C41.8555 16.9063 41.8444 16.8953 41.8311 16.8879C41.8179 16.88 41.8029 16.8759 41.7876 16.8758C41.7723 16.8758 41.7573 16.88 41.7442 16.8878L39.5947 18.126C39.5813 18.1335 39.5703 18.1445 39.5628 18.1579L38.7663 19.5374C38.7549 19.5574 38.7518 19.5811 38.7578 19.6034C38.7638 19.6257 38.7783 19.6447 38.7983 19.6562ZM36.0073 21.574C35.9873 21.5624 35.9728 21.5435 35.9668 21.5212C35.9608 21.4989 35.9639 21.4752 35.9754 21.4552L36.1066 21.2279C36.1143 21.2142 36.1257 21.203 36.1395 21.1955L38.0085 20.1524C38.0215 20.1449 38.0364 20.1409 38.0515 20.141C38.0666 20.1411 38.0814 20.1453 38.0943 20.153L40.7352 21.6776C40.7483 21.685 40.7593 21.6957 40.7669 21.7087C40.7746 21.7217 40.7786 21.7365 40.7786 21.7516L40.8096 23.8932C40.8101 23.9089 40.8061 23.9244 40.798 23.9378L40.6675 24.164C40.6559 24.184 40.6369 24.1985 40.6147 24.2045C40.5924 24.2105 40.5687 24.2074 40.5487 24.1959L36.0073 21.574ZM13.7529 35.8572C13.603 35.8572 13.4592 35.7976 13.3531 35.6916C13.2471 35.5856 13.1875 35.4417 13.1875 35.2918C13.1875 35.1418 13.2471 34.998 13.3531 34.892C13.4592 34.7859 13.603 34.7263 13.7529 34.7263H28.9029C29.0529 34.7263 29.1967 34.7859 29.3027 34.892C29.4088 34.998 29.4683 35.1418 29.4683 35.2918C29.4683 35.4417 29.4088 35.5856 29.3027 35.6916C29.1967 35.7976 29.0529 35.8572 28.9029 35.8572H13.7529ZM17.5405 39.4995C17.3905 39.4995 17.2467 39.4399 17.1406 39.3339C17.0346 39.2278 16.975 39.084 16.975 38.934C16.975 38.7841 17.0346 38.6403 17.1406 38.5342C17.2467 38.4282 17.3905 38.3686 17.5405 38.3686H25.1154C25.2653 38.3686 25.4091 38.4282 25.5152 38.5342C25.6212 38.6403 25.6808 38.7841 25.6808 38.934C25.6808 39.084 25.6212 39.2278 25.5152 39.3339C25.4091 39.4399 25.2653 39.4995 25.1154 39.4995H17.5405ZM2.99857 23.2192L0.198993 18.3702C0.124024 18.2407 0.103549 18.0868 0.142072 17.9423C0.180595 17.7977 0.274961 17.6744 0.40441 17.5994C0.53386 17.5245 0.687789 17.504 0.832335 17.5425C0.976881 17.581 1.1002 17.6754 1.17517 17.8048L4.00953 22.7141C4.01934 22.7311 4.03263 22.7429 4.05073 22.7506L5.2657 23.2696C5.28312 23.2768 5.29762 23.2896 5.30689 23.306L6.92431 26.1076C6.93579 26.1276 6.93889 26.1513 6.93292 26.1736C6.92694 26.1958 6.91239 26.2148 6.89244 26.2264L4.58779 27.5569C4.56781 27.5684 4.54408 27.5715 4.52182 27.5655C4.49955 27.5596 4.48056 27.545 4.46901 27.5251L2.85235 24.7248C2.8427 24.7086 2.83881 24.6896 2.84132 24.6709L3.00969 23.2731C3.01216 23.2544 3.00824 23.2354 2.99857 23.2192Z" fill="#DCA546"/>
</svg>
