<svg width="42" height="42" viewBox="0 0 42 42" fill="none" xmlns="http://www.w3.org/2000/svg">
<g clip-path="url(#clip0_4191_26869)">
<path fill-rule="evenodd" clip-rule="evenodd" d="M13.6565 33.8678L12.6578 29.3735C12.6573 29.3713 12.6568 29.3692 12.6561 29.3671C12.5019 28.8615 12.274 28.5006 11.99 28.2505C11.3006 27.6433 10.8374 28.0726 10.5751 26.7527C10.4908 26.3283 10.4974 25.8411 10.5811 25.3009C10.5841 25.2826 10.581 25.2638 10.5722 25.2475C10.5634 25.2311 10.5494 25.2182 10.5324 25.2106C10.1683 25.0443 9.79844 24.9703 9.42244 24.995C8.44454 25.0591 7.73342 25.9068 6.68383 25.3588C6.3823 25.2013 6.1386 24.9469 5.9461 24.6372C5.60274 24.0852 5.25269 22.7854 5.22311 22.1168C5.20157 21.6318 5.30533 21.2252 5.53823 20.8996C6.16655 20.0211 8.01475 20.0758 7.5572 17.8862C7.30641 16.686 4.5744 15.0561 3.32704 13.6841L2.85734 13.1675C2.8461 13.1555 2.83867 13.1404 2.836 13.1242C2.83333 13.108 2.83552 13.0913 2.84231 13.0763C4.65768 8.92225 7.85968 5.50535 11.8717 3.41823C11.8884 3.40935 11.9076 3.40637 11.9262 3.40975C11.9448 3.41314 11.9617 3.4227 11.9742 3.43689C12.7363 4.28604 13.3175 5.41116 13.5308 6.41816C13.6901 7.17006 13.5379 9.20607 13.9673 9.50711C14.1851 9.65969 14.5291 9.63194 14.9925 9.43369C16.3523 8.82921 17.1016 9.31509 17.3053 10.7751L17.3056 10.7777C17.4323 11.5173 17.7392 12.0456 18.2091 12.3826C19.3069 13.17 20.4493 12.8978 20.849 11.5574C21.0131 11.0069 20.8922 10.4082 20.4079 9.74843C20.4056 9.74536 20.4036 9.74213 20.4018 9.73876C19.9937 8.98907 19.8703 8.36429 20.0208 7.85964C20.5427 6.11003 27.8959 5.96405 28.9392 7.5517C30.4895 9.91039 24.584 13.5021 26.9584 15.3264C28.6514 16.627 30.9072 15.4233 32.3553 14.3224C34.4224 12.7509 35.3353 10.5513 35.9344 8.19467C35.9425 8.16308 35.9658 8.1402 35.9976 8.13283C36.0294 8.12546 36.0604 8.1357 36.0815 8.16049C36.7547 8.95023 37.3649 9.79149 37.9066 10.6765C37.9138 10.688 37.9182 10.7011 37.9192 10.7146C37.9202 10.7281 37.9178 10.7417 37.9123 10.7541C36.848 13.261 35.1088 16.1537 32.8227 19.1785C32.7784 19.2363 32.7459 19.3022 32.7272 19.3726C32.7085 19.4429 32.704 19.5163 32.7137 19.5885C32.7235 19.6606 32.7475 19.7301 32.7843 19.7929C32.8211 19.8557 32.8699 19.9107 32.928 19.9545C32.9861 19.9984 33.0523 20.0303 33.1228 20.0485C33.1934 20.0666 33.2668 20.0706 33.3388 20.0603C33.4109 20.0499 33.4802 20.0254 33.5427 19.9882C33.6053 19.9509 33.6598 19.9016 33.7032 19.8432C35.7777 17.0985 37.4172 14.447 38.5301 12.0705C38.5443 12.0403 38.5725 12.022 38.6058 12.0215C38.6391 12.0211 38.6679 12.0384 38.6829 12.0682C40.0164 14.7028 40.7782 17.6758 40.8057 20.8242C40.806 20.8398 40.8018 20.8553 40.7936 20.8687L40.0473 22.1125C40.0371 22.1301 40.0207 22.1432 40.0013 22.1494L36.987 23.1542C36.9707 23.1595 36.9565 23.1695 36.9461 23.1831C36.9357 23.1967 36.9297 23.2131 36.929 23.2301L36.8491 24.6598C36.8481 24.6753 36.8515 24.6908 36.8589 24.7044L37.9498 26.7591C37.9601 26.7785 37.9626 26.7984 37.9572 26.8196L37.4562 28.8234C37.4509 28.843 37.4532 28.8639 37.4626 28.8819L38.3048 30.5664C38.3112 30.5787 38.3144 30.5925 38.3141 30.6064C38.3138 30.6203 38.31 30.6339 38.3031 30.6459C34.8667 36.7977 28.3364 40.8065 21.0001 40.8065C17.7863 40.8065 14.7511 40.041 12.0671 38.6826C12.0528 38.6755 12.0408 38.6645 12.0325 38.6509C12.0243 38.6372 12.0201 38.6215 12.0205 38.6055C12.0206 38.5895 12.0252 38.5739 12.0339 38.5604C12.0425 38.547 12.0549 38.5364 12.0694 38.5298C14.0663 37.5945 16.2588 36.2864 18.5388 34.6602C18.5487 34.6534 18.557 34.6444 18.5631 34.6341C18.5691 34.6237 18.5729 34.6121 18.574 34.6001C18.5754 34.5882 18.5742 34.576 18.5705 34.5646C18.5668 34.5531 18.5606 34.5426 18.5523 34.5339L17.9208 33.8393C17.9069 33.8239 17.8878 33.8141 17.8671 33.8119C17.8464 33.8097 17.8257 33.8151 17.8088 33.8272C15.2844 35.6216 12.8816 37.0092 10.754 37.9126C10.7416 37.918 10.7281 37.9204 10.7145 37.9194C10.701 37.9184 10.688 37.9141 10.6765 37.9068C10.1655 37.5941 9.669 37.2585 9.1884 36.9009C9.17339 36.8899 9.16244 36.8742 9.15726 36.8564C9.15209 36.8385 9.15297 36.8194 9.15978 36.8021C10.0362 34.5269 11.3325 33.205 13.5459 33.9667C13.5601 33.9719 13.5755 33.973 13.5904 33.97C13.6053 33.967 13.619 33.96 13.6302 33.9498C13.6416 33.9398 13.6501 33.9269 13.6548 33.9125C13.6594 33.898 13.66 33.8826 13.6565 33.8678ZM19.8981 34.4314L22.8141 37.3473C22.8219 37.3554 22.8314 37.3618 22.8418 37.3661C22.8523 37.3704 22.8635 37.3725 22.8748 37.3722C22.886 37.3723 22.8972 37.37 22.9076 37.3656C22.9179 37.3612 22.9273 37.3547 22.9351 37.3466C23.1197 37.157 23.2463 36.9958 23.3278 36.7269C23.3928 36.5121 23.4028 36.2781 23.3542 36.0358L22.7421 32.9753L22.7432 32.9751C22.7249 32.8834 22.7303 32.7885 22.7588 32.6995C22.7873 32.6104 22.838 32.53 22.9062 32.466L29.9444 25.8299C29.9555 25.8197 29.9636 25.8066 29.9677 25.792L30.9516 22.4396C30.9606 22.4089 30.9527 22.3781 30.9302 22.3555C30.9076 22.3329 30.8767 22.3251 30.8461 22.3341L27.4936 23.318C27.4791 23.3221 27.466 23.3301 27.4557 23.3413L20.847 30.3505L20.8434 30.3545C20.7799 30.4312 20.6967 30.4892 20.6029 30.5225C20.509 30.5557 20.4079 30.563 20.3103 30.5435L17.2497 29.9313C16.7655 29.8345 16.3195 29.9694 15.9702 30.3186L15.9379 30.351C15.922 30.367 15.913 30.3886 15.913 30.4111C15.913 30.4336 15.922 30.4553 15.9379 30.4712L19.8981 34.4314ZM28.739 28.4814L26.3902 30.6959C26.3759 30.7092 26.3666 30.7272 26.3641 30.7466C26.3615 30.7661 26.3658 30.7858 26.3763 30.8024L30.0108 36.6735C30.0175 36.6845 30.0265 36.6939 30.0374 36.7007C30.0482 36.7076 30.0605 36.7119 30.0733 36.7133C30.086 36.7149 30.0989 36.7136 30.1111 36.7094C30.1232 36.7052 30.1342 36.6982 30.1431 36.6889L30.7389 36.0932C31.1431 35.6889 31.2642 35.145 31.0718 34.6105L28.8773 28.5144C28.8727 28.501 28.8648 28.489 28.8542 28.4796C28.8437 28.4701 28.8309 28.4636 28.8171 28.4605C28.8034 28.4571 28.789 28.4572 28.7753 28.4608C28.7617 28.4645 28.7491 28.4716 28.739 28.4814ZM24.771 24.4083L18.6749 22.2138C18.1405 22.0213 17.5965 22.1424 17.1923 22.5467L16.5965 23.1424C16.5873 23.1514 16.5803 23.1624 16.5761 23.1745C16.5719 23.1866 16.5706 23.1996 16.5722 23.2123C16.5735 23.2251 16.5778 23.2374 16.5847 23.2482C16.5916 23.2591 16.6009 23.2681 16.6119 23.2747L22.4831 26.9092C22.4997 26.9196 22.5194 26.924 22.5388 26.9214C22.5583 26.9189 22.5762 26.9096 22.5896 26.8952L24.8041 24.5465C24.814 24.5363 24.821 24.5238 24.8247 24.5101C24.8283 24.4965 24.8284 24.4821 24.8249 24.4684C24.8218 24.4546 24.8152 24.4418 24.8058 24.4313C24.7964 24.4208 24.7844 24.4129 24.771 24.4083ZM32.8339 3.4882C32.8024 3.49854 32.7808 3.52419 32.7762 3.55703C32.7715 3.58986 32.7851 3.62049 32.8124 3.63925C34.9927 5.12603 36.875 7.00837 38.3616 9.18874C38.3803 9.21612 38.4109 9.22971 38.4438 9.22502C38.4766 9.22033 38.5023 9.19889 38.5126 9.1674C39.3355 6.66503 39.3415 4.69717 38.3224 3.67802C37.0861 2.44167 34.6173 2.90497 32.8339 3.4882ZM31.4477 2.78349C23.2157 -1.94805 12.839 -0.532034 6.15353 6.15349C-0.531611 12.8385 -1.94792 23.2144 2.78267 31.4462C2.79588 31.4692 2.79799 31.4944 2.78842 31.5191C1.84632 33.9583 1.07595 37.2831 2.89658 39.1037C4.37472 40.5819 7.09333 40.5201 10.4801 39.2112C10.4918 39.2065 10.5046 39.2045 10.5172 39.2055C10.5299 39.2065 10.5421 39.2104 10.553 39.217C18.7849 43.9483 29.1615 42.5321 35.8469 35.8468C42.5321 29.1616 43.9484 18.7857 39.2176 10.5538C39.2111 10.5429 39.2072 10.5307 39.2062 10.518C39.2052 10.5054 39.2071 10.4927 39.2118 10.4809C39.3204 10.2005 39.4227 9.9178 39.5187 9.63289C40.5231 6.64282 40.4596 4.25235 39.1039 2.89664C37.2834 1.07619 33.9637 1.84446 31.5208 2.78933C31.509 2.79405 31.4962 2.79598 31.4836 2.79497C31.4709 2.79395 31.4586 2.79003 31.4477 2.78349ZM9.1683 38.5133C9.18347 38.5086 9.19695 38.4995 9.20715 38.4873C9.21735 38.4751 9.22383 38.4603 9.22583 38.4445C9.22826 38.4288 9.22613 38.4127 9.2197 38.3981C9.21327 38.3836 9.20281 38.3712 9.18955 38.3624C7.00896 36.8757 5.12642 34.9934 3.63948 32.813C3.62082 32.7856 3.59018 32.772 3.55735 32.7767C3.52452 32.7814 3.49887 32.8028 3.48853 32.8343C3.20222 33.7063 3.01623 34.5134 2.93755 35.2415C2.50948 39.2027 5.32802 39.7794 9.1683 38.5133Z" fill="#DCA546"/>
</g>
<defs>
<clipPath id="clip0_4191_26869">
<rect width="42" height="42" fill="white"/>
</clipPath>
</defs>
</svg>
