<svg width="42" height="42" viewBox="0 0 42 42" fill="none" xmlns="http://www.w3.org/2000/svg">
<path fill-rule="evenodd" clip-rule="evenodd" d="M24.6835 31.0714V10.1084C24.6835 8.89868 23.6917 7.90689 22.482 7.90689H4.02968C2.82747 7.90689 1.82812 8.89095 1.82812 10.1084V34.7115C1.82812 35.9213 2.81991 36.913 4.02968 36.913H22.482C23.6917 36.913 24.6835 35.9212 24.6835 34.7115V31.0714ZM10.7547 6.84253H20.8994C20.921 6.84251 20.9418 6.83394 20.9571 6.81869C20.9724 6.80344 20.9811 6.78275 20.9812 6.76113C20.9829 6.45688 20.9879 6.21144 20.8516 5.92046C20.579 5.33851 19.9384 4.98882 19.2681 5.11204L10.7399 6.68016C10.7198 6.68381 10.7018 6.69487 10.6895 6.71115C10.6771 6.72744 10.6713 6.74776 10.6732 6.76811C10.6751 6.78845 10.6844 6.80737 10.6995 6.82114C10.7146 6.83492 10.7343 6.84255 10.7547 6.84253ZM30.5048 9.83352L25.7718 14.5665C25.7641 14.574 25.758 14.583 25.7539 14.593C25.7498 14.6029 25.7477 14.6136 25.7479 14.6244V32.102C25.7479 32.1243 25.7557 32.1434 25.7713 32.1594C26.0032 32.3953 26.1686 32.6194 26.474 32.6194C26.5503 32.6197 26.626 32.605 26.6966 32.5759C26.7672 32.5469 26.8314 32.5042 26.8855 32.4503L40.0035 19.3323C40.2289 19.1069 40.2289 18.7347 40.0035 18.5094L31.3278 9.83352C31.1024 9.60815 30.7302 9.60815 30.5048 9.83352ZM31.8852 17.9929L31.3525 14.2116C31.2961 13.8113 31.9008 13.6527 32.0848 14.0158L34.1203 18.0317C34.1346 18.06 34.1617 18.0766 34.1933 18.0766H36.822C37.2986 18.0766 37.7765 18.4014 37.7765 18.9358C37.7765 19.4427 37.296 19.7747 36.822 19.7747H34.1933C34.1782 19.7745 34.1633 19.7786 34.1503 19.7865C34.1374 19.7945 34.127 19.8059 34.1203 19.8195L32.0848 23.8355C31.9008 24.1985 31.2962 24.0401 31.3525 23.6397L31.8852 19.8584C31.8869 19.847 31.8862 19.8354 31.883 19.8243C31.8799 19.8133 31.8743 19.803 31.8668 19.7943C31.8595 19.7854 31.8504 19.7782 31.84 19.7731C31.8297 19.7681 31.8183 19.7654 31.8068 19.7652L29.39 19.685C29.3758 19.6844 29.3617 19.6875 29.3492 19.694C29.3366 19.7006 29.3261 19.7104 29.3186 19.7224L28.3069 21.2858C28.0911 21.6195 27.5221 21.4312 27.5952 21.0436L27.9914 18.9408C27.9934 18.9308 27.9934 18.9205 27.9914 18.9105L27.5952 16.8077C27.5222 16.42 28.0911 16.2318 28.3069 16.5654L29.3186 18.1289C29.3261 18.1408 29.3367 18.1506 29.3492 18.1572C29.3618 18.1638 29.3758 18.1669 29.39 18.1662L31.8068 18.0861C31.8309 18.0853 31.8512 18.0753 31.8668 18.057C31.8823 18.0386 31.8885 18.0167 31.8852 17.9929ZM15.9646 12.1097C15.9437 12.0792 15.9455 12.0402 15.9689 12.0117C15.9922 11.9832 16.0299 11.9738 16.0639 11.988C18.5313 13.0219 20.2743 15.3589 20.4995 18.0892C20.5006 18.1005 20.4992 18.1119 20.4955 18.1226C20.4918 18.1333 20.4859 18.1431 20.4781 18.1514C20.4705 18.1598 20.4612 18.1666 20.4508 18.1711C20.4404 18.1757 20.4292 18.1779 20.4178 18.1777L17.746 18.1757C17.7248 18.1757 17.7044 18.1675 17.6892 18.1528C17.674 18.1381 17.665 18.1181 17.6642 18.0969C17.5728 15.6641 16.9275 13.5198 15.9646 12.1097ZM13.7843 11.6341C13.7843 11.6059 13.7973 11.5816 13.8209 11.566C13.832 11.5584 13.845 11.5537 13.8584 11.5524C13.8719 11.5511 13.8854 11.5533 13.8978 11.5587C15.3549 12.1703 16.4756 14.8241 16.5997 18.0899C16.6006 18.113 16.5929 18.1331 16.5768 18.1498C16.5608 18.1664 16.5409 18.1749 16.5178 18.1748L13.8604 18.1729C13.8387 18.1728 13.8179 18.1642 13.8026 18.1488C13.7872 18.1335 13.7786 18.1127 13.7786 18.091L13.7843 11.6341ZM10.983 13.4154C11.438 12.5024 11.9996 11.8482 12.6084 11.5719C12.6346 11.5601 12.6625 11.5622 12.6866 11.5777C12.7107 11.5932 12.7241 11.6179 12.7241 11.6466L12.7186 18.0901C12.7185 18.1118 12.7099 18.1326 12.6945 18.148C12.6792 18.1633 12.6584 18.1719 12.6367 18.1719L9.99444 18.1699C9.9834 18.1701 9.97245 18.1679 9.96229 18.1636C9.95214 18.1593 9.943 18.1529 9.93547 18.1448C9.92769 18.137 9.92164 18.1276 9.91772 18.1172C9.9138 18.1069 9.91209 18.0959 9.91271 18.0848C9.98503 16.2584 10.3805 14.6244 10.983 13.4154ZM6.09465 18.1669C6.08329 18.1671 6.07203 18.1648 6.06164 18.1602C6.05124 18.1556 6.04196 18.1489 6.03443 18.1404C6.02661 18.1321 6.02066 18.1223 6.01698 18.1116C6.0133 18.1008 6.01197 18.0894 6.01309 18.0781C6.24048 15.3702 7.96105 13.0505 10.4007 12.0079C10.4346 11.9934 10.4724 12.0026 10.4959 12.031C10.5194 12.0594 10.5215 12.0983 10.5008 12.1289C9.46171 13.672 8.92814 15.92 8.84742 18.09C8.84661 18.1112 8.83764 18.1312 8.82239 18.1459C8.80713 18.1606 8.78678 18.1688 8.7656 18.1688L6.09465 18.1669ZM10.031 24.4471C10.1765 24.7392 10.3335 25.0108 10.501 25.2597C10.5111 25.2743 10.516 25.2918 10.5151 25.3095C10.5142 25.3272 10.5075 25.3441 10.4961 25.3576C10.4849 25.3714 10.4696 25.3811 10.4524 25.3853C10.4352 25.3894 10.4171 25.3878 10.4009 25.3807C7.9629 24.3389 6.24283 22.0216 6.01359 19.3159C6.01158 19.2923 6.01888 19.2712 6.03493 19.2536C6.05097 19.2361 6.07147 19.2272 6.09524 19.2272L8.76602 19.2292C8.80995 19.2292 8.84607 19.264 8.84775 19.308C8.92285 21.3018 9.36091 23.1025 10.031 24.4471ZM12.7119 25.7365C12.7121 25.7503 12.7087 25.7638 12.7021 25.7759C12.6955 25.788 12.6858 25.7982 12.6741 25.8054C12.6626 25.813 12.6493 25.8175 12.6356 25.8184C12.6218 25.8194 12.6081 25.8167 12.5957 25.8107C11.9918 25.5311 11.4348 24.8796 10.983 23.9732C10.3818 22.7667 9.98671 21.137 9.91304 19.3152C9.91243 19.3042 9.91414 19.2931 9.91806 19.2828C9.92198 19.2725 9.92803 19.2631 9.93581 19.2552C9.94335 19.2471 9.9525 19.2407 9.96267 19.2364C9.97284 19.2321 9.98381 19.2299 9.99486 19.2301L12.6356 19.2321C12.6807 19.2321 12.7175 19.269 12.7175 19.314L12.7119 25.7365ZM15.5286 23.9731C15.0696 24.8941 14.502 25.5519 13.8869 25.8238C13.8608 25.8354 13.8331 25.8331 13.8091 25.8175C13.7852 25.802 13.7719 25.7774 13.772 25.7489L13.7775 19.3148C13.7775 19.2697 13.8143 19.233 13.8594 19.233L16.5166 19.235C16.5397 19.235 16.5596 19.2435 16.5757 19.2602C16.5916 19.2768 16.5994 19.297 16.5983 19.3201C16.5242 21.1398 16.1293 22.7678 15.5286 23.9731ZM18.3954 23.8339C17.7394 24.4903 16.964 25.0153 16.1108 25.3806C16.0946 25.3877 16.0765 25.3893 16.0593 25.3851C16.0422 25.3809 16.0268 25.3713 16.0156 25.3576C16.0042 25.344 15.9975 25.3271 15.9967 25.3094C15.9958 25.2917 16.0008 25.2742 16.0109 25.2596C17.1259 23.6058 17.5889 21.2613 17.6636 19.3146C17.6645 19.2934 17.6734 19.2734 17.6887 19.2588C17.7039 19.2441 17.7243 19.2359 17.7455 19.2359L20.4156 19.2379C20.4394 19.2379 20.4598 19.2469 20.4759 19.2645C20.4919 19.282 20.4991 19.3031 20.4971 19.3268C20.348 21.0567 19.5892 22.6402 18.3954 23.8339ZM5.45525 29.9542H21.0564C21.1975 29.9542 21.3329 30.0103 21.4327 30.1101C21.5325 30.2099 21.5885 30.3452 21.5885 30.4863C21.5885 30.6275 21.5325 30.7628 21.4327 30.8626C21.3329 30.9624 21.1975 31.0185 21.0564 31.0185H5.45525C5.31411 31.0185 5.17876 30.9624 5.07897 30.8626C4.97917 30.7628 4.92311 30.6275 4.92311 30.4863C4.92311 30.3452 4.97917 30.2099 5.07897 30.1101C5.17876 30.0103 5.31411 29.9542 5.45525 29.9542ZM7.37918 33.7611C7.37918 33.62 7.43525 33.4846 7.53504 33.3848C7.63484 33.285 7.77019 33.2289 7.91132 33.2289H18.6004C18.7415 33.2289 18.8769 33.285 18.9767 33.3848C19.0765 33.4846 19.1325 33.62 19.1325 33.7611C19.1325 33.9022 19.0765 34.0376 18.9767 34.1374C18.8769 34.2372 18.7415 34.2932 18.6004 34.2932H7.91132C7.77019 34.2932 7.63484 34.2372 7.53504 34.1374C7.43525 34.0376 7.37918 33.9022 7.37918 33.7611ZM13.2558 27.027C8.65388 27.027 4.92311 23.2961 4.92311 18.6943C4.92311 13.554 9.48951 9.71894 14.4752 10.4501C18.5598 11.0491 21.6151 14.5804 21.5885 18.75C21.5589 23.3626 17.8019 27.027 13.2558 27.027Z" fill="#DCA546"/>
</svg>
