<svg width="20" height="20" viewBox="0 0 20 20" fill="none" xmlns="http://www.w3.org/2000/svg">
<path d="M12.0837 3.3335H7.91699L5.83366 5.8335H3.33366C2.89163 5.8335 2.46771 6.00909 2.15515 6.32165C1.84259 6.63421 1.66699 7.05814 1.66699 7.50016V15.0002C1.66699 15.4422 1.84259 15.8661 2.15515 16.1787C2.46771 16.4912 2.89163 16.6668 3.33366 16.6668H16.667C17.109 16.6668 17.5329 16.4912 17.8455 16.1787C18.1581 15.8661 18.3337 15.4422 18.3337 15.0002V7.50016C18.3337 7.05814 18.1581 6.63421 17.8455 6.32165C17.5329 6.00909 17.109 5.8335 16.667 5.8335H14.167L12.0837 3.3335Z" stroke="white" stroke-width="2" stroke-linecap="round" stroke-linejoin="round"/>
<path d="M10 13.3335C11.3807 13.3335 12.5 12.2142 12.5 10.8335C12.5 9.45278 11.3807 8.3335 10 8.3335C8.61929 8.3335 7.5 9.45278 7.5 10.8335C7.5 12.2142 8.61929 13.3335 10 13.3335Z" stroke="white" stroke-width="2" stroke-linecap="round" stroke-linejoin="round"/>
</svg>
