<svg width="16" height="16" viewBox="0 0 16 16" fill="none" xmlns="http://www.w3.org/2000/svg">
<path d="M10.6665 8.66652L14.1485 10.9879C14.1987 11.0213 14.257 11.0404 14.3172 11.0433C14.3775 11.0462 14.4373 11.0327 14.4905 11.0042C14.5437 10.9758 14.5881 10.9334 14.6191 10.8817C14.6501 10.83 14.6665 10.7708 14.6665 10.7105V5.24652C14.6665 5.18787 14.6511 5.13025 14.6217 5.07948C14.5923 5.02872 14.5501 4.9866 14.4992 4.95738C14.4484 4.92817 14.3907 4.91289 14.332 4.91309C14.2734 4.91329 14.2158 4.92896 14.1652 4.95852L10.6665 6.99985" stroke="white" stroke-width="1.3" stroke-linecap="round" stroke-linejoin="round"/>
<path d="M9.3335 4H2.66683C1.93045 4 1.3335 4.59695 1.3335 5.33333V10.6667C1.3335 11.403 1.93045 12 2.66683 12H9.3335C10.0699 12 10.6668 11.403 10.6668 10.6667V5.33333C10.6668 4.59695 10.0699 4 9.3335 4Z" stroke="white" stroke-width="1.3" stroke-linecap="round" stroke-linejoin="round"/>
</svg>
