<svg width="80" height="80" viewBox="0 0 80 80" fill="none" xmlns="http://www.w3.org/2000/svg">
<g clip-path="url(#clip0_4191_18321)">
<path fill-rule="evenodd" clip-rule="evenodd" d="M14.8271 23.9776C15.0057 23.9565 15.166 23.9683 15.2372 23.8287C15.2507 23.8025 15.2588 23.7739 15.2611 23.7445C15.2635 23.7151 15.26 23.6856 15.2509 23.6576C15.2418 23.6295 15.2273 23.6036 15.2081 23.5812C15.189 23.5588 15.1656 23.5404 15.1393 23.527C11.1958 21.5101 10.33 16.1999 13.4878 13.0422C15.9803 10.5498 19.9819 10.4814 22.5554 12.8399C22.8055 13.0691 23.0049 12.8262 22.9648 12.6542C21.9913 8.47725 18.2507 5.50415 13.9494 5.50415C8.83576 5.50415 4.69115 9.64894 4.69115 14.7625C4.69115 20.2038 9.34491 24.4751 14.823 23.9781L14.8271 23.9776ZM74.2756 59.6968L71.474 53.6932C71.4615 53.6656 71.4413 53.6422 71.4158 53.626C71.3902 53.6097 71.3605 53.6013 71.3302 53.6017H69.6347C69.5927 53.6018 69.5524 53.6185 69.5227 53.6482C69.493 53.6779 69.4763 53.7182 69.4762 53.7602V59.7636C69.4762 59.851 69.5474 59.9221 69.6347 59.9221H74.1317C74.1875 59.9221 74.2354 59.8958 74.2654 59.8487C74.2802 59.8265 74.2889 59.8008 74.2907 59.7741C74.2924 59.7474 74.2873 59.7208 74.2756 59.6968ZM49.1885 72.8584C50.0036 71.0449 48.6852 68.9485 46.6573 68.9485C44.1795 68.9485 42.9617 71.9495 44.6959 73.6837C46.0731 75.0607 48.3963 74.6211 49.1885 72.8584ZM70.4996 70.586C69.6845 72.3995 71.0029 74.4959 73.0307 74.4959C75.5086 74.4959 76.7266 71.4951 74.9922 69.7607C73.6146 68.3833 71.2918 68.8235 70.4996 70.586ZM43.2541 53.6017H67.0452C67.1326 53.6017 67.2037 53.673 67.2037 53.7602V61.0585C67.2037 61.3599 67.3235 61.6488 67.5365 61.8619C67.7496 62.075 68.0386 62.1947 68.3399 62.1948H75.9012C75.9236 62.1948 75.9429 62.1988 75.9636 62.2076L79.1412 63.5693C79.6902 63.8045 80.0002 64.2793 80.0002 64.879V69.1624C80 69.3492 79.963 69.5342 79.8912 69.7067C79.8195 69.8792 79.7143 70.0358 79.5819 70.1675C79.123 70.6263 78.6477 70.593 78.0715 70.5867C78.0365 70.5865 78.0026 70.5747 77.9751 70.5531C77.9476 70.5316 77.9281 70.5014 77.9197 70.4675C77.6948 69.5919 77.2386 68.7929 76.5988 68.1541C73.8153 65.3706 69.0944 66.7276 68.142 70.4664C68.1336 70.5007 68.1139 70.5312 68.086 70.5529C68.0581 70.5746 68.0237 70.5863 67.9884 70.586H51.6997C51.6644 70.5863 51.6301 70.5747 51.6022 70.5531C51.5743 70.5314 51.5546 70.501 51.5461 70.4668C51.3212 69.5914 50.8651 68.7926 50.2254 68.1541C47.4512 65.3799 42.7233 66.7167 41.7684 70.4664C41.76 70.5007 41.7403 70.5312 41.7125 70.5529C41.6846 70.5746 41.6503 70.5862 41.615 70.586H38.3548C38.3128 70.5859 38.2725 70.5691 38.2428 70.5394C38.2131 70.5097 38.1964 70.4695 38.1963 70.4275V54.3947C38.1967 54.1845 38.2804 53.983 38.429 53.8344C38.5776 53.6858 38.7791 53.6021 38.9892 53.6017H43.2541ZM42.537 56.2124C41.8705 56.2124 41.3254 56.7575 41.3254 57.4239V59.8472C41.3254 60.5136 41.8705 61.0587 42.537 61.0587H61.4412C62.1077 61.0587 62.6528 60.5136 62.6528 59.8472V57.4239C62.6528 56.7575 62.1077 56.2124 61.4412 56.2124H42.537ZM38.9892 51.3292H76.286C76.3301 51.3292 76.368 51.3134 76.3989 51.282C76.4298 51.2506 76.4452 51.2125 76.4445 51.1685C76.4349 50.4682 76.3459 49.9252 75.7769 49.356C74.9738 48.5529 74.1099 48.6873 73.0283 48.6873H38.9891C38.7789 48.6877 38.5774 48.7714 38.4288 48.92C38.2802 49.0686 38.1965 49.2701 38.1961 49.4803V50.5361C38.1965 50.7463 38.2802 50.9478 38.4289 51.0965C38.5775 51.2451 38.779 51.3288 38.9892 51.3292ZM69.8051 46.4677L69.8344 36.7231C69.8346 36.6577 69.8719 36.602 69.9325 36.5771C69.993 36.5522 70.0589 36.5653 70.1052 36.6115L72.556 39.0623C72.6517 39.158 72.7653 39.234 72.8904 39.2858C73.0155 39.3376 73.1495 39.3642 73.2849 39.3642C73.4202 39.3642 73.5543 39.3376 73.6793 39.2858C73.8044 39.234 73.918 39.158 74.0138 39.0623C74.1095 38.9666 74.1854 38.8529 74.2372 38.7279C74.289 38.6028 74.3157 38.4688 74.3157 38.3334C74.3157 38.198 74.289 38.064 74.2372 37.9389C74.1854 37.8139 74.1095 37.7002 74.0138 37.6045L69.8911 33.4818C69.8761 33.4672 69.8642 33.4497 69.8562 33.4304C69.8482 33.411 69.8443 33.3903 69.8446 33.3694L69.8628 27.2954C69.8625 27.264 69.8717 27.2332 69.8892 27.2072C69.9068 27.1811 69.9317 27.1609 69.9609 27.1494C69.9898 27.1371 70.0217 27.1338 70.0525 27.1399C70.0833 27.1461 70.1115 27.1613 70.1334 27.1838L72.5558 29.6061C72.7502 29.7943 73.0107 29.8985 73.2812 29.8963C73.5518 29.8941 73.8106 29.7857 74.0019 29.5944C74.1932 29.4031 74.3016 29.1443 74.3038 28.8738C74.306 28.6032 74.2017 28.3427 74.0136 28.1483L69.5732 23.7082C69.4775 23.6124 69.3639 23.5365 69.2388 23.4847C69.1138 23.4329 68.9797 23.4062 68.8443 23.4062C68.709 23.4062 68.5749 23.4329 68.4499 23.4847C68.3248 23.5365 68.2112 23.6124 68.1155 23.7082L63.6753 28.1483C63.482 28.3417 63.3734 28.6038 63.3734 28.8772C63.3734 29.1506 63.482 29.4128 63.6753 29.6061C63.8686 29.7994 64.1308 29.908 64.4042 29.908C64.6776 29.908 64.9397 29.7994 65.1331 29.6061L67.5382 27.201C67.5602 27.1784 67.5885 27.1631 67.6194 27.157C67.6503 27.1509 67.6823 27.1543 67.7113 27.1667C67.7405 27.1785 67.7655 27.1988 67.7829 27.225C67.8004 27.2512 67.8095 27.2821 67.809 27.3136L67.7906 33.4243C67.7908 33.4451 67.7869 33.4657 67.7789 33.4849C67.7709 33.5041 67.759 33.5215 67.7441 33.5359L63.6753 37.6047C63.5796 37.7004 63.5036 37.8141 63.4518 37.9391C63.4 38.0642 63.3734 38.1982 63.3734 38.3336C63.3734 38.469 63.4 38.603 63.4518 38.7281C63.5036 38.8531 63.5796 38.9668 63.6753 39.0625C63.771 39.1582 63.8846 39.2341 64.0097 39.2859C64.1348 39.3377 64.2688 39.3644 64.4042 39.3644C64.5395 39.3644 64.6736 39.3377 64.7986 39.2859C64.9237 39.2341 65.0373 39.1582 65.1331 39.0625L67.5098 36.6857C67.5318 36.6632 67.5601 36.6479 67.591 36.6418C67.6219 36.6357 67.6539 36.6391 67.6828 36.6515C67.7121 36.6633 67.7371 36.6836 67.7545 36.7098C67.772 36.736 67.7811 36.7669 67.7806 36.7984L67.7515 46.467C67.7513 46.5107 67.7669 46.5484 67.7978 46.5795C67.8287 46.6105 67.8664 46.6262 67.9101 46.6262H69.6466C69.6886 46.6259 69.7287 46.6092 69.7584 46.5795C69.7881 46.5498 69.8048 46.5096 69.8051 46.4677ZM55.5814 46.4659L55.5036 36.9409C55.5031 36.8753 55.5403 36.8188 55.6009 36.7933C55.6614 36.7679 55.7278 36.781 55.7743 36.8274L58.0088 39.0621C58.2032 39.2503 58.4637 39.3545 58.7343 39.3523C59.0048 39.3501 59.2636 39.2417 59.4549 39.0504C59.6462 38.8591 59.7546 38.6003 59.7568 38.3298C59.759 38.0593 59.6548 37.7987 59.4666 37.6044L55.5224 33.66C55.5076 33.6456 55.4959 33.6284 55.4879 33.6093C55.4799 33.5903 55.4758 33.5699 55.4759 33.5492L55.4259 27.407C55.4254 27.3414 55.4626 27.2848 55.5231 27.2594C55.5837 27.2339 55.65 27.2471 55.6965 27.2934L58.0088 29.6059C58.1046 29.7017 58.2182 29.7776 58.3433 29.8294C58.4683 29.8812 58.6024 29.9079 58.7377 29.9079C58.8731 29.9079 59.0071 29.8812 59.1322 29.8294C59.2573 29.7776 59.3709 29.7017 59.4666 29.6059C59.5623 29.5102 59.6383 29.3966 59.6901 29.2715C59.7419 29.1465 59.7685 29.0124 59.7685 28.8771C59.7685 28.7417 59.7419 28.6076 59.6901 28.4826C59.6383 28.3575 59.5623 28.2439 59.4666 28.1482L55.4447 24.1261C55.4299 24.1117 55.4181 24.0945 55.4101 24.0754C55.4021 24.0564 55.3981 24.036 55.3982 24.0153L55.3481 17.8731C55.3476 17.8072 55.3848 17.7509 55.4454 17.7255C55.5059 17.7 55.5723 17.7132 55.6188 17.7595L58.009 20.1501C58.2034 20.3383 58.4639 20.4425 58.7344 20.4403C59.005 20.4381 59.2638 20.3297 59.4551 20.1384C59.6464 19.9471 59.7548 19.6883 59.757 19.4178C59.7592 19.1472 59.655 18.8867 59.4668 18.6923L55.0266 14.2522C54.9309 14.1564 54.8173 14.0805 54.6922 14.0287C54.5671 13.9769 54.4331 13.9502 54.2977 13.9502C54.1624 13.9502 54.0283 13.9769 53.9033 14.0287C53.7782 14.0805 53.6646 14.1564 53.5688 14.2522L49.1287 18.6923C49.033 18.7881 48.957 18.9017 48.9052 19.0267C48.8534 19.1518 48.8268 19.2858 48.8268 19.4212C48.8268 19.5566 48.8534 19.6906 48.9052 19.8157C48.957 19.9407 49.033 20.0544 49.1287 20.1501C49.2244 20.2458 49.338 20.3217 49.4631 20.3736C49.5882 20.4254 49.7222 20.452 49.8576 20.452C49.9929 20.452 50.127 20.4254 50.252 20.3736C50.3771 20.3217 50.4907 20.2458 50.5864 20.1501L53.0234 17.7132C53.0695 17.667 53.1352 17.6539 53.1955 17.6786C53.2559 17.7033 53.2935 17.7588 53.294 17.8241L53.3433 23.867C53.3438 23.8881 53.3399 23.909 53.3319 23.9286C53.3239 23.9481 53.312 23.9657 53.2968 23.9804L49.1287 28.1485C49.033 28.2442 48.957 28.3579 48.9052 28.4829C48.8534 28.608 48.8267 28.742 48.8267 28.8774C48.8267 29.0128 48.8534 29.1468 48.9052 29.2719C48.957 29.3969 49.033 29.5106 49.1287 29.6063C49.2244 29.702 49.338 29.7779 49.4631 29.8297C49.5882 29.8816 49.7222 29.9082 49.8576 29.9082C49.9929 29.9082 50.127 29.8816 50.252 29.8297C50.3771 29.7779 50.4907 29.702 50.5864 29.6063L53.0999 27.0928C53.146 27.0467 53.2117 27.0335 53.2721 27.0583C53.3324 27.083 53.37 27.1385 53.3705 27.2038L53.4198 33.2467C53.4203 33.2677 53.4164 33.2887 53.4084 33.3082C53.4004 33.3277 53.3885 33.3454 53.3733 33.36L49.1287 37.6047C48.9354 37.798 48.8268 38.0602 48.8268 38.3336C48.8268 38.607 48.9354 38.8692 49.1287 39.0625C49.322 39.2558 49.5842 39.3644 49.8576 39.3644C50.1309 39.3644 50.3931 39.2558 50.5864 39.0625L53.1764 36.4725C53.2226 36.4263 53.2882 36.4132 53.3486 36.4379C53.409 36.4627 53.4465 36.5181 53.447 36.5834L53.5276 46.4687C53.528 46.5105 53.5448 46.5505 53.5745 46.5799C53.6042 46.6094 53.6443 46.6259 53.6861 46.626H55.4227C55.4666 46.626 55.5043 46.6102 55.5352 46.5791C55.5503 46.5644 55.5621 46.5468 55.5701 46.5273C55.578 46.5078 55.5819 46.4869 55.5814 46.4659ZM24.9047 70.617H7.14931L7.17265 70.6167L1.03093 70.617C0.757512 70.617 0.49529 70.5084 0.301953 70.3151C0.108616 70.1217 0 69.8595 0 69.5861V57.2591C0 56.0202 1.0097 55.0107 2.24861 55.0107H5.93164C6.91308 55.0107 7.73112 55.6315 8.0458 56.4972C8.06686 56.5552 8.11548 56.5936 8.17656 56.6006C8.23781 56.6076 8.2938 56.5813 8.32749 56.5297L29.7484 23.7176C29.7835 23.6638 29.7835 23.5981 29.7484 23.5442L26.736 18.93C26.5877 18.7014 26.5363 18.4234 26.593 18.1569C26.6497 17.8905 26.8099 17.6574 27.0383 17.509C27.2668 17.3606 27.5448 17.309 27.8113 17.3655C28.0778 17.422 28.3109 17.5821 28.4595 17.8104L30.8994 21.5478C30.9296 21.594 30.977 21.6198 31.0321 21.6198C31.0872 21.6198 31.1347 21.5942 31.1647 21.5478L33.6047 17.8104C33.6781 17.6972 33.7732 17.5996 33.8844 17.5232C33.9956 17.4468 34.1208 17.393 34.2528 17.365C34.3848 17.3369 34.5211 17.3352 34.6537 17.3598C34.7864 17.3845 34.9129 17.435 35.0261 17.5085C35.2546 17.657 35.4148 17.8901 35.4715 18.1567C35.5281 18.4233 35.4766 18.7014 35.3281 18.93L32.3157 23.5442C32.2806 23.5981 32.2806 23.6638 32.3157 23.7176L47.1109 46.3804C47.1435 46.4305 47.146 46.4901 47.1175 46.5426C47.0891 46.5951 47.0378 46.6256 46.978 46.6256H43.5433C43.5146 46.626 43.4864 46.6185 43.4618 46.6038C43.4371 46.5891 43.4171 46.5679 43.4038 46.5424L38.6746 37.7893C38.6548 37.754 38.6222 37.7275 38.5836 37.7154C38.5449 37.7033 38.5031 37.7064 38.4666 37.7241C38.4302 37.7419 38.402 37.7729 38.3876 37.8108C38.3733 37.8487 38.3741 37.8906 38.3897 37.928L42.0866 46.4036C42.1087 46.4542 42.1041 46.5077 42.074 46.5538C42.0438 46.6 41.9964 46.6256 41.9413 46.6256H40.0444C40.0135 46.626 39.9831 46.6171 39.9572 46.6002C39.9314 46.5833 39.9111 46.559 39.8991 46.5305L31.1774 26.5351C31.1516 26.4759 31.0965 26.44 31.0321 26.44C30.9676 26.44 30.9125 26.4759 30.8867 26.5351L12.6545 68.3333C12.6324 68.3839 12.6369 68.4374 12.6671 68.4836C12.6973 68.5297 12.7447 68.5553 12.7998 68.5553H14.6337C14.6648 68.5557 14.6953 68.5468 14.7213 68.5296C14.7472 68.5125 14.7675 68.4879 14.7793 68.4592L30.8887 30.8578C30.9005 30.8292 30.9207 30.8048 30.9464 30.7877C30.9722 30.7706 31.0025 30.7615 31.0335 30.7617C31.0644 30.7611 31.0948 30.7697 31.1208 30.7865C31.1468 30.8033 31.1673 30.8275 31.1795 30.8559L38.0803 46.4198C38.1012 46.4668 38.0989 46.5161 38.074 46.561C38.049 46.606 38.0083 46.6339 37.9574 46.6411C36.9942 46.7764 35.892 47.7763 35.892 48.6873V56.6041C35.892 56.6785 35.8426 56.7412 35.7701 56.7584C35.6976 56.7756 35.6251 56.7417 35.5918 56.6752C34.7458 54.9872 33 53.8473 31.0321 53.8473C28.231 53.8473 25.9355 56.1429 25.9355 58.9436V68.3965C25.9355 68.4839 26.0067 68.555 26.094 68.555H35.7334C35.8208 68.555 35.8919 68.6262 35.8919 68.7135V70.458C35.8918 70.5 35.8751 70.5403 35.8454 70.57C35.8157 70.5997 35.7754 70.6164 35.7334 70.6165H24.9047V70.617ZM10.211 68.5552C10.242 68.5555 10.2723 68.5467 10.2982 68.5297C10.3241 68.5128 10.3443 68.4885 10.3564 68.46L22.7156 40.1259C22.7309 40.0882 22.7311 40.0461 22.7163 40.0082C22.7014 39.9704 22.6726 39.9397 22.6357 39.9225C22.5989 39.9053 22.5568 39.9029 22.5183 39.9158C22.4797 39.9287 22.4476 39.9559 22.4285 39.9918L8.2945 68.3259C8.26923 68.3765 8.27186 68.4321 8.30152 68.4802C8.33118 68.5283 8.3798 68.5553 8.43631 68.5553L10.211 68.5552Z" fill="#DCA546"/>
</g>
<defs>
<clipPath id="clip0_4191_18321">
<rect width="80" height="80" fill="white"/>
</clipPath>
</defs>
</svg>
