<svg width="80" height="80" viewBox="0 0 80 80" fill="none" xmlns="http://www.w3.org/2000/svg">
<g clip-path="url(#clip0_4191_18313)">
<path fill-rule="evenodd" clip-rule="evenodd" d="M73.9647 11.5247L63.5457 17.2935C63.5154 17.3098 63.491 17.3353 63.476 17.3662C63.461 17.3971 63.456 17.432 63.4619 17.4659C63.807 19.5941 62.1682 21.5525 59.9851 21.5525C59.0948 21.5525 58.2819 21.2221 57.6618 20.6772C57.6362 20.6542 57.604 20.6398 57.5698 20.6361C57.5355 20.6324 57.501 20.6396 57.4711 20.6567L31.1424 35.2345C31.1121 35.2508 31.0878 35.2762 31.0727 35.3071C31.0577 35.3381 31.0528 35.3729 31.0586 35.4068C31.4037 37.5354 29.7648 39.4934 27.5819 39.4934C26.6916 39.4934 25.8786 39.163 25.2585 38.6182C25.233 38.5951 25.2008 38.5808 25.1665 38.5771C25.1323 38.5734 25.0978 38.5806 25.0679 38.5977L7.08246 48.5561C7.0522 48.5725 7.02783 48.5979 7.0128 48.6288C6.99776 48.6598 6.99282 48.6946 6.99867 48.7285C7.34376 50.857 5.70482 52.8151 3.52191 52.8151C1.57669 52.8151 0 51.2382 0 49.2932C0 46.2409 3.60895 44.6738 5.84505 46.646C5.87063 46.6691 5.90282 46.6835 5.93708 46.6873C5.97133 46.6911 6.0059 46.684 6.03589 46.667L24.0215 36.7087C24.0517 36.6924 24.076 36.6669 24.091 36.636C24.106 36.6051 24.111 36.5702 24.1051 36.5363C23.7597 34.4087 25.3986 32.4498 27.5819 32.4498C28.4721 32.4498 29.2851 32.7802 29.9052 33.325C29.9308 33.348 29.963 33.3623 29.9972 33.366C30.0314 33.3697 30.0659 33.3625 30.0958 33.3455L56.4246 18.7678C56.4548 18.7514 56.4791 18.726 56.4941 18.695C56.5091 18.6641 56.514 18.6293 56.5082 18.5954C56.1627 16.4677 57.8017 14.5086 59.9849 14.5086C60.8752 14.5086 61.6882 14.839 62.3083 15.3839C62.3338 15.4069 62.366 15.4213 62.4002 15.425C62.4345 15.4287 62.469 15.4216 62.4989 15.4046L72.9179 9.63578C72.9482 9.61942 72.9725 9.59398 72.9875 9.56306C73.0025 9.53213 73.0074 9.49728 73.0015 9.46341C72.6561 7.33624 74.2949 5.37683 76.4783 5.37683C78.4235 5.37683 80.0002 6.95352 80.0002 8.89874C80.0002 11.9505 76.3919 13.5183 74.1552 11.5458C74.1297 11.5227 74.0975 11.5082 74.0633 11.5044C74.0291 11.5006 73.9946 11.5077 73.9647 11.5247ZM26.4987 67.4255V53.8251C26.4986 53.7809 26.481 53.7386 26.4498 53.7074C26.4186 53.6762 26.3763 53.6586 26.3321 53.6585H17.3884C17.3628 53.6581 17.3375 53.6639 17.3145 53.6752C17.2915 53.6865 17.2716 53.7031 17.2562 53.7237C16.6398 54.5259 16.1192 55.3975 15.705 56.3206C15.2355 57.37 14.9084 58.4774 14.7323 59.6135C14.7299 59.6283 14.7296 59.6433 14.7315 59.6581L15.6229 67.4446C15.6274 67.4854 15.6468 67.523 15.6774 67.5503C15.7079 67.5775 15.7475 67.5925 15.7885 67.5924H26.3321C26.3763 67.5922 26.4186 67.5745 26.4498 67.5432C26.481 67.512 26.4986 67.4697 26.4987 67.4255ZM39.4592 56.3204C39.0451 55.3973 38.5245 54.5257 37.908 53.7235C37.8927 53.703 37.8727 53.6863 37.8497 53.675C37.8268 53.6637 37.8014 53.658 37.7758 53.6583H28.8321C28.7879 53.6584 28.7456 53.676 28.7144 53.7072C28.6832 53.7384 28.6656 53.7807 28.6655 53.8249V67.4253C28.6655 67.5171 28.7404 67.5919 28.8321 67.5919H39.3758C39.4167 67.592 39.4563 67.577 39.4869 67.5498C39.5174 67.5225 39.5368 67.4848 39.5413 67.4441L40.4328 59.6576C40.4346 59.6428 40.4343 59.6278 40.4319 59.613C40.2558 58.477 39.9287 57.3697 39.4592 56.3204ZM61.0684 35.8841V49.4845C61.0684 49.5764 61.1433 49.6511 61.235 49.6511H71.7787C71.8196 49.6513 71.8592 49.6363 71.8898 49.609C71.9203 49.5817 71.9397 49.5441 71.9442 49.5034L72.8357 41.7169C72.8375 41.702 72.8372 41.687 72.8348 41.6722C72.6587 40.5362 72.3315 39.4287 71.8621 38.3793C71.449 37.4565 70.9298 36.5851 70.3148 35.7825C70.2995 35.7619 70.2796 35.7453 70.2565 35.7339C70.2335 35.7225 70.2081 35.7168 70.1825 35.7172H61.2348C61.1907 35.7175 61.1485 35.7352 61.1173 35.7664C61.0861 35.7977 61.0686 35.84 61.0684 35.8841ZM58.7352 35.7176H49.7876C49.7619 35.7172 49.7365 35.7229 49.7135 35.7343C49.6905 35.7456 49.6705 35.7623 49.6552 35.7829C49.0403 36.5854 48.5211 37.4569 48.1079 38.3796C47.6385 39.4291 47.3114 40.5365 47.1352 41.6726C47.1328 41.6873 47.1325 41.7024 47.1344 41.7172L48.0258 49.5037C48.0303 49.5444 48.0497 49.582 48.0803 49.6093C48.1108 49.6366 48.1504 49.6516 48.1914 49.6514H58.735C58.7792 49.6514 58.8215 49.6338 58.8527 49.6026C58.8839 49.5713 58.9015 49.529 58.9016 49.4849V35.8845C58.9016 35.8403 58.8841 35.7979 58.8529 35.7666C58.8217 35.7353 58.7794 35.7176 58.7352 35.7176ZM38.763 69.7589H16.4012C16.3444 69.7589 16.2957 69.7845 16.2637 69.8314C16.2317 69.8783 16.2254 69.933 16.2459 69.9858C16.8299 71.4895 17.6249 72.8844 18.6325 74.1235C18.6652 74.1637 18.71 74.1851 18.7618 74.1851H36.4026C36.4274 74.1855 36.452 74.1801 36.4745 74.1694C36.4969 74.1587 36.5165 74.143 36.5319 74.1235C37.5395 72.8844 38.3345 71.4895 38.9183 69.9858C38.9285 69.9606 38.9322 69.9333 38.9291 69.9063C38.926 69.8794 38.9162 69.8536 38.9005 69.8314C38.8855 69.8088 38.865 69.7903 38.841 69.7776C38.817 69.7649 38.7902 69.7585 38.763 69.7589ZM71.1659 51.8178H48.8046C48.7775 51.8174 48.7506 51.8238 48.7266 51.8365C48.7026 51.8492 48.6821 51.8677 48.6671 51.8903C48.6515 51.9125 48.6416 51.9383 48.6385 51.9653C48.6354 51.9923 48.6391 52.0197 48.6493 52.0449C49.232 53.5408 50.0124 54.9243 51.0354 56.1824C51.0681 56.2226 51.1129 56.244 51.1647 56.244H68.8055C68.8304 56.2443 68.8549 56.239 68.8774 56.2283C68.8998 56.2176 68.9194 56.2019 68.9348 56.1824C69.9504 54.9334 70.7412 53.5379 71.3212 52.0447C71.3314 52.0195 71.3351 51.9922 71.332 51.9652C71.3289 51.9383 71.3191 51.9125 71.3034 51.8903C71.2884 51.8677 71.268 51.8492 71.2439 51.8365C71.2199 51.8238 71.1931 51.8174 71.1659 51.8178ZM28.6654 41.2804C28.6657 41.2558 28.6605 41.2314 28.6499 41.2091C28.6394 41.1868 28.6239 41.1672 28.6047 41.1518C28.5859 41.1359 28.5637 41.1245 28.5398 41.1184C28.5159 41.1124 28.4909 41.1119 28.4668 41.117C27.8837 41.2303 27.28 41.2303 26.6971 41.117C26.6464 41.1072 26.5989 41.1192 26.5592 41.1518C26.5196 41.1845 26.4985 41.229 26.4985 41.2804V46.2563C26.4985 46.3293 26.4537 46.3914 26.3845 46.4144C24.8507 46.9239 23.7665 48.3709 23.7665 50.0367V51.3253C23.7665 51.4171 23.8414 51.4918 23.9331 51.4918H31.2307C31.2748 51.4917 31.3171 51.4742 31.3483 51.4429C31.3795 51.4117 31.3971 51.3694 31.3972 51.3253V50.0367C31.3972 48.3713 30.313 46.9239 28.7793 46.4144C28.7459 46.4037 28.7168 46.3825 28.6963 46.3541C28.6757 46.3256 28.6649 46.2913 28.6652 46.2563L28.6654 41.2804ZM61.1827 28.4733C61.1493 28.4626 61.1202 28.4414 61.0996 28.413C61.0791 28.3845 61.0682 28.3502 61.0686 28.3151V23.3393C61.069 23.3147 61.0637 23.2903 61.0532 23.268C61.0427 23.2457 61.0272 23.2261 61.0079 23.2107C60.9891 23.1947 60.967 23.1833 60.9431 23.1772C60.9192 23.1712 60.8942 23.1707 60.8701 23.1758C60.2871 23.2892 59.6833 23.2892 59.1003 23.1758C59.0762 23.1707 59.0512 23.1712 59.0274 23.1773C59.0035 23.1833 58.9813 23.1948 58.9625 23.2107C58.9432 23.2261 58.9277 23.2457 58.9172 23.268C58.9067 23.2903 58.9014 23.3147 58.9018 23.3393V28.3151C58.9018 28.3882 58.857 28.4502 58.7877 28.4733C57.2539 28.9829 56.1698 30.43 56.1698 32.0956V33.384C56.1698 33.4758 56.2447 33.5505 56.3363 33.5505H63.6339C63.6781 33.5505 63.7204 33.5329 63.7516 33.5017C63.7828 33.4704 63.8004 33.4281 63.8005 33.384V32.0956C63.8006 30.4302 62.7164 28.9828 61.1827 28.4733ZM75.7151 68.7506C75.839 68.6817 75.9753 68.6379 76.1162 68.6217C76.257 68.6054 76.3997 68.6171 76.5361 68.656C76.6724 68.6949 76.7998 68.7603 76.9109 68.8484C77.022 68.9365 77.1146 69.0457 77.1835 69.1696C77.2524 69.2935 77.2963 69.4298 77.3125 69.5707C77.3288 69.7115 77.3171 69.8542 77.2782 69.9906C77.2393 70.1269 77.1739 70.2543 77.0858 70.3654C76.9976 70.4765 76.8885 70.5691 76.7646 70.638L69.8129 74.4869C69.689 74.5558 69.5527 74.5996 69.4118 74.6159C69.271 74.6321 69.1283 74.6205 68.9919 74.5816C68.8556 74.5426 68.7282 74.4773 68.6171 74.3891C68.506 74.301 68.4134 74.1919 68.3445 74.0679C68.2756 73.944 68.2318 73.8077 68.2155 73.6669C68.1993 73.526 68.2109 73.3833 68.2498 73.2469C68.2887 73.1106 68.3541 72.9832 68.4423 72.8721C68.5304 72.7611 68.6395 72.6684 68.7635 72.5995L75.7151 68.7506ZM75.9538 62.4669L59.0013 71.8532C58.8774 71.9221 58.7682 72.0148 58.6801 72.1259C58.592 72.237 58.5266 72.3643 58.4877 72.5007C58.4488 72.637 58.4371 72.7797 58.4534 72.9206C58.4696 73.0614 58.5134 73.1977 58.5823 73.3217C58.6512 73.4456 58.7439 73.5547 58.855 73.6429C58.9661 73.731 59.0934 73.7964 59.2298 73.8353C59.3661 73.8742 59.5088 73.8858 59.6497 73.8696C59.7906 73.8534 59.9268 73.8095 60.0508 73.7406L77.0033 64.3544C77.1272 64.2854 77.2364 64.1928 77.3245 64.0817C77.4126 63.9706 77.478 63.8433 77.5169 63.7069C77.5558 63.5705 77.5675 63.4279 77.5512 63.287C77.535 63.1461 77.4912 63.0098 77.4223 62.8859C77.3534 62.762 77.2607 62.6528 77.1496 62.5647C77.0385 62.4766 76.9112 62.4112 76.7748 62.3723C76.6385 62.3334 76.4958 62.3217 76.3549 62.338C76.214 62.3542 76.0778 62.398 75.9538 62.4669ZM37.5024 17.7621L30.0262 21.9013C29.9023 21.9702 29.7932 22.0629 29.705 22.174C29.6169 22.2851 29.5515 22.4124 29.5126 22.5488C29.4737 22.6851 29.4621 22.8278 29.4783 22.9687C29.4945 23.1095 29.5384 23.2458 29.6073 23.3698C29.6762 23.4937 29.7688 23.6028 29.8799 23.691C29.991 23.7791 30.1184 23.8445 30.2547 23.8834C30.3911 23.9223 30.5338 23.9339 30.6746 23.9177C30.8155 23.9015 30.9518 23.8576 31.0757 23.7887L38.5518 19.6495C38.6758 19.5806 38.7849 19.4879 38.873 19.3768C38.9612 19.2658 39.0265 19.1384 39.0654 19.002C39.1044 18.8657 39.116 18.723 39.0998 18.5821C39.0835 18.4413 39.0397 18.305 38.9708 18.181C38.9019 18.0571 38.8093 17.948 38.6982 17.8598C38.5871 17.7717 38.4597 17.7063 38.3234 17.6674C38.187 17.6285 38.0443 17.6169 37.9035 17.6331C37.7626 17.6493 37.6263 17.6932 37.5024 17.7621ZM27.6527 13.9556L10.7461 23.3164C10.6222 23.3853 10.5131 23.478 10.4249 23.5891C10.3368 23.7001 10.2714 23.8275 10.2325 23.9639C10.1936 24.1002 10.182 24.2429 10.1982 24.3838C10.2144 24.5246 10.2583 24.6609 10.3272 24.7849C10.3961 24.9088 10.4887 25.0179 10.5998 25.106C10.7109 25.1942 10.8383 25.2596 10.9746 25.2985C11.111 25.3374 11.2537 25.349 11.3945 25.3328C11.5354 25.3166 11.6717 25.2727 11.7956 25.2038L28.7023 15.843C28.9487 15.7018 29.1296 15.4692 29.2057 15.1956C29.2818 14.922 29.2471 14.6294 29.1091 14.3812C28.9711 14.133 28.7408 13.9492 28.4682 13.8695C28.1956 13.7899 27.9026 13.8208 27.6527 13.9556ZM25.823 24.2286L8.87052 33.6148C8.74659 33.6838 8.63745 33.7764 8.54932 33.8875C8.4612 33.9986 8.39581 34.1259 8.35691 34.2623C8.318 34.3987 8.30634 34.5413 8.32258 34.6822C8.33882 34.8231 8.38264 34.9594 8.45155 35.0833C8.52046 35.2072 8.6131 35.3164 8.72419 35.4045C8.83528 35.4926 8.96264 35.558 9.099 35.5969C9.23536 35.6358 9.37804 35.6475 9.51891 35.6312C9.65978 35.615 9.79607 35.5712 9.91999 35.5023L26.8725 26.116C26.9964 26.0471 27.1056 25.9544 27.1937 25.8433C27.2818 25.7322 27.3472 25.6049 27.3861 25.4685C27.425 25.3322 27.4367 25.1895 27.4205 25.0486C27.4042 24.9078 27.3604 24.7715 27.2915 24.6475C27.2226 24.5236 27.1299 24.4145 27.0188 24.3263C26.9078 24.2382 26.7804 24.1728 26.644 24.1339C26.5077 24.095 26.365 24.0834 26.2241 24.0996C26.0833 24.1158 25.947 24.1597 25.823 24.2286Z" fill="#DCA546"/>
</g>
<defs>
<clipPath id="clip0_4191_18313">
<rect width="80" height="80" fill="white"/>
</clipPath>
</defs>
</svg>
