<svg width="80" height="80" viewBox="0 0 80 80" fill="none" xmlns="http://www.w3.org/2000/svg">
<path fill-rule="evenodd" clip-rule="evenodd" d="M49.5742 29.8206L56.6454 43.054C56.78 43.3076 56.7885 43.6214 56.7056 43.874C56.7124 43.8535 56.7188 43.8328 56.7244 43.8121C56.7425 43.7447 56.7971 43.6979 56.8663 43.69C56.9356 43.6821 56.9992 43.7155 57.0322 43.7771L72.1361 72.042C72.5224 72.7655 71.9892 73.6297 71.184 73.6291V73.6332H9.51651C8.73861 73.6332 8.11718 72.7922 8.60797 71.9599C8.60916 71.9578 8.61036 71.956 8.61138 71.9537L14.7092 60.5425C14.7231 60.5156 14.7442 60.4931 14.7702 60.4776C14.7961 60.462 14.8259 60.454 14.8561 60.4544H21.6633C24.5358 60.4544 26.8821 58.108 26.8821 55.2355C26.8821 52.8611 25.2706 50.8166 23.0443 50.203C23.0203 50.1968 22.9981 50.1852 22.9793 50.169C22.9606 50.1529 22.9458 50.1326 22.9361 50.1098C22.9257 50.0873 22.9207 50.0628 22.9214 50.038C22.9221 50.0132 22.9284 49.989 22.94 49.9671C24.3533 47.1852 23.5823 44.7018 23.4629 44.2564C23.4514 44.2156 23.4565 44.1719 23.4769 44.1348L31.1755 29.728C31.2675 29.5554 31.4047 29.411 31.5724 29.3104C31.7401 29.2098 31.9321 29.1566 32.1277 29.1567V29.1526H48.5723C48.7842 29.1526 48.9914 29.2147 49.1683 29.3312C49.3453 29.4478 49.4842 29.6136 49.5679 29.8082L49.5742 29.8206ZM51.5797 13.1957C52.825 11.1712 55.6187 10.6626 57.5011 12.1993C58.2123 12.7798 58.7075 13.5873 58.8895 14.489C58.9779 14.9275 59.363 15.2454 59.8102 15.2449L60.1853 15.2445V15.2493C61.4238 15.2464 62.3612 15.2758 63.3628 16.2774C65.5653 18.4799 63.9844 22.2388 60.8957 22.2388H46.36C46.3044 22.2388 46.2567 22.2141 46.2244 22.169C46.1921 22.1238 46.1844 22.0707 46.2023 22.0182L46.2969 21.7423C46.9158 19.9367 48.6244 18.7027 50.538 18.7027C50.7885 18.7027 51.0288 18.6032 51.206 18.426C51.3832 18.2489 51.4827 18.0086 51.4827 17.758C51.4827 17.5075 51.3832 17.2672 51.206 17.09C51.0288 16.9128 50.7885 16.8133 50.538 16.8133C47.0324 16.8133 44.1679 19.678 44.1679 23.1834V26.9291C44.1678 26.9732 44.1502 27.0155 44.119 27.0467C44.0878 27.0779 44.0455 27.0955 44.0014 27.0956H36.3595C36.3154 27.0955 36.2731 27.0779 36.2419 27.0467C36.2106 27.0155 36.1931 26.9732 36.193 26.9291V23.1834C36.193 19.678 33.3283 16.8133 29.8229 16.8133C29.5723 16.8133 29.3321 16.9128 29.1549 17.09C28.9777 17.2672 28.8782 17.5075 28.8782 17.758C28.8782 18.0086 28.9777 18.2489 29.1549 18.426C29.3321 18.6032 29.5723 18.7027 29.8229 18.7027C31.7366 18.7027 33.4448 19.9367 34.064 21.7423L34.1585 22.0182C34.1765 22.0707 34.1688 22.1238 34.1365 22.169C34.1042 22.2141 34.0564 22.2388 34.0009 22.2388H19.4652C16.3763 22.2388 14.7956 18.4799 16.9981 16.2774C18.0983 15.1773 19.1211 15.2502 20.5505 15.2502C21.0519 15.2502 21.4008 14.9109 21.4906 14.4008C21.6321 13.5967 22.2192 12.7224 22.86 12.1993C24.8362 10.5859 27.8254 11.2275 28.9588 13.5158C29.3094 14.2236 30.4257 14.2778 30.7217 13.3099C31.826 9.69903 35.0443 6.98878 38.7698 6.46431C43.5482 5.79158 48.2236 8.65949 49.6589 13.372C49.9049 14.1802 51.026 14.2737 51.4004 13.5155L51.5621 13.1875L51.5797 13.1957ZM24.3369 44.2121C24.1283 44.0108 24.0141 43.7615 23.9997 43.4715C24.0106 43.753 24.1317 44.019 24.3369 44.2121ZM23.9988 43.4381L23.9995 43.3849C23.999 43.4027 23.9987 43.4204 23.9988 43.4381ZM24.0011 43.3566L24.0531 43.0882C24.0232 43.1748 24.0057 43.2651 24.0011 43.3566ZM56.4103 44.3323L56.3723 44.3655C56.3851 44.3547 56.3979 44.3434 56.4103 44.3323ZM56.2608 44.4469C56.0958 44.5459 55.9491 44.6008 55.7531 44.6139C55.9338 44.6025 56.1086 44.545 56.2608 44.4469ZM21.614 46.4475C21.614 41.8204 16.3445 39.2013 12.6618 41.882C11.6953 42.585 10.9764 43.5762 10.6085 44.7133C10.4434 45.2268 10.0102 45.4722 9.45854 45.4597C6.40372 45.3903 3.73332 47.9077 3.73332 51.1H3.72973C3.73474 51.3721 3.63678 51.6361 3.45548 51.8391C3.27417 52.042 3.02289 52.1691 2.75193 52.1947C0.239882 52.4364 -0.948426 55.5432 0.898931 57.3903C1.45264 57.9441 2.21549 58.2878 3.05375 58.2878H21.6638C24.339 58.2878 25.7581 55.0204 23.8186 53.0807C22.8572 52.1193 21.9567 52.1833 20.8265 52.1833V52.1802C19.8826 52.1802 19.3862 51.0398 20.048 50.3508C21.0593 49.2977 21.614 47.9145 21.614 46.4475ZM64.8811 37.7124C64.8811 35.4592 66.7286 33.6117 68.9818 33.6117C69.1241 33.6117 69.2649 33.5837 69.3964 33.5293C69.5278 33.4748 69.6472 33.395 69.7478 33.2944C69.8484 33.1938 69.9282 33.0744 69.9826 32.943C70.0371 32.8115 70.0651 32.6707 70.0651 32.5284C70.0651 32.3861 70.0371 32.2453 69.9826 32.1138C69.9282 31.9824 69.8484 31.863 69.7478 31.7624C69.6472 31.6618 69.5278 31.582 69.3964 31.5276C69.2649 31.4731 69.1241 31.4451 68.9818 31.4451C66.9362 31.4451 65.0875 32.4395 63.932 34.0098C63.8996 34.0539 63.8525 34.0777 63.7978 34.0777C63.7431 34.0777 63.6961 34.0539 63.6636 34.0098C62.5081 32.4395 60.659 31.4451 58.6138 31.4451C58.3265 31.4451 58.051 31.5592 57.8478 31.7624C57.6446 31.9656 57.5305 32.2411 57.5305 32.5284C57.5305 32.8157 57.6446 33.0913 57.8478 33.2944C58.051 33.4976 58.3265 33.6117 58.6138 33.6117C60.867 33.6117 62.7145 35.4592 62.7145 37.7124C62.7145 37.9997 62.8286 38.2753 63.0318 38.4784C63.235 38.6816 63.5105 38.7957 63.7978 38.7957C64.0851 38.7957 64.3607 38.6816 64.5638 38.4784C64.767 38.2753 64.8811 37.9997 64.8811 37.7124ZM72.6491 45.8033C72.6491 46.0906 72.7633 46.3661 72.9664 46.5693C73.1696 46.7725 73.4451 46.8866 73.7325 46.8866C74.0198 46.8866 74.2953 46.7725 74.4985 46.5693C74.7016 46.3661 74.8158 46.0906 74.8158 45.8033C74.8158 43.5501 76.6633 41.7026 78.9164 41.7026C79.2038 41.7026 79.4793 41.5885 79.6825 41.3853C79.8856 41.1822 79.9998 40.9066 79.9998 40.6193C79.9998 40.332 79.8856 40.0564 79.6825 39.8533C79.4793 39.6501 79.2038 39.536 78.9164 39.536C76.8714 39.536 75.0218 40.5304 73.8665 42.1007C73.8342 42.1448 73.787 42.1686 73.7323 42.1686C73.6776 42.1686 73.6305 42.1448 73.5981 42.1007C72.4427 40.5304 70.5935 39.536 68.5481 39.536C68.2608 39.536 67.9853 39.6501 67.7821 39.8533C67.579 40.0564 67.4648 40.332 67.4648 40.6193C67.4648 40.9066 67.579 41.1822 67.7821 41.3853C67.9853 41.5885 68.2608 41.7026 68.5481 41.7026C70.8018 41.7026 72.6491 43.5501 72.6491 45.8033ZM53.747 42.2086L47.975 31.4071C47.9611 31.3803 47.94 31.3578 47.914 31.3422C47.8881 31.3267 47.8583 31.3187 47.8281 31.3191H32.8724C32.8422 31.3187 32.8124 31.3267 32.7865 31.3422C32.7605 31.3578 32.7394 31.3803 32.7255 31.4071L26.9818 42.1558C26.954 42.2081 26.9548 42.2662 26.9844 42.3175C27.014 42.3688 27.0639 42.3989 27.1231 42.4008C28.5641 42.4496 29.7253 42.5822 30.7877 43.783C31.4016 44.477 31.7756 45.385 31.7756 46.3732V52.5868C31.7756 54.2068 33.7958 54.7613 34.7902 53.7666C34.9457 53.6119 35.0691 53.4281 35.1533 53.2257C35.2375 53.0232 35.2809 52.8061 35.281 52.5868V44.4096C35.281 40.9545 39.4908 39.1622 41.9693 41.6407C42.6792 42.3505 43.1198 43.3306 43.1198 44.4096V48.5376C43.1198 50.1576 45.1401 50.7121 46.1346 49.7174C46.2901 49.5627 46.4135 49.3789 46.4977 49.1765C46.5819 48.974 46.6253 48.7569 46.6254 48.5376V46.3732C46.6254 44.2153 48.3869 42.4538 50.5448 42.4538H53.6002C53.629 42.4542 53.6575 42.447 53.6826 42.4328C53.7077 42.4185 53.7286 42.3979 53.7431 42.3729C53.7582 42.3483 53.7666 42.3202 53.7673 42.2913C53.768 42.2624 53.761 42.2339 53.747 42.2086Z" fill="#DCA546"/>
</svg>
