<svg width="20" height="20" viewBox="0 0 20 20" fill="none" xmlns="http://www.w3.org/2000/svg">
<path d="M15.4167 17.4998C17.0275 17.4998 18.3333 16.194 18.3333 14.5832C18.3333 12.9723 17.0275 11.6665 15.4167 11.6665C13.8058 11.6665 12.5 12.9723 12.5 14.5832C12.5 16.194 13.8058 17.4998 15.4167 17.4998Z" stroke="white" stroke-width="2" stroke-linecap="round" stroke-linejoin="round"/>
<path d="M4.58366 17.4998C6.19449 17.4998 7.50033 16.194 7.50033 14.5832C7.50033 12.9723 6.19449 11.6665 4.58366 11.6665C2.97283 11.6665 1.66699 12.9723 1.66699 14.5832C1.66699 16.194 2.97283 17.4998 4.58366 17.4998Z" stroke="white" stroke-width="2" stroke-linecap="round" stroke-linejoin="round"/>
<path d="M12.5003 5.00016C12.9606 5.00016 13.3337 4.62707 13.3337 4.16683C13.3337 3.70659 12.9606 3.3335 12.5003 3.3335C12.0401 3.3335 11.667 3.70659 11.667 4.16683C11.667 4.62707 12.0401 5.00016 12.5003 5.00016Z" stroke="white" stroke-width="2" stroke-linecap="round" stroke-linejoin="round"/>
<path d="M10 14.5832V11.6665L7.5 9.1665L10.8333 6.6665L12.5 9.1665H14.1667" stroke="white" stroke-width="2" stroke-linecap="round" stroke-linejoin="round"/>
</svg>
