<svg width="80" height="80" viewBox="0 0 80 80" fill="none" xmlns="http://www.w3.org/2000/svg">
<path fill-rule="evenodd" clip-rule="evenodd" d="M9.27665 46.5015C9.27665 46.2098 9.39252 45.9301 9.59877 45.7238C9.80503 45.5176 10.0848 45.4017 10.3765 45.4017C10.6681 45.4017 10.9479 45.5176 11.1541 45.7238C11.3604 45.9301 11.4763 46.2098 11.4763 46.5015V60.5659C11.4763 60.8576 11.3604 61.1374 11.1541 61.3436C10.9479 61.5499 10.6681 61.6657 10.3765 61.6657C10.0848 61.6657 9.80503 61.5499 9.59877 61.3436C9.39252 61.1374 9.27665 60.8576 9.27665 60.5659V46.5015ZM22.6458 27.3849C22.6122 27.3658 22.5862 27.3356 22.5723 27.2995C22.5583 27.2634 22.5573 27.2236 22.5693 27.1868C23.3876 24.6327 22.3291 21.7868 19.9564 20.4163L11.8343 15.7269C11.7096 15.6547 11.5719 15.6077 11.4291 15.5887C11.2863 15.5697 11.1411 15.579 11.0019 15.6161C10.8627 15.6532 10.7321 15.7173 10.6177 15.8049C10.5033 15.8925 10.4072 16.0017 10.335 16.1264L5.6468 24.2464C5.57458 24.3711 5.52762 24.5088 5.50861 24.6516C5.4896 24.7944 5.49891 24.9396 5.53601 25.0788C5.57311 25.2181 5.63726 25.3486 5.72481 25.463C5.81237 25.5775 5.9216 25.6735 6.04628 25.7457L14.1664 30.4339L14.1675 30.4321C16.5022 31.8116 19.5369 31.2999 21.3425 29.315C21.3683 29.2862 21.4033 29.2672 21.4415 29.2613C21.4797 29.2553 21.5188 29.2628 21.5521 29.2824L57.3537 49.9524C57.3873 49.9715 57.4133 50.0017 57.4272 50.0378C57.4412 50.0739 57.4422 50.1137 57.4302 50.1505C56.6117 52.7052 57.6689 55.5458 60.0462 56.9202L60.0452 56.922L68.1652 61.6102C68.2899 61.6825 68.4276 61.7294 68.5704 61.7484C68.7132 61.7674 68.8584 61.7581 68.9976 61.721C69.1368 61.6839 69.2674 61.6198 69.3818 61.5322C69.4962 61.4447 69.5923 61.3354 69.6645 61.2108L74.3527 53.0907C74.4249 52.966 74.4719 52.8283 74.4909 52.6855C74.5099 52.5427 74.5006 52.3975 74.4635 52.2583C74.4264 52.1191 74.3623 51.9885 74.2747 51.8741C74.1871 51.7597 74.0779 51.6636 73.9532 51.5914L65.8288 46.9032C63.4517 45.5308 60.4629 46.0371 58.6591 48.0233C58.6333 48.0522 58.5983 48.0712 58.56 48.0772C58.5218 48.0831 58.4826 48.0757 58.4493 48.0561L51.1823 43.8606C51.4249 38.4877 51.2322 33.0152 50.6046 27.7968C50.252 24.865 49.7679 22.0357 49.1656 19.3346C49.1572 19.2945 49.134 19.2591 49.1008 19.2352C47.8027 18.2788 46.3975 17.5184 44.9116 16.9878C41.7149 15.8462 38.2843 15.8462 35.0876 16.9878C33.6015 17.5184 32.1965 18.2789 30.8982 19.2354C30.865 19.2592 30.8418 19.2947 30.8334 19.3347C30.2301 22.0413 29.7451 24.8769 29.3923 27.815L29.392 27.8186L29.068 31.0933L22.6458 27.3849ZM33.6229 33.7225C33.9272 30.4759 36.6773 27.9172 39.9997 27.9172C43.525 27.9172 46.4049 30.7972 46.4049 34.3223V41.1022L33.6229 33.7225ZM39.9998 64.3447C37.1742 64.3447 34.4678 63.6364 32.0006 62.3392C31.9715 62.3234 31.9383 62.3167 31.9054 62.3199C31.8724 62.3231 31.8412 62.336 31.8156 62.3571C31.7896 62.3776 31.7703 62.4053 31.7602 62.4368C31.75 62.4683 31.7495 62.5021 31.7586 62.5339C33.6628 69.4325 36.428 75.4894 39.8658 79.9343C39.899 79.9771 39.9455 79.9999 39.9997 79.9999C40.0538 79.9999 40.1005 79.9771 40.1335 79.9343C43.5727 75.4875 46.3354 69.4342 48.2407 62.5339C48.259 62.4674 48.2375 62.4004 48.1839 62.3571C48.1302 62.3138 48.06 62.307 47.9989 62.339C45.5318 63.6364 42.8255 64.3447 39.9998 64.3447ZM35.4753 48.3412C38.7767 51.6428 44.2771 50.3916 45.9523 46.1772C45.9609 46.1544 45.9745 46.1338 45.9921 46.1169C46.0097 46.1001 46.0309 46.0873 46.054 46.0797C46.0769 46.0714 46.1013 46.0682 46.1255 46.0705C46.1498 46.0728 46.1732 46.0804 46.1941 46.0929L50.6874 48.6871C50.7162 48.7032 50.7395 48.7275 50.7544 48.757C50.7693 48.7864 50.775 48.8196 50.771 48.8524L50.6048 50.343C50.2522 53.2746 49.7679 56.1038 49.1657 58.8047C49.1573 58.8448 49.1342 58.8802 49.1009 58.9041C47.8028 59.8605 46.3976 60.6209 44.9117 61.1515C41.7143 62.2933 38.285 62.2933 35.0878 61.1515C33.6017 60.6209 32.1967 59.8605 30.8984 58.9039C30.8651 58.8801 30.842 58.8446 30.8336 58.8046C30.2301 56.0977 29.7451 53.2617 29.3923 50.3232C28.847 45.7789 28.6298 41.0389 28.7463 36.3086C28.7466 36.2791 28.7548 36.2504 28.77 36.2252C28.7851 36.2 28.8068 36.1793 28.8326 36.1652C28.8581 36.1505 28.887 36.1428 28.9164 36.143C28.9459 36.1432 28.9747 36.1512 29 36.1663L33.5098 38.7701C33.5636 38.801 33.5944 38.8545 33.5944 38.9166V43.8168C33.5948 45.5794 34.3151 47.1809 35.4753 48.3412ZM41.1683 0.169605C41.1683 0.0938031 41.2159 0.0296763 41.2885 0.00768028C41.3231 -0.00321501 41.3604 -0.00250123 41.3947 0.00971327C41.4289 0.0219278 41.4582 0.0449761 41.4781 0.0753603C44.3031 4.29657 46.5932 9.63855 48.2409 15.6051C48.2501 15.6368 48.2496 15.6706 48.2395 15.7021C48.2293 15.7336 48.21 15.7614 48.1841 15.7819C48.1585 15.803 48.1273 15.8159 48.0943 15.8191C48.0614 15.8223 48.0282 15.8156 47.9991 15.7998C45.9235 14.7086 43.6757 14.0322 41.3243 13.8464C41.2819 13.8431 41.2422 13.824 41.2133 13.7927C41.1844 13.7615 41.1684 13.7204 41.1685 13.6779V0.169605H41.1683ZM38.5215 0.0753603C38.5637 0.012587 38.6388 -0.0143157 38.7112 0.00768028C38.7836 0.0296763 38.8313 0.0938031 38.8313 0.169605V13.678C38.8313 13.7665 38.7637 13.8396 38.6755 13.8466C36.3243 14.0323 34.076 14.7086 32.0006 15.8C31.9715 15.8157 31.9383 15.8224 31.9054 15.8192C31.8724 15.816 31.8412 15.8031 31.8156 15.782C31.7896 15.7616 31.7703 15.7338 31.7602 15.7023C31.75 15.6708 31.7495 15.637 31.7586 15.6052C33.4058 9.63974 35.6973 4.29572 38.5215 0.0753603ZM68.5234 29.2064C68.5234 28.9147 68.6393 28.635 68.8456 28.4287C69.0518 28.2225 69.3315 28.1066 69.6232 28.1066C69.9149 28.1066 70.1947 28.2225 70.4009 28.4287C70.6072 28.635 70.723 28.9147 70.723 29.2064V36.8877C70.723 37.1794 70.6072 37.4592 70.4009 37.6654C70.1947 37.8717 69.9149 37.9875 69.6232 37.9875C69.3315 37.9875 69.0518 37.8717 68.8456 37.6654C68.6393 37.4592 68.5234 37.1794 68.5234 36.8877V29.2064ZM68.5234 10.4538C68.5234 10.1621 68.6393 9.88234 68.8456 9.67608C69.0518 9.46983 69.3315 9.35396 69.6232 9.35396C69.9149 9.35396 70.1947 9.46983 70.4009 9.67608C70.6072 9.88234 70.723 10.1621 70.723 10.4538V24.5182C70.723 24.8099 70.6072 25.0896 70.4009 25.2959C70.1947 25.5021 69.9149 25.618 69.6232 25.618C69.3315 25.618 69.0518 25.5021 68.8456 25.2959C68.6393 25.0896 68.5234 24.8099 68.5234 24.5182V10.4538ZM60.0847 15.6106C60.0847 15.319 60.2006 15.0392 60.4069 14.833C60.6131 14.6267 60.8929 14.5108 61.1845 14.5108C61.4762 14.5108 61.756 14.6267 61.9622 14.833C62.1685 15.0392 62.2843 15.319 62.2843 15.6106V29.6751C62.2843 29.9667 62.1685 30.2465 61.9622 30.4527C61.756 30.659 61.4762 30.7749 61.1845 30.7749C60.8929 30.7749 60.6131 30.659 60.4069 30.4527C60.2006 30.2465 60.0847 29.9667 60.0847 29.6751V15.6106ZM17.7153 60.0971C17.7153 59.8054 17.8312 59.5257 18.0375 59.3194C18.2437 59.1132 18.5235 58.9973 18.8151 58.9973C19.1068 58.9973 19.3866 59.1132 19.5928 59.3194C19.7991 59.5257 19.9149 59.8054 19.9149 60.0971V67.7784C19.9149 68.0701 19.7991 68.3499 19.5928 68.5561C19.3866 68.7624 19.1068 68.8782 18.8151 68.8782C18.5235 68.8782 18.2437 68.7624 18.0375 68.5561C17.8312 68.3499 17.7153 68.0701 17.7153 67.7784V60.0971ZM17.7153 41.3446C17.7153 41.0529 17.8312 40.7732 18.0375 40.567C18.2437 40.3607 18.5235 40.2448 18.8151 40.2448C19.1068 40.2448 19.3866 40.3607 19.5928 40.567C19.7991 40.7732 19.9149 41.0529 19.9149 41.3446V55.4091C19.9149 55.7007 19.7991 55.9805 19.5928 56.1867C19.3866 56.393 19.1068 56.5089 18.8151 56.5089C18.5235 56.5089 18.2437 56.393 18.0375 56.1867C17.8312 55.9805 17.7153 55.7007 17.7153 55.4091V41.3446Z" fill="#DCA546"/>
</svg>
