<svg width="21" height="20" viewBox="0 0 21 20" fill="none" xmlns="http://www.w3.org/2000/svg">
<path d="M10.7487 1.6665C11.582 4.1665 12.832 4.58317 13.6654 5.4165C14.4504 6.1858 14.8997 7.23413 14.9154 8.33317C14.9154 9.43824 14.4764 10.498 13.695 11.2794C12.9136 12.0609 11.8538 12.4998 10.7487 12.4998C9.64363 12.4998 8.58382 12.0609 7.80242 11.2794C7.02102 10.498 6.58203 9.43824 6.58203 8.33317C6.58203 8.08317 6.58203 7.83317 6.66536 7.58317C6.73579 7.82962 6.8621 8.05651 7.03449 8.24619C7.20687 8.43587 7.42068 8.58324 7.6593 8.67683C7.89791 8.77043 8.15489 8.80773 8.41027 8.78583C8.66565 8.76393 8.91253 8.68343 9.13173 8.55059C9.35093 8.41774 9.53653 8.23613 9.67411 8.01987C9.81169 7.80361 9.89754 7.55853 9.92498 7.30369C9.95242 7.04885 9.92071 6.79112 9.83233 6.55053C9.74394 6.30993 9.60126 6.09297 9.41536 5.9165C7.41536 3.74984 9.91536 1.6665 10.7487 1.6665Z" stroke="#DCA546" stroke-width="2" stroke-linecap="round" stroke-linejoin="round"/>
<path d="M4.91797 18.3333L16.5846 15" stroke="#DCA546" stroke-width="2" stroke-linecap="round" stroke-linejoin="round"/>
<path d="M4.91797 15L16.5846 18.3333" stroke="#DCA546" stroke-width="2" stroke-linecap="round" stroke-linejoin="round"/>
</svg>
