<svg width="20" height="20" viewBox="0 0 20 20" fill="none" xmlns="http://www.w3.org/2000/svg">
<path d="M9.99967 1.6665C10.833 4.1665 12.083 4.58317 12.9163 5.4165C13.7014 6.1858 14.1507 7.23413 14.1663 8.33317C14.1663 9.43824 13.7274 10.498 12.946 11.2794C12.1646 12.0609 11.1047 12.4998 9.99967 12.4998C8.89461 12.4998 7.8348 12.0609 7.0534 11.2794C6.27199 10.498 5.83301 9.43824 5.83301 8.33317C5.83301 8.08317 5.83301 7.83317 5.91634 7.58317C5.98676 7.82962 6.11308 8.05651 6.28546 8.24619C6.45785 8.43587 6.67166 8.58324 6.91027 8.67683C7.14889 8.77043 7.40587 8.80773 7.66125 8.78583C7.91662 8.76393 8.16351 8.68343 8.3827 8.55059C8.6019 8.41774 8.78751 8.23613 8.92509 8.01987C9.06267 7.80361 9.14851 7.55853 9.17596 7.30369C9.2034 7.04885 9.17169 6.79112 9.0833 6.55053C8.99492 6.30993 8.85223 6.09297 8.66634 5.9165C6.66634 3.74984 9.16634 1.6665 9.99967 1.6665Z" stroke="white" stroke-width="2" stroke-linecap="round" stroke-linejoin="round"/>
<path d="M4.16699 18.3333L15.8337 15" stroke="white" stroke-width="2" stroke-linecap="round" stroke-linejoin="round"/>
<path d="M4.16699 15L15.8337 18.3333" stroke="white" stroke-width="2" stroke-linecap="round" stroke-linejoin="round"/>
</svg>
