<svg width="20" height="20" viewBox="0 0 20 20" fill="none" xmlns="http://www.w3.org/2000/svg">
<path d="M3.0951 2.53999C3.02015 2.5034 2.93592 2.49025 2.85338 2.50224C2.77085 2.51423 2.69384 2.55081 2.6324 2.60721C2.57096 2.66361 2.52794 2.73722 2.50895 2.81843C2.48996 2.89964 2.49588 2.98469 2.52594 3.06249L4.8951 9.41832C5.03483 9.79351 5.03483 10.2065 4.8951 10.5817L2.52677 16.9375C2.49686 17.0152 2.49102 17.1001 2.51 17.1812C2.52898 17.2622 2.57191 17.3357 2.6332 17.3921C2.69449 17.4484 2.77132 17.485 2.85369 17.4971C2.93607 17.5093 3.02018 17.4963 3.0951 17.46L18.0951 10.3767C18.1665 10.3429 18.2268 10.2896 18.269 10.2229C18.3112 10.1562 18.3336 10.0789 18.3336 9.99999C18.3336 9.92106 18.3112 9.84375 18.269 9.77707C18.2268 9.71039 18.1665 9.65707 18.0951 9.62332L3.0951 2.53999Z" stroke="#DCA546" stroke-width="1.3" stroke-linecap="round" stroke-linejoin="round"/>
<path d="M5 10H18.3333" stroke="#DCA546" stroke-width="1.3" stroke-linecap="round" stroke-linejoin="round"/>
</svg>
