<svg width="16" height="16" viewBox="0 0 16 16" fill="none" xmlns="http://www.w3.org/2000/svg">
<g clip-path="url(#clip0_4146_10244)">
<path d="M9.69119 14.4573C9.71652 14.5205 9.76055 14.5743 9.81737 14.6117C9.87419 14.6491 9.94109 14.6682 10.0091 14.6664C10.0771 14.6647 10.1429 14.6422 10.1977 14.602C10.2526 14.5617 10.2938 14.5057 10.3159 14.4413L14.6492 1.77467C14.6705 1.7156 14.6746 1.65167 14.6609 1.59037C14.6473 1.52907 14.6164 1.47293 14.572 1.42852C14.5276 1.38411 14.4715 1.35326 14.4102 1.3396C14.3489 1.32593 14.2849 1.33 14.2259 1.35133L1.55919 5.68467C1.49485 5.70673 1.4388 5.74795 1.39857 5.80278C1.35833 5.85762 1.33584 5.92345 1.33409 5.99144C1.33235 6.05943 1.35145 6.12633 1.38883 6.18315C1.4262 6.23998 1.48007 6.28401 1.54319 6.30933L6.82985 8.42933C6.99698 8.49625 7.14882 8.59631 7.27623 8.72349C7.40364 8.85067 7.50398 9.00233 7.57119 9.16933L9.69119 14.4573Z" stroke="#5F615E" stroke-width="1.3" stroke-linecap="round" stroke-linejoin="round"/>
<path d="M14.5687 1.43133L7.27539 8.724" stroke="#5F615E" stroke-width="1.3" stroke-linecap="round" stroke-linejoin="round"/>
</g>
<defs>
<clipPath id="clip0_4146_10244">
<rect width="16" height="16" fill="white"/>
</clipPath>
</defs>
</svg>
