<svg width="18" height="18" viewBox="0 0 18 18" fill="none" xmlns="http://www.w3.org/2000/svg">
<path d="M12.375 6.75H10.6875M4.66949 14.0625C4.66124 14.025 4.64849 13.9875 4.63049 13.9515C4.18724 13.0515 3.93749 12.039 3.93749 10.9687C3.93587 9.89238 4.19282 8.83136 4.68674 7.875M4.66949 14.0625C4.72649 14.3362 4.53224 14.625 4.23824 14.625H3.55724C2.89049 14.625 2.27249 14.2365 2.07824 13.599C1.82399 12.7665 1.68749 11.8837 1.68749 10.9687C1.68749 9.804 1.90874 8.69175 2.31074 7.67025C2.54024 7.08975 3.12524 6.75 3.74999 6.75H4.53974C4.89374 6.75 5.09849 7.167 4.91474 7.47C4.83434 7.60234 4.7578 7.73742 4.68674 7.875M4.66949 14.0625H5.63999C6.0027 14.0623 6.36307 14.1205 6.70724 14.235L9.04274 15.015C9.38691 15.1295 9.74728 15.1877 10.11 15.1875H13.122C13.5855 15.1875 14.0347 15.0022 14.3257 14.6407C15.6143 13.0434 16.3156 11.0523 16.3125 9C16.3125 8.6745 16.2952 8.35275 16.2615 8.03625C16.1797 7.2705 15.4905 6.75 14.721 6.75H12.3765C11.913 6.75 11.6332 6.207 11.8327 5.7885C12.191 5.03444 12.3763 4.20985 12.375 3.375C12.375 2.92745 12.1972 2.49822 11.8807 2.18176C11.5643 1.86529 11.135 1.6875 10.6875 1.6875C10.5383 1.6875 10.3952 1.74676 10.2897 1.85225C10.1843 1.95774 10.125 2.10082 10.125 2.25V2.72475C10.125 3.1545 10.0425 3.57975 9.88349 3.97875C9.65549 4.54875 9.18599 4.97625 8.64374 5.265C7.81128 5.7092 7.0807 6.32228 6.49874 7.065C6.12524 7.5405 5.57924 7.875 4.97474 7.875H4.68674" stroke="#8A8C8A" stroke-linecap="round" stroke-linejoin="round"/>
</svg>
