<svg width="24" height="24" viewBox="0 0 24 24" fill="none" xmlns="http://www.w3.org/2000/svg">
<path d="M19.2016 17.8317H8.50246C8.0615 17.8317 7.7041 17.4743 7.7041 17.0333C7.7041 16.5924 8.0615 16.235 8.50246 16.235H19.2013C19.6423 16.235 19.9997 16.5924 19.9997 17.0333C19.9997 17.4743 19.6426 17.8317 19.2016 17.8317Z" fill="#5F615E"/>
<path d="M19.2016 12.8202H8.50246C8.0615 12.8202 7.7041 12.4628 7.7041 12.0219C7.7041 11.5809 8.0615 11.2235 8.50246 11.2235H19.2013C19.6423 11.2235 19.9997 11.5809 19.9997 12.0219C20 12.4628 19.6426 12.8202 19.2016 12.8202Z" fill="#5F615E"/>
<path d="M19.2016 7.80925H8.50246C8.0615 7.80925 7.7041 7.45185 7.7041 7.01089C7.7041 6.56993 8.0615 6.21252 8.50246 6.21252H19.2013C19.6423 6.21252 19.9997 6.56993 19.9997 7.01089C19.9997 7.45185 19.6426 7.80925 19.2016 7.80925Z" fill="#5F615E"/>
<path d="M5.0722 8.14465C5.66436 8.14465 6.1444 7.66461 6.1444 7.07245C6.1444 6.48029 5.66436 6.00024 5.0722 6.00024C4.48004 6.00024 4 6.48029 4 7.07245C4 7.66461 4.48004 8.14465 5.0722 8.14465Z" fill="#5F615E"/>
<path d="M5.0722 13.0942C5.66436 13.0942 6.1444 12.6141 6.1444 12.022C6.1444 11.4298 5.66436 10.9498 5.0722 10.9498C4.48004 10.9498 4 11.4298 4 12.022C4 12.6141 4.48004 13.0942 5.0722 13.0942Z" fill="#5F615E"/>
<path d="M5.0722 18.0438C5.66436 18.0438 6.1444 17.5637 6.1444 16.9716C6.1444 16.3794 5.66436 15.8994 5.0722 15.8994C4.48004 15.8994 4 16.3794 4 16.9716C4 17.5637 4.48004 18.0438 5.0722 18.0438Z" fill="#5F615E"/>
</svg>
