<svg width="25" height="24" viewBox="0 0 25 24" fill="none" xmlns="http://www.w3.org/2000/svg">
<path d="M6.41992 4.5C7.16692 4.50006 7.79102 5.12244 7.79102 5.90527C7.79091 6.68807 7.16722 7.31049 6.41992 7.31055C5.67258 7.31055 5.04893 6.68811 5.04883 5.90527C5.04883 5.12239 5.67283 4.5 6.41992 4.5Z" stroke="#5F615E"/>
<path d="M12.4766 4.5C13.224 4.50006 13.8477 5.12243 13.8477 5.90527C13.8476 6.68795 13.2236 7.31049 12.4766 7.31055C11.7296 7.31055 11.1056 6.68804 11.1055 5.90527C11.1055 5.1224 11.7295 4.5 12.4766 4.5Z" stroke="#5F615E"/>
<path d="M18.6289 4.5C19.3763 4.50006 20 5.12232 20 5.90527C19.9999 6.688 19.3757 7.31049 18.6289 7.31055C17.882 7.31055 17.2579 6.68804 17.2578 5.90527C17.2578 5.12231 17.8814 4.5 18.6289 4.5Z" stroke="#5F615E"/>
<path d="M6.37109 10.6045C7.11818 10.6045 7.74219 11.2267 7.74219 12.0098C7.74218 12.7927 7.11825 13.415 6.37109 13.415C5.62399 13.4149 5.00001 12.7926 5 12.0098C5 11.2269 5.62406 10.6046 6.37109 10.6045Z" stroke="#5F615E"/>
<path d="M12.4277 10.6045C13.1751 10.6046 13.7988 11.2266 13.7988 12.0098C13.7988 12.7927 13.1746 13.415 12.4277 13.415C11.6806 13.415 11.0566 12.7928 11.0566 12.0098C11.0566 11.2266 11.6804 10.6045 12.4277 10.6045Z" stroke="#5F615E"/>
<path d="M18.5811 10.6045C19.3281 10.6047 19.9512 11.2267 19.9512 12.0098C19.9512 12.7927 19.3282 13.4148 18.5811 13.415C17.8333 13.415 17.209 12.7926 17.209 12.0098C17.209 11.2268 17.8336 10.6045 18.5811 10.6045Z" stroke="#5F615E"/>
<path d="M6.41406 16.6895C7.16113 16.6895 7.78516 17.3116 7.78516 18.0947C7.78505 18.8777 7.16109 19.5 6.41406 19.5C5.66707 19.4999 5.04307 18.8771 5.04297 18.0947C5.04297 17.3119 5.66696 16.6896 6.41406 16.6895Z" stroke="#5F615E"/>
<path d="M12.4688 16.6895C13.2157 16.6895 13.8398 17.3117 13.8398 18.0947C13.8397 18.8777 13.2156 19.5 12.4688 19.5C11.7215 19.4999 11.0978 18.8772 11.0977 18.0947C11.0977 17.3118 11.7216 16.6896 12.4688 16.6895Z" stroke="#5F615E"/>
<path d="M18.623 16.6895C19.3699 16.6895 19.9941 17.3117 19.9941 18.0947C19.994 18.8777 19.3702 19.4999 18.623 19.5C17.8762 19.5 17.2521 18.8773 17.252 18.0947C17.252 17.3117 17.8761 16.6895 18.623 16.6895Z" stroke="#5F615E"/>
</svg>
