<svg width="48" height="48" viewBox="0 0 48 48" fill="none" xmlns="http://www.w3.org/2000/svg">
<g clip-path="url(#clip0_4026_140)">
<path d="M11.7904 14.4283C5.30102 14.4283 0.0214844 19.7079 0.0214844 26.1973C0.0214844 30.2263 1.93811 34.5583 5.7182 39.073C6.25196 39.7095 6.80503 40.3296 7.37664 40.9324C4.93595 41.5986 3.47055 42.7955 3.47055 44.1925C3.47055 46.6655 7.75698 47.9999 11.79 47.9999C15.8231 47.9999 20.1095 46.6654 20.1095 44.1925C20.1095 42.7966 18.6445 41.5994 16.2055 40.933C17.1799 39.9043 18.2284 38.6939 19.2233 37.3439C19.2793 37.2696 19.32 37.1849 19.343 37.0947C19.3661 37.0046 19.371 36.9107 19.3576 36.8186C19.3442 36.7266 19.3126 36.638 19.2647 36.5582C19.2168 36.4784 19.1536 36.4089 19.0787 36.3537C19.0037 36.2985 18.9186 36.2587 18.8282 36.2366C18.7378 36.2145 18.6439 36.2106 18.5519 36.225C18.46 36.2394 18.3718 36.272 18.2925 36.3207C18.2133 36.3694 18.1444 36.4334 18.09 36.5089C16.8889 38.1389 15.5888 39.5714 14.4543 40.7093C14.3226 40.7761 14.2152 40.8826 14.1474 41.0139C13.1311 42.0126 12.2759 42.7535 11.7907 43.1583C11.3108 42.7574 10.4686 42.0266 9.46539 41.0409C9.39435 40.885 9.26893 40.7604 9.11261 40.6903C5.92445 37.4836 1.42914 31.9434 1.42914 26.1974C1.42914 20.4843 6.07717 15.8363 11.7903 15.8363C17.5034 15.8363 22.1515 20.4843 22.1515 26.1974C22.1515 28.6924 21.3013 31.3868 19.6247 34.2058C19.5775 34.2852 19.5463 34.3732 19.5331 34.4647C19.5198 34.5561 19.5247 34.6493 19.5475 34.7389C19.5702 34.8285 19.6104 34.9127 19.6657 34.9868C19.7211 35.0608 19.7904 35.1233 19.8699 35.1705C19.9493 35.2178 20.0373 35.2489 20.1288 35.2622C20.2202 35.2754 20.3134 35.2705 20.403 35.2478C20.4926 35.225 20.5768 35.1848 20.6509 35.1295C20.725 35.0742 20.7874 35.0048 20.8346 34.9254C22.6425 31.8856 23.5592 28.9492 23.5592 26.1974C23.5593 19.7079 18.2798 14.4283 11.7904 14.4283ZM11.3596 44.6223C11.4829 44.7178 11.6344 44.7696 11.7904 44.7695C11.9463 44.7696 12.0979 44.7178 12.2212 44.6223C12.3075 44.5555 13.4837 43.6382 15.0515 42.1053C17.4254 42.5894 18.7019 43.5216 18.7019 44.1926C18.7019 44.6937 18.0151 45.2848 16.9095 45.7353C15.5535 46.288 13.7354 46.5924 11.7901 46.5924C7.5708 46.5924 4.8783 45.1709 4.8783 44.1926C4.8783 43.5207 6.15517 42.589 8.53042 42.1048C10.1069 43.6468 11.2848 44.5644 11.3596 44.6223Z" fill="#DCA546"/>
<path d="M11.7908 21.0801C10.6775 21.0801 9.61889 21.4315 8.72939 22.0965C8.57991 22.2083 8.48095 22.3749 8.45426 22.5596C8.42758 22.7444 8.47535 22.9322 8.58708 23.0817C8.6989 23.2312 8.86549 23.3301 9.05023 23.3568C9.23497 23.3835 9.42275 23.3357 9.5723 23.224C10.2165 22.7424 10.9836 22.4878 11.7907 22.4878C13.836 22.4878 15.5 24.1518 15.5 26.1972C15.5 28.2426 13.836 29.9065 11.7907 29.9065C9.74536 29.9065 8.08139 28.2425 8.08139 26.1972C8.08139 25.8482 8.12967 25.5031 8.22483 25.1718C8.27634 24.9924 8.25447 24.7998 8.16403 24.6365C8.07359 24.4732 7.92199 24.3526 7.74258 24.301C7.56315 24.2497 7.37067 24.2716 7.2074 24.362C7.04414 24.4525 6.92345 24.604 6.87183 24.7834C6.74019 25.2431 6.67354 25.719 6.67383 26.1972C6.67383 29.0187 8.9693 31.3143 11.7909 31.3143C14.6124 31.3143 16.908 29.0188 16.908 26.1972C16.9079 23.3756 14.6123 21.0801 11.7908 21.0801ZM42.4649 20.4488C42.8415 20.0452 43.2072 19.6317 43.5618 19.2086C46.4923 15.7087 47.9781 12.3441 47.9781 9.20803C47.9781 4.13081 43.8474 0 38.7701 0C35.061 0 31.7308 2.20744 30.286 5.62369C30.25 5.70881 30.2311 5.80019 30.2304 5.89261C30.2297 5.98504 30.2472 6.07669 30.2819 6.16235C30.3167 6.248 30.3679 6.32598 30.4328 6.39182C30.4976 6.45766 30.5748 6.51009 30.66 6.54609C30.8319 6.61878 31.0256 6.62021 31.1986 6.55008C31.3716 6.47996 31.5096 6.34401 31.5824 6.17212C32.8065 3.27787 35.6279 1.40766 38.7701 1.40766C43.0712 1.40766 46.5705 4.90697 46.5705 9.20813C46.5705 15.0247 40.4638 20.5972 38.7698 22.0308C38.3965 21.7153 37.8089 21.1989 37.1199 20.5236C37.0516 20.389 36.9419 20.2799 36.8069 20.2125C34.3766 17.7655 30.9697 13.5592 30.9697 9.20813C30.9697 9.02145 30.8955 8.84241 30.7635 8.71041C30.6315 8.57841 30.4525 8.50425 30.2658 8.50425C30.0791 8.50425 29.9001 8.57841 29.7681 8.71041C29.6361 8.84241 29.562 9.02145 29.562 9.20813C29.562 12.3441 31.0478 15.7087 33.9783 19.2087C34.3328 19.6315 34.6984 20.0449 35.0747 20.4484C33.2603 20.9935 32.2128 21.9215 32.2128 23.0389C32.2128 23.9813 32.9773 24.8118 34.3655 25.3774C35.5533 25.8614 37.1175 26.128 38.77 26.128C40.4223 26.128 41.9865 25.8614 43.1745 25.3774C44.5624 24.8117 45.3269 23.9812 45.3269 23.0388C45.3268 21.9234 44.2785 20.9947 42.4649 20.4488ZM38.7699 24.7202C35.4381 24.7202 33.6206 23.6094 33.6206 23.0387C33.6206 22.6669 34.4474 21.9864 36.2129 21.6111C37.4008 22.7669 38.2825 23.4537 38.3394 23.4979C38.4627 23.5934 38.6142 23.6452 38.7702 23.6451C38.9261 23.6451 39.0777 23.5934 39.201 23.4979C39.2579 23.4539 40.1394 22.767 41.3273 21.6112C42.1139 21.779 42.7952 22.0247 43.272 22.3149C43.6773 22.5619 43.9193 22.8324 43.9193 23.0387C43.9191 23.6094 42.1016 24.7202 38.7699 24.7202Z" fill="#DCA546"/>
<path d="M38.7694 5.1123C36.5111 5.1123 34.6737 6.94962 34.6737 9.20815C34.6737 11.4665 36.511 13.3038 38.7694 13.3038C41.0279 13.3038 42.8652 11.4666 42.8652 9.20815C42.8652 6.94971 41.0279 5.1123 38.7694 5.1123ZM38.7695 11.8961C37.2872 11.8961 36.0814 10.6902 36.0814 9.20805C36.0814 7.72587 37.2872 6.51996 38.7695 6.51996C40.2517 6.51996 41.4576 7.72577 41.4576 9.20805C41.4575 10.6902 40.2517 11.8961 38.7695 11.8961ZM29.6391 22.3348H29.3177C29.0837 22.3348 28.8486 22.3503 28.6186 22.381C28.435 22.4073 28.2692 22.505 28.1572 22.6529C28.0453 22.8007 27.9962 22.9868 28.0206 23.1707C28.0451 23.3545 28.1411 23.5213 28.2879 23.6347C28.4346 23.7482 28.6202 23.7991 28.8043 23.7765C28.9745 23.754 29.1461 23.7427 29.3178 23.7428H29.6391V23.7427C30.0279 23.7427 30.343 23.4277 30.343 23.0388C30.343 22.6499 30.0279 22.3348 29.6391 22.3348ZM27.3122 43.4527H27.3089L26.3792 43.4569C26.1926 43.4573 26.0137 43.5319 25.882 43.6642C25.7503 43.7964 25.6765 43.9756 25.6769 44.1623C25.6773 44.349 25.7519 44.5279 25.8842 44.6596C26.0165 44.7913 26.1957 44.8651 26.3823 44.8646H26.3856L27.3152 44.8604C27.5019 44.8595 27.6806 44.7846 27.812 44.652C27.9434 44.5194 28.0167 44.34 28.0159 44.1534C28.0151 43.9672 27.9406 43.789 27.8087 43.6577C27.6768 43.5264 27.4983 43.4527 27.3122 43.4527ZM30.4743 31.452H29.5447C29.358 31.452 29.179 31.5262 29.047 31.6582C28.915 31.7902 28.8408 31.9692 28.8408 32.1559C28.8408 32.3426 28.915 32.5216 29.047 32.6536C29.179 32.7856 29.358 32.8598 29.5447 32.8598H30.4743C30.5668 32.8598 30.6583 32.8416 30.7437 32.8062C30.8291 32.7708 30.9067 32.719 30.9721 32.6536C31.0374 32.5883 31.0893 32.5107 31.1247 32.4253C31.16 32.3399 31.1782 32.2483 31.1782 32.1559C31.1782 32.0635 31.16 31.9719 31.1247 31.8865C31.0893 31.8011 31.0374 31.7235 30.9721 31.6582C30.9067 31.5928 30.8291 31.5409 30.7437 31.5056C30.6583 31.4702 30.5668 31.452 30.4743 31.452ZM26.7448 23.7689C26.6182 23.6318 26.4423 23.5505 26.2558 23.543C26.0693 23.5354 25.8874 23.6023 25.7502 23.7288C25.4872 23.9714 25.2495 24.24 25.0408 24.5306C24.9364 24.6824 24.8957 24.869 24.9274 25.0505C24.9591 25.232 25.0606 25.3938 25.2103 25.5012C25.3599 25.6087 25.5457 25.6532 25.7278 25.6253C25.9098 25.5974 26.0737 25.4992 26.1842 25.3518C26.3374 25.1387 26.5118 24.9416 26.7047 24.7635C26.8419 24.6369 26.9232 24.4611 26.9307 24.2745C26.9382 24.088 26.8713 23.9061 26.7448 23.7689ZM31.0308 43.4356H31.0276L30.098 43.4398C29.9133 43.4432 29.7374 43.5191 29.6081 43.651C29.4788 43.783 29.4066 43.9605 29.407 44.1452C29.4074 44.33 29.4804 44.5071 29.6103 44.6385C29.7401 44.7699 29.9164 44.845 30.1011 44.8476H30.1044L31.0339 44.8434C31.2186 44.84 31.3946 44.7641 31.5239 44.6322C31.6532 44.5002 31.7254 44.3227 31.725 44.138C31.7246 43.9532 31.6516 43.7761 31.5217 43.6447C31.3919 43.5133 31.2156 43.4382 31.0308 43.4356ZM23.5936 43.4695H23.5903L22.6607 43.4737C22.474 43.4746 22.2953 43.5496 22.1639 43.6821C22.0325 43.8147 21.9592 43.9941 21.96 44.1807C21.9608 44.3669 22.0353 44.5451 22.1672 44.6764C22.2991 44.8077 22.4776 44.8814 22.6637 44.8814H22.667L23.5967 44.8772C23.7833 44.8763 23.962 44.8013 24.0934 44.6687C24.2248 44.5362 24.2981 44.3568 24.2973 44.1701C24.2965 43.984 24.222 43.8058 24.0901 43.6745C23.9582 43.5431 23.7797 43.4694 23.5936 43.4695ZM27.2646 30.8604C27.0428 30.7203 26.8357 30.5581 26.6465 30.3763C26.512 30.247 26.3315 30.1763 26.1449 30.1799C25.9583 30.1836 25.7807 30.2612 25.6513 30.3956C25.5872 30.4623 25.5369 30.5408 25.5032 30.6269C25.4695 30.713 25.453 30.8048 25.4548 30.8972C25.4566 30.9896 25.4766 31.0808 25.5136 31.1655C25.5506 31.2502 25.604 31.3267 25.6706 31.3908C25.9285 31.6388 26.2109 31.86 26.5135 32.051C26.5917 32.1004 26.6788 32.1339 26.7699 32.1496C26.8611 32.1653 26.9544 32.1628 27.0446 32.1424C27.1348 32.122 27.22 32.084 27.2955 32.0306C27.371 31.9772 27.4352 31.9094 27.4845 31.8311C27.5338 31.753 27.5672 31.6658 27.5829 31.5747C27.5985 31.4837 27.596 31.3904 27.5756 31.3002C27.5552 31.2101 27.5172 31.1248 27.4639 31.0494C27.4105 30.9739 27.3428 30.9097 27.2646 30.8604ZM25.5344 28.3393C25.4869 28.0949 25.4631 27.8464 25.4631 27.5974L25.4633 27.5583C25.4644 27.4659 25.4473 27.3741 25.4129 27.2883C25.3785 27.2025 25.3276 27.1243 25.263 27.0582C25.1984 26.9921 25.1214 26.9394 25.0364 26.903C24.9514 26.8667 24.8601 26.8474 24.7677 26.8464L24.7593 26.8463C24.5741 26.8463 24.3963 26.9194 24.2646 27.0496C24.1329 27.1798 24.0578 27.3568 24.0557 27.542L24.0554 27.5975C24.0554 27.9374 24.0881 28.2776 24.1526 28.6087C24.1703 28.6994 24.2057 28.7858 24.2567 28.8628C24.3078 28.9399 24.3735 29.0061 24.4502 29.0578C24.5268 29.1094 24.6129 29.1455 24.7035 29.1638C24.7941 29.1822 24.8874 29.1826 24.9782 29.1649C25.0689 29.1472 25.1552 29.1118 25.2323 29.0608C25.3094 29.0097 25.3756 28.944 25.4272 28.8673C25.4789 28.7907 25.5149 28.7046 25.5333 28.614C25.5517 28.5234 25.5521 28.4301 25.5344 28.3393ZM34.1931 31.452H33.2635C33.0768 31.452 32.8978 31.5262 32.7658 31.6582C32.6338 31.7902 32.5596 31.9692 32.5596 32.1559C32.5596 32.3426 32.6338 32.5216 32.7658 32.6536C32.8978 32.7856 33.0768 32.8598 33.2635 32.8598H34.1931C34.3798 32.8598 34.5588 32.7856 34.6908 32.6536C34.8228 32.5216 34.897 32.3426 34.897 32.1559C34.897 31.9692 34.8228 31.7902 34.6908 31.6582C34.5588 31.5262 34.3798 31.452 34.1931 31.452ZM45.4938 32.8851C45.2219 32.6705 44.9338 32.4774 44.6321 32.3074C44.2937 32.1165 43.8643 32.2364 43.6734 32.5751C43.628 32.6557 43.599 32.7444 43.5879 32.8361C43.5768 32.9279 43.5838 33.0209 43.6087 33.1099C43.6336 33.199 43.6757 33.2822 43.7328 33.355C43.7898 33.4277 43.8606 33.4885 43.9412 33.5338C44.1793 33.6682 44.4067 33.8207 44.6213 33.99C44.7453 34.0883 44.8989 34.1417 45.0571 34.1415C45.2034 34.1417 45.3461 34.0962 45.4654 34.0115C45.5847 33.9268 45.6746 33.807 45.7227 33.6688C45.7707 33.5306 45.7745 33.3808 45.7335 33.2404C45.6925 33.0999 45.6087 32.9757 45.4938 32.8851ZM42.8811 43.94C42.8277 43.555 42.4718 43.2854 42.0875 43.3391C41.857 43.3709 41.6209 43.3877 41.3855 43.3886L41.2538 43.3893C41.0699 43.394 40.8952 43.4704 40.7669 43.6022C40.6387 43.7341 40.5671 43.9109 40.5676 44.0948C40.568 44.2787 40.6404 44.4552 40.7692 44.5864C40.8981 44.7177 41.0732 44.7933 41.2571 44.7971H41.2606L41.392 44.7964C41.6891 44.7951 41.9858 44.7741 42.2802 44.7336C42.3718 44.7209 42.4599 44.6904 42.5397 44.6436C42.6194 44.5969 42.6892 44.5349 42.745 44.4613C42.8008 44.3876 42.8416 44.3036 42.8649 44.2142C42.8883 44.1247 42.8938 44.0316 42.8811 43.94ZM45.9875 41.9606C45.9238 41.8937 45.8475 41.84 45.763 41.8025C45.6785 41.7651 45.5874 41.7446 45.495 41.7424C45.4026 41.7401 45.3107 41.7561 45.2244 41.7894C45.1382 41.8227 45.0594 41.8727 44.9925 41.9365C44.7943 42.1251 44.5819 42.2983 44.357 42.4542C44.2036 42.5606 44.0988 42.7236 44.0655 42.9073C44.0322 43.091 44.0732 43.2804 44.1796 43.4338C44.2444 43.5274 44.3309 43.6039 44.4318 43.6566C44.5327 43.7094 44.6448 43.7369 44.7587 43.7367C44.9018 43.7368 45.0415 43.693 45.1591 43.6113C45.4436 43.4138 45.7126 43.1947 45.9634 42.9558C46.0304 42.892 46.0841 42.8157 46.1215 42.7312C46.1589 42.6467 46.1794 42.5556 46.1816 42.4632C46.1838 42.3708 46.1678 42.2789 46.1345 42.1926C46.1012 42.1064 46.0513 42.0276 45.9875 41.9606ZM47.3574 38.5422C47.174 38.5078 46.9844 38.5475 46.8302 38.6528C46.6761 38.7581 46.5701 38.9202 46.5355 39.1036C46.4848 39.3721 46.4134 39.6363 46.3217 39.8937C46.2614 40.069 46.2727 40.261 46.353 40.428C46.4334 40.5951 46.5764 40.7237 46.751 40.7859C46.9256 40.8482 47.1177 40.839 47.2856 40.7605C47.4535 40.682 47.5837 40.5404 47.6478 40.3665C47.7641 40.0399 47.8548 39.7048 47.9191 39.3641C47.9535 39.1807 47.9137 38.991 47.8084 38.8369C47.7031 38.6828 47.5409 38.5768 47.3574 38.5422ZM47.7755 36.2797C47.6797 35.9462 47.5579 35.6207 47.4112 35.3062C47.3305 35.1399 47.1876 35.012 47.0135 34.9502C46.8393 34.8883 46.6478 34.8975 46.4803 34.9756C46.3128 35.0538 46.1827 35.1947 46.1182 35.3679C46.0537 35.5411 46.0599 35.7327 46.1355 35.9014C46.251 36.149 46.3469 36.4054 46.4224 36.668C46.4646 36.8148 46.5534 36.944 46.6753 37.0359C46.7973 37.1279 46.9459 37.1777 47.0987 37.1779C47.2077 37.1779 47.3153 37.1526 47.4129 37.104C47.5105 37.0553 47.5954 36.9846 47.6611 36.8976C47.7267 36.8105 47.7712 36.7093 47.791 36.6021C47.8109 36.4949 47.8056 36.3845 47.7755 36.2797ZM37.9118 31.452H36.9822C36.7955 31.452 36.6165 31.5262 36.4845 31.6582C36.3525 31.7902 36.2783 31.9692 36.2783 32.1559C36.2783 32.3426 36.3525 32.5216 36.4845 32.6536C36.6165 32.7856 36.7955 32.8598 36.9822 32.8598H37.9118C38.0985 32.8598 38.2775 32.7856 38.4095 32.6536C38.5415 32.5216 38.6157 32.3426 38.6157 32.1559C38.6157 31.9692 38.5415 31.7902 38.4095 31.6582C38.2775 31.5262 38.0985 31.452 37.9118 31.452ZM34.7495 43.4187H34.7462L33.8166 43.423C33.6319 43.4264 33.456 43.5022 33.3267 43.6342C33.1974 43.7661 33.1252 43.9436 33.1256 44.1284C33.126 44.3131 33.199 44.4903 33.3289 44.6217C33.4587 44.753 33.635 44.8281 33.8197 44.8307H33.823L34.7526 44.8265C34.9393 44.8261 35.1182 44.7515 35.2499 44.6192C35.3816 44.4869 35.4554 44.3077 35.455 44.1211C35.4545 43.9344 35.38 43.7555 35.2477 43.6238C35.1154 43.4921 34.9362 43.4183 34.7495 43.4187ZM41.6614 31.4588C41.5616 31.4543 41.4617 31.4521 41.3618 31.4521H40.7008C40.5141 31.4521 40.3351 31.5263 40.2031 31.6583C40.0711 31.7903 39.9969 31.9693 39.9969 32.156C39.9969 32.3427 40.0711 32.5217 40.2031 32.6537C40.3351 32.7857 40.5141 32.8599 40.7008 32.8599H41.3618V32.8598C41.4414 32.8598 41.5205 32.8616 41.5992 32.865C41.6915 32.8691 41.7838 32.855 41.8706 32.8235C41.9575 32.7919 42.0373 32.7436 42.1055 32.6812C42.1737 32.6188 42.2289 32.5436 42.268 32.4598C42.3071 32.3761 42.3294 32.2854 42.3334 32.1931C42.3375 32.1008 42.3234 32.0085 42.2919 31.9216C42.2603 31.8348 42.212 31.7549 42.1495 31.6867C42.0871 31.6186 42.0119 31.5633 41.9282 31.5242C41.8444 31.4851 41.7538 31.4629 41.6614 31.4588ZM38.4681 43.402H38.4648L37.5352 43.4062C37.3505 43.4096 37.1745 43.4854 37.0453 43.6174C36.916 43.7494 36.8438 43.9268 36.8442 44.1116C36.8446 44.2963 36.9176 44.4735 37.0474 44.6049C37.1773 44.7363 37.3536 44.8113 37.5383 44.8139H37.5416L38.4712 44.8097C38.6579 44.8088 38.8365 44.7338 38.9679 44.6012C39.0993 44.4687 39.1727 44.2893 39.1719 44.1026C39.1711 43.9165 39.0966 43.7383 38.9647 43.607C38.8328 43.4757 38.6543 43.4019 38.4681 43.402Z" fill="#DCA546"/>
</g>
<defs>
<clipPath id="clip0_4026_140">
<rect width="48" height="48" fill="white"/>
</clipPath>
</defs>
</svg>
