<svg width="21" height="20" viewBox="0 0 21 20" fill="none" xmlns="http://www.w3.org/2000/svg">
<g clip-path="url(#clip0_2238_24394)">
<path d="M15.7513 15.8332V7.49984C15.7513 6.61578 15.4001 5.76794 14.775 5.14281C14.1499 4.51769 13.302 4.1665 12.418 4.1665H5.7513C4.86725 4.1665 4.0194 4.51769 3.39428 5.14281C2.76916 5.76794 2.41797 6.61578 2.41797 7.49984V14.1665C2.41797 14.6085 2.59356 15.0325 2.90612 15.345C3.21868 15.6576 3.64261 15.8332 4.08464 15.8332H5.7513" stroke="#DCA546" stroke-width="2" stroke-linecap="round" stroke-linejoin="round"/>
<path d="M2.41797 7.5H4.91797C5.13898 7.5 5.35094 7.5878 5.50722 7.74408C5.6635 7.90036 5.7513 8.11232 5.7513 8.33333V10C5.7513 10.221 5.6635 10.433 5.50722 10.5893C5.35094 10.7455 5.13898 10.8333 4.91797 10.8333H2.41797" stroke="#DCA546" stroke-width="2" stroke-linecap="round" stroke-linejoin="round"/>
<path d="M19.082 14.1667V15C19.082 15.221 18.9942 15.433 18.838 15.5893C18.6817 15.7455 18.4697 15.8333 18.2487 15.8333H9.08203V8.33333C9.08203 8.11232 9.16983 7.90036 9.32611 7.74408C9.48239 7.5878 9.69435 7.5 9.91536 7.5H11.582C11.803 7.5 12.015 7.5878 12.1713 7.74408C12.3276 7.90036 12.4154 8.11232 12.4154 8.33333V15.8333" stroke="#DCA546" stroke-width="2" stroke-linecap="round" stroke-linejoin="round"/>
<path d="M7.41667 17.4998C8.33714 17.4998 9.08333 16.7536 9.08333 15.8332C9.08333 14.9127 8.33714 14.1665 7.41667 14.1665C6.49619 14.1665 5.75 14.9127 5.75 15.8332C5.75 16.7536 6.49619 17.4998 7.41667 17.4998Z" stroke="#DCA546" stroke-width="2" stroke-linecap="round" stroke-linejoin="round"/>
</g>
<defs>
<clipPath id="clip0_2238_24394">
<rect width="20" height="20" fill="white" transform="translate(0.75)"/>
</clipPath>
</defs>
</svg>
