<svg width="50" height="50" viewBox="0 0 50 50" fill="none" xmlns="http://www.w3.org/2000/svg">
<path d="M18.3623 15.2744C18.6118 15.1738 18.8911 15.1738 19.1406 15.2744L19.1445 15.2764L19.165 15.2842L19.1982 15.2969H19.1992L26.6455 18.2773C27.1861 18.494 27.4474 19.1049 27.2314 19.6416V19.6426C27.0284 20.1484 26.4728 20.408 25.9678 20.2627L25.8672 20.2285L20.0742 17.9111L19.7998 17.8008V38.0371L19.9258 38.0869L29.9258 42.0869L30.2002 42.1973V28.749C30.2002 28.1695 30.6705 27.6992 31.25 27.6992C31.8295 27.6992 32.2998 28.1695 32.2998 28.749V42.1992L32.5742 42.0898L42.5742 38.0898L42.7002 38.0391V23.749C42.7002 23.1695 43.1705 22.6992 43.75 22.6992C44.3295 22.6992 44.7998 23.1695 44.7998 23.749V38.749C44.7998 39.1786 44.5383 39.563 44.1436 39.7256L31.666 44.7158L31.7373 44.8936V44.9014L31.6562 44.7188L31.6406 44.7256C31.4223 44.8137 31.181 44.8249 30.957 44.7588L30.8623 44.7256L30.8467 44.7188L30.8076 44.7012H30.7998L18.8242 39.9111L18.75 39.8809L18.6758 39.9111L6.64062 44.7236C6.51426 44.7741 6.38194 44.7988 6.25 44.7988C6.04198 44.7988 5.83851 44.7379 5.66211 44.6182C5.37411 44.4225 5.2002 44.097 5.2002 43.749V21.249C5.2002 20.8727 5.4006 20.5313 5.7168 20.3447L5.85938 20.2744L18.3271 15.2852L18.3281 15.2861L18.3506 15.2783V15.2793L18.3623 15.2744ZM17.4258 17.9082L7.42578 21.9082L7.2998 21.959V42.1973L7.57422 42.0869L17.5742 38.0869L17.7002 38.0371V17.7988L17.4258 17.9082ZM18.2646 15.0967L18.2744 15.126L18.2646 15.1016V15.0967Z" fill="#ACAFAB" stroke="white" stroke-width="0.4"/>
<path d="M36.25 10.1992C38.207 10.1992 39.7998 11.792 39.7998 13.749C39.7998 15.7061 38.207 17.2988 36.25 17.2988C34.293 17.2988 32.7002 15.7061 32.7002 13.749C32.7002 11.792 34.293 10.1992 36.25 10.1992ZM36.25 12.2988C35.4495 12.2988 34.7998 12.9486 34.7998 13.749C34.7998 14.5495 35.4495 15.1992 36.25 15.1992C37.0505 15.1992 37.7002 14.5495 37.7002 13.749C37.7002 12.9486 37.0505 12.2988 36.25 12.2988Z" fill="#ACAFAB" stroke="white" stroke-width="0.4"/>
<path d="M36.25 5.19922C40.9645 5.19922 44.7998 9.03449 44.7998 13.749C44.7998 14.8262 44.3773 16.1325 43.7109 17.5146C43.0467 18.8924 42.1498 20.3256 41.2256 21.6514C39.8397 23.6394 38.3973 25.3761 37.5947 26.3076L37.0312 26.9502C36.831 27.1712 36.5473 27.2988 36.25 27.2988C35.9896 27.2988 35.7395 27.2012 35.5469 27.0283L35.4688 26.9502C35.0704 26.5058 33.1222 24.3019 31.2744 21.6514C30.3502 20.3256 29.4533 18.8924 28.7891 17.5146C28.1227 16.1325 27.7002 14.8262 27.7002 13.749C27.7002 9.03449 31.5355 5.19922 36.25 5.19922ZM36.25 7.29883C32.6945 7.29883 29.7998 10.1936 29.7998 13.749C29.7998 14.3871 30.0332 15.1756 30.4092 16.0352C30.7872 16.8993 31.318 17.8545 31.9316 18.832C33.1591 20.7873 34.7274 22.8469 36.0967 24.4707L36.25 24.6514L36.4033 24.4707C37.7726 22.8469 39.3409 20.7866 40.5684 18.8311C41.182 17.8534 41.7128 16.8982 42.0908 16.0342C42.4668 15.1747 42.7002 14.3865 42.7002 13.749C42.7002 10.1936 39.8054 7.29883 36.25 7.29883Z" fill="#ACAFAB" stroke="white" stroke-width="0.4"/>
</svg>
