<svg width="18" height="18" viewBox="0 0 18 18" fill="none" xmlns="http://www.w3.org/2000/svg">
<path d="M10.5795 4.16446C10.7877 4.26849 11.0173 4.32266 11.25 4.32266C11.4827 4.32266 11.7123 4.26849 11.9205 4.16446L14.6648 2.79196C14.7792 2.73478 14.9063 2.70781 15.0341 2.71363C15.1619 2.71945 15.2861 2.75786 15.3948 2.8252C15.5036 2.89255 15.5933 2.98659 15.6555 3.09839C15.7177 3.21019 15.7502 3.33604 15.75 3.46396V13.037C15.7499 13.1762 15.7111 13.3127 15.6378 13.4311C15.5646 13.5495 15.4598 13.6452 15.3353 13.7075L11.9205 15.4152C11.7123 15.5192 11.4827 15.5734 11.25 15.5734C11.0173 15.5734 10.7877 15.5192 10.5795 15.4152L7.4205 13.8357C7.2123 13.7317 6.98275 13.6775 6.75 13.6775C6.51726 13.6775 6.2877 13.7317 6.0795 13.8357L3.33525 15.2082C3.22077 15.2654 3.09354 15.2924 2.96569 15.2865C2.83784 15.2807 2.71362 15.2422 2.60484 15.1748C2.49606 15.1073 2.40635 15.0132 2.34424 14.9013C2.28213 14.7894 2.24969 14.6634 2.25 14.5355V4.96321C2.25008 4.82396 2.28891 4.68748 2.36217 4.56906C2.43542 4.45064 2.54019 4.35495 2.66475 4.29271L6.0795 2.58496C6.2877 2.48092 6.51726 2.42676 6.75 2.42676C6.98275 2.42676 7.2123 2.48092 7.4205 2.58496L10.5795 4.16446Z" stroke="white" stroke-width="1.3" stroke-linecap="round" stroke-linejoin="round"/>
<path d="M11.25 4.32324V15.5732" stroke="white" stroke-width="1.3" stroke-linecap="round" stroke-linejoin="round"/>
<path d="M6.75 2.42676V13.6768" stroke="white" stroke-width="1.3" stroke-linecap="round" stroke-linejoin="round"/>
</svg>
