<svg width="48" height="48" viewBox="0 0 48 48" fill="none" xmlns="http://www.w3.org/2000/svg">
<g clip-path="url(#clip0_4026_128)">
<path d="M9.15465 40.9113C9.13936 40.8976 9.12353 40.8845 9.10719 40.872C8.61784 40.4659 8.1285 40.0304 7.6783 39.5802C7.54088 39.4442 7.35536 39.3679 7.16204 39.3679C6.96872 39.3679 6.78321 39.4442 6.64579 39.5802C6.50833 39.7178 6.43112 39.9044 6.43112 40.0989C6.43112 40.2934 6.50833 40.4799 6.64579 40.6176C7.13513 41.1069 7.62447 41.562 8.17254 42.0024C8.31738 42.1317 8.50753 42.1983 8.70136 42.1877C8.8952 42.1771 9.07694 42.0901 9.20681 41.9458C9.33669 41.8015 9.40411 41.6117 9.39434 41.4178C9.38456 41.2239 9.29838 41.0418 9.15465 40.9113ZM1.47268 19.1498C1.36735 19.113 1.255 19.1007 1.1442 19.1139C1.0334 19.127 0.927044 19.1652 0.833232 19.2256C0.739419 19.286 0.660614 19.367 0.602807 19.4625C0.544999 19.5579 0.509711 19.6653 0.499624 19.7764C0.352821 20.4468 0.240272 21.127 0.157083 21.8072C0.13191 21.9984 0.182991 22.1918 0.299283 22.3456C0.415576 22.4995 0.587737 22.6014 0.77855 22.6293H0.871526C1.05102 22.6294 1.22434 22.5638 1.3587 22.4447C1.49306 22.3257 1.57913 22.1616 1.60065 21.9834C1.67894 21.3472 1.7866 20.7062 1.92362 20.0847C1.9554 19.9937 1.96895 19.8973 1.96349 19.8011C1.95803 19.7049 1.93367 19.6107 1.89179 19.5238C1.84992 19.437 1.79135 19.3593 1.71944 19.2951C1.64753 19.231 1.56368 19.1816 1.47268 19.1498ZM5.50561 37.0209C5.12882 36.5022 4.7716 35.9639 4.44374 35.4158C4.39447 35.333 4.32936 35.2607 4.25213 35.203C4.1749 35.1453 4.08707 35.1034 3.99365 35.0796C3.90022 35.0559 3.80304 35.0508 3.70764 35.0646C3.61224 35.0784 3.52049 35.1109 3.43765 35.1602L3.43569 35.1614C3.35284 35.2107 3.2805 35.2758 3.22282 35.353C3.16513 35.4302 3.12322 35.518 3.09947 35.6115C3.07573 35.7049 3.07062 35.8021 3.08444 35.8975C3.09826 35.9929 3.13073 36.0846 3.18001 36.1675L3.18123 36.1694C3.53356 36.7566 3.91525 37.3341 4.3214 37.887C4.43897 38.0367 4.61005 38.1348 4.79857 38.1607C4.98708 38.1866 5.1783 38.1383 5.33189 38.026C5.48549 37.9137 5.58945 37.7461 5.62186 37.5585C5.65427 37.371 5.61259 37.1783 5.50561 37.0209ZM2.94634 32.3917C2.71146 31.7996 2.49615 31.1879 2.31509 30.5713C2.28774 30.477 2.24174 30.3892 2.17984 30.313C2.11793 30.2368 2.04136 30.1738 1.95467 30.1277C1.86798 30.0816 1.77293 30.0534 1.67513 30.0447C1.57734 30.036 1.4788 30.047 1.38534 30.0771C1.20026 30.1337 1.045 30.261 0.953356 30.4315C0.861712 30.6019 0.841096 30.8017 0.895993 30.9873C1.09173 31.643 1.31683 32.2987 1.57129 32.9447C1.64461 33.127 1.78737 33.2727 1.96816 33.3498C2.14895 33.4269 2.35295 33.429 2.5353 33.3557C2.71764 33.2824 2.86339 33.1396 2.94047 32.9588C3.01756 32.778 3.01967 32.574 2.94634 32.3917ZM3.38431 14.1171C3.2104 14.0296 3.00882 14.0146 2.8239 14.0757C2.63899 14.1367 2.48589 14.2687 2.39828 14.4426C2.08999 15.0542 1.80617 15.6855 1.55661 16.3265C1.48592 16.507 1.48946 16.7081 1.56647 16.8859C1.64348 17.0638 1.78769 17.2039 1.96766 17.2759C2.05728 17.3114 2.15301 17.3289 2.2494 17.3274C2.34578 17.3259 2.44092 17.3054 2.52939 17.2671C2.61787 17.2288 2.69793 17.1735 2.76502 17.1043C2.83211 17.0351 2.88491 16.9533 2.92041 16.8637L2.92188 16.8599C3.15676 16.2629 3.41122 15.6708 3.70972 15.1032C3.79731 14.9293 3.81224 14.7277 3.75121 14.5428C3.69018 14.3579 3.55821 14.2048 3.38431 14.1171ZM1.62536 27.285L1.62512 27.2831C1.54682 26.6469 1.49299 26.001 1.46853 25.3648C1.46499 25.2684 1.44251 25.1737 1.40235 25.086C1.3622 24.9983 1.30516 24.9194 1.23451 24.8537C1.16385 24.788 1.08095 24.7369 0.99054 24.7033C0.900132 24.6697 0.803988 24.6542 0.707595 24.6577C0.611203 24.6613 0.516451 24.6838 0.428748 24.7239C0.341046 24.7641 0.262111 24.8211 0.196451 24.8918C0.13079 24.9624 0.0796898 25.0453 0.0460674 25.1357C0.012445 25.2261 -0.00304111 25.3223 0.000493281 25.4187C0.000493281 26.1037 0.0787883 26.7937 0.16687 27.4739C0.191173 27.6461 0.275847 27.8041 0.405798 27.9198C0.535749 28.0354 0.702532 28.1011 0.876419 28.1052H0.988968C1.08461 28.0931 1.17693 28.0623 1.26067 28.0146C1.34442 27.9668 1.41793 27.9031 1.47703 27.8269C1.53612 27.7507 1.57964 27.6637 1.60509 27.5707C1.63054 27.4777 1.63743 27.3807 1.62536 27.285ZM21.0986 2.79862C21.0797 2.60394 20.9844 2.42472 20.8334 2.30037C20.6824 2.17603 20.4883 2.11674 20.2936 2.13556C19.6134 2.20406 18.9283 2.30193 18.253 2.43406C18.0584 2.45223 17.8789 2.54698 17.7541 2.69749C17.6293 2.84799 17.5693 3.04191 17.5875 3.23658C17.6057 3.43125 17.7004 3.61074 17.8509 3.73554C18.0015 3.86035 18.1954 3.92026 18.39 3.90209L18.3851 3.88251H18.5271C19.1583 3.76018 19.7994 3.6672 20.4355 3.60359C20.6302 3.58477 20.8094 3.48939 20.9337 3.33843C21.0581 3.18747 21.1174 2.99329 21.0986 2.79862ZM6.57238 9.67635C6.42573 9.54657 6.23353 9.48037 6.03806 9.4923C5.84259 9.50423 5.65987 9.59332 5.53008 9.73996C5.07988 10.2538 4.64926 10.7969 4.248 11.3548C4.16875 11.4642 4.12122 11.5933 4.11066 11.728C4.10009 11.8627 4.12689 11.9977 4.18811 12.1181C4.24933 12.2385 4.3426 12.3397 4.45763 12.4105C4.57267 12.4813 4.70502 12.519 4.84011 12.5194V12.5292C4.95655 12.5296 5.07142 12.5023 5.17523 12.4496C5.27904 12.3968 5.3688 12.3201 5.43711 12.2258C5.8139 11.7071 6.21516 11.1982 6.636 10.7187C6.76577 10.572 6.83198 10.3798 6.82005 10.1843C6.80812 9.98886 6.71903 9.80613 6.57238 9.67635ZM25.9357 2.25789C25.2604 2.15513 24.5705 2.08173 23.8854 2.04258C23.6907 2.0309 23.4994 2.09703 23.3534 2.22643C23.2075 2.35582 23.119 2.53788 23.1073 2.73256C23.0956 2.92723 23.1618 3.11857 23.2912 3.26448C23.4206 3.4104 23.6026 3.49893 23.7973 3.51061C24.4432 3.55955 25.0843 3.62806 25.7155 3.72592H25.8281C26.0227 3.7402 26.2151 3.67656 26.3629 3.549C26.5106 3.42144 26.6016 3.24041 26.6159 3.04574C26.6302 2.85106 26.5665 2.65869 26.439 2.51094C26.3114 2.36319 26.1304 2.27217 25.9357 2.25789ZM10.741 6.17888C10.6304 6.02861 10.4666 5.9261 10.2831 5.89222C10.0996 5.85834 9.91012 5.89562 9.75312 5.99648C9.19037 6.38306 8.63741 6.8039 8.10892 7.23941C8.03469 7.3011 7.97334 7.37681 7.92838 7.4622C7.88341 7.5476 7.8557 7.64102 7.84684 7.73713C7.83798 7.83324 7.84814 7.93015 7.87673 8.02233C7.90533 8.11451 7.9518 8.20016 8.0135 8.27438C8.07519 8.34861 8.15089 8.40996 8.23629 8.45493C8.32169 8.49989 8.41511 8.5276 8.51122 8.53646C8.60733 8.54532 8.70424 8.53516 8.79642 8.50657C8.8886 8.47797 8.97425 8.4315 9.04846 8.3698C9.53781 7.95875 10.0565 7.56728 10.585 7.20516C10.6626 7.14802 10.7282 7.07614 10.7781 6.99364C10.8279 6.91114 10.8611 6.81963 10.8755 6.72433C10.89 6.62903 10.8856 6.53181 10.8625 6.43822C10.8394 6.34463 10.7981 6.25651 10.741 6.17888ZM13.203 5.58543C13.2005 5.58543 13.1982 5.58494 13.1958 5.58494C13.1932 5.58494 13.1908 5.58543 13.1883 5.58543H13.203Z" fill="#DCA546"/>
<path d="M15.7912 3.86607C15.7633 3.76443 15.7138 3.66999 15.6461 3.58918C15.5784 3.50837 15.4942 3.44308 15.399 3.39776C15.3038 3.35243 15.2 3.32813 15.0947 3.3265C14.9893 3.32488 14.8848 3.34597 14.7883 3.38835C14.1472 3.62323 13.5062 3.87769 12.8896 4.18598C12.7385 4.25641 12.6159 4.37618 12.542 4.52558C12.468 4.67497 12.4472 4.84508 12.4828 5.00792C12.5184 5.17077 12.6084 5.31663 12.7379 5.42152C12.8675 5.52641 13.0289 5.58407 13.1956 5.58501C13.3015 5.58307 13.4058 5.5582 13.5013 5.5121C14.0787 5.23807 14.6757 4.9885 15.2776 4.7683C15.3706 4.74279 15.4576 4.69921 15.5337 4.64006C15.6098 4.58091 15.6736 4.50734 15.7213 4.42356C15.769 4.33978 15.7997 4.24742 15.8117 4.15177C15.8237 4.05611 15.8167 3.95903 15.7912 3.86607ZM24.6658 46.3257C24.6597 46.2293 24.6347 46.1351 24.5921 46.0484C24.5496 45.9616 24.4904 45.8841 24.4179 45.8203C24.3455 45.7565 24.2611 45.7075 24.1697 45.6763C24.0783 45.645 23.9817 45.6321 23.8853 45.6382C23.2442 45.6871 22.5983 45.7018 21.9573 45.6822C21.8609 45.6797 21.7649 45.6961 21.6749 45.7306C21.5848 45.7651 21.5025 45.817 21.4325 45.8834C21.3625 45.9497 21.3063 46.0292 21.267 46.1173C21.2278 46.2053 21.2062 46.3003 21.2037 46.3967C21.2011 46.4931 21.2175 46.589 21.2521 46.6791C21.2866 46.7691 21.3385 46.8515 21.4048 46.9214C21.4712 46.9914 21.5506 47.0476 21.6387 47.0869C21.7268 47.1262 21.8217 47.1477 21.9181 47.1503H22.5396C23.0289 47.1503 23.5183 47.1503 23.9783 47.1062C24.0747 47.1001 24.1689 47.0751 24.2556 47.0326C24.3424 46.9901 24.4199 46.9309 24.4837 46.8584C24.5476 46.7859 24.5965 46.7016 24.6277 46.6102C24.659 46.5188 24.6719 46.4221 24.6658 46.3257ZM43.8774 29.321C43.6886 29.273 43.4884 29.302 43.321 29.4016C43.1535 29.5011 43.0324 29.6631 42.9844 29.852C42.8265 30.474 42.6387 31.088 42.4216 31.6919C42.3603 31.8737 42.3725 32.0722 42.4557 32.2451C42.539 32.418 42.6866 32.5514 42.8669 32.6167C42.9577 32.6493 43.0539 32.6637 43.1502 32.659C43.2465 32.6544 43.3409 32.6308 43.4281 32.5896C43.5153 32.5485 43.5935 32.4906 43.6583 32.4192C43.7231 32.3478 43.7732 32.2644 43.8057 32.1736L43.8065 32.1714C44.0365 31.5255 44.2371 30.8649 44.4084 30.2141C44.4321 30.1206 44.4373 30.0233 44.4235 29.9278C44.4097 29.8323 44.3772 29.7405 44.3279 29.6576C44.2786 29.5746 44.2134 29.5022 44.1361 29.4445C44.0588 29.3867 43.9709 29.3448 43.8774 29.321ZM44.8145 20.9165C44.702 20.2412 44.5601 19.561 44.3888 18.9004C44.3339 18.7186 44.2106 18.5651 44.0448 18.4723C43.8791 18.3795 43.6838 18.3545 43.5001 18.4027C43.3163 18.4509 43.1584 18.5684 43.0595 18.7305C42.9606 18.8927 42.9284 19.0869 42.9697 19.2723C43.1312 19.8889 43.2633 20.5251 43.371 21.1563C43.4016 21.324 43.4897 21.4758 43.6201 21.5856C43.7504 21.6954 43.915 21.7564 44.0854 21.7582H44.2077C44.3998 21.727 44.5716 21.6208 44.6854 21.463C44.7992 21.3052 44.8456 21.1086 44.8145 20.9165Z" fill="#DCA546"/>
<path d="M47.9348 12.4917C47.9003 12.4167 47.8531 12.3483 47.7952 12.2896L46.4984 10.939C46.4073 10.8479 46.2931 10.7835 46.1681 10.7524C46.0431 10.7214 45.912 10.725 45.7889 10.7628L43.4498 11.4723L40.7095 8.56565L46.8605 5.14024C46.9647 5.09231 47.0558 5.02002 47.1261 4.92947C47.1964 4.83892 47.2439 4.73277 47.2645 4.61999C47.2852 4.50722 47.2783 4.39113 47.2447 4.28155C47.211 4.17197 47.1514 4.0721 47.071 3.9904L45.3436 2.26302C45.2511 2.17416 45.1365 2.11182 45.0116 2.08255C44.8868 2.05328 44.7563 2.05814 44.634 2.09664L36.8388 4.45528L34.2159 1.67091C33.8899 1.29402 33.4536 1.02929 32.9688 0.914235C32.484 0.799178 31.9753 0.839634 31.5147 1.02987H31.4707C31.1181 1.175 30.7978 1.38854 30.5281 1.65814C30.2585 1.92775 30.045 2.24809 29.8999 2.60066C29.826 2.7866 29.7735 2.98031 29.7433 3.17809L29.4448 3.07533C29.2599 3.018 29.0598 3.03595 28.888 3.12526C28.7162 3.21458 28.5866 3.36806 28.5273 3.55237C28.468 3.73668 28.4839 3.93694 28.5713 4.10966C28.6588 4.28238 28.8109 4.41361 28.9946 4.47485C29.3714 4.59719 29.7482 4.7342 30.125 4.87611C30.2384 5.05353 30.3713 5.21767 30.5213 5.36546L33.2861 7.98834L32.4934 10.6063C24.74 5.07564 13.9711 6.87753 8.44042 14.6309C2.90973 22.3844 4.71162 33.1531 12.465 38.6838C20.2184 44.2145 30.9873 42.4126 36.518 34.6592C40.9285 28.4762 40.7746 20.1357 36.139 14.1197L37.3917 11.8589L40.2984 14.5993L39.5987 16.9139C39.5574 17.0386 39.5515 17.1724 39.5817 17.3002C39.612 17.4281 39.6771 17.5451 39.7699 17.6381C39.7699 17.6381 41.2037 19.0572 41.238 19.1061C41.3199 19.1536 41.4106 19.1842 41.5045 19.1961C41.5985 19.208 41.6939 19.201 41.7851 19.1755C41.8763 19.1499 41.9615 19.1064 42.0356 19.0474C42.1097 18.9884 42.1713 18.9152 42.2167 18.8321L44.13 15.3235L47.5848 13.4395C47.67 13.4003 47.7466 13.3446 47.8104 13.2757C47.8741 13.2068 47.9236 13.1261 47.9561 13.0381C47.9886 12.9501 48.0034 12.8565 47.9998 12.7627C47.9961 12.669 47.974 12.5769 47.9348 12.4917ZM11.3978 13.459C12.8585 11.9989 14.5927 10.8411 16.5013 10.0518C18.4098 9.26254 20.4553 8.85725 22.5206 8.85913C22.8468 8.85913 23.173 8.86892 23.4993 8.88849C26.2738 11.4478 25.4566 13.7819 23.5971 15.8861C22.4998 17.0499 21.3225 18.1356 20.0738 19.1354C18.2682 20.6719 16.5848 22.1057 15.9487 23.5395C15.1951 25.2424 15.748 26.7838 18.7918 28.1295C20.3136 28.8048 21.1406 29.3284 21.4636 29.7248C21.4684 29.7305 21.473 29.7345 21.4778 29.7381C21.4664 29.7416 21.4552 29.7453 21.444 29.7492C20.7071 30.0298 19.9226 30.1645 19.1343 30.1456C15.4447 30.3022 12.8169 27.9435 10.7763 26.1183C9.30827 24.8117 8.08981 23.7254 6.82241 23.7156C7.03192 19.8498 8.6612 16.1975 11.3978 13.459ZM38.3068 24.6062H38.3117C38.3095 31.4265 33.9251 37.473 27.4434 39.5948C27.2613 38.4479 27.4735 37.2732 28.0453 36.2624C28.8206 35.0172 29.8154 33.9229 30.9813 33.0327C35.498 29.2648 35.7524 27.1606 35.9482 25.5409C36.0705 24.5181 36.1635 23.7548 38.1845 22.644C38.2656 23.2949 38.3064 23.9503 38.3068 24.6062ZM37.3966 19.3115C37.6153 19.9276 37.7951 20.5569 37.9349 21.1955C34.8569 22.7614 34.7199 23.8771 34.534 25.399C34.3676 26.7691 34.1523 28.5601 30.0711 31.966C28.764 32.966 27.6526 34.1986 26.7925 35.6018C26.0427 36.9272 25.7829 38.474 26.0585 39.9716C17.5697 41.9121 9.11523 36.6037 7.17473 28.1151C6.95282 27.1442 6.82338 26.1545 6.78815 25.1592C7.56621 25.1592 8.57426 26.084 9.8123 27.1851C12.0535 29.1865 14.9211 31.7409 19.193 31.5892C20.1996 31.6065 21.199 31.4167 22.1291 31.0313C22.3228 30.9457 22.4958 30.8191 22.636 30.6603C22.7762 30.5015 22.8804 30.3142 22.9414 30.1113C22.9927 29.8859 22.9874 29.6513 22.9259 29.4284C22.8645 29.2055 22.7487 29.0014 22.5891 28.8342C22.1291 28.2714 21.121 27.6059 19.3888 26.8327C17.3188 25.9177 16.8686 25.0271 17.2748 24.1169C17.7641 22.9718 19.3398 21.6702 21.0134 20.2021C22.3175 19.1482 23.5455 18.0036 24.6884 16.7767C26.7338 14.4474 27.7859 11.9077 25.7062 9.12827C28.0175 9.60077 30.1921 10.5894 32.0677 12.0203L30.9422 15.7344C30.9014 15.8592 30.8959 15.9928 30.9261 16.1206C30.9563 16.2483 31.0211 16.3653 31.1134 16.4586C31.1134 16.4586 32.9387 18.2692 32.9974 18.3035C33.0794 18.351 33.17 18.3816 33.264 18.3935C33.3579 18.4054 33.4533 18.3983 33.5445 18.3728C33.6358 18.3473 33.7209 18.3037 33.795 18.2448C33.8692 18.1858 33.9307 18.1126 33.9761 18.0294L35.4001 15.4555C36.2406 16.6424 36.9125 17.9401 37.3966 19.3115ZM43.9587 13.8455L43.3275 14.1587C43.1862 14.2288 43.0724 14.3442 43.0045 14.4866L42.6913 15.1227L41.4729 17.3248L41.1156 16.9333L41.8252 14.5893C41.8656 14.4551 41.8653 14.3118 41.8244 14.1777C41.7835 14.0436 41.7037 13.9246 41.5952 13.8358L37.7343 10.1999C37.6661 10.133 37.5851 10.0805 37.4962 10.0456C37.4072 10.0107 37.3122 9.99409 37.2167 9.99683C37.1211 9.99958 37.0272 10.0216 36.9404 10.0615C36.8536 10.1015 36.7758 10.1585 36.7115 10.2293C36.6626 10.2831 33.1883 16.5418 33.1883 16.5418L32.4298 15.7833L34.7982 7.97831C34.8397 7.84335 34.84 7.69908 34.799 7.56396C34.758 7.42883 34.6777 7.30901 34.5682 7.21983L31.4951 4.3278C31.3294 4.18742 31.213 3.9977 31.1628 3.7864C31.1126 3.5751 31.1313 3.35328 31.2162 3.15338C31.3724 2.79785 31.6574 2.51462 32.0138 2.36064H32.0383C32.236 2.28431 32.4526 2.27157 32.6578 2.3242C32.8631 2.37684 33.0468 2.49221 33.1834 2.65425L36.1194 5.75669C36.2098 5.85373 36.3256 5.9235 36.4536 5.9581C36.5816 5.9927 36.7167 5.99073 36.8437 5.95243L44.6732 3.58889L45.4317 4.34738L39.217 7.763C39.1338 7.80835 39.0606 7.86991 39.0016 7.94402C38.9426 8.01814 38.8991 8.10332 38.8735 8.19454C38.848 8.28575 38.841 8.38116 38.8529 8.47514C38.8648 8.56911 38.8954 8.65974 38.943 8.74169C38.9723 8.79551 42.7158 12.7788 42.7158 12.7788C42.8067 12.875 42.9227 12.9438 43.0507 12.9775C43.1787 13.0113 43.3135 13.0085 43.44 12.9696L45.7938 12.2601L46.1608 12.6271L43.9587 13.8455ZM42.0681 34.4797C41.9842 34.4303 41.8912 34.398 41.7947 34.3849C41.6981 34.3717 41.5999 34.3779 41.5058 34.4031C41.4117 34.4283 41.3235 34.472 41.2464 34.5316C41.1694 34.5913 41.1049 34.6657 41.0569 34.7504C40.7486 35.3132 40.411 35.8661 40.0489 36.3946C39.9384 36.5543 39.8956 36.7512 39.9297 36.9423C39.9637 37.1335 40.072 37.3034 40.2308 37.4151C40.3896 37.5268 40.5861 37.5712 40.7775 37.5386C40.9689 37.506 41.1397 37.3991 41.2527 37.2412C41.6343 36.6736 41.9965 36.0815 42.3292 35.4845C42.378 35.4013 42.41 35.3094 42.4233 35.214C42.4367 35.1185 42.431 35.0213 42.4068 34.928C42.3825 34.8347 42.3402 34.7471 42.2821 34.6702C42.224 34.5933 42.1513 34.5285 42.0681 34.4797ZM44.3894 23.7645C44.2905 23.7632 44.1923 23.7819 44.1009 23.8194C44.0094 23.8569 43.9264 23.9125 43.8569 23.9829C43.7875 24.0533 43.7329 24.137 43.6966 24.229C43.6603 24.3209 43.6429 24.4193 43.6455 24.5181V24.6013C43.6455 25.2424 43.6162 25.8883 43.5575 26.5293C43.5398 26.7232 43.5999 26.9161 43.7245 27.0657C43.8491 27.2153 44.028 27.3092 44.2219 27.3269L44.223 27.327H44.2915C44.478 27.3287 44.6582 27.2594 44.7955 27.133C44.9327 27.0067 45.0167 26.8328 45.0304 26.6468C45.094 25.9666 45.1234 25.2766 45.1234 24.5915V24.4937C45.1221 24.2998 45.0442 24.1144 44.9067 23.9778C44.7691 23.8412 44.5832 23.7645 44.3894 23.7645ZM18.6156 45.3153C17.9795 45.2076 17.3482 45.0706 16.7365 44.8846C16.642 44.8512 16.5416 44.8376 16.4416 44.8445C16.3416 44.8513 16.2441 44.8786 16.155 44.9247C16.0659 44.9707 15.9872 45.0345 15.9238 45.112C15.8603 45.1896 15.8134 45.2794 15.7859 45.3758C15.7585 45.4723 15.7511 45.5733 15.7642 45.6727C15.7772 45.7721 15.8105 45.8677 15.862 45.9538C15.9135 46.0398 15.982 46.1144 16.0634 46.1729C16.1448 46.2314 16.2373 46.2727 16.3353 46.2941C16.991 46.48 17.6663 46.6415 18.3416 46.7834H18.4786C18.672 46.7991 18.8638 46.738 19.0124 46.6133C19.161 46.4885 19.2545 46.3102 19.2725 46.117C19.2905 45.9238 19.2317 45.7313 19.1087 45.5812C18.9857 45.4311 18.8086 45.3356 18.6156 45.3153ZM29.9729 45.0922C29.9089 44.9185 29.7816 44.7753 29.6165 44.6915C29.4514 44.6076 29.2607 44.5893 29.0827 44.6401V44.6597C28.4759 44.8603 27.8495 45.0316 27.2281 45.149C27.0392 45.193 26.8754 45.31 26.7723 45.4743C26.6693 45.6386 26.6354 45.837 26.678 46.0262C26.7206 46.2154 26.8363 46.38 26.9999 46.4843C27.1634 46.5886 27.3615 46.624 27.551 46.5828C28.2165 46.4311 28.8869 46.2451 29.5378 46.0347C29.6282 46.0014 29.7112 45.9506 29.7821 45.8852C29.8529 45.8198 29.9101 45.7411 29.9505 45.6536C29.9909 45.5661 30.0137 45.4715 30.0176 45.3751C30.0214 45.2788 30.0062 45.1827 29.9729 45.0922ZM13.5802 43.7151C12.9979 43.4264 12.4254 43.1132 11.8724 42.8C11.7892 42.7512 11.6972 42.7192 11.6016 42.7059C11.506 42.6927 11.4088 42.6984 11.3154 42.7227C11.222 42.747 11.1344 42.7894 11.0574 42.8476C10.9804 42.9058 10.9157 42.9786 10.8668 43.0618C10.818 43.1451 10.786 43.2371 10.7728 43.3326C10.7595 43.4282 10.7652 43.5255 10.7895 43.6189C10.8138 43.7122 10.8562 43.7999 10.9144 43.8769C10.9726 43.9538 11.0454 44.0186 11.1286 44.0674C11.7207 44.4149 12.3324 44.7378 12.9539 45.0461C13.1299 45.1256 13.33 45.1326 13.5112 45.0658C13.6923 44.999 13.84 44.8636 13.9222 44.6889C14.0044 44.5142 14.0146 44.3142 13.9506 44.132C13.8867 43.9498 13.7536 43.8001 13.5802 43.7151ZM38.9497 38.9934C38.8082 38.8643 38.6219 38.7955 38.4305 38.8019C38.2391 38.8082 38.0577 38.8891 37.9251 39.0273H37.93C37.4896 39.5167 37.0247 39.9473 36.5501 40.373C36.4062 40.5032 36.3197 40.685 36.3094 40.8787C36.2991 41.0725 36.3658 41.2624 36.495 41.4071C36.6242 41.5518 36.8054 41.6396 36.9991 41.6512C37.1928 41.6628 37.3832 41.5974 37.5287 41.4691C38.0181 41.014 38.5368 40.5296 38.9968 40.0305C39.0618 39.9593 39.1121 39.876 39.145 39.7854C39.1778 39.6947 39.1924 39.5985 39.188 39.5022C39.1837 39.4059 39.1604 39.3114 39.1195 39.2241C39.0786 39.1368 39.0209 39.0584 38.9497 38.9934ZM34.8999 42.6547C34.8486 42.569 34.7805 42.4947 34.6995 42.4362C34.6186 42.3778 34.5265 42.3365 34.4291 42.3148C34.3316 42.2932 34.2308 42.2916 34.1327 42.3103C34.0346 42.329 33.9414 42.3674 33.8587 42.4234V42.4038C33.3204 42.7463 32.7576 43.0693 32.19 43.3825C32.0177 43.4719 31.8878 43.626 31.8288 43.8109C31.7698 43.9958 31.7864 44.1966 31.875 44.3694C31.9636 44.5421 32.1171 44.6727 32.3017 44.7326C32.4864 44.7925 32.6873 44.7768 32.8604 44.689C33.4672 44.3758 34.0691 44.0284 34.6465 43.6614C34.7293 43.6119 34.8014 43.5467 34.859 43.4693C34.9165 43.3919 34.9582 43.304 34.9817 43.2105C35.0052 43.117 35.0101 43.0198 34.9961 42.9245C34.982 42.8291 34.9493 42.7374 34.8999 42.6547Z" fill="#DCA546"/>
</g>
<defs>
<clipPath id="clip0_4026_128">
<rect width="48" height="48" fill="white"/>
</clipPath>
</defs>
</svg>
