<svg width="18" height="18" viewBox="0 0 18 18" fill="none" xmlns="http://www.w3.org/2000/svg">
<path d="M9 15H15.75" stroke="#8A8C8A" stroke-width="1.3" stroke-linecap="round" stroke-linejoin="round"/>
<path d="M12.2812 2.7163C12.5798 2.41773 12.9848 2.25 13.407 2.25C13.8292 2.25 14.2342 2.41773 14.5328 2.7163C14.8313 3.01487 14.9991 3.41981 14.9991 3.84205C14.9991 4.26429 14.8313 4.66923 14.5328 4.9678L5.52525 13.9761C5.34682 14.1545 5.12627 14.285 4.884 14.3556L2.73 14.9841C2.66546 15.0029 2.59705 15.004 2.53193 14.9873C2.46681 14.9706 2.40737 14.9368 2.35984 14.8892C2.3123 14.8417 2.27842 14.7822 2.26173 14.7171C2.24505 14.652 2.24618 14.5836 2.265 14.5191L2.8935 12.3651C2.96417 12.1231 3.09469 11.9028 3.273 11.7246L12.2812 2.7163Z" stroke="#8A8C8A" stroke-width="1.3" stroke-linecap="round" stroke-linejoin="round"/>
<path d="M11.25 3.75L13.5 6" stroke="#8A8C8A" stroke-width="1.3" stroke-linecap="round" stroke-linejoin="round"/>
</svg>
