<svg width="21" height="20" viewBox="0 0 21 20" fill="none" xmlns="http://www.w3.org/2000/svg">
<g clip-path="url(#clip0_2238_24389)">
<path d="M12.8346 3.3335H8.66797L6.58464 5.8335H4.08464C3.64261 5.8335 3.21868 6.00909 2.90612 6.32165C2.59356 6.63421 2.41797 7.05814 2.41797 7.50016V15.0002C2.41797 15.4422 2.59356 15.8661 2.90612 16.1787C3.21868 16.4912 3.64261 16.6668 4.08464 16.6668H17.418C17.86 16.6668 18.2839 16.4912 18.5965 16.1787C18.909 15.8661 19.0846 15.4422 19.0846 15.0002V7.50016C19.0846 7.05814 18.909 6.63421 18.5965 6.32165C18.2839 6.00909 17.86 5.8335 17.418 5.8335H14.918L12.8346 3.3335Z" stroke="#DCA546" stroke-width="2" stroke-linecap="round" stroke-linejoin="round"/>
<path d="M10.75 13.3335C12.1307 13.3335 13.25 12.2142 13.25 10.8335C13.25 9.45278 12.1307 8.3335 10.75 8.3335C9.36929 8.3335 8.25 9.45278 8.25 10.8335C8.25 12.2142 9.36929 13.3335 10.75 13.3335Z" stroke="#DCA546" stroke-width="2" stroke-linecap="round" stroke-linejoin="round"/>
</g>
<defs>
<clipPath id="clip0_2238_24389">
<rect width="20" height="20" fill="white" transform="translate(0.75)"/>
</clipPath>
</defs>
</svg>
