<svg width="16" height="16" viewBox="0 0 16 16" fill="none" xmlns="http://www.w3.org/2000/svg">
<path d="M1.5 10.5L4.93933 7.06067C5.07862 6.92138 5.24398 6.81089 5.42597 6.7355C5.60796 6.66012 5.80302 6.62132 6 6.62132C6.19698 6.62132 6.39204 6.66012 6.57403 6.7355C6.75602 6.81089 6.92138 6.92138 7.06067 7.06067L10.5 10.5M9.5 9.5L10.4393 8.56067C10.5786 8.42138 10.744 8.31089 10.926 8.2355C11.108 8.16012 11.303 8.12132 11.5 8.12132C11.697 8.12132 11.892 8.16012 12.074 8.2355C12.256 8.31089 12.4214 8.42138 12.5607 8.56067L14.5 10.5M2.5 13H13.5C13.7652 13 14.0196 12.8946 14.2071 12.7071C14.3946 12.5196 14.5 12.2652 14.5 12V4C14.5 3.73478 14.3946 3.48043 14.2071 3.29289C14.0196 3.10536 13.7652 3 13.5 3H2.5C2.23478 3 1.98043 3.10536 1.79289 3.29289C1.60536 3.48043 1.5 3.73478 1.5 4V12C1.5 12.2652 1.60536 12.5196 1.79289 12.7071C1.98043 12.8946 2.23478 13 2.5 13ZM9.5 5.5H9.50533V5.50533H9.5V5.5ZM9.75 5.5C9.75 5.5663 9.72366 5.62989 9.67678 5.67678C9.62989 5.72366 9.5663 5.75 9.5 5.75C9.4337 5.75 9.37011 5.72366 9.32322 5.67678C9.27634 5.62989 9.25 5.5663 9.25 5.5C9.25 5.4337 9.27634 5.37011 9.32322 5.32322C9.37011 5.27634 9.4337 5.25 9.5 5.25C9.5663 5.25 9.62989 5.27634 9.67678 5.32322C9.72366 5.37011 9.75 5.4337 9.75 5.5Z" stroke="white" stroke-width="1.3" stroke-linecap="round" stroke-linejoin="round"/>
</svg>
