<svg width="80" height="80" viewBox="0 0 80 80" fill="none" xmlns="http://www.w3.org/2000/svg">
<path fill-rule="evenodd" clip-rule="evenodd" d="M17.9569 49.477L21.4118 55.3995C21.9125 56.2579 22.7658 56.7481 23.7596 56.7481H26.6675C27.4159 56.7481 28.0601 57.0148 28.5893 57.5442L31.6511 60.6059C31.6747 60.6296 31.6815 60.6634 31.6687 60.6943C31.6559 60.7253 31.6272 60.7444 31.5938 60.7444H19.8411C19.8285 60.7446 19.816 60.7418 19.8047 60.7361C19.7934 60.7305 19.7836 60.7222 19.7762 60.712L17.4271 57.5798C17.4197 57.5696 17.4099 57.5613 17.3987 57.5557C17.3874 57.55 17.3749 57.5472 17.3623 57.5473H4.74366C4.71502 57.5473 4.69038 57.561 4.67506 57.5853C4.65974 57.6096 4.65808 57.6377 4.67056 57.6635L11.2994 71.4736C11.307 71.4889 11.3094 71.5063 11.3064 71.5232C11.3033 71.54 11.2949 71.5554 11.2824 71.5672C9.86928 72.9229 8.04435 72.9523 6.62421 71.8785C6.07689 71.4648 5.80898 71.0426 5.38072 70.5733C4.23498 69.3183 2.72242 68.5675 1.04651 68.5763C0.767858 68.5774 0.501056 68.6892 0.304798 68.887C0.10854 69.0848 -0.00109576 69.3525 8.25783e-06 69.6312C0.00111228 69.9098 0.112866 70.1766 0.310685 70.3729C0.508504 70.5691 0.776184 70.6788 1.05484 70.6777C1.98778 70.6727 2.82798 71.0548 3.51883 71.682C4.11226 72.2207 4.48258 72.8296 5.15027 73.3871C6.16248 74.2323 7.36833 74.745 8.7675 74.7458C10.6807 74.747 12.3659 73.7369 13.5147 72.2104C14.209 71.2878 15.3769 70.6813 16.4552 70.6813C17.4824 70.6813 18.3184 71.1152 19.0207 71.8066C19.5033 72.2816 19.8148 72.7748 20.3513 73.248C21.9055 74.6191 23.9272 75.0956 25.8088 74.4867C28.0353 73.7661 28.0045 72.7648 29.6177 71.4866C30.9867 70.4016 32.604 70.4519 33.8923 71.379C35.4335 72.4884 35.4713 73.7091 37.8437 74.483C41.1733 75.5695 42.6261 73.7234 44.658 71.769C45.3544 71.0994 46.3113 70.6813 47.2064 70.6813C48.1022 70.6813 48.9015 71.0322 49.569 71.6129C50.0496 72.0309 50.3901 72.5519 50.8463 73.0011C51.9369 74.0756 53.2893 74.7458 54.8943 74.7458C56.7795 74.7458 58.482 73.7531 59.6416 72.2104C60.3353 71.2876 61.5043 70.6813 62.5821 70.6813C63.3677 70.6813 64.079 70.9511 64.6923 71.4091C66.3624 72.6561 66.4173 73.8466 68.6782 74.5541C70.8877 75.2457 73.3011 74.3708 74.8992 72.3626C75.2517 71.9196 75.5938 71.576 75.9799 71.3104C77.6203 70.1828 78.2481 71.04 79.2383 70.7536C79.4623 70.6889 79.6585 70.5518 79.7962 70.3636C79.9339 70.1755 80.0053 69.947 79.9992 69.7139C79.9932 69.4809 79.91 69.2564 79.7627 69.0757C79.6154 68.895 79.4124 68.7682 79.1853 68.7152C76.8807 68.1775 74.7499 69.1628 73.2511 71.0521C72.1332 72.4613 70.4778 73.0246 68.9457 72.3651C67.7116 71.8339 67.3884 70.9889 66.4235 70.115C65.9604 69.6956 65.4444 69.3468 64.8841 69.0867C64.8717 69.0811 64.861 69.0725 64.8529 69.0616C64.8448 69.0507 64.8397 69.0379 64.838 69.0244C64.8359 69.011 64.8373 68.9973 64.842 68.9845C64.8468 68.9718 64.8547 68.9606 64.8651 68.9518L78.7822 56.8904C78.8084 56.8678 78.8172 56.8332 78.805 56.8009C78.7929 56.7686 78.7636 56.7481 78.7291 56.7481H72.1583C72.1378 56.7481 72.1181 56.7404 72.103 56.7264C72.088 56.7124 72.0789 56.6933 72.0774 56.6728C72.0696 56.5643 72.0449 56.4576 72.0043 56.3566C66.9182 43.69 50.7168 5.21695 50.7168 5.79839V60.6632C50.7167 60.6847 50.7082 60.7053 50.693 60.7205C50.6778 60.7357 50.6572 60.7442 50.6357 60.7443H45.4586C45.4371 60.7442 45.4165 60.7357 45.4013 60.7205C45.3861 60.7053 45.3775 60.6847 45.3775 60.6632V5.27522C45.3775 5.24092 45.3575 5.21179 45.3255 5.19946C45.2936 5.18714 45.2591 5.19547 45.2361 5.22078L18.3487 35.0058C18.3375 35.018 18.3303 35.0333 18.3282 35.0498C18.3261 35.0662 18.3291 35.0829 18.3369 35.0975C18.3444 35.1123 18.3563 35.1244 18.371 35.1321C18.3857 35.1399 18.4024 35.1428 18.4188 35.1406C22.9002 34.5915 26.7144 35.3488 30.0534 37.0358C30.072 37.0452 30.0862 37.0614 30.0932 37.081C30.1002 37.1006 30.0994 37.1221 30.0909 37.1411L27.6442 42.6635C27.5744 42.822 27.5447 42.9952 27.5579 43.1679C27.571 43.3406 27.6266 43.5073 27.7196 43.6534C27.7424 43.6893 27.7338 43.7366 27.6995 43.7619L25.2984 45.5426C25.2846 45.5532 25.2676 45.5588 25.2502 45.5586H21.7253C19.3334 45.5584 16.127 46.3402 17.9569 49.477ZM18.8772 40.2203C20.2617 40.2203 21.3842 41.3426 21.3842 42.7273C21.3842 44.1118 20.2619 45.2342 18.8772 45.2342C17.4927 45.2342 16.3703 44.1119 16.3703 42.7273C16.3703 41.3426 17.4927 40.2203 18.8772 40.2203ZM23.1009 49.5335L26.1147 48.9082C26.1262 48.906 26.1371 48.9011 26.1465 48.8939L29.6999 46.2586C29.7168 46.2461 29.738 46.2406 29.7588 46.2434C29.7797 46.2461 29.7987 46.2568 29.8118 46.2732L41.1966 60.6127C41.2165 60.6377 41.22 60.6697 41.2061 60.6985C41.1997 60.7124 41.1893 60.7241 41.1763 60.7322C41.1634 60.7403 41.1483 60.7445 41.133 60.7443H35.3156C35.3035 60.7444 35.2916 60.7418 35.2807 60.7367C35.2698 60.7315 35.2603 60.7239 35.2528 60.7145L30.0394 54.3425C29.605 53.8115 29.0594 53.4955 28.3827 53.3828L24.6369 52.7585C24.6242 52.7566 24.6122 52.7516 24.6018 52.744C24.5915 52.7363 24.5832 52.7263 24.5776 52.7148L23.0447 49.6488C23.039 49.6378 23.036 49.6255 23.0359 49.6131C23.0358 49.6007 23.0387 49.5884 23.0442 49.5772C23.0496 49.566 23.0575 49.5562 23.0673 49.5485C23.0771 49.5409 23.0886 49.5358 23.1009 49.5335ZM42.9418 59.4189L31.1722 44.5152C31.1596 44.4998 31.1534 44.4801 31.1549 44.4603C31.1763 44.0941 31.0706 43.7318 30.8555 43.4347C30.6405 43.1375 30.3294 42.9239 29.9748 42.8298C29.9512 42.8235 29.9334 42.8087 29.9227 42.7867C29.912 42.7647 29.9115 42.7416 29.9214 42.7191L42.931 12.7125C42.9383 12.6953 42.9514 12.6812 42.968 12.6726C42.9846 12.664 43.0036 12.6615 43.0219 12.6654C43.0402 12.669 43.0567 12.679 43.0685 12.6935C43.0803 12.708 43.0866 12.7261 43.0865 12.7448V17.4691C43.0866 17.4804 43.0842 17.4915 43.0795 17.5018L33.5289 39.1582C33.5215 39.1747 33.5198 39.1933 33.5244 39.211C33.5289 39.2286 33.5392 39.2441 33.5537 39.2551C37.2069 42.0657 40.2665 46.0381 43.074 50.5039C43.0823 50.5167 43.0867 50.5317 43.0865 50.547V59.3683C43.0867 59.3851 43.0815 59.4016 43.0717 59.4154C43.062 59.4292 43.0481 59.4395 43.0321 59.4449C43.0162 59.4508 42.9989 59.4514 42.9827 59.4467C42.9664 59.4421 42.9521 59.4323 42.9418 59.4189ZM52.8259 60.6634V47.6467C52.8259 47.6228 52.8352 47.6021 52.8531 47.5861C54.096 46.4807 55.5092 45.7855 57.1237 45.7779C60.846 45.7602 62.3866 48.2425 64.5729 50.8049L69.5299 56.6144C69.5401 56.6261 69.5466 56.6405 69.5488 56.6559C69.5509 56.6713 69.5485 56.6869 69.5418 56.701C69.5355 56.7151 69.5252 56.7272 69.5121 56.7355C69.499 56.7439 69.4838 56.7483 69.4682 56.7481H66.1767C66.1641 56.748 66.1516 56.7509 66.1404 56.7566L58.182 60.7358C58.1707 60.7415 58.1583 60.7444 58.1457 60.7443H52.9067C52.8852 60.7442 52.8647 60.7357 52.8496 60.7205C52.8344 60.7053 52.8259 60.6848 52.8259 60.6634Z" fill="white"/>
</svg>
