<svg width="50" height="50" viewBox="0 0 50 50" fill="none" xmlns="http://www.w3.org/2000/svg">
<path d="M36.6602 16.5936C37.0038 16.2527 37.5584 16.2548 37.8994 16.5984C38.2408 16.9425 38.2407 17.5 37.8975 17.8406C37.7256 18.0111 37.5016 18.0965 37.2783 18.0965C37.0826 18.0964 36.8875 18.0307 36.7275 17.8992L36.6611 17.8387L36.6553 17.8328L36.5947 17.7664C36.3153 17.421 36.3381 16.9132 36.6602 16.5936Z" fill="#ACAFAB" stroke="white" stroke-width="0.2"/>
<path d="M24.9092 4.84863C25.2515 4.50642 25.8071 4.50642 26.1494 4.84863L34.9707 13.6699C35.3129 14.0123 35.313 14.5679 34.9707 14.9102C34.6283 15.2523 34.0728 15.2522 33.7305 14.9102L26.7793 7.95801L26.6084 7.78809V25.1992C26.6084 26.6788 27.8123 27.8828 29.292 27.8828H46.7031L39.332 20.5117C38.9898 20.1693 38.9898 19.6138 39.332 19.2715C39.6744 18.9293 40.23 18.9293 40.5723 19.2715L49.6426 28.3418C49.8068 28.5062 49.8993 28.7295 49.8994 28.9619C49.8994 29.1943 49.8069 29.4176 49.6426 29.582L34.0742 45.1504C33.9099 45.3147 33.6865 45.4072 33.4541 45.4072C33.2216 45.4072 32.9983 45.3147 32.834 45.1504L9.34082 21.6572C8.99878 21.3149 8.99896 20.7602 9.34082 20.418L24.9092 4.84863ZM32.5771 42.4141V29.6357H29.292C26.846 29.6357 24.8555 27.6453 24.8555 25.1992V21.9141H12.0771L32.5771 42.4141ZM34.3301 42.4141L34.501 42.2432L46.9385 29.8066L47.1084 29.6357H34.3301V42.4141ZM24.6846 7.55273L12.248 19.9902L12.0771 20.1611H24.8555V7.38184L24.6846 7.55273Z" fill="#ACAFAB" stroke="white" stroke-width="0.2"/>
<path d="M0.976562 24.9042H6.70215C7.18627 24.9042 7.5791 25.2971 7.5791 25.7811C7.5791 26.2653 7.18628 26.6581 6.70215 26.6581H0.976562C0.492442 26.6581 0.0996094 26.2652 0.0996094 25.7811C0.0996094 25.2971 0.492442 24.9042 0.976562 24.9042Z" fill="#ACAFAB" stroke="white" stroke-width="0.2"/>
<path d="M9.59766 24.9042H9.6123C10.0964 24.9042 10.4893 25.2971 10.4893 25.7811C10.4893 26.2652 10.0964 26.6581 9.6123 26.6581H9.59766C9.11354 26.6581 8.7207 26.2652 8.7207 25.7811C8.7207 25.2971 9.11354 24.9042 9.59766 24.9042Z" fill="#ACAFAB" stroke="white" stroke-width="0.2"/>
<path d="M0.976562 14.6506H4.10156C4.58568 14.6506 4.97852 15.0435 4.97852 15.5275C4.97852 16.0116 4.58568 16.4045 4.10156 16.4045H0.976562C0.492442 16.4045 0.0996094 16.0116 0.0996094 15.5275C0.0996094 15.0435 0.492442 14.6506 0.976562 14.6506Z" fill="#ACAFAB" stroke="white" stroke-width="0.2"/>
<path d="M7.29297 14.6506H10.9873C11.4713 14.6507 11.8633 15.0436 11.8633 15.5275C11.8633 16.0115 11.4713 16.4044 10.9873 16.4045H7.29297C6.80885 16.4045 6.41602 16.0116 6.41602 15.5275C6.41602 15.0435 6.80885 14.6506 7.29297 14.6506Z" fill="#ACAFAB" stroke="white" stroke-width="0.2"/>
<path d="M7.64453 30.2752H13.1133C13.5973 30.2753 13.9893 30.6682 13.9893 31.1522C13.9893 31.6362 13.5974 32.0291 13.1133 32.0291H7.64453C7.16041 32.0291 6.76758 31.6362 6.76758 31.1522C6.76758 30.6681 7.16041 30.2752 7.64453 30.2752Z" fill="#ACAFAB" stroke="white" stroke-width="0.2"/>
<path d="M3.61328 36.5254H17.3828C17.8669 36.5254 18.2588 36.9183 18.2588 37.4023C18.2588 37.8863 17.8669 38.2792 17.3828 38.2793H3.61328C3.12916 38.2793 2.73633 37.8864 2.73633 37.4023C2.73633 36.9183 3.12916 36.5254 3.61328 36.5254Z" fill="#ACAFAB" stroke="white" stroke-width="0.2"/>
</svg>
