<svg width="60" height="58" viewBox="0 0 60 58" fill="none" xmlns="http://www.w3.org/2000/svg">
<path fill-rule="evenodd" clip-rule="evenodd" d="M40.494 16.9053C41.1069 21.1092 39.9779 25.3618 37.492 28.363C33.2033 33.5409 26.191 33.5407 21.9023 28.363C19.9469 26.0022 18.7374 22.7492 18.7374 19.1635C18.7374 18.9075 18.7436 18.6533 18.7557 18.4009C18.7561 18.3925 18.7557 18.3841 18.7543 18.3758C18.4535 16.4335 18.6821 14.7388 19.4313 13.2874L19.4476 13.2561C19.4577 13.236 19.4732 13.2192 19.4923 13.2073C19.5114 13.1955 19.5334 13.1892 19.5558 13.1891C21.985 13.1448 24.3763 13.3828 26.747 13.9494C26.7722 13.9551 26.7949 13.9687 26.812 13.9881C26.8291 14.0075 26.8396 14.0318 26.842 14.0575C26.845 14.0831 26.8399 14.1091 26.8273 14.1317C26.8148 14.1542 26.7954 14.1722 26.772 14.1832C25.6672 14.7136 24.6668 15.381 23.7682 16.181C22.3608 17.434 21.2113 19.0076 20.3076 20.8872C20.2969 20.9088 20.2929 20.9331 20.2962 20.9569C20.615 23.4765 21.5953 25.7275 23.0153 27.4419C26.7223 31.9174 32.6716 31.9174 36.3786 27.4419C37.8641 25.6485 38.8682 23.268 39.1374 20.607C39.1406 20.5788 39.1338 20.5504 39.1181 20.5267C38.913 20.2087 38.6992 19.8965 38.4769 19.5903C36.128 16.3572 33.2733 14.4603 29.5722 13.1875C26.4207 12.1037 23.047 11.6282 19.7327 11.6691C19.7036 11.6697 19.6753 11.6599 19.6527 11.6417C19.63 11.6234 19.6146 11.5977 19.609 11.5692C19.1191 9.15238 19.6744 7.35782 22.1298 6.05568C23.4822 5.33837 25.2426 4.90227 26.7931 4.91955C29.7087 4.95206 33.1757 6.25587 35.5329 7.904C38.4115 9.9168 40.2982 13.4131 40.4927 16.8943C40.4929 16.8982 40.4933 16.9014 40.494 16.9053ZM0.81088 55.6567C0.595821 55.6567 0.389571 55.7421 0.237501 55.8942C0.0854317 56.0463 0 56.2525 0 56.4676C0 56.6826 0.0854317 56.8889 0.237501 57.041C0.389571 57.193 0.595821 57.2785 0.81088 57.2785H58.4717C58.6867 57.2785 58.893 57.193 59.0451 57.041C59.1971 56.8889 59.2826 56.6826 59.2826 56.4676C59.2826 56.2525 59.1971 56.0463 59.0451 55.8942C58.893 55.7421 58.6867 55.6567 58.4717 55.6567H0.81088ZM7.89133 53.9274C5.90746 53.5103 4.33958 51.9215 3.95302 49.9272C3.94922 49.9091 3.94961 49.8904 3.95416 49.8725C3.95871 49.8547 3.96729 49.838 3.97926 49.824C3.9908 49.8096 4.00547 49.7981 4.02215 49.7902C4.03883 49.7824 4.05708 49.7784 4.07552 49.7787H17.01C17.0584 49.7787 17.0999 49.8043 17.1215 49.8477C17.8986 51.4019 19.0396 52.7209 20.4634 53.7027C20.5091 53.7341 20.5281 53.7894 20.5116 53.8424C20.4951 53.8954 20.448 53.93 20.3926 53.93H7.91706C7.90841 53.9301 7.89978 53.9292 7.89133 53.9274ZM25.4986 53.9288C25.5046 53.9296 25.5098 53.93 25.5158 53.93H27.001C27.052 53.93 27.0957 53.9012 27.1156 53.8542C27.1255 53.8318 27.1285 53.8068 27.124 53.7827C27.1196 53.7586 27.1079 53.7364 27.0907 53.7189C24.5545 51.0833 23.2436 47.5845 24.0046 43.9191C24.0104 43.8922 24.0071 43.8642 23.9952 43.8394C23.9833 43.8147 23.9634 43.7946 23.9388 43.7824C22.0603 42.8325 19.8892 42.5665 17.7281 42.8236C17.7002 42.8266 17.6742 42.8391 17.6544 42.859C17.6346 42.8788 17.6221 42.9048 17.6191 42.9327C17.4335 44.4931 17.5259 46.0081 17.9071 47.3961C18.9037 51.024 21.7789 53.4127 25.4986 53.9288ZM32.1919 53.7189C34.7281 51.0831 36.0389 47.5845 35.278 43.9191C35.2721 43.8923 35.2755 43.8642 35.2874 43.8395C35.2993 43.8148 35.3191 43.7947 35.3437 43.7825C37.2223 42.8326 39.3934 42.5667 41.5544 42.8237C41.6124 42.8306 41.6567 42.8749 41.6636 42.9329C42.1647 47.1544 40.5859 51.2646 36.587 53.1192C36.1121 53.3388 35.6198 53.5185 35.1151 53.6564C34.6779 53.776 34.2333 53.8671 33.7842 53.929C33.7785 53.9297 33.7728 53.9301 33.767 53.9301H32.2816C32.2571 53.9304 32.2331 53.9234 32.2126 53.9099C32.1922 53.8963 32.1762 53.877 32.1669 53.8543C32.1571 53.8319 32.1542 53.8069 32.1586 53.7828C32.1631 53.7587 32.1746 53.7364 32.1919 53.7189ZM38.8193 53.7027C38.7736 53.7341 38.7546 53.7894 38.7711 53.8424C38.7876 53.8954 38.8347 53.93 38.8901 53.93H51.3658C51.3744 53.9301 51.383 53.9291 51.3915 53.9273C52.0592 53.7863 52.6914 53.5114 53.2498 53.1191C54.3205 52.3684 55.0776 51.2266 55.3297 49.9272C55.3334 49.9091 55.333 49.8904 55.3285 49.8725C55.3239 49.8547 55.3154 49.8381 55.3034 49.824C55.2919 49.8096 55.2772 49.798 55.2605 49.7902C55.2439 49.7823 55.2256 49.7784 55.2072 49.7787H42.2726C42.2494 49.7784 42.2266 49.7848 42.2069 49.797C42.1871 49.8092 42.1713 49.8268 42.1612 49.8477C41.3839 51.4019 40.2431 52.7209 38.8193 53.7027ZM43.0037 48.1569H52.2418C52.2594 48.1572 52.2769 48.1536 52.293 48.1463C52.3091 48.1391 52.3235 48.1284 52.335 48.1151C52.3469 48.1021 52.3558 48.0866 52.3612 48.0698C52.3665 48.053 52.3681 48.0353 52.3658 48.0178C51.5899 41.2963 48.8667 36.5757 40.7821 36.5757C38.0326 36.5757 35.6189 34.8795 34.625 32.4079C34.6186 32.3912 34.6085 32.3762 34.5956 32.3638C34.5827 32.3515 34.5671 32.3421 34.5501 32.3365C34.5333 32.3305 34.5154 32.3282 34.4976 32.3299C34.4798 32.3315 34.4626 32.3371 34.4472 32.3462C31.4234 34.0828 27.8638 34.0609 24.8577 32.2941C24.8423 32.2848 24.8249 32.2789 24.8069 32.2772C24.789 32.2754 24.7708 32.2776 24.7538 32.2838C24.7366 32.2894 24.7209 32.2988 24.7079 32.3114C24.6949 32.3239 24.6848 32.3392 24.6785 32.3561C23.6979 34.8548 21.27 36.5755 18.5009 36.5755C10.4163 36.5755 7.69306 41.2959 6.91712 48.0175C6.9129 48.0541 6.92339 48.0873 6.94797 48.1148C6.97254 48.1423 7.00429 48.1567 7.04115 48.1567H16.2793C16.3199 48.1567 16.3548 48.1391 16.3791 48.1068C16.391 48.0914 16.399 48.0734 16.4025 48.0543C16.406 48.0352 16.4048 48.0155 16.3991 47.9969C15.8373 46.0768 15.7848 44.1309 16.1179 42.0059C16.1427 41.8362 16.2207 41.6787 16.3407 41.5563C16.4608 41.4338 16.6166 41.3526 16.7858 41.3244C19.409 40.8844 22.0566 41.1156 24.3784 42.1978C24.3937 42.2052 24.4104 42.2092 24.4273 42.2097C24.4443 42.2103 24.4612 42.2072 24.4769 42.2007C24.4928 42.1947 24.5072 42.1854 24.5193 42.1734C24.5313 42.1614 24.5407 42.147 24.5468 42.1312C25.4537 39.8746 27.1028 37.95 29.173 36.4774C29.3124 36.3783 29.4798 36.3259 29.6509 36.3278C29.822 36.3296 29.9881 36.3857 30.1253 36.4879C32.2218 38.0168 33.8149 39.8328 34.7369 42.1311C34.7501 42.1641 34.7738 42.1875 34.8068 42.2006C34.8398 42.2136 34.8731 42.2126 34.9053 42.1976C37.2271 41.1155 39.8747 40.8842 42.4979 41.3243C42.6671 41.3525 42.8229 41.4336 42.943 41.5561C43.063 41.6786 43.1411 41.8361 43.1658 42.0058C43.4988 44.1313 43.4465 46.0762 42.8846 47.9968C42.8789 48.0154 42.8777 48.035 42.8812 48.0542C42.8846 48.0733 42.8927 48.0913 42.9046 48.1066C42.9157 48.1225 42.9306 48.1353 42.9479 48.1441C42.9651 48.1529 42.9843 48.1573 43.0037 48.1569ZM25.4979 44.7903C25.8705 42.1386 27.4427 39.8747 29.564 38.204C29.586 38.1864 29.6132 38.1768 29.6413 38.1768C29.6694 38.1768 29.6967 38.1863 29.7187 38.2039C35.3037 42.6003 35.2052 49.4578 29.7187 53.7783C29.6967 53.7959 29.6694 53.8054 29.6413 53.8054C29.6132 53.8054 29.586 53.7958 29.564 53.7782C26.7924 51.595 24.9901 48.4027 25.4979 44.7903ZM26.8488 3.4039C29.9939 3.45062 33.4678 4.72614 36.073 6.43789C36.0893 6.44892 36.108 6.45583 36.1275 6.45802C36.1471 6.4602 36.1669 6.4576 36.1852 6.45043C36.2037 6.44378 36.2204 6.43274 36.2337 6.41824C36.247 6.40375 36.2566 6.38625 36.2616 6.36723C37.1471 3.20064 34.7685 0 31.4263 0C29.3096 0 27.4621 1.31904 26.734 3.23482C26.7265 3.25349 26.7239 3.27371 26.7262 3.29367C26.7286 3.31362 26.7358 3.33268 26.7474 3.34912C26.7584 3.36595 26.7735 3.37976 26.7912 3.38933C26.8089 3.39889 26.8287 3.4039 26.8488 3.4039ZM27.2722 21.1181C27.0629 22.1492 25.5576 22.1492 25.3499 21.1181C25.3105 20.921 25.1943 20.7476 25.0271 20.6361C24.8598 20.5246 24.6551 20.4841 24.458 20.5235C24.2609 20.563 24.0875 20.6791 23.976 20.8463C23.8645 21.0136 23.824 21.2183 23.8634 21.4154C23.9784 21.9815 24.2858 22.4903 24.7333 22.8556C26.1999 24.0526 28.3912 23.239 28.7585 21.4154C28.798 21.2183 28.7575 21.0136 28.646 20.8464C28.5345 20.6791 28.3611 20.563 28.164 20.5236C27.9669 20.4842 27.7622 20.5246 27.595 20.6361C27.4277 20.7476 27.3116 20.921 27.2722 21.1181ZM34.1025 21.1181C33.8932 22.1492 32.388 22.1492 32.1802 21.1181C32.1607 21.0205 32.1221 20.9277 32.0668 20.845C32.0114 20.7623 31.9402 20.6913 31.8574 20.6361C31.7746 20.5809 31.6817 20.5425 31.5841 20.5232C31.4864 20.5039 31.3859 20.504 31.2883 20.5235C31.1907 20.543 31.0979 20.5816 31.0152 20.637C30.9325 20.6924 30.8615 20.7635 30.8063 20.8463C30.7511 20.9292 30.7128 21.022 30.6934 21.1197C30.6741 21.2173 30.6742 21.3178 30.6938 21.4154C30.8087 21.9815 31.1161 22.4903 31.5636 22.8556C33.0301 24.0526 35.2215 23.239 35.5889 21.4154C35.6084 21.3178 35.6085 21.2173 35.5892 21.1197C35.5699 21.0221 35.5315 20.9292 35.4763 20.8464C35.4211 20.7636 35.3501 20.6924 35.2675 20.637C35.1848 20.5817 35.092 20.5431 34.9944 20.5236C34.8968 20.5041 34.7963 20.504 34.6987 20.5233C34.601 20.5426 34.5081 20.5809 34.4253 20.6361C34.3425 20.6913 34.2714 20.7623 34.216 20.845C34.1606 20.9277 34.1221 21.0205 34.1025 21.1181Z" fill="white"/>
</svg>
