<svg width="59" height="43" viewBox="0 0 59 43" fill="none" xmlns="http://www.w3.org/2000/svg">
<path fill-rule="evenodd" clip-rule="evenodd" d="M33.3093 8.83085C37.5911 7.56979 42.6438 7.58259 46.9157 8.87693C46.9634 8.89139 46.9963 8.92992 47.0031 8.97946C47.1723 10.2113 47.1923 10.6616 47.1923 11.8409C47.1923 14.353 46.2113 16.8764 44.3054 18.5341C41.0756 21.3432 36.7248 20.4187 34.4103 16.9957C33.052 14.9868 32.6494 12.6152 33.0087 10.2477C33.0708 9.79687 33.1501 9.32928 33.2219 8.92851C33.2256 8.9056 33.2359 8.88424 33.2513 8.86694C33.2668 8.84964 33.2869 8.83712 33.3093 8.83085ZM14.3321 24.0625C15.2837 23.9653 16.2427 23.9653 17.1942 24.0625C17.2306 24.0662 17.2633 24.0556 17.2905 24.031C17.3176 24.0064 17.3316 23.9749 17.3316 23.9384V21.8499C17.3316 21.303 16.8811 20.8527 16.3344 20.8527H15.1919C14.6451 20.8527 14.1947 21.303 14.1947 21.8499V23.9384C14.1947 23.975 14.2086 24.0065 14.2358 24.031C14.2486 24.0429 14.2639 24.0518 14.2805 24.0573C14.2971 24.0627 14.3147 24.0645 14.3321 24.0625ZM20.1894 37.5082H2.33841C1.7601 37.5082 1.28727 37.8613 1.13111 38.4202L0.0123888 42.4241C-0.0420112 42.6189 0.0877809 42.8074 0.302949 42.8074H31.2231C31.4382 42.8074 31.5682 42.619 31.5137 42.4241L30.395 38.4202C30.2388 37.8613 29.766 37.5082 29.1877 37.5082H20.1894ZM24.586 29.402C20.0237 24.5139 12.1541 24.3306 7.35383 28.9809C5.51856 30.7588 4.28247 33.1172 3.9649 35.7468C3.96252 35.7643 3.96401 35.7822 3.96927 35.799C3.97454 35.8159 3.98345 35.8314 3.99537 35.8445C4.01994 35.8721 4.05169 35.8865 4.08868 35.8865H27.4374C27.4551 35.8867 27.4726 35.8831 27.4887 35.8759C27.5049 35.8686 27.5192 35.8579 27.5307 35.8445C27.5427 35.8314 27.5516 35.8159 27.5569 35.799C27.5621 35.7822 27.5636 35.7643 27.5612 35.7468C27.2683 33.3198 26.1929 31.1238 24.586 29.402ZM46.7789 26.3438C46.7881 26.3159 46.8069 26.2922 46.832 26.2769C46.8571 26.2616 46.8868 26.2557 46.9158 26.2602C52.6131 27.1253 58.2593 29.3978 58.2593 33.6517V42.6828C58.2592 42.7158 58.2461 42.7475 58.2227 42.7708C58.1993 42.7942 58.1677 42.8074 58.1346 42.8074H33.2638C33.2466 42.8077 33.2294 42.8042 33.2136 42.7973C33.1978 42.7903 33.1836 42.7801 33.1721 42.7672C33.1602 42.7547 33.1512 42.7397 33.1455 42.7234C33.1399 42.7071 33.1379 42.6897 33.1396 42.6725C33.1578 42.4439 33.135 42.2139 33.0722 41.9933L31.9535 37.9895C31.6152 36.7785 30.557 35.9429 29.3153 35.8893C29.2854 35.8881 29.2568 35.8761 29.235 35.8556C29.2132 35.835 29.1996 35.8072 29.1966 35.7774C28.9211 33.0986 27.8137 30.6573 26.1284 28.6998C26.1156 28.6854 26.1065 28.6683 26.1017 28.6497C26.0969 28.6312 26.0965 28.6117 26.1007 28.593C26.1043 28.5742 26.1124 28.5565 26.1242 28.5414C26.136 28.5263 26.1512 28.5142 26.1686 28.5061C28.1468 27.5491 30.6232 26.852 33.2326 26.4065C33.2601 26.4017 33.2884 26.4062 33.3129 26.4195C33.3375 26.4328 33.3568 26.454 33.3678 26.4796C35.0612 30.3624 45.3632 30.5464 46.7789 26.3438ZM43.6321 33.6517C43.6321 33.4367 43.5467 33.2304 43.3946 33.0783C43.2425 32.9263 43.0363 32.8408 42.8212 32.8408C42.3483 32.8408 41.9904 33.2005 41.9904 33.6517C41.9904 33.8668 42.0758 34.073 42.2279 34.2251C42.3799 34.3772 42.5862 34.4626 42.8013 34.4626C43.2742 34.4626 43.6321 34.1029 43.6321 33.6517ZM38.0802 33.6517C38.0802 33.4367 37.9948 33.2304 37.8427 33.0783C37.6907 32.9263 37.4844 32.8408 37.2693 32.8408C36.7964 32.8408 36.4385 33.2005 36.4385 33.6517C36.4385 33.8668 36.5239 34.073 36.676 34.2251C36.8281 34.3772 37.0343 34.4626 37.2494 34.4626C37.7223 34.4626 38.0802 34.1029 38.0802 33.6517ZM42.8212 37.5995C42.3483 37.5995 41.9904 37.9592 41.9904 38.4104C41.9904 38.6254 42.0758 38.8317 42.2279 38.9838C42.3799 39.1358 42.5862 39.2213 42.8013 39.2213C43.2742 39.2213 43.6321 38.8616 43.6321 38.4104C43.6321 38.1953 43.5466 37.9891 43.3946 37.837C43.2425 37.685 43.0363 37.5995 42.8212 37.5995ZM37.2693 37.5995C36.7964 37.5995 36.4385 37.9592 36.4385 38.4104C36.4385 38.6254 36.5239 38.8317 36.676 38.9838C36.8281 39.1358 37.0343 39.2213 37.2494 39.2213C37.7223 39.2213 38.0802 38.8616 38.0802 38.4104C38.0802 38.1953 37.9948 37.9891 37.8427 37.837C37.6906 37.685 37.4844 37.5995 37.2693 37.5995ZM45.1307 21.8628C41.9803 23.8588 38.0903 23.8588 34.9397 21.8628C34.921 21.8505 34.8992 21.8437 34.8768 21.843C34.8544 21.8423 34.8323 21.8478 34.8128 21.8588C34.793 21.8694 34.7766 21.8851 34.7652 21.9044C34.7538 21.9236 34.748 21.9456 34.7483 21.968V25.3041C34.7483 26.5615 36.4613 27.2681 37.8347 27.5704C39.3089 27.8949 41.0123 27.9136 42.4736 27.5884C43.9565 27.2584 45.3221 26.5787 45.3221 25.2402V21.9679C45.3224 21.9455 45.3165 21.9235 45.3051 21.9042C45.2938 21.885 45.2773 21.8692 45.2576 21.8587C45.2381 21.8477 45.216 21.8422 45.1936 21.8429C45.1712 21.8437 45.1495 21.8505 45.1307 21.8628ZM6.16369 12.8234C6.00743 12.9666 5.80121 13.0428 5.58938 13.0355C5.37755 13.0283 5.17704 12.9382 5.03096 12.7846C4.88488 12.631 4.80491 12.4262 4.80825 12.2143C4.81158 12.0024 4.89796 11.8002 5.0488 11.6513C10.2553 6.6921 21.2714 6.69223 26.4778 11.6513C26.6286 11.8002 26.715 12.0024 26.7184 12.2143C26.7217 12.4262 26.6417 12.631 26.4956 12.7846C26.3496 12.9382 26.1491 13.0283 25.9372 13.0355C25.7254 13.0428 25.5192 12.9666 25.3629 12.8234C20.7855 8.46362 10.7303 8.46861 6.16369 12.8234ZM10.2268 16.8861C12.6324 14.1769 18.9037 14.183 21.2997 16.8861C21.4426 17.0431 21.6416 17.1374 21.8535 17.1489C22.0655 17.1603 22.2734 17.0878 22.4324 16.9471C22.5914 16.8065 22.6886 16.6089 22.703 16.3971C22.7175 16.1854 22.648 15.9764 22.5097 15.8154C19.4588 12.3735 12.0678 12.3735 9.01693 15.8154C8.87948 15.9765 8.81076 16.1851 8.82556 16.3963C8.84036 16.6076 8.9375 16.8046 9.09607 16.9449C9.25465 17.0852 9.46198 17.1577 9.67344 17.1467C9.88491 17.1357 10.0836 17.0422 10.2268 16.8861ZM48.6995 9.51539L48.9652 9.62726C49.0049 9.6439 49.0468 9.64007 49.0826 9.61626C49.1184 9.59245 49.1383 9.55546 49.1383 9.51232V1.97824C49.1383 0.891904 48.2465 0 47.16 0H32.9103C31.824 0 30.9321 0.891904 30.9321 1.97824V9.51219C30.9321 9.5552 30.9519 9.59232 30.9877 9.61613C31.0236 9.63994 31.0654 9.6439 31.1051 9.62714L31.3709 9.51527C31.3916 9.50618 31.4146 9.50308 31.437 9.50632C31.4595 9.50955 31.4806 9.51899 31.498 9.53357C31.5158 9.54768 31.5293 9.56648 31.5369 9.58785C31.5446 9.60922 31.5462 9.63231 31.5415 9.65453C30.811 13.3348 31.9713 17.2881 34.7481 19.7034C38.6797 23.1231 44.1071 22.059 46.9438 17.8637C48.5163 15.5382 49.0995 12.5288 48.5287 9.65453C48.524 9.63231 48.5256 9.60922 48.5333 9.58785C48.541 9.56648 48.5545 9.54768 48.5723 9.53357C48.5897 9.51901 48.6108 9.5096 48.6333 9.50639C48.6558 9.50318 48.6787 9.50629 48.6995 9.51539Z" fill="white"/>
</svg>
