<svg width="64" height="64" viewBox="0 0 64 64" fill="none" xmlns="http://www.w3.org/2000/svg">
<path fill-rule="evenodd" clip-rule="evenodd" d="M45.3226 39.1076L41.7126 48.7801C41.2156 50.112 40.439 51.3368 39.4862 50.3277C39.2026 50.0274 38.9617 49.6247 39.0067 49.1822L39.8027 41.3323C39.8047 41.3102 39.8126 41.2889 39.8258 41.271C39.839 41.253 39.8568 41.239 39.8773 41.2304L45.1563 38.9495C45.1787 38.9395 45.2036 38.9364 45.2277 38.9407C45.2518 38.945 45.2741 38.9565 45.2917 38.9735C45.3287 39.0087 45.3404 39.0597 45.3226 39.1076ZM38.477 58.9616V61.6505C38.4777 61.7148 38.5035 61.7762 38.549 61.8216C38.5944 61.8671 38.6558 61.8929 38.7201 61.8936H41.7185C41.7827 61.8928 41.8441 61.867 41.8895 61.8216C41.9349 61.7761 41.9608 61.7148 41.9615 61.6505V58.9616C41.9615 58.9286 41.9483 58.8969 41.925 58.8736C41.9016 58.8502 41.8699 58.837 41.8369 58.837H38.6018C38.5687 58.837 38.537 58.8501 38.5136 58.8735C38.4902 58.8969 38.4771 58.9286 38.477 58.9616ZM22.0375 58.9616V61.6505C22.0375 61.7826 22.1486 61.8936 22.2805 61.8936H25.2789C25.3432 61.8928 25.4045 61.867 25.45 61.8216C25.4954 61.7761 25.5212 61.7148 25.522 61.6505V58.9616C25.5219 58.9286 25.5088 58.8969 25.4854 58.8736C25.462 58.8502 25.4304 58.837 25.3973 58.837H22.1623C22.1292 58.837 22.0975 58.8501 22.0741 58.8735C22.0507 58.8969 22.0375 58.9286 22.0375 58.9616ZM62.5102 18.8797C60.8307 14.8329 51.5737 16.2057 46.9789 17.1422C46.9539 17.1471 46.931 17.1596 46.9134 17.1781C46.8958 17.1965 46.8844 17.2199 46.8807 17.2452C46.8765 17.2703 46.8802 17.2962 46.8914 17.3191C46.9025 17.342 46.9205 17.3609 46.9429 17.3732C47.4451 17.6554 47.8897 18.0295 48.2538 18.4759C48.2677 18.4935 48.2863 18.5069 48.3074 18.5146C48.3285 18.5223 48.3513 18.5241 48.3733 18.5197C51.3268 17.9673 53.9205 17.7067 56.0133 17.7578C61.8092 17.8992 62.6727 20.133 58.6691 24.3215C57.5742 25.467 56.156 26.6873 54.4628 27.9461C54.4449 27.959 54.4309 27.9765 54.4222 27.9967C54.4135 28.017 54.4105 28.0392 54.4134 28.061C54.4157 28.0829 54.4239 28.1038 54.4372 28.1214C54.4504 28.139 54.4682 28.1527 54.4887 28.161L55.9432 28.7757C55.9857 28.7936 56.0312 28.7878 56.0678 28.7597C57.5583 27.6133 58.8276 26.4967 59.8411 25.4364C62.2287 22.9389 63.2483 20.6583 62.5102 18.8797ZM53.0435 28.9601C52.4707 28.7885 51.8913 28.7109 51.3121 28.7275C49.9632 28.7662 49.0956 29.2573 47.9623 29.8279C47.9434 29.8378 47.9222 29.8426 47.9009 29.8416C47.8795 29.8407 47.8588 29.8342 47.8408 29.8227C47.8225 29.8117 47.8074 29.7962 47.797 29.7775C47.7866 29.7589 47.7813 29.7378 47.7816 29.7165V22.4695C47.7816 19.9632 45.7341 17.9157 43.2279 17.9157H20.7711C18.265 17.9157 16.2175 19.9632 16.2175 22.4695V44.3502C16.2177 44.3792 16.2077 44.4073 16.1893 44.4297C16.1709 44.4521 16.1452 44.4673 16.1167 44.4727C14.156 44.8545 12.3434 45.112 10.7183 45.2393C6.44731 45.5737 3.59547 45.0578 2.98388 43.5842C2.47649 42.3618 3.56347 40.4757 5.85134 38.2359C7.93927 36.1916 10.9887 33.9385 14.7427 31.6714C14.7613 31.6605 14.7767 31.6449 14.7873 31.6262C14.7979 31.6074 14.8033 31.5862 14.803 31.5646V29.9725C14.803 29.9264 14.7801 29.887 14.7402 29.8642C14.7002 29.8414 14.6545 29.8418 14.6149 29.8652C10.4275 32.3399 7.02241 34.8262 4.71739 37.083C1.9362 39.8061 0.69793 42.2994 1.48884 44.2052C2.40366 46.4094 5.83879 47.2463 10.8386 46.8548C14.6805 46.5538 20.0302 45.1974 25.0245 43.6461C25.1255 43.6147 25.2285 43.5893 25.3271 43.5517C26.9223 42.9409 23.6025 38.7165 22.7704 37.3694C22.7485 37.3339 22.7454 37.2937 22.7618 37.2553C22.7782 37.2169 22.8092 37.1911 22.85 37.1822C22.8917 37.1731 22.9363 37.1769 22.9887 37.2043L27.8786 39.762C28.9653 40.3303 30.084 40.6933 31.1774 40.1404L49.6884 30.7773C50.7743 30.2281 51.9134 30.1958 53.0478 30.6803L55.9774 31.9318C56.2348 32.0417 56.2333 32.4019 55.9786 32.5081C43.1311 38.0594 30.1593 44.892 16.3188 47.5325C16.2902 47.5378 16.2644 47.5529 16.2459 47.5753C16.2273 47.5977 16.2173 47.6258 16.2174 47.6549V53.0857C16.2174 55.5918 18.2649 57.6394 20.771 57.6394H43.2276C45.7337 57.6394 47.7813 55.5919 47.7813 53.0857V37.8972C47.7813 37.8464 47.8099 37.8029 47.8566 37.7828L56.6183 33.997C58.1736 33.3267 58.1703 31.1094 56.6108 30.4432L54.8307 29.6829L54.8285 29.682L53.0543 28.9642C53.0508 28.9626 53.0472 28.9613 53.0435 28.9601ZM37.2119 16.3854V8.20388C37.2119 8.16945 37.2241 8.13988 37.2486 8.11556C37.2601 8.10377 37.2738 8.09446 37.289 8.08821C37.3043 8.08195 37.3206 8.07889 37.337 8.07921C37.9166 8.08113 38.3994 8.07959 38.892 7.58705C39.0479 7.43169 39.1716 7.24706 39.256 7.04377C39.3404 6.84048 39.3838 6.62252 39.3838 6.40241V3.7825C39.3838 2.85873 38.631 2.10596 37.7073 2.10596H26.2919C25.3681 2.10596 24.6154 2.85873 24.6154 3.7825V6.40241C24.6154 7.32605 25.3681 8.07882 26.2919 8.07882H26.6626C26.7313 8.07882 26.7873 8.13489 26.7873 8.20349V16.3853C26.7873 16.454 26.8433 16.5099 26.9119 16.5099H28.2842C28.3173 16.5099 28.349 16.4967 28.3723 16.4733C28.3957 16.45 28.4088 16.4183 28.4089 16.3853V8.20349C28.4089 8.13476 28.465 8.07882 28.5336 8.07882H35.4652C35.5339 8.07882 35.5898 8.13489 35.5898 8.20349V16.3853C35.5898 16.454 35.6459 16.5099 35.7145 16.5099H37.0868C37.1032 16.51 37.1194 16.5068 37.1346 16.5005C37.1497 16.4943 37.1635 16.4851 37.1751 16.4736C37.1867 16.462 37.196 16.4482 37.2023 16.4331C37.2086 16.418 37.2118 16.4018 37.2119 16.3854ZM28.5111 31.7469C28.5093 31.7457 28.5075 31.7445 28.5057 31.7433C27.3524 31.0104 27.8449 30.157 29.2035 30.5374L29.2081 30.5386L40.5615 33.26C40.6135 33.2724 40.6503 33.3142 40.6563 33.3673C40.6623 33.4204 40.6359 33.4693 40.5879 33.493L34.9953 36.2724C34.9751 36.2827 34.9525 36.2872 34.93 36.2855C34.9074 36.2837 34.8858 36.2757 34.8675 36.2624L28.5111 31.7469Z" fill="white"/>
</svg>
