<svg width="59" height="49" viewBox="0 0 59 49" fill="none" xmlns="http://www.w3.org/2000/svg">
<path fill-rule="evenodd" clip-rule="evenodd" d="M34.8273 39.5947V7.65099C34.8273 5.80766 33.316 4.29637 31.4726 4.29637H3.35475C1.52282 4.29637 0 5.79589 0 7.65099V45.1416C0 46.985 1.5113 48.4962 3.35475 48.4962H31.4726C33.316 48.4962 34.8273 46.9849 34.8273 45.1416V39.5947ZM13.6024 2.67448H29.061C29.0939 2.67445 29.1255 2.66139 29.1489 2.63815C29.1722 2.61492 29.1855 2.58339 29.1857 2.55045C29.1882 2.08683 29.1959 1.71281 28.9882 1.26942C28.5728 0.382638 27.5965 -0.150225 26.5752 0.0375506L13.5799 2.42706C13.5493 2.43262 13.5218 2.44948 13.503 2.47429C13.4842 2.4991 13.4754 2.53007 13.4783 2.56107C13.4811 2.59207 13.4953 2.6209 13.5183 2.64189C13.5413 2.66288 13.5713 2.67451 13.6024 2.67448ZM43.6978 7.23218L36.4856 14.4443C36.4739 14.4558 36.4645 14.4695 36.4583 14.4847C36.452 14.4998 36.4489 14.5161 36.4492 14.5325V41.1651C36.4492 41.199 36.4611 41.2282 36.4849 41.2525C36.8381 41.6121 37.0902 41.9536 37.5556 41.9536C37.6719 41.954 37.7872 41.9315 37.8948 41.8873C38.0024 41.8431 38.1002 41.778 38.1827 41.6959L58.172 21.7065C58.5155 21.3631 58.5155 20.796 58.172 20.4525L44.9518 7.23218C44.6084 6.88875 44.0412 6.88875 43.6978 7.23218ZM45.8012 19.6655L44.9896 13.9035C44.9036 13.2935 45.825 13.052 46.1055 13.6052L49.2072 19.7247C49.2289 19.7677 49.2703 19.7931 49.3184 19.7931H53.324C54.0502 19.7931 54.7785 20.2879 54.7785 21.1023C54.7785 21.8747 54.0463 22.3806 53.324 22.3806H49.3184C49.2953 22.3803 49.2726 22.3866 49.2529 22.3987C49.2332 22.4108 49.2173 22.4282 49.2072 22.4489L46.1055 28.5685C45.825 29.1217 44.9037 28.8803 44.9896 28.2701L45.8012 22.5082C45.8039 22.4909 45.8028 22.4732 45.798 22.4563C45.7931 22.4394 45.7847 22.4238 45.7732 22.4105C45.7621 22.3969 45.7482 22.3859 45.7324 22.3782C45.7166 22.3706 45.6993 22.3664 45.6818 22.3661L41.999 22.244C41.9774 22.243 41.956 22.2477 41.9368 22.2577C41.9177 22.2677 41.9016 22.2827 41.8902 22.301L40.3487 24.6833C40.0197 25.1917 39.1528 24.9049 39.2641 24.3142L39.8679 21.1099C39.8708 21.0947 39.8708 21.079 39.8679 21.0637L39.2641 17.8595C39.1529 17.2688 40.0197 16.9819 40.3487 17.4904L41.8902 19.8727C41.9017 19.891 41.9178 19.9059 41.9369 19.9159C41.956 19.9259 41.9774 19.9306 41.999 19.9296L45.6818 19.8075C45.7185 19.8064 45.7495 19.7912 45.7732 19.7631C45.7969 19.7351 45.8063 19.7018 45.8012 19.6655ZM21.5412 10.7006C21.5095 10.6541 21.5122 10.5947 21.5478 10.5513C21.5834 10.508 21.6408 10.4936 21.6925 10.5152C25.4524 12.0907 28.1084 15.6518 28.4516 19.8123C28.4532 19.8295 28.4512 19.8468 28.4455 19.8632C28.4399 19.8795 28.4308 19.8945 28.4189 19.907C28.4074 19.9199 28.3933 19.9302 28.3774 19.9371C28.3616 19.944 28.3445 19.9475 28.3272 19.9472L24.2557 19.9441C24.2235 19.9441 24.1925 19.9316 24.1693 19.9092C24.146 19.8868 24.1324 19.8563 24.1312 19.824C23.9919 16.1169 23.0085 12.8493 21.5412 10.7006ZM18.2189 9.97598C18.2189 9.93297 18.2387 9.89598 18.2747 9.87218C18.2917 9.86053 18.3114 9.85339 18.3319 9.85145C18.3524 9.8495 18.3731 9.8528 18.3919 9.86104C20.6122 10.793 22.32 14.8369 22.5091 19.8133C22.5105 19.8485 22.4987 19.8792 22.4742 19.9046C22.4498 19.9299 22.4195 19.9428 22.3843 19.9427L18.3348 19.9398C18.3018 19.9397 18.2701 19.9265 18.2468 19.9031C18.2234 19.8797 18.2102 19.848 18.2102 19.815L18.2189 9.97598ZM13.9503 12.6902C14.6436 11.2991 15.4994 10.3021 16.4271 9.88113C16.4669 9.86309 16.5096 9.86629 16.5463 9.88997C16.583 9.91365 16.6034 9.95128 16.6034 9.99493L16.5949 19.8137C16.5949 19.8467 16.5817 19.8784 16.5583 19.9018C16.5349 19.9252 16.5032 19.9383 16.4701 19.9384L12.4439 19.9353C12.4271 19.9355 12.4104 19.9323 12.3949 19.9257C12.3794 19.9191 12.3655 19.9093 12.354 19.897C12.3422 19.8851 12.333 19.8707 12.327 19.855C12.321 19.8393 12.3184 19.8224 12.3194 19.8056C12.4296 17.0225 13.0322 14.5325 13.9503 12.6902ZM6.50138 19.9307C6.48407 19.9309 6.46691 19.9275 6.45107 19.9205C6.43523 19.9135 6.42108 19.9032 6.4096 19.8902C6.39769 19.8777 6.38863 19.8627 6.38302 19.8463C6.37741 19.83 6.37539 19.8126 6.37709 19.7954C6.72358 15.669 9.34541 12.1342 13.063 10.5455C13.1146 10.5234 13.1722 10.5374 13.2081 10.5807C13.2439 10.6239 13.247 10.6833 13.2155 10.7299C11.6321 13.0813 10.8191 16.5068 10.6961 19.8136C10.6948 19.8458 10.6812 19.8763 10.6579 19.8987C10.6347 19.9211 10.6037 19.9336 10.5714 19.9336L6.50138 19.9307ZM12.4996 29.5005C12.7214 29.9455 12.9606 30.3595 13.2159 30.7387C13.2312 30.761 13.2387 30.7877 13.2374 30.8146C13.236 30.8416 13.2258 30.8674 13.2083 30.888C13.1913 30.9089 13.1679 30.9237 13.1417 30.9301C13.1156 30.9364 13.088 30.934 13.0633 30.9232C9.34822 29.3356 6.72717 25.8045 6.37786 21.6816C6.37478 21.6455 6.38592 21.6134 6.41037 21.5866C6.43482 21.5599 6.46605 21.5463 6.50227 21.5463L10.572 21.5494C10.639 21.5494 10.694 21.6025 10.6966 21.6694C10.811 24.7076 11.4785 27.4516 12.4996 29.5005ZM16.5848 31.4653C16.5851 31.4863 16.5799 31.507 16.5698 31.5254C16.5598 31.5438 16.5451 31.5593 16.5272 31.5704C16.5097 31.5819 16.4895 31.5887 16.4685 31.5901C16.4476 31.5915 16.4266 31.5875 16.4077 31.5784C15.4875 31.1523 14.6387 30.1595 13.9503 28.7783C13.0341 26.9398 12.4321 24.4565 12.3199 21.6804C12.3189 21.6636 12.3215 21.6468 12.3275 21.6311C12.3335 21.6153 12.3427 21.601 12.3546 21.589C12.366 21.5767 12.38 21.567 12.3955 21.5604C12.411 21.5538 12.4277 21.5505 12.4445 21.5508L16.4686 21.5538C16.5372 21.5538 16.5933 21.61 16.5933 21.6786L16.5848 31.4653ZM20.8769 28.7782C20.1775 30.1817 19.3126 31.1841 18.3753 31.5984C18.3355 31.6159 18.2932 31.6125 18.2568 31.5888C18.2203 31.5651 18.2001 31.5276 18.2002 31.4842L18.2086 21.6798C18.2086 21.6111 18.2647 21.5551 18.3334 21.5551L22.3825 21.5582C22.4177 21.5582 22.448 21.5711 22.4724 21.5966C22.4968 21.6219 22.5085 21.6528 22.507 21.688C22.394 24.4608 21.7923 26.9415 20.8769 28.7782ZM25.2454 28.5661C24.2458 29.5664 23.0642 30.3664 21.7641 30.9229C21.7394 30.9337 21.7119 30.9362 21.6857 30.9298C21.6595 30.9235 21.6361 30.9087 21.6191 30.8879C21.6016 30.8672 21.5915 30.8414 21.5902 30.8145C21.5888 30.7875 21.5964 30.7608 21.6118 30.7386C23.3108 28.2185 24.0164 24.6459 24.1303 21.6795C24.1316 21.6473 24.1452 21.6168 24.1685 21.5945C24.1917 21.5721 24.2227 21.5596 24.255 21.5596L28.3238 21.5627C28.3601 21.5627 28.3912 21.5764 28.4156 21.6031C28.4401 21.6299 28.4511 21.662 28.448 21.6981C28.2208 24.3341 27.0644 26.7471 25.2454 28.5661ZM5.52704 37.8923H29.3002C29.5153 37.8923 29.7215 37.9777 29.8736 38.1298C30.0257 38.2818 30.1111 38.4881 30.1111 38.7032C30.1111 38.9182 30.0257 39.1245 29.8736 39.2765C29.7215 39.4286 29.5153 39.514 29.3002 39.514H5.52704C5.31198 39.514 5.10573 39.4286 4.95366 39.2765C4.80159 39.1245 4.71616 38.9182 4.71616 38.7032C4.71616 38.4881 4.80159 38.2818 4.95366 38.1298C5.10573 37.9777 5.31198 37.8923 5.52704 37.8923ZM8.45875 43.6932C8.45875 43.4782 8.54418 43.2719 8.69625 43.1199C8.84832 42.9678 9.05457 42.8823 9.26963 42.8823H25.5578C25.7728 42.8823 25.9791 42.9678 26.1311 43.1199C26.2832 43.2719 26.3686 43.4782 26.3686 43.6932C26.3686 43.9083 26.2832 44.1145 26.1311 44.2666C25.9791 44.4187 25.7728 44.5041 25.5578 44.5041H9.26963C9.05457 44.5041 8.84832 44.4187 8.69625 44.2666C8.54418 44.1145 8.45875 43.9083 8.45875 43.6932ZM17.4136 33.4317C10.4012 33.4317 4.71616 27.7466 4.71616 20.7343C4.71616 12.9016 11.6745 7.05758 19.2717 8.1717C25.4959 9.08446 30.1516 14.4656 30.111 20.8191C30.0659 27.8479 24.341 33.4317 17.4136 33.4317Z" fill="white"/>
</svg>
