<svg width="18" height="18" viewBox="0 0 18 18" fill="none" xmlns="http://www.w3.org/2000/svg">
<path d="M5.62501 11.25H7.31251M13.3305 3.9375C13.3388 3.975 13.3515 4.0125 13.3695 4.0485C13.8128 4.9485 14.0625 5.961 14.0625 7.03125C14.0641 8.10762 13.8072 9.16864 13.3133 10.125M13.3305 3.9375C13.2735 3.66375 13.4678 3.375 13.7618 3.375H14.4428C15.1095 3.375 15.7275 3.7635 15.9218 4.401C16.176 5.2335 16.3125 6.11625 16.3125 7.03125C16.3125 8.196 16.0913 9.30825 15.6893 10.3298C15.4598 10.9103 14.8748 11.25 14.25 11.25H13.4603C13.1063 11.25 12.9015 10.833 13.0853 10.53C13.1657 10.3977 13.2422 10.2626 13.3133 10.125M13.3305 3.9375H12.36C11.9973 3.93772 11.6369 3.87948 11.2928 3.765L8.95726 2.985C8.61309 2.87053 8.25272 2.81228 7.89001 2.8125H4.87801C4.41451 2.8125 3.96526 2.99775 3.67426 3.35925C2.38572 4.95658 1.68441 6.94774 1.68751 9C1.68751 9.3255 1.70476 9.64725 1.73851 9.96375C1.82026 10.7295 2.50951 11.25 3.27901 11.25H5.62351C6.08701 11.25 6.36676 11.793 6.16726 12.2115C5.80897 12.9656 5.6237 13.7902 5.62501 14.625C5.62501 15.0726 5.8028 15.5018 6.11927 15.8182C6.43574 16.1347 6.86496 16.3125 7.31251 16.3125C7.46169 16.3125 7.60477 16.2532 7.71026 16.1477C7.81575 16.0423 7.87501 15.8992 7.87501 15.75V15.2753C7.87501 14.8455 7.95751 14.4203 8.11651 14.0213C8.34451 13.4513 8.81401 13.0238 9.35626 12.735C10.1887 12.2908 10.9193 11.6777 11.5013 10.935C11.8748 10.4595 12.4208 10.125 13.0253 10.125H13.3133" stroke="#8A8C8A" stroke-linecap="round" stroke-linejoin="round"/>
</svg>
