<svg width="25" height="24" viewBox="0 0 25 24" fill="none" xmlns="http://www.w3.org/2000/svg">
<path d="M18.75 21C18.75 18.8783 17.9071 16.8434 16.4069 15.3431C14.9066 13.8429 12.8717 13 10.75 13C8.62827 13 6.59344 13.8429 5.09315 15.3431C3.59285 16.8434 2.75 18.8783 2.75 21" stroke="#DCA546" stroke-width="1.3" stroke-linecap="round" stroke-linejoin="round"/>
<path d="M10.75 13C13.5114 13 15.75 10.7614 15.75 8C15.75 5.23858 13.5114 3 10.75 3C7.98858 3 5.75 5.23858 5.75 8C5.75 10.7614 7.98858 13 10.75 13Z" stroke="#DCA546" stroke-width="1.3" stroke-linecap="round" stroke-linejoin="round"/>
<path d="M22.7508 20.0002C22.7508 16.6302 20.7508 13.5002 18.7508 12.0002C19.4082 11.507 19.9339 10.8593 20.2813 10.1145C20.6288 9.36965 20.7873 8.55066 20.7428 7.73C20.6983 6.90933 20.4522 6.11228 20.0263 5.40939C19.6003 4.70651 19.0077 4.11946 18.3008 3.7002" stroke="#DCA546" stroke-width="1.3" stroke-linecap="round" stroke-linejoin="round"/>
</svg>
