<svg width="17" height="16" viewBox="0 0 17 16" fill="none" xmlns="http://www.w3.org/2000/svg">
<path d="M12.4997 13.9998C12.4997 12.5853 11.9378 11.2288 10.9376 10.2286C9.93738 9.22841 8.58083 8.6665 7.16634 8.6665C5.75185 8.6665 4.3953 9.22841 3.39511 10.2286C2.39491 11.2288 1.83301 12.5853 1.83301 13.9998" stroke="#ACAFAB" stroke-width="1.4" stroke-linecap="round" stroke-linejoin="round"/>
<path d="M7.16634 8.66667C9.00729 8.66667 10.4997 7.17428 10.4997 5.33333C10.4997 3.49238 9.00729 2 7.16634 2C5.32539 2 3.83301 3.49238 3.83301 5.33333C3.83301 7.17428 5.32539 8.66667 7.16634 8.66667Z" stroke="#ACAFAB" stroke-width="1.4" stroke-linecap="round" stroke-linejoin="round"/>
<path d="M15.1669 13.3335C15.1669 11.0868 13.8335 9.00013 12.5002 8.00013C12.9385 7.67131 13.2889 7.23952 13.5206 6.74298C13.7522 6.24643 13.8579 5.70044 13.8282 5.15333C13.7985 4.60622 13.6345 4.07485 13.3505 3.60626C13.0666 3.13767 12.6715 2.7463 12.2002 2.4668" stroke="#ACAFAB" stroke-width="1.4" stroke-linecap="round" stroke-linejoin="round"/>
</svg>
