<svg width="21" height="20" viewBox="0 0 21 20" fill="none" xmlns="http://www.w3.org/2000/svg">
<path d="M14.9154 11.6667L17.4154 14.4167C17.5296 14.5331 17.6071 14.6806 17.6383 14.8407C17.6695 15.0008 17.653 15.1665 17.5909 15.3174C17.5288 15.4682 17.4238 15.5975 17.2889 15.6892C17.154 15.7809 16.9951 15.831 16.832 15.8333H4.66538C4.50227 15.831 4.34343 15.7809 4.20853 15.6892C4.07364 15.5975 3.96863 15.4682 3.90652 15.3174C3.84441 15.1665 3.82794 15.0008 3.85914 14.8407C3.89034 14.6806 3.96784 14.5331 4.08205 14.4167L6.58205 11.6667H6.33204C6.16894 11.6644 6.01009 11.6143 5.8752 11.5225C5.7403 11.4308 5.63529 11.3015 5.57319 11.1507C5.51108 10.9999 5.4946 10.8341 5.5258 10.674C5.55701 10.5139 5.63451 10.3665 5.74871 10.25L8.24871 7.5H8.08205C7.91184 7.51535 7.74102 7.478 7.59275 7.39301C7.44448 7.30802 7.32593 7.1795 7.25316 7.02487C7.18039 6.87023 7.15692 6.69696 7.18594 6.52854C7.21496 6.36013 7.29506 6.2047 7.41538 6.08333L10.7487 2.5L14.082 6.08333C14.2024 6.2047 14.2825 6.36013 14.3115 6.52854C14.3405 6.69696 14.317 6.87023 14.2443 7.02487C14.1715 7.1795 14.0529 7.30802 13.9047 7.39301C13.7564 7.478 13.5856 7.51535 13.4154 7.5H13.2487L15.7487 10.25C15.8629 10.3665 15.9404 10.5139 15.9716 10.674C16.0028 10.8341 15.9863 10.9999 15.9242 11.1507C15.8621 11.3015 15.7571 11.4308 15.6222 11.5225C15.4873 11.6143 15.3285 11.6644 15.1654 11.6667H14.9154Z" stroke="#DCA546" stroke-width="2" stroke-linecap="round" stroke-linejoin="round"/>
<path d="M10.75 18.3335V15.8335" stroke="#DCA546" stroke-width="2" stroke-linecap="round" stroke-linejoin="round"/>
</svg>
