<svg xmlns="http://www.w3.org/2000/svg" width="669" height="732" fill="none"><path stroke="#fff" stroke-linecap="round" stroke-width="8" d="m129 4 11.5 10h15l17 17 5 24.5 10 8.5v12l8 8 22.5-8 8.5 8 7.5 3.5 4 18.5 5.5 16.5L255 136v22l11 9v13l16 12 4 8.5-24 23.5-18.5 34.5 5 37.5v23l-5 10.5-48 17-18 7-27.5 17-5.5 10 5.5 8.5 37.5-22 19.5 22v25l-19.5 20.5-10 19-5 24.5m0 0-10 32.5-7 38-20 54-23 40-20.5 44 5 30.5-5 11m80.5-250 23 9.5h5l6.5-4.5 11 9 37-38.5 45-39.5 25.5-15 19-15v15l3.5 8 11.5 5-3 11.5 5.5 8.5-2.5 10.5 8.5 14 24 12 15 1.5 11 12v21.5l18 13.5 16.5 2 5.5 9.5 20 5 4.5 4 28.5 5 15 31.5 5.5 19v33l3 25 13 25.5 18 14.5 22 5 4 12 10.5 13 2 7"/><path stroke="#fff" stroke-linecap="round" stroke-width="2" d="m223 5.5 43 75 7.5 24L280 123l7 24.5 18 17.5 3 11.5h12.5l14 18.5 8.5 28.5 5.5 10V245l-5.5 22.5-5.5 4.5-3 13.5 3 9-3 19.5-5 12.5-9 3v9.5l-7.5 4.5m0 0L296.5 354l-9.5 7h-13.5L254 374l-21.5 6-12 5-8.5-3.5-5 3.5m106-41.5 7.5 8.5 11.5 8 11 7 3.5 8 7 13.5 12.5 19 15.5 17.5 3.5 13.5 10 10 29.5 19 9.5 25 4.5 6.5 11 6.5 2.5 5.5h-2.5l-3.5-2.5-6-1-4-4h-7.5l1 2.5 5 1 2.5 3.5 6 1.5v1.5" opacity=".2"/><path stroke="#fff" stroke-linecap="round" stroke-linejoin="round" stroke-width="1.3" d="M277.334 325.667c0 3.328-3.693 6.795-4.933 7.866a.67.67 0 0 1-.801 0c-1.24-1.071-4.933-4.538-4.933-7.866a5.332 5.332 0 1 1 10.667 0"/><path stroke="#fff" stroke-linecap="round" stroke-linejoin="round" stroke-width="1.3" d="M272 327.667a2 2 0 1 0 0-4 2 2 0 0 0 0 4"/><path fill="#fff" d="M291.85 332.14q-1.148 0-1.96-.42a4.4 4.4 0 0 1-1.442-1.218l.896-.896q.462.644 1.064.98.602.322 1.484.322.868 0 1.386-.378.532-.378.532-1.036 0-.546-.252-.882a1.84 1.84 0 0 0-.686-.546 6 6 0 0 0-.924-.392 41 41 0 0 1-1.008-.378 5 5 0 0 1-.924-.504 2.4 2.4 0 0 1-.686-.798q-.252-.49-.252-1.232 0-.826.392-1.4a2.6 2.6 0 0 1 1.092-.896 3.7 3.7 0 0 1 1.568-.322q.952 0 1.708.378.756.364 1.232.966l-.896.896a3 3 0 0 0-.938-.756 2.45 2.45 0 0 0-1.134-.252q-.784 0-1.246.35-.462.336-.462.952 0 .49.252.798.266.294.686.504t.924.392q.518.168 1.022.378t.924.532.672.84q.266.504.266 1.274 0 1.288-.896 2.016-.882.728-2.394.728m7.572 0a3.13 3.13 0 0 1-1.652-.448 3.35 3.35 0 0 1-1.176-1.246 3.7 3.7 0 0 1-.42-1.764q0-.98.42-1.764a3.4 3.4 0 0 1 1.162-1.246 3.1 3.1 0 0 1 1.666-.462q.756 0 1.344.322.602.308.966.868.364.546.406 1.274v2.002a2.57 2.57 0 0 1-.406 1.274 2.5 2.5 0 0 1-.952.882q-.588.308-1.358.308m.21-1.19q.938 0 1.512-.63.574-.644.574-1.638 0-.686-.266-1.19a1.84 1.84 0 0 0-.728-.798 2.06 2.06 0 0 0-1.106-.294q-.63 0-1.12.294a2.1 2.1 0 0 0-.756.812 2.46 2.46 0 0 0-.266 1.162q0 .672.266 1.19.28.504.77.798t1.12.294m2.002 1.05v-1.792l.238-1.624-.238-1.61v-1.624h1.274V332zm7.812 0v-3.878q0-.756-.476-1.246t-1.232-.49q-.504 0-.896.224a1.63 1.63 0 0 0-.616.616q-.224.392-.224.896l-.518-.294q0-.756.336-1.344t.938-.924q.603-.35 1.358-.35t1.33.378q.588.378.924.994.336.602.336 1.288V332zm-4.704 0v-6.65h1.26V332zm8.61 0v-9.436h1.26V332zm-1.638-5.502v-1.148h4.536v1.148zm8.445 5.642a3 3 0 0 1-1.47-.364 2.7 2.7 0 0 1-1.008-1.036q-.364-.658-.364-1.526v-3.864h1.26v3.808q0 .546.182.952.195.392.56.602.363.21.854.21.741 0 1.162-.462.42-.476.42-1.302v-3.808h1.26v3.864q0 .868-.364 1.526a2.7 2.7 0 0 1-1.008 1.036q-.63.364-1.484.364m7.372 0a3.13 3.13 0 0 1-1.652-.448 3.36 3.36 0 0 1-1.176-1.246 3.7 3.7 0 0 1-.42-1.764q0-.98.42-1.764a3.4 3.4 0 0 1 1.162-1.246 3.1 3.1 0 0 1 1.666-.462q.756 0 1.344.322.603.308.966.868.364.546.406 1.274v2.002a2.57 2.57 0 0 1-.406 1.274q-.35.56-.952.882-.587.308-1.358.308m.21-1.19q.939 0 1.512-.63.574-.644.574-1.638 0-.686-.266-1.19a1.83 1.83 0 0 0-.728-.798 2.06 2.06 0 0 0-1.106-.294q-.63 0-1.12.294a2.1 2.1 0 0 0-.756.812 2.46 2.46 0 0 0-.266 1.162q0 .672.266 1.19.28.504.77.798t1.12.294m2.002 1.05v-1.792l.238-1.624-.238-1.61v-1.624h1.274V332zm3.109 0v-6.65h1.26V332zm1.26-3.794-.476-.21q0-1.274.588-2.03t1.694-.756q.504 0 .91.182.405.168.756.574l-.826.854a1.26 1.26 0 0 0-.462-.322 1.6 1.6 0 0 0-.588-.098q-.7 0-1.148.448t-.448 1.358m4.373 3.794v-6.65h1.26V332zm.63-7.98a.78.78 0 0 1-.574-.224.83.83 0 0 1-.224-.588.76.76 0 0 1 .224-.56.75.75 0 0 1 .574-.238q.35 0 .574.238a.76.76 0 0 1 .224.56.83.83 0 0 1-.224.588.78.78 0 0 1-.574.224m5.525 8.12a3.4 3.4 0 0 1-1.764-.462 3.46 3.46 0 0 1-1.246-1.246 3.5 3.5 0 0 1-.462-1.778q0-.966.462-1.736a3.46 3.46 0 0 1 1.246-1.246 3.4 3.4 0 0 1 1.764-.462q.966 0 1.75.462.798.448 1.26 1.232t.462 1.75q0 .98-.462 1.778a3.43 3.43 0 0 1-1.26 1.246 3.4 3.4 0 0 1-1.75.462m0-1.218q.63 0 1.12-.294t.77-.798q.28-.517.28-1.176 0-.644-.294-1.148a2 2 0 0 0-.77-.784 2.06 2.06 0 0 0-1.106-.294q-.63 0-1.12.294a2 2 0 0 0-.77.784q-.28.504-.28 1.148 0 .659.28 1.176a2.1 2.1 0 0 0 .77.798q.49.294 1.12.294m8.028 1.078v-9.716h1.316V332zm6.272 0v-9.716h1.316V332zm-5.376-4.424v-1.204h5.698v1.204zm8.778 4.424v-6.65h1.26V332zm.63-7.98a.78.78 0 0 1-.574-.224.83.83 0 0 1-.224-.588.76.76 0 0 1 .224-.56.75.75 0 0 1 .574-.238.75.75 0 0 1 .574.238q.224.224.224.56a.82.82 0 0 1-.224.588.78.78 0 0 1-.574.224m4.601 8.12q-.56 0-1.064-.14a3.9 3.9 0 0 1-.91-.42 3.3 3.3 0 0 1-.728-.658l.812-.812q.365.448.84.672.476.21 1.064.21t.91-.196a.65.65 0 0 0 .322-.574q0-.364-.266-.56a1.9 1.9 0 0 0-.658-.336 14 14 0 0 0-.868-.266 5.3 5.3 0 0 1-.854-.35 1.9 1.9 0 0 1-.672-.574q-.252-.364-.252-.966t.294-1.036q.294-.448.812-.686.532-.238 1.274-.238.784 0 1.386.28.617.266 1.008.812l-.812.812a1.9 1.9 0 0 0-.7-.56 2.1 2.1 0 0 0-.924-.196q-.546 0-.84.196a.58.58 0 0 0-.28.518.6.6 0 0 0 .252.518q.252.182.658.308.42.126.868.266.448.126.854.35t.658.602q.266.378.266.994 0 .938-.672 1.484-.658.546-1.778.546m4.883-.14v-9.436h1.26V332zm-1.638-5.502v-1.148h4.536v1.148zm8.603 5.642a3.4 3.4 0 0 1-1.764-.462 3.46 3.46 0 0 1-1.246-1.246 3.5 3.5 0 0 1-.462-1.778q0-.966.462-1.736a3.46 3.46 0 0 1 1.246-1.246 3.4 3.4 0 0 1 1.764-.462q.966 0 1.75.462.798.448 1.26 1.232t.462 1.75q0 .98-.462 1.778a3.43 3.43 0 0 1-1.26 1.246 3.4 3.4 0 0 1-1.75.462m0-1.218q.63 0 1.12-.294t.77-.798q.28-.517.28-1.176 0-.644-.294-1.148a2 2 0 0 0-.77-.784 2.06 2.06 0 0 0-1.106-.294q-.63 0-1.12.294a2 2 0 0 0-.77.784q-.28.504-.28 1.148 0 .659.28 1.176.28.504.77.798t1.12.294m4.892 1.078v-6.65h1.26V332zm1.26-3.794-.476-.21q0-1.274.588-2.03t1.694-.756q.504 0 .91.182.405.168.756.574l-.826.854a1.26 1.26 0 0 0-.462-.322 1.6 1.6 0 0 0-.588-.098q-.7 0-1.148.448t-.448 1.358m4.373 3.794v-6.65h1.26V332zm.63-7.98a.78.78 0 0 1-.574-.224.82.82 0 0 1-.224-.588q0-.336.224-.56a.75.75 0 0 1 .574-.238q.35 0 .574.238a.76.76 0 0 1 .224.56.83.83 0 0 1-.224.588.78.78 0 0 1-.574.224m5.525 8.12a3.5 3.5 0 0 1-1.778-.462 3.46 3.46 0 0 1-1.246-1.246 3.54 3.54 0 0 1-.448-1.764q0-.98.448-1.764a3.36 3.36 0 0 1 1.246-1.232 3.5 3.5 0 0 1 1.778-.462q.77 0 1.428.294a3.1 3.1 0 0 1 1.134.826l-.84.84a1.9 1.9 0 0 0-.756-.546 2.3 2.3 0 0 0-.966-.196q-.63 0-1.12.294a2 2 0 0 0-.77.784q-.28.504-.28 1.162t.28 1.162a2.1 2.1 0 0 0 .77.798q.49.294 1.12.294.531 0 .966-.182.447-.196.77-.56l.826.84a3.15 3.15 0 0 1-1.134.826 3.5 3.5 0 0 1-1.428.294m6.713 0a3.4 3.4 0 0 1-1.764-.462 3.46 3.46 0 0 1-1.246-1.246 3.5 3.5 0 0 1-.462-1.778q0-.966.462-1.736a3.46 3.46 0 0 1 1.246-1.246 3.4 3.4 0 0 1 1.764-.462q.966 0 1.75.462.798.448 1.26 1.232t.462 1.75q0 .98-.462 1.778a3.43 3.43 0 0 1-1.26 1.246 3.4 3.4 0 0 1-1.75.462m0-1.218q.63 0 1.12-.294t.77-.798q.28-.517.28-1.176 0-.644-.294-1.148a2 2 0 0 0-.77-.784 2.06 2.06 0 0 0-1.106-.294q-.63 0-1.12.294a2 2 0 0 0-.77.784q-.28.504-.28 1.148 0 .659.28 1.176a2.1 2.1 0 0 0 .77.798q.49.294 1.12.294m10.617 1.218a3.1 3.1 0 0 1-1.652-.448 3.4 3.4 0 0 1-1.162-1.246 3.7 3.7 0 0 1-.42-1.764q0-.98.42-1.764a3.4 3.4 0 0 1 1.162-1.246 3 3 0 0 1 1.652-.462q.743 0 1.344.322.603.308.966.868.378.546.42 1.274v2.002a2.57 2.57 0 0 1-1.372 2.156 2.94 2.94 0 0 1-1.358.308m.21-1.19q.63 0 1.092-.294a2.03 2.03 0 0 0 .742-.798q.267-.517.266-1.176 0-.686-.28-1.19a2.03 2.03 0 0 0-.742-.798q-.462-.294-1.092-.294t-1.106.294a2.1 2.1 0 0 0-.756.812 2.46 2.46 0 0 0-.266 1.162q0 .672.266 1.19.28.504.756.798.49.294 1.12.294m3.29 1.05h-1.274v-1.792l.238-1.624-.238-1.61v-4.97h1.274zm4.915.14q-.994 0-1.792-.448a3.43 3.43 0 0 1-1.26-1.246q-.462-.784-.462-1.778 0-.98.448-1.764a3.4 3.4 0 0 1 1.232-1.232 3.4 3.4 0 0 1 1.75-.462q.924 0 1.624.42.714.42 1.106 1.162.406.743.406 1.68 0 .14-.014.308-.014.154-.056.364h-5.614v-1.05h4.942l-.462.406q0-.672-.238-1.134a1.7 1.7 0 0 0-.672-.728q-.435-.266-1.05-.266-.645 0-1.134.28a1.9 1.9 0 0 0-.756.784q-.267.504-.266 1.19 0 .7.28 1.232.279.518.798.812.518.28 1.19.28.56 0 1.022-.196.476-.197.812-.588l.812.826q-.477.56-1.176.854a3.7 3.7 0 0 1-1.47.294m7.562-.14v-9.716h.924l4.116 6.762h-.63l4.116-6.762h.924V332h-1.316v-7.406l.308.084-3.248 5.334h-.924l-3.248-5.334.294-.084V332zm14.348.14a3.13 3.13 0 0 1-1.652-.448 3.35 3.35 0 0 1-1.176-1.246 3.7 3.7 0 0 1-.42-1.764q0-.98.42-1.764a3.4 3.4 0 0 1 1.162-1.246 3.1 3.1 0 0 1 1.666-.462q.756 0 1.344.322.601.308.966.868.364.546.406 1.274v2.002a2.57 2.57 0 0 1-.406 1.274 2.5 2.5 0 0 1-.952.882q-.588.308-1.358.308m.21-1.19q.938 0 1.512-.63.574-.644.574-1.638 0-.686-.266-1.19a1.84 1.84 0 0 0-.728-.798 2.06 2.06 0 0 0-1.106-.294q-.63 0-1.12.294a2.1 2.1 0 0 0-.756.812 2.46 2.46 0 0 0-.266 1.162q0 .672.266 1.19.28.504.77.798t1.12.294m2.002 1.05v-1.792l.238-1.624-.238-1.61v-1.624h1.274V332zm6.146.14a3.5 3.5 0 0 1-1.778-.462 3.47 3.47 0 0 1-1.246-1.246 3.55 3.55 0 0 1-.448-1.764 3.5 3.5 0 0 1 .448-1.764 3.36 3.36 0 0 1 1.246-1.232 3.5 3.5 0 0 1 1.778-.462q.771 0 1.428.294.659.28 1.134.826l-.84.84a1.9 1.9 0 0 0-.756-.546 2.3 2.3 0 0 0-.966-.196q-.63 0-1.12.294a2 2 0 0 0-.77.784 2.36 2.36 0 0 0-.28 1.162q0 .658.28 1.162t.77.798 1.12.294q.533 0 .966-.182.449-.196.77-.56l.826.84a3.15 3.15 0 0 1-1.134.826 3.5 3.5 0 0 1-1.428.294m8.516-.14v-3.878q0-.756-.476-1.246t-1.232-.49q-.504 0-.896.224a1.63 1.63 0 0 0-.616.616q-.224.392-.224.896l-.518-.294q0-.756.336-1.344t.938-.924q.602-.35 1.358-.35t1.33.336q.588.336.924.938t.336 1.386V332zm-4.704 0v-9.996h1.26V332zm10.344.14a3 3 0 0 1-1.47-.364 2.7 2.7 0 0 1-1.008-1.036q-.364-.658-.364-1.526v-3.864h1.26v3.808q0 .546.182.952.196.392.56.602t.854.21q.742 0 1.162-.462.42-.476.42-1.302v-3.808h1.26v3.864q0 .868-.364 1.526a2.7 2.7 0 0 1-1.008 1.036q-.63.364-1.484.364m8.563-3.92v-1.148h2.646q.546 0 .966-.224.433-.224.672-.63.252-.406.252-.966t-.252-.966a1.62 1.62 0 0 0-.672-.63 2 2 0 0 0-.966-.224h-2.646v-1.148h2.73q.896 0 1.596.364.714.364 1.12 1.036.42.658.42 1.568 0 .896-.42 1.568a2.86 2.86 0 0 1-1.12 1.036q-.7.364-1.596.364zm-.882 3.78v-9.716h1.316V332zm8.28 0v-6.65h1.26V332zm.63-7.98a.78.78 0 0 1-.574-.224.83.83 0 0 1-.224-.588.76.76 0 0 1 .224-.56.75.75 0 0 1 .574-.238q.35 0 .574.238a.76.76 0 0 1 .224.56.83.83 0 0 1-.224.588.78.78 0 0 1-.574.224m5.525 8.12a3.5 3.5 0 0 1-1.778-.462 3.46 3.46 0 0 1-1.246-1.246 3.54 3.54 0 0 1-.448-1.764q0-.98.448-1.764a3.36 3.36 0 0 1 1.246-1.232 3.5 3.5 0 0 1 1.778-.462q.77 0 1.428.294a3.1 3.1 0 0 1 1.134.826l-.84.84a1.9 1.9 0 0 0-.756-.546 2.3 2.3 0 0 0-.966-.196q-.63 0-1.12.294a2 2 0 0 0-.77.784q-.28.504-.28 1.162t.28 1.162a2.1 2.1 0 0 0 .77.798q.49.294 1.12.294.531 0 .966-.182.447-.196.77-.56l.826.84a3.15 3.15 0 0 1-1.134.826 3.5 3.5 0 0 1-1.428.294m8.515-.14v-3.878q0-.756-.476-1.246t-1.232-.49q-.504 0-.896.224a1.63 1.63 0 0 0-.616.616q-.224.392-.224.896l-.518-.294q0-.756.336-1.344t.938-.924q.603-.35 1.358-.35t1.33.336q.588.336.924.938t.336 1.386V332zm-4.704 0v-9.996h1.26V332zm10.344.14a3 3 0 0 1-1.47-.364 2.7 2.7 0 0 1-1.008-1.036q-.364-.658-.364-1.526v-3.864h1.26v3.808q0 .546.182.952.197.392.56.602.365.21.854.21.742 0 1.162-.462.42-.476.42-1.302v-3.808h1.26v3.864q0 .868-.364 1.526a2.7 2.7 0 0 1-1.008 1.036q-.63.364-1.484.364"/><path stroke="#fff" stroke-linecap="round" stroke-linejoin="round" stroke-width="1.3" d="M159.334 620.667c0 3.328-3.693 6.795-4.933 7.866a.67.67 0 0 1-.801 0c-1.24-1.071-4.933-4.538-4.933-7.866a5.332 5.332 0 1 1 10.667 0"/><path stroke="#fff" stroke-linecap="round" stroke-linejoin="round" stroke-width="1.3" d="M154 622.667a2 2 0 1 0 0-4 2 2 0 0 0 0 4"/><path fill="#fff" d="M173.724 627v-9.436h1.316V627zm-3.304-8.512v-1.204h7.91v1.204zM184.378 627v-3.878q0-.756-.476-1.246t-1.232-.49q-.504 0-.896.224a1.63 1.63 0 0 0-.616.616q-.224.392-.224.896l-.518-.294q0-.756.336-1.344t.938-.924q.602-.35 1.358-.35t1.33.336q.588.336.924.938t.336 1.386V627zm-4.704 0v-9.996h1.26V627zm10.75.14q-.994 0-1.792-.448a3.43 3.43 0 0 1-1.26-1.246q-.462-.784-.462-1.778 0-.98.448-1.764a3.4 3.4 0 0 1 1.232-1.232 3.4 3.4 0 0 1 1.75-.462q.924 0 1.624.42.714.42 1.106 1.162.406.742.406 1.68 0 .14-.014.308a3 3 0 0 1-.056.364h-5.614v-1.05h4.942l-.462.406q0-.672-.238-1.134a1.7 1.7 0 0 0-.672-.728q-.433-.266-1.05-.266-.643 0-1.134.28a1.9 1.9 0 0 0-.756.784q-.266.504-.266 1.19 0 .7.28 1.232.28.518.798.812.518.28 1.19.28.56 0 1.022-.196.476-.197.812-.588l.812.826a3.1 3.1 0 0 1-1.176.854 3.7 3.7 0 0 1-1.47.294m7.338-.14v-6.65h1.26V627zm4.494 0v-4.018q0-.742-.462-1.162-.448-.434-1.134-.434-.462 0-.826.196a1.6 1.6 0 0 0-.588.546 1.53 1.53 0 0 0-.224.84l-.518-.252q0-.756.322-1.316.336-.56.91-.868a2.6 2.6 0 0 1 1.288-.322q.7 0 1.26.308.574.308.896.868.336.56.336 1.33V627zm4.494 0v-4.018q0-.742-.462-1.162-.448-.434-1.12-.434-.462 0-.84.196a1.6 1.6 0 0 0-.588.546 1.53 1.53 0 0 0-.224.84l-.714-.252q.042-.77.406-1.316.378-.56.966-.868a2.63 2.63 0 0 1 1.288-.322q.728 0 1.302.308t.91.868q.35.56.35 1.344V627zm6.026.14a3.4 3.4 0 0 1-1.764-.462 3.47 3.47 0 0 1-1.246-1.246 3.5 3.5 0 0 1-.462-1.778q0-.966.462-1.736a3.47 3.47 0 0 1 1.246-1.246 3.4 3.4 0 0 1 1.764-.462 3.4 3.4 0 0 1 1.75.462q.798.448 1.26 1.232t.462 1.75q0 .98-.462 1.778a3.43 3.43 0 0 1-1.26 1.246 3.4 3.4 0 0 1-1.75.462m0-1.218q.63 0 1.12-.294a2.1 2.1 0 0 0 .77-.798q.28-.518.28-1.176 0-.644-.294-1.148a2 2 0 0 0-.77-.784 2.06 2.06 0 0 0-1.106-.294q-.63 0-1.12.294a2 2 0 0 0-.77.784q-.28.504-.28 1.148 0 .659.28 1.176.28.504.77.798t1.12.294m9.596 1.078v-3.878q0-.756-.476-1.246t-1.232-.49q-.504 0-.896.224a1.63 1.63 0 0 0-.616.616q-.224.392-.224.896l-.518-.294q0-.756.336-1.344t.938-.924q.602-.35 1.358-.35t1.33.378q.588.378.924.994.336.602.336 1.288V627zm-4.704 0v-6.65h1.26V627zm11.926 0-3.108-3.402 3.08-3.248h1.526l-3.43 3.584.056-.728 3.5 3.794zm-4.256 0v-9.996h1.26V627zm9.67.14q-.994 0-1.792-.448a3.43 3.43 0 0 1-1.26-1.246q-.462-.784-.462-1.778 0-.98.448-1.764a3.4 3.4 0 0 1 1.232-1.232 3.4 3.4 0 0 1 1.75-.462q.924 0 1.624.42.714.42 1.106 1.162.406.742.406 1.68 0 .14-.014.308a3 3 0 0 1-.056.364h-5.614v-1.05h4.942l-.462.406q0-.672-.238-1.134a1.7 1.7 0 0 0-.672-.728q-.434-.266-1.05-.266-.643 0-1.134.28a1.9 1.9 0 0 0-.756.784q-.266.504-.266 1.19 0 .7.28 1.232.28.518.798.812.518.28 1.19.28.56 0 1.022-.196.476-.197.812-.588l.812.826a3.1 3.1 0 0 1-1.176.854 3.7 3.7 0 0 1-1.47.294m6.5-.084-2.884-6.706h1.4l2.142 5.25h-.448l2.254-5.25h1.4l-3.108 6.706zm-1.904 2.73 1.96-4.018.7 1.288-1.26 2.73zm12.75-2.646q-1.148 0-1.96-.42a4.4 4.4 0 0 1-1.442-1.218l.896-.896q.462.644 1.064.98.602.322 1.484.322.869 0 1.386-.378.532-.378.532-1.036 0-.546-.252-.882a1.84 1.84 0 0 0-.686-.546 6 6 0 0 0-.924-.392 41 41 0 0 1-1.008-.378 5 5 0 0 1-.924-.504 2.4 2.4 0 0 1-.686-.798q-.252-.49-.252-1.232 0-.826.392-1.4a2.6 2.6 0 0 1 1.092-.896 3.7 3.7 0 0 1 1.568-.322q.952 0 1.708.378.756.365 1.232.966l-.896.896a3 3 0 0 0-.938-.756 2.45 2.45 0 0 0-1.134-.252q-.784 0-1.246.35-.462.336-.462.952 0 .49.252.798.266.294.686.504t.924.392q.518.168 1.022.378t.924.532.672.84q.266.504.266 1.274 0 1.288-.896 2.016-.882.728-2.394.728m5.862-.14v-9.436h1.26V627zm-1.638-5.502v-1.148h4.536v1.148zm8.645 5.642q-.994 0-1.792-.448a3.43 3.43 0 0 1-1.26-1.246q-.462-.784-.462-1.778 0-.98.448-1.764a3.4 3.4 0 0 1 1.232-1.232 3.4 3.4 0 0 1 1.75-.462q.924 0 1.624.42.714.42 1.106 1.162.405.742.406 1.68 0 .14-.014.308-.014.154-.056.364h-5.614v-1.05h4.942l-.462.406q0-.672-.238-1.134a1.7 1.7 0 0 0-.672-.728q-.435-.266-1.05-.266-.645 0-1.134.28a1.9 1.9 0 0 0-.756.784q-.266.504-.266 1.19 0 .7.28 1.232.279.518.798.812.518.28 1.19.28.56 0 1.022-.196.476-.197.812-.588l.812.826q-.477.56-1.176.854a3.7 3.7 0 0 1-1.47.294m7.926 0q-.756 0-1.372-.308a2.567 2.567 0 0 1-1.372-2.156v-2.002a2.5 2.5 0 0 1 .406-1.274q.377-.56.98-.868a2.9 2.9 0 0 1 1.358-.322q.909 0 1.638.462.742.462 1.162 1.246.42.785.42 1.764 0 .98-.42 1.764t-1.162 1.246a3.06 3.06 0 0 1-1.638.448m-3.5 2.646v-9.436h1.26v1.75l-.238 1.61.238 1.624v4.452zm3.29-3.836q.63 0 1.106-.294t.756-.798a2.5 2.5 0 0 0 .28-1.19q0-.658-.28-1.176a2 2 0 0 0-.756-.798 2.04 2.04 0 0 0-1.092-.294q-.63 0-1.106.294a1.9 1.9 0 0 0-.742.798 2.56 2.56 0 0 0-.266 1.19q0 .659.252 1.176.265.504.742.798.49.294 1.106.294m6.972 1.19q-.56 0-1.064-.14a3.9 3.9 0 0 1-.91-.42 3.3 3.3 0 0 1-.728-.658l.812-.812q.364.448.84.672.476.21 1.064.21t.91-.196a.65.65 0 0 0 .322-.574q0-.364-.266-.56a1.9 1.9 0 0 0-.658-.336 14 14 0 0 0-.868-.266 5.3 5.3 0 0 1-.854-.35 1.9 1.9 0 0 1-.672-.574q-.252-.365-.252-.966 0-.602.294-1.036.294-.448.812-.686.532-.238 1.274-.238.784 0 1.386.28.617.266 1.008.812l-.812.812a1.9 1.9 0 0 0-.7-.56 2.1 2.1 0 0 0-.924-.196q-.546 0-.84.196a.58.58 0 0 0-.28.518.6.6 0 0 0 .252.518q.252.182.658.308.42.126.868.266.448.126.854.35t.658.602q.266.378.266.994 0 .938-.672 1.484-.658.546-1.778.546"/><path stroke="#fff" stroke-linecap="round" stroke-linejoin="round" stroke-width="1.3" d="M504.334 519.667c0 3.328-3.693 6.795-4.933 7.866a.67.67 0 0 1-.801 0c-1.24-1.071-4.933-4.538-4.933-7.866a5.332 5.332 0 1 1 10.667 0"/><path stroke="#fff" stroke-linecap="round" stroke-linejoin="round" stroke-width="1.3" d="M499 521.667a2 2 0 1 0 0-4 2 2 0 0 0 0 4"/><path fill="#fff" d="M516.148 526v-9.716h1.316V526zm8.089 0v-3.878q0-.756-.476-1.246t-1.232-.49q-.504 0-.896.224a1.63 1.63 0 0 0-.616.616q-.224.392-.224.896l-.518-.294q0-.756.336-1.344t.938-.924q.603-.35 1.358-.35t1.33.378q.588.378.924.994.336.602.336 1.288V526zm-4.704 0v-6.65h1.26V526zm8.61 0v-9.436h1.26V526zm-1.638-5.502v-1.148h4.536v1.148zM532.29 526v-6.65h1.26V526zm.63-7.98a.78.78 0 0 1-.574-.224.82.82 0 0 1-.224-.588q0-.336.224-.56a.75.75 0 0 1 .574-.238q.35 0 .574.238a.76.76 0 0 1 .224.56.83.83 0 0 1-.224.588.78.78 0 0 1-.574.224m5.986 8.12a3 3 0 0 1-1.372-.308 2.6 2.6 0 0 1-.966-.882 2.6 2.6 0 0 1-.406-1.274v-2.002a2.5 2.5 0 0 1 .406-1.274q.378-.56.98-.868a2.9 2.9 0 0 1 1.358-.322 3 3 0 0 1 1.638.462q.742.462 1.162 1.246.42.785.42 1.764 0 .98-.42 1.764t-1.162 1.246a3.06 3.06 0 0 1-1.638.448m-3.5 2.646v-9.436h1.26v1.75l-.238 1.61.238 1.624v4.452zm3.29-3.836q.63 0 1.106-.294t.756-.798q.28-.518.28-1.19 0-.658-.28-1.176a2 2 0 0 0-.756-.798 2.03 2.03 0 0 0-1.092-.294q-.63 0-1.106.294a1.93 1.93 0 0 0-.742.798 2.6 2.6 0 0 0-.266 1.19q0 .659.252 1.176.267.504.742.798a2.1 2.1 0 0 0 1.106.294m7.533 1.19a3 3 0 0 1-1.47-.364 2.7 2.7 0 0 1-1.008-1.036q-.364-.658-.364-1.526v-3.864h1.26v3.808q0 .546.182.952.196.392.56.602t.854.21q.742 0 1.162-.462.42-.476.42-1.302v-3.808h1.26v3.864q0 .868-.364 1.526a2.7 2.7 0 0 1-1.008 1.036q-.63.364-1.484.364m9.249-.14v-3.878q0-.756-.476-1.246t-1.232-.49q-.504 0-.896.224a1.6 1.6 0 0 0-.616.616q-.225.392-.224.896l-.518-.294q0-.756.336-1.344t.938-.924q.602-.35 1.358-.35t1.33.378q.588.378.924.994.336.602.336 1.288V526zm-4.704 0v-6.65h1.26V526zm11.926 0-3.108-3.402 3.08-3.248h1.526l-3.43 3.584.056-.728 3.5 3.794zm-4.256 0v-9.996h1.26V526zm9.4.14a3 3 0 0 1-1.47-.364 2.7 2.7 0 0 1-1.008-1.036q-.364-.658-.364-1.526v-3.864h1.26v3.808q0 .546.182.952.196.392.56.602t.854.21q.742 0 1.162-.462.42-.476.42-1.302v-3.808h1.26v3.864q0 .868-.364 1.526a2.7 2.7 0 0 1-1.008 1.036q-.63.364-1.484.364m7.457-3.108v-1.19h4.606v1.19zm10.471-.812v-1.148h2.646q.546 0 .966-.224.435-.224.672-.63.252-.406.252-.966t-.252-.966a1.6 1.6 0 0 0-.672-.63 2 2 0 0 0-.966-.224h-2.646v-1.148h2.73q.897 0 1.596.364.715.364 1.12 1.036.42.658.42 1.568 0 .896-.42 1.568-.405.658-1.12 1.036-.699.364-1.596.364zm-.882 3.78v-9.716h1.316V526zm10.94.14a3 3 0 0 1-1.47-.364 2.7 2.7 0 0 1-1.008-1.036q-.363-.658-.364-1.526v-3.864h1.26v3.808q0 .546.182.952.197.392.56.602.365.21.854.21.742 0 1.162-.462.42-.476.42-1.302v-3.808h1.26v3.864q0 .868-.364 1.526a2.7 2.7 0 0 1-1.008 1.036q-.63.364-1.484.364m7.625 0q-.994 0-1.792-.448a3.43 3.43 0 0 1-1.26-1.246q-.462-.784-.462-1.778a3.5 3.5 0 0 1 .448-1.764 3.4 3.4 0 0 1 1.232-1.232 3.4 3.4 0 0 1 1.75-.462q.924 0 1.624.42.714.42 1.106 1.162.406.742.406 1.68 0 .14-.014.308a3 3 0 0 1-.056.364h-5.614v-1.05h4.942l-.462.406q0-.672-.238-1.134a1.7 1.7 0 0 0-.672-.728q-.433-.266-1.05-.266-.644 0-1.134.28a1.9 1.9 0 0 0-.756.784q-.266.504-.266 1.19 0 .7.28 1.232.28.518.798.812.519.28 1.19.28.56 0 1.022-.196.476-.197.812-.588l.812.826a3.1 3.1 0 0 1-1.176.854 3.7 3.7 0 0 1-1.47.294m4.426-.14v-6.65h1.26V526zm1.26-3.794-.476-.21q0-1.274.588-2.03t1.694-.756q.504 0 .91.182.407.168.756.574l-.826.854a1.26 1.26 0 0 0-.462-.322 1.6 1.6 0 0 0-.588-.098q-.7 0-1.148.448t-.448 1.358m5.354 3.794v-9.436h1.26V526zm-1.638-5.502v-1.148h4.536v1.148zm8.393 5.642a3.13 3.13 0 0 1-1.652-.448 3.35 3.35 0 0 1-1.176-1.246 3.7 3.7 0 0 1-.42-1.764q0-.98.42-1.764a3.4 3.4 0 0 1 1.162-1.246 3.1 3.1 0 0 1 1.666-.462q.756 0 1.344.322.601.308.966.868.364.546.406 1.274v2.002a2.57 2.57 0 0 1-.406 1.274 2.5 2.5 0 0 1-.952.882q-.588.308-1.358.308m.21-1.19q.938 0 1.512-.63.574-.644.574-1.638 0-.686-.266-1.19a1.84 1.84 0 0 0-.728-.798 2.06 2.06 0 0 0-1.106-.294q-.63 0-1.12.294a2.1 2.1 0 0 0-.756.812 2.46 2.46 0 0 0-.266 1.162q0 .672.266 1.19.28.504.77.798t1.12.294m2.002 1.05v-1.792l.238-1.624-.238-1.61v-1.624h1.274V526zm8.835.14a3.1 3.1 0 0 1-1.652-.448 3.4 3.4 0 0 1-1.162-1.246 3.7 3.7 0 0 1-.42-1.764q0-.98.42-1.764a3.4 3.4 0 0 1 1.162-1.246 3 3 0 0 1 1.652-.462q.741 0 1.344.322.601.308.966.868.378.546.42 1.274v2.002a2.6 2.6 0 0 1-.406 1.274 2.6 2.6 0 0 1-.966.882 2.94 2.94 0 0 1-1.358.308m.21-1.19q.63 0 1.092-.294.475-.294.742-.798a2.54 2.54 0 0 0 .266-1.176q0-.686-.28-1.19a2.05 2.05 0 0 0-.742-.798q-.462-.294-1.092-.294t-1.106.294-.756.812a2.44 2.44 0 0 0-.266 1.162q0 .672.266 1.19.279.504.756.798.49.294 1.12.294m3.29 1.05h-1.274v-1.792l.238-1.624-.238-1.61v-4.97h1.274zm4.914.14q-.994 0-1.792-.448a3.43 3.43 0 0 1-1.26-1.246q-.462-.784-.462-1.778 0-.98.448-1.764a3.4 3.4 0 0 1 1.232-1.232 3.4 3.4 0 0 1 1.75-.462q.924 0 1.624.42.714.42 1.106 1.162.406.742.406 1.68 0 .14-.014.308a3 3 0 0 1-.056.364h-5.614v-1.05h4.942l-.462.406q0-.672-.238-1.134a1.7 1.7 0 0 0-.672-.728q-.433-.266-1.05-.266-.644 0-1.134.28a1.9 1.9 0 0 0-.756.784q-.266.504-.266 1.19 0 .7.28 1.232.28.518.798.812.518.28 1.19.28.56 0 1.022-.196.476-.197.812-.588l.812.826a3.1 3.1 0 0 1-1.176.854 3.7 3.7 0 0 1-1.47.294m4.426-.14v-9.996h1.26V526zm8.942.14q-1.149 0-1.96-.42a4.4 4.4 0 0 1-1.442-1.218l.896-.896q.462.644 1.064.98.602.322 1.484.322.867 0 1.386-.378.532-.378.532-1.036 0-.546-.252-.882a1.84 1.84 0 0 0-.686-.546 6 6 0 0 0-.924-.392 41 41 0 0 1-1.008-.378 5 5 0 0 1-.924-.504 2.4 2.4 0 0 1-.686-.798q-.252-.49-.252-1.232 0-.826.392-1.4a2.57 2.57 0 0 1 1.092-.896 3.7 3.7 0 0 1 1.568-.322q.952 0 1.708.378a3.46 3.46 0 0 1 1.232.966l-.896.896a3.1 3.1 0 0 0-.938-.756 2.45 2.45 0 0 0-1.134-.252q-.784 0-1.246.35-.462.336-.462.952 0 .49.252.798.266.294.686.504t.924.392q.518.168 1.022.378t.924.532.672.84q.266.504.266 1.274 0 1.288-.896 2.016-.882.728-2.394.728m7.781 0a3.4 3.4 0 0 1-1.764-.462 3.47 3.47 0 0 1-1.246-1.246 3.5 3.5 0 0 1-.462-1.778q0-.966.462-1.736a3.47 3.47 0 0 1 1.246-1.246 3.4 3.4 0 0 1 1.764-.462 3.4 3.4 0 0 1 1.75.462q.798.448 1.26 1.232t.462 1.75q0 .98-.462 1.778a3.43 3.43 0 0 1-1.26 1.246 3.4 3.4 0 0 1-1.75.462m0-1.218q.63 0 1.12-.294a2.1 2.1 0 0 0 .77-.798q.28-.518.28-1.176 0-.644-.294-1.148a2 2 0 0 0-.77-.784 2.06 2.06 0 0 0-1.106-.294q-.63 0-1.12.294a2 2 0 0 0-.77.784q-.28.504-.28 1.148 0 .659.28 1.176.28.504.77.798t1.12.294m4.892 1.078v-9.996h1.26V526z"/><path stroke="#fff" stroke-linecap="round" stroke-linejoin="round" stroke-width="1.3" d="M371.334 382.667c0 3.328-3.693 6.795-4.933 7.866a.67.67 0 0 1-.801 0c-1.24-1.071-4.933-4.538-4.933-7.866a5.332 5.332 0 1 1 10.667 0"/><path stroke="#fff" stroke-linecap="round" stroke-linejoin="round" stroke-width="1.3" d="M366 384.667a2 2 0 1 0 0-4 2 2 0 0 0 0 4"/><path fill="#fff" d="M383.148 389v-9.716h.924l4.116 6.762h-.63l4.116-6.762h.924V389h-1.316v-7.406l.308.084-3.248 5.334h-.924l-3.248-5.334.294-.084V389zm14.348.14a3.13 3.13 0 0 1-1.652-.448 3.35 3.35 0 0 1-1.176-1.246 3.7 3.7 0 0 1-.42-1.764q0-.98.42-1.764a3.4 3.4 0 0 1 1.162-1.246 3.1 3.1 0 0 1 1.666-.462q.756 0 1.344.322.601.308.966.868.364.546.406 1.274v2.002a2.57 2.57 0 0 1-.406 1.274 2.5 2.5 0 0 1-.952.882q-.588.308-1.358.308m.21-1.19q.938 0 1.512-.63.574-.644.574-1.638 0-.686-.266-1.19a1.84 1.84 0 0 0-.728-.798 2.06 2.06 0 0 0-1.106-.294q-.63 0-1.12.294a2.1 2.1 0 0 0-.756.812 2.46 2.46 0 0 0-.266 1.162q0 .672.266 1.19.28.504.77.798t1.12.294m2.002 1.05v-1.792l.238-1.624-.238-1.61v-1.624h1.274V389zm3.109 0v-6.65h1.26V389zm1.26-3.794-.476-.21q0-1.274.588-2.03.587-.756 1.694-.756.504 0 .91.182.405.168.756.574l-.826.854a1.26 1.26 0 0 0-.462-.322 1.6 1.6 0 0 0-.588-.098q-.7 0-1.148.448t-.448 1.358M408.45 389v-6.65h1.26V389zm.63-7.98a.78.78 0 0 1-.574-.224.82.82 0 0 1-.224-.588q0-.336.224-.56a.75.75 0 0 1 .574-.238q.35 0 .574.238a.76.76 0 0 1 .224.56.83.83 0 0 1-.224.588.78.78 0 0 1-.574.224m5.987 8.12q-.757 0-1.372-.308a2.567 2.567 0 0 1-1.372-2.156v-2.002a2.5 2.5 0 0 1 .406-1.274q.377-.56.98-.868a2.9 2.9 0 0 1 1.358-.322q.909 0 1.638.462.742.462 1.162 1.246t.42 1.764-.42 1.764-1.162 1.246a3.06 3.06 0 0 1-1.638.448m-3.5 2.646v-9.436h1.26v1.75l-.238 1.61.238 1.624v4.452zm3.29-3.836q.63 0 1.106-.294t.756-.798a2.5 2.5 0 0 0 .28-1.19q0-.659-.28-1.176a2 2 0 0 0-.756-.798 2.04 2.04 0 0 0-1.092-.294q-.63 0-1.106.294a1.9 1.9 0 0 0-.742.798 2.56 2.56 0 0 0-.266 1.19q0 .659.252 1.176.265.504.742.798.49.294 1.106.294m7.896 1.19a3.4 3.4 0 0 1-1.764-.462 3.46 3.46 0 0 1-1.246-1.246 3.5 3.5 0 0 1-.462-1.778q0-.966.462-1.736a3.46 3.46 0 0 1 1.246-1.246 3.4 3.4 0 0 1 1.764-.462q.966 0 1.75.462.798.448 1.26 1.232t.462 1.75q0 .98-.462 1.778a3.43 3.43 0 0 1-1.26 1.246 3.4 3.4 0 0 1-1.75.462m0-1.218q.63 0 1.12-.294t.77-.798q.28-.517.28-1.176 0-.644-.294-1.148a2 2 0 0 0-.77-.784 2.06 2.06 0 0 0-1.106-.294q-.63 0-1.12.294a2 2 0 0 0-.77.784q-.28.504-.28 1.148 0 .659.28 1.176.28.504.77.798t1.12.294m7.006 1.218q-.56 0-1.064-.14a3.9 3.9 0 0 1-.91-.42 3.3 3.3 0 0 1-.728-.658l.812-.812q.363.448.84.672.476.21 1.064.21t.91-.196a.65.65 0 0 0 .322-.574q0-.364-.266-.56a1.9 1.9 0 0 0-.658-.336 14 14 0 0 0-.868-.266 5 5 0 0 1-.854-.35 1.9 1.9 0 0 1-.672-.574q-.252-.364-.252-.966t.294-1.036q.294-.448.812-.686.531-.238 1.274-.238.783 0 1.386.28.615.266 1.008.812l-.812.812a1.9 1.9 0 0 0-.7-.56 2.1 2.1 0 0 0-.924-.196q-.546 0-.84.196a.58.58 0 0 0-.28.518.6.6 0 0 0 .252.518q.252.182.658.308.42.126.868.266.447.126.854.35.405.224.658.602.266.378.266.994 0 .938-.672 1.484-.659.546-1.778.546m6.688 0a3.13 3.13 0 0 1-1.652-.448 3.36 3.36 0 0 1-1.176-1.246 3.7 3.7 0 0 1-.42-1.764q0-.98.42-1.764a3.4 3.4 0 0 1 1.162-1.246 3.1 3.1 0 0 1 1.666-.462q.756 0 1.344.322.603.308.966.868.364.546.406 1.274v2.002a2.57 2.57 0 0 1-.406 1.274q-.35.56-.952.882-.588.308-1.358.308m.21-1.19q.939 0 1.512-.63.574-.644.574-1.638 0-.686-.266-1.19a1.83 1.83 0 0 0-.728-.798 2.06 2.06 0 0 0-1.106-.294q-.63 0-1.12.294a2.1 2.1 0 0 0-.756.812 2.46 2.46 0 0 0-.266 1.162q0 .672.266 1.19.28.504.77.798t1.12.294m2.002 1.05v-1.792l.238-1.624-.238-1.61v-1.624h1.274V389zm3.109 0v-6.65h1.26V389zm1.26-3.794-.476-.21q0-1.274.588-2.03.587-.756 1.694-.756.504 0 .91.182.405.168.756.574l-.826.854a1.26 1.26 0 0 0-.462-.322 1.6 1.6 0 0 0-.588-.098q-.7 0-1.148.448t-.448 1.358m4.373 3.794v-6.65h1.26V389zm.63-7.98a.78.78 0 0 1-.574-.224.83.83 0 0 1-.224-.588.76.76 0 0 1 .224-.56.75.75 0 0 1 .574-.238q.35 0 .574.238a.76.76 0 0 1 .224.56.83.83 0 0 1-.224.588.78.78 0 0 1-.574.224m5.525 8.12a3.4 3.4 0 0 1-1.764-.462 3.46 3.46 0 0 1-1.246-1.246 3.5 3.5 0 0 1-.462-1.778q0-.966.462-1.736a3.46 3.46 0 0 1 1.246-1.246 3.4 3.4 0 0 1 1.764-.462q.966 0 1.75.462.798.448 1.26 1.232t.462 1.75q0 .98-.462 1.778a3.43 3.43 0 0 1-1.26 1.246 3.4 3.4 0 0 1-1.75.462m0-1.218q.63 0 1.12-.294t.77-.798q.28-.517.28-1.176 0-.644-.294-1.148a2 2 0 0 0-.77-.784 2.06 2.06 0 0 0-1.106-.294q-.63 0-1.12.294a2 2 0 0 0-.77.784q-.28.504-.28 1.148 0 .659.28 1.176a2.1 2.1 0 0 0 .77.798q.49.294 1.12.294m10.618 1.218a3.1 3.1 0 0 1-1.652-.448 3.4 3.4 0 0 1-1.162-1.246 3.7 3.7 0 0 1-.42-1.764q0-.98.42-1.764a3.4 3.4 0 0 1 1.162-1.246 3 3 0 0 1 1.652-.462q.741 0 1.344.322.602.308.966.868.378.546.42 1.274v2.002a2.6 2.6 0 0 1-.406 1.274 2.6 2.6 0 0 1-.966.882 2.94 2.94 0 0 1-1.358.308m.21-1.19q.63 0 1.092-.294.475-.294.742-.798a2.54 2.54 0 0 0 .266-1.176q0-.686-.28-1.19a2.05 2.05 0 0 0-.742-.798q-.462-.294-1.092-.294t-1.106.294-.756.812a2.44 2.44 0 0 0-.266 1.162q0 .672.266 1.19.279.504.756.798.49.294 1.12.294m3.29 1.05H466.4v-1.792l.238-1.624-.238-1.61v-4.97h1.274zm4.914.14q-.994 0-1.792-.448a3.43 3.43 0 0 1-1.26-1.246q-.462-.784-.462-1.778 0-.98.448-1.764a3.4 3.4 0 0 1 1.232-1.232 3.4 3.4 0 0 1 1.75-.462q.924 0 1.624.42.714.42 1.106 1.162.406.743.406 1.68 0 .14-.014.308a3 3 0 0 1-.056.364h-5.614v-1.05h4.942l-.462.406q0-.672-.238-1.134a1.7 1.7 0 0 0-.672-.728q-.434-.266-1.05-.266-.643 0-1.134.28a1.9 1.9 0 0 0-.756.784q-.266.504-.266 1.19 0 .7.28 1.232.28.518.798.812.518.28 1.19.28.56 0 1.022-.196.476-.197.812-.588l.812.826a3.1 3.1 0 0 1-1.176.854 3.7 3.7 0 0 1-1.47.294m7.562-.14v-9.716h.924l4.116 6.762h-.63l4.116-6.762h.924V389h-1.316v-7.406l.308.084-3.248 5.334h-.924l-3.248-5.334.294-.084V389zm14.348.14a3.13 3.13 0 0 1-1.652-.448 3.35 3.35 0 0 1-1.176-1.246 3.7 3.7 0 0 1-.42-1.764q0-.98.42-1.764a3.4 3.4 0 0 1 1.162-1.246 3.1 3.1 0 0 1 1.666-.462q.756 0 1.344.322.601.308.966.868.364.546.406 1.274v2.002a2.57 2.57 0 0 1-.406 1.274 2.5 2.5 0 0 1-.952.882q-.588.308-1.358.308m.21-1.19q.938 0 1.512-.63.574-.644.574-1.638 0-.686-.266-1.19a1.84 1.84 0 0 0-.728-.798 2.06 2.06 0 0 0-1.106-.294q-.63 0-1.12.294a2.1 2.1 0 0 0-.756.812 2.46 2.46 0 0 0-.266 1.162q0 .672.266 1.19.28.504.77.798t1.12.294m2.002 1.05v-1.792l.238-1.624-.238-1.61v-1.624h1.274V389zm6.147.14a3.5 3.5 0 0 1-1.778-.462 3.46 3.46 0 0 1-1.246-1.246 3.54 3.54 0 0 1-.448-1.764q0-.98.448-1.764a3.36 3.36 0 0 1 1.246-1.232 3.5 3.5 0 0 1 1.778-.462q.77 0 1.428.294a3.1 3.1 0 0 1 1.134.826l-.84.84a1.9 1.9 0 0 0-.756-.546 2.3 2.3 0 0 0-.966-.196q-.63 0-1.12.294a2 2 0 0 0-.77.784q-.28.504-.28 1.162t.28 1.162a2.1 2.1 0 0 0 .77.798q.49.294 1.12.294.531 0 .966-.182.447-.196.77-.56l.826.84a3.15 3.15 0 0 1-1.134.826 3.5 3.5 0 0 1-1.428.294m8.515-.14v-3.878q0-.756-.476-1.246t-1.232-.49q-.504 0-.896.224a1.63 1.63 0 0 0-.616.616q-.224.392-.224.896l-.518-.294q0-.756.336-1.344t.938-.924q.602-.35 1.358-.35t1.33.336q.588.336.924.938t.336 1.386V389zm-4.704 0v-9.996h1.26V389zm10.344.14a3 3 0 0 1-1.47-.364 2.7 2.7 0 0 1-1.008-1.036q-.364-.658-.364-1.526v-3.864h1.26v3.808q0 .546.182.952.196.392.56.602t.854.21q.742 0 1.162-.462.42-.476.42-1.302v-3.808h1.26v3.864q0 .868-.364 1.526a2.7 2.7 0 0 1-1.008 1.036q-.63.364-1.484.364m8.045 0q-.756 0-1.372-.308a2.567 2.567 0 0 1-1.372-2.156v-2.002a2.5 2.5 0 0 1 .406-1.274q.377-.56.98-.868a2.9 2.9 0 0 1 1.358-.322q.909 0 1.638.462.741.462 1.162 1.246t.42 1.764-.42 1.764-1.162 1.246a3.06 3.06 0 0 1-1.638.448m-3.5 2.646v-9.436h1.26v1.75l-.238 1.61.238 1.624v4.452zm3.29-3.836q.63 0 1.106-.294t.756-.798a2.5 2.5 0 0 0 .28-1.19q0-.659-.28-1.176a2 2 0 0 0-.756-.798 2.04 2.04 0 0 0-1.092-.294q-.63 0-1.106.294a1.9 1.9 0 0 0-.742.798 2.56 2.56 0 0 0-.266 1.19q0 .659.252 1.176.265.504.742.798.49.294 1.106.294m4.872 1.05v-6.65h1.26V389zm.63-7.98a.78.78 0 0 1-.574-.224.83.83 0 0 1-.224-.588.76.76 0 0 1 .224-.56.75.75 0 0 1 .574-.238.75.75 0 0 1 .574.238q.225.224.224.56a.82.82 0 0 1-.224.588.78.78 0 0 1-.574.224m5.525 8.12a3.5 3.5 0 0 1-1.778-.462 3.46 3.46 0 0 1-1.246-1.246 3.54 3.54 0 0 1-.448-1.764q0-.98.448-1.764a3.36 3.36 0 0 1 1.246-1.232 3.5 3.5 0 0 1 1.778-.462q.77 0 1.428.294.658.28 1.134.826l-.84.84a1.9 1.9 0 0 0-.756-.546 2.3 2.3 0 0 0-.966-.196q-.63 0-1.12.294a2 2 0 0 0-.77.784q-.28.504-.28 1.162t.28 1.162.77.798 1.12.294q.533 0 .966-.182.448-.196.77-.56l.826.84a3.15 3.15 0 0 1-1.134.826 3.5 3.5 0 0 1-1.428.294m6.713 0a3.5 3.5 0 0 1-1.778-.462 3.46 3.46 0 0 1-1.246-1.246 3.54 3.54 0 0 1-.448-1.764q0-.98.448-1.764a3.36 3.36 0 0 1 1.246-1.232 3.5 3.5 0 0 1 1.778-.462q.77 0 1.428.294.659.28 1.134.826l-.84.84a1.9 1.9 0 0 0-.756-.546 2.3 2.3 0 0 0-.966-.196q-.63 0-1.12.294a2 2 0 0 0-.77.784q-.28.504-.28 1.162t.28 1.162.77.798 1.12.294q.533 0 .966-.182.448-.196.77-.56l.826.84a3.15 3.15 0 0 1-1.134.826 3.5 3.5 0 0 1-1.428.294m8.516-.14v-3.878q0-.756-.476-1.246t-1.232-.49q-.504 0-.896.224a1.6 1.6 0 0 0-.616.616q-.225.392-.224.896l-.518-.294q0-.756.336-1.344t.938-.924q.602-.35 1.358-.35t1.33.336q.588.336.924.938t.336 1.386V389zm-4.704 0v-9.996h1.26V389zm10.344.14a3 3 0 0 1-1.47-.364 2.7 2.7 0 0 1-1.008-1.036q-.364-.658-.364-1.526v-3.864h1.26v3.808q0 .546.182.952.195.392.56.602.363.21.854.21.741 0 1.162-.462.42-.476.42-1.302v-3.808h1.26v3.864q0 .868-.364 1.526a2.7 2.7 0 0 1-1.008 1.036q-.63.364-1.484.364"/><path stroke="#fff" stroke-linecap="round" stroke-linejoin="round" stroke-width="1.3" d="M242.334 70.667c0 3.329-3.693 6.795-4.933 7.866a.67.67 0 0 1-.801 0c-1.24-1.07-4.933-4.537-4.933-7.866a5.334 5.334 0 0 1 10.667 0"/><path stroke="#fff" stroke-linecap="round" stroke-linejoin="round" stroke-width="1.3" d="M237 72.667a2 2 0 1 0 0-4 2 2 0 0 0 0 4"/><path fill="#fff" d="M254.148 77v-9.716h1.316V77zm8.089 0v-3.878q0-.757-.476-1.246-.476-.49-1.232-.49-.504 0-.896.224-.391.225-.616.616-.224.392-.224.896l-.518-.294q0-.756.336-1.344t.938-.924q.602-.35 1.358-.35t1.33.378q.588.378.924.994.336.601.336 1.288V77zm-4.704 0v-6.65h1.26V77zm11.926 0-3.108-3.402 3.08-3.248h1.526l-3.43 3.584.056-.728 3.5 3.794zm-4.256 0v-9.996h1.26V77zm9.418.14q-.91 0-1.652-.448a3.35 3.35 0 0 1-1.176-1.246q-.42-.784-.42-1.764t.42-1.764a3.4 3.4 0 0 1 1.162-1.246 3.1 3.1 0 0 1 1.666-.462q.756 0 1.344.322.602.308.966.868.364.546.406 1.274v2.002q-.042.714-.406 1.274a2.5 2.5 0 0 1-.952.882q-.588.308-1.358.308m.21-1.19q.938 0 1.512-.63.574-.644.574-1.638 0-.686-.266-1.19a1.83 1.83 0 0 0-.728-.798 2.06 2.06 0 0 0-1.106-.294q-.63 0-1.12.294a2.1 2.1 0 0 0-.756.812 2.46 2.46 0 0 0-.266 1.162q0 .672.266 1.19.28.504.77.798t1.12.294m2.002 1.05v-1.792l.238-1.624-.238-1.61V70.35h1.274V77zm3.109 0v-6.65h1.26V77zm1.26-3.794-.476-.21q0-1.274.588-2.03t1.694-.756q.504 0 .91.182.405.168.756.574l-.826.854a1.26 1.26 0 0 0-.462-.322 1.6 1.6 0 0 0-.588-.098q-.7 0-1.148.448t-.448 1.358m6.968 3.934q-.91 0-1.652-.448a3.35 3.35 0 0 1-1.176-1.246q-.42-.784-.42-1.764t.42-1.764a3.4 3.4 0 0 1 1.162-1.246 3.1 3.1 0 0 1 1.666-.462q.756 0 1.344.322.601.308.966.868.364.546.406 1.274v2.002q-.042.714-.406 1.274a2.5 2.5 0 0 1-.952.882q-.588.308-1.358.308m.21-1.19q.938 0 1.512-.63.574-.644.574-1.638 0-.686-.266-1.19a1.83 1.83 0 0 0-.728-.798 2.06 2.06 0 0 0-1.106-.294q-.63 0-1.12.294a2.1 2.1 0 0 0-.756.812 2.46 2.46 0 0 0-.266 1.162q0 .672.266 1.19.28.504.77.798t1.12.294m2.002 1.05v-1.792l.238-1.624-.238-1.61V70.35h1.274V77zm5.95.14a3.16 3.16 0 0 1-1.666-.448 3.36 3.36 0 0 1-1.176-1.246q-.42-.784-.42-1.764t.42-1.764q.435-.784 1.176-1.246a3.07 3.07 0 0 1 1.652-.462q.77 0 1.358.322.603.308.952.868.364.546.406 1.274v2.002q-.042.714-.406 1.274-.35.56-.952.882-.588.308-1.344.308m.196-1.19q.939 0 1.512-.63.574-.644.574-1.638 0-.686-.266-1.19a1.83 1.83 0 0 0-.728-.798q-.462-.294-1.092-.294t-1.12.294a2.1 2.1 0 0 0-.756.812 2.36 2.36 0 0 0-.28 1.162q0 .672.28 1.19.28.504.756.798.49.294 1.12.294m2.016 3.836v-4.452l.224-1.624-.224-1.61v-1.75h1.26v9.436zm5.937-2.646q-.91 0-1.652-.448a3.35 3.35 0 0 1-1.176-1.246q-.42-.784-.42-1.764t.42-1.764a3.4 3.4 0 0 1 1.162-1.246 3.1 3.1 0 0 1 1.666-.462q.756 0 1.344.322.602.308.966.868.363.546.406 1.274v2.002q-.043.714-.406 1.274a2.5 2.5 0 0 1-.952.882q-.588.308-1.358.308m.21-1.19q.938 0 1.512-.63.573-.644.574-1.638 0-.686-.266-1.19a1.83 1.83 0 0 0-.728-.798 2.06 2.06 0 0 0-1.106-.294q-.63 0-1.12.294-.477.294-.756.812a2.44 2.44 0 0 0-.266 1.162q0 .672.266 1.19a2.1 2.1 0 0 0 .77.798q.49.294 1.12.294m2.002 1.05v-1.792l.238-1.624-.238-1.61V70.35h1.274V77zm5.292.056-2.884-6.706h1.4l2.142 5.25h-.448l2.254-5.25h1.4l-3.108 6.706zm-1.904 2.73 1.96-4.018.7 1.288-1.26 2.73zm9.823-5.754v-1.19h4.606v1.19zm9.59 2.968v-9.716h1.316V77zm.896 0v-1.204h5.572V77zm0-4.396v-1.148h5.11v1.148zm0-4.116v-1.204h5.502v1.204zM337.528 77v-9.996h1.26V77zm6.239 0v-9.716h.924l4.116 6.762h-.63l4.116-6.762h.924V77h-1.316v-7.406l.308.084-3.248 5.334h-.924l-3.248-5.334.294-.084V77zm11.534 0v-6.65h1.26V77zm.63-7.98a.78.78 0 0 1-.574-.224.83.83 0 0 1-.224-.588q0-.335.224-.56a.76.76 0 0 1 .574-.238q.35 0 .574.238.224.225.224.56 0 .35-.224.588a.78.78 0 0 1-.574.224m2.487 7.98v-6.65h1.26V77zm1.26-3.794-.476-.21q0-1.274.588-2.03t1.694-.756q.504 0 .91.182.407.168.756.574l-.826.854a1.26 1.26 0 0 0-.462-.322 1.6 1.6 0 0 0-.588-.098q-.7 0-1.148.448t-.448 1.358m6.969 3.934q-.91 0-1.652-.448a3.35 3.35 0 0 1-1.176-1.246q-.42-.784-.42-1.764t.42-1.764a3.4 3.4 0 0 1 1.162-1.246 3.1 3.1 0 0 1 1.666-.462q.756 0 1.344.322.601.308.966.868.363.546.406 1.274v2.002q-.043.714-.406 1.274a2.5 2.5 0 0 1-.952.882q-.588.308-1.358.308m.21-1.19q.938 0 1.512-.63.574-.644.574-1.638 0-.686-.266-1.19a1.83 1.83 0 0 0-.728-.798 2.06 2.06 0 0 0-1.106-.294q-.63 0-1.12.294-.477.294-.756.812a2.44 2.44 0 0 0-.266 1.162q0 .672.266 1.19a2.1 2.1 0 0 0 .77.798q.49.294 1.12.294m2.002 1.05v-1.792l.238-1.624-.238-1.61V70.35h1.274V77zm5.922.14q-.924 0-1.652-.448a3.4 3.4 0 0 1-1.162-1.246q-.42-.784-.42-1.764t.42-1.764a3.4 3.4 0 0 1 1.162-1.246 3 3 0 0 1 1.652-.462q.743 0 1.344.322.601.308.966.868.378.546.42 1.274v2.002q-.042.714-.406 1.274a2.6 2.6 0 0 1-.966.882 2.94 2.94 0 0 1-1.358.308m.21-1.19q.63 0 1.092-.294.476-.294.742-.798.266-.517.266-1.176 0-.686-.28-1.19a2.04 2.04 0 0 0-.742-.798q-.462-.294-1.092-.294t-1.106.294a2.1 2.1 0 0 0-.756.812 2.46 2.46 0 0 0-.266 1.162q0 .672.266 1.19.28.504.756.798.49.294 1.12.294m3.29 1.05h-1.274v-1.792l.238-1.624-.238-1.61v-4.97h1.274zm4.872.14a3.4 3.4 0 0 1-1.764-.462 3.5 3.5 0 0 1-1.246-1.246 3.5 3.5 0 0 1-.462-1.778q0-.966.462-1.736a3.5 3.5 0 0 1 1.246-1.246 3.4 3.4 0 0 1 1.764-.462 3.4 3.4 0 0 1 1.75.462q.798.449 1.26 1.232.462.784.462 1.75 0 .98-.462 1.778a3.43 3.43 0 0 1-1.26 1.246 3.4 3.4 0 0 1-1.75.462m0-1.218q.63 0 1.12-.294a2.1 2.1 0 0 0 .77-.798 2.4 2.4 0 0 0 .28-1.176q0-.644-.294-1.148a2 2 0 0 0-.77-.784 2.06 2.06 0 0 0-1.106-.294q-.63 0-1.12.294a2 2 0 0 0-.77.784q-.28.504-.28 1.148 0 .658.28 1.176.28.504.77.798t1.12.294M388.045 77v-6.65h1.26V77zm1.26-3.794-.476-.21q0-1.274.588-2.03t1.694-.756q.504 0 .91.182.407.168.756.574l-.826.854a1.26 1.26 0 0 0-.462-.322 1.6 1.6 0 0 0-.588-.098q-.7 0-1.148.448t-.448 1.358M125.148 282v-9.716h1.316V282zm6.272 0v-9.716h1.316V282zm-5.376-4.424v-1.204h5.698v1.204zm11.439 4.564a3 3 0 0 1-1.47-.364 2.7 2.7 0 0 1-1.008-1.036q-.364-.658-.364-1.526v-3.864h1.26v3.808q0 .546.182.952.195.392.56.602.363.21.854.21.742 0 1.162-.462.42-.476.42-1.302v-3.808h1.26v3.864q0 .868-.364 1.526a2.7 2.7 0 0 1-1.008 1.036q-.63.364-1.484.364m6.729-.084-2.884-6.706h1.4l2.142 5.25h-.448l2.254-5.25h1.4l-3.108 6.706zm-1.904 2.73 1.96-4.018.7 1.288-1.26 2.73zm9.58-2.646a3.5 3.5 0 0 1-1.778-.462 3.46 3.46 0 0 1-1.246-1.246 3.54 3.54 0 0 1-.448-1.764q0-.98.448-1.764a3.36 3.36 0 0 1 1.246-1.232 3.5 3.5 0 0 1 1.778-.462q.77 0 1.428.294a3.1 3.1 0 0 1 1.134.826l-.84.84a1.9 1.9 0 0 0-.756-.546 2.3 2.3 0 0 0-.966-.196q-.63 0-1.12.294a2 2 0 0 0-.77.784q-.28.504-.28 1.162t.28 1.162a2.1 2.1 0 0 0 .77.798q.49.294 1.12.294.531 0 .966-.182.447-.196.77-.56l.826.84a3.15 3.15 0 0 1-1.134.826 3.5 3.5 0 0 1-1.428.294m8.515-.14v-3.878q0-.756-.476-1.246t-1.232-.49q-.504 0-.896.224a1.63 1.63 0 0 0-.616.616q-.224.392-.224.896l-.518-.294q0-.756.336-1.344t.938-.924q.602-.35 1.358-.35t1.33.336q.588.336.924.938t.336 1.386V282zm-4.704 0v-9.996h1.26V282zm10.344.14a3 3 0 0 1-1.47-.364 2.7 2.7 0 0 1-1.008-1.036q-.363-.658-.364-1.526v-3.864h1.26v3.808q0 .546.182.952.197.392.56.602.365.21.854.21.742 0 1.162-.462.42-.476.42-1.302v-3.808h1.26v3.864q0 .868-.364 1.526a2.7 2.7 0 0 1-1.008 1.036q-.63.364-1.484.364m8.563-3.92v-1.148h2.646q.546 0 .966-.224.435-.224.672-.63.252-.406.252-.966t-.252-.966a1.6 1.6 0 0 0-.672-.63 2 2 0 0 0-.966-.224h-2.646v-1.148h2.73q.897 0 1.596.364.714.364 1.12 1.036.42.658.42 1.568 0 .896-.42 1.568-.406.658-1.12 1.036-.699.364-1.596.364zm-.882 3.78v-9.716h1.316V282zm8.28 0v-6.65h1.26V282zm.63-7.98a.78.78 0 0 1-.574-.224.83.83 0 0 1-.224-.588.76.76 0 0 1 .224-.56.75.75 0 0 1 .574-.238.75.75 0 0 1 .574.238q.225.224.224.56a.82.82 0 0 1-.224.588.78.78 0 0 1-.574.224m5.525 8.12a3.5 3.5 0 0 1-1.778-.462 3.47 3.47 0 0 1-1.246-1.246 3.55 3.55 0 0 1-.448-1.764 3.5 3.5 0 0 1 .448-1.764 3.36 3.36 0 0 1 1.246-1.232 3.5 3.5 0 0 1 1.778-.462q.771 0 1.428.294.659.28 1.134.826l-.84.84a1.9 1.9 0 0 0-.756-.546 2.3 2.3 0 0 0-.966-.196q-.63 0-1.12.294a2 2 0 0 0-.77.784 2.36 2.36 0 0 0-.28 1.162q0 .658.28 1.162t.77.798 1.12.294q.532 0 .966-.182.449-.196.77-.56l.826.84a3.15 3.15 0 0 1-1.134.826 3.5 3.5 0 0 1-1.428.294m6.713 0a3.5 3.5 0 0 1-1.778-.462 3.46 3.46 0 0 1-1.246-1.246 3.54 3.54 0 0 1-.448-1.764q0-.98.448-1.764a3.36 3.36 0 0 1 1.246-1.232 3.5 3.5 0 0 1 1.778-.462q.77 0 1.428.294.659.28 1.134.826l-.84.84a1.9 1.9 0 0 0-.756-.546 2.3 2.3 0 0 0-.966-.196q-.63 0-1.12.294a2 2 0 0 0-.77.784q-.28.504-.28 1.162t.28 1.162.77.798 1.12.294q.532 0 .966-.182.448-.196.77-.56l.826.84a3.15 3.15 0 0 1-1.134.826 3.5 3.5 0 0 1-1.428.294m8.516-.14v-3.878q0-.756-.476-1.246-.477-.49-1.232-.49-.504 0-.896.224a1.6 1.6 0 0 0-.616.616q-.224.392-.224.896l-.518-.294q0-.756.336-1.344.335-.588.938-.924.602-.35 1.358-.35t1.33.336q.588.336.924.938t.336 1.386V282zm-4.704 0v-9.996h1.26V282zm10.344.14a3 3 0 0 1-1.47-.364 2.7 2.7 0 0 1-1.008-1.036q-.364-.658-.364-1.526v-3.864h1.26v3.808q0 .546.182.952.195.392.56.602.363.21.854.21.742 0 1.162-.462.42-.476.42-1.302v-3.808h1.26v3.864q0 .868-.364 1.526a2.7 2.7 0 0 1-1.008 1.036q-.63.364-1.484.364"/><path stroke="#fff" stroke-linecap="round" stroke-linejoin="round" stroke-width="1.3" d="M234.334 275.667c0 3.328-3.693 6.795-4.933 7.866a.67.67 0 0 1-.801 0c-1.24-1.071-4.933-4.538-4.933-7.866a5.332 5.332 0 1 1 10.667 0"/><path stroke="#fff" stroke-linecap="round" stroke-linejoin="round" stroke-width="1.3" d="M229 277.667a2 2 0 1 0 0-4 2 2 0 0 0 0 4"/><path fill="#fff" d="M136.148 153v-9.716h1.316V153zm6.272 0v-9.716h1.316V153zm-5.376-4.424v-1.204h5.698v1.204zm11.439 4.564a3 3 0 0 1-1.47-.364 2.7 2.7 0 0 1-1.008-1.036q-.364-.658-.364-1.526v-3.864h1.26v3.808q0 .546.182.952.195.392.56.602.363.21.854.21.742 0 1.162-.462.42-.476.42-1.302v-3.808h1.26v3.864q0 .868-.364 1.526a2.7 2.7 0 0 1-1.008 1.036q-.63.364-1.484.364m7.373 0a3.13 3.13 0 0 1-1.652-.448 3.35 3.35 0 0 1-1.176-1.246 3.7 3.7 0 0 1-.42-1.764q0-.98.42-1.764a3.4 3.4 0 0 1 1.162-1.246 3.1 3.1 0 0 1 1.666-.462q.756 0 1.344.322.602.308.966.868.363.546.406 1.274v2.002a2.6 2.6 0 0 1-.406 1.274 2.5 2.5 0 0 1-.952.882q-.588.308-1.358.308m.21-1.19q.937 0 1.512-.63.573-.644.574-1.638 0-.686-.266-1.19a1.84 1.84 0 0 0-.728-.798 2.06 2.06 0 0 0-1.106-.294q-.63 0-1.12.294-.477.294-.756.812a2.44 2.44 0 0 0-.266 1.162q0 .672.266 1.19a2.1 2.1 0 0 0 .77.798q.49.294 1.12.294m2.002 1.05v-1.792l.238-1.624-.238-1.61v-1.624h1.274V153zm5.292.056-2.884-6.706h1.4l2.142 5.25h-.448l2.254-5.25h1.4l-3.108 6.706zm-1.904 2.73 1.96-4.018.7 1.288-1.26 2.73zM172.907 153v-3.878q0-.756-.476-1.246t-1.232-.49q-.504 0-.896.224a1.63 1.63 0 0 0-.616.616q-.224.392-.224.896l-.518-.294q0-.756.336-1.344t.938-.924q.603-.35 1.358-.35t1.33.378q.588.378.924.994.336.602.336 1.288V153zm-4.704 0v-6.65h1.26V153zm10.498.14a3.13 3.13 0 0 1-1.652-.448 3.36 3.36 0 0 1-1.176-1.246 3.7 3.7 0 0 1-.42-1.764q0-.98.42-1.764a3.4 3.4 0 0 1 1.162-1.246 3.1 3.1 0 0 1 1.666-.462q.756 0 1.344.322.603.308.966.868.364.546.406 1.274v2.002a2.57 2.57 0 0 1-.406 1.274q-.35.56-.952.882-.588.308-1.358.308m.21-1.19q.939 0 1.512-.63.574-.644.574-1.638 0-.686-.266-1.19a1.83 1.83 0 0 0-.728-.798 2.06 2.06 0 0 0-1.106-.294q-.63 0-1.12.294a2.1 2.1 0 0 0-.756.812 2.46 2.46 0 0 0-.266 1.162q0 .672.266 1.19.28.504.77.798t1.12.294m2.002 1.05v-1.792l.238-1.624-.238-1.61v-1.624h1.274V153zm7.127-3.78v-1.148h2.646q.546 0 .966-.224.433-.224.672-.63.252-.406.252-.966t-.252-.966a1.62 1.62 0 0 0-.672-.63 2 2 0 0 0-.966-.224h-2.646v-1.148h2.73q.896 0 1.596.364.714.364 1.12 1.036.42.658.42 1.568 0 .896-.42 1.568a2.86 2.86 0 0 1-1.12 1.036q-.7.364-1.596.364zm-.882 3.78v-9.716h1.316V153zm8.28 0v-6.65h1.26V153zm.63-7.98a.78.78 0 0 1-.574-.224.83.83 0 0 1-.224-.588.76.76 0 0 1 .224-.56.75.75 0 0 1 .574-.238q.35 0 .574.238a.76.76 0 0 1 .224.56.83.83 0 0 1-.224.588.78.78 0 0 1-.574.224m5.525 8.12a3.5 3.5 0 0 1-1.778-.462 3.46 3.46 0 0 1-1.246-1.246 3.54 3.54 0 0 1-.448-1.764q0-.98.448-1.764a3.36 3.36 0 0 1 1.246-1.232 3.5 3.5 0 0 1 1.778-.462q.77 0 1.428.294.659.28 1.134.826l-.84.84a1.9 1.9 0 0 0-.756-.546 2.3 2.3 0 0 0-.966-.196q-.63 0-1.12.294a2 2 0 0 0-.77.784q-.28.504-.28 1.162t.28 1.162.77.798 1.12.294q.532 0 .966-.182.448-.196.77-.56l.826.84a3.15 3.15 0 0 1-1.134.826 3.5 3.5 0 0 1-1.428.294m6.713 0a3.5 3.5 0 0 1-1.778-.462 3.46 3.46 0 0 1-1.246-1.246 3.54 3.54 0 0 1-.448-1.764q0-.98.448-1.764a3.36 3.36 0 0 1 1.246-1.232 3.5 3.5 0 0 1 1.778-.462q.77 0 1.428.294a3.1 3.1 0 0 1 1.134.826l-.84.84a1.9 1.9 0 0 0-.756-.546 2.3 2.3 0 0 0-.966-.196q-.63 0-1.12.294a2 2 0 0 0-.77.784q-.28.504-.28 1.162t.28 1.162a2.1 2.1 0 0 0 .77.798q.49.294 1.12.294.531 0 .966-.182.447-.196.77-.56l.826.84a3.15 3.15 0 0 1-1.134.826 3.5 3.5 0 0 1-1.428.294m8.515-.14v-3.878q0-.756-.476-1.246t-1.232-.49q-.504 0-.896.224a1.63 1.63 0 0 0-.616.616q-.224.392-.224.896l-.518-.294q0-.756.336-1.344t.938-.924q.602-.35 1.358-.35t1.33.336q.588.336.924.938t.336 1.386V153zm-4.704 0v-9.996h1.26V153zm10.344.14a3 3 0 0 1-1.47-.364 2.7 2.7 0 0 1-1.008-1.036q-.363-.658-.364-1.526v-3.864h1.26v3.808q0 .546.182.952.197.392.56.602.365.21.854.21.742 0 1.162-.462.42-.476.42-1.302v-3.808h1.26v3.864q0 .868-.364 1.526a2.7 2.7 0 0 1-1.008 1.036q-.63.364-1.484.364"/><path stroke="#fff" stroke-linecap="round" stroke-linejoin="round" stroke-width="1.3" d="M248.334 146.667c0 3.328-3.693 6.795-4.933 7.866a.67.67 0 0 1-.801 0c-1.24-1.071-4.933-4.538-4.933-7.866a5.332 5.332 0 1 1 10.667 0"/><path stroke="#fff" stroke-linecap="round" stroke-linejoin="round" stroke-width="1.3" d="M243 148.667a2 2 0 1 0 0-4 2 2 0 0 0 0 4"/><path fill="#fff" d="M1.148 516v-9.716h.924l4.116 6.762h-.63l4.116-6.762h.924V516H9.282v-7.406l.308.084-3.248 5.334h-.924l-3.248-5.334.294-.084V516zm14.348.14a3.13 3.13 0 0 1-1.652-.448 3.35 3.35 0 0 1-1.176-1.246 3.7 3.7 0 0 1-.42-1.764q0-.98.42-1.764.435-.784 1.162-1.246a3.1 3.1 0 0 1 1.666-.462q.756 0 1.344.322.602.308.966.868.364.546.406 1.274v2.002a2.57 2.57 0 0 1-.406 1.274q-.35.56-.952.882-.587.308-1.358.308m.21-1.19q.938 0 1.512-.63.574-.644.574-1.638 0-.686-.266-1.19a1.83 1.83 0 0 0-.728-.798 2.06 2.06 0 0 0-1.106-.294q-.63 0-1.12.294-.476.294-.756.812a2.45 2.45 0 0 0-.266 1.162q0 .672.266 1.19.28.504.77.798t1.12.294m2.002 1.05v-1.792l.238-1.624-.238-1.61v-1.624h1.274V516zm6.147.14a3.5 3.5 0 0 1-1.778-.462 3.46 3.46 0 0 1-1.246-1.246 3.54 3.54 0 0 1-.448-1.764q0-.98.448-1.764a3.36 3.36 0 0 1 1.246-1.232 3.5 3.5 0 0 1 1.778-.462q.77 0 1.428.294a3.1 3.1 0 0 1 1.134.826l-.84.84a1.9 1.9 0 0 0-.756-.546 2.3 2.3 0 0 0-.966-.196q-.63 0-1.12.294a2 2 0 0 0-.77.784q-.28.504-.28 1.162t.28 1.162.77.798 1.12.294q.531 0 .966-.182.447-.196.77-.56l.826.84a3.15 3.15 0 0 1-1.134.826 3.5 3.5 0 0 1-1.428.294m8.515-.14v-3.878q0-.756-.476-1.246t-1.232-.49q-.503 0-.896.224a1.63 1.63 0 0 0-.616.616q-.224.392-.224.896l-.518-.294q0-.756.336-1.344t.938-.924q.602-.35 1.358-.35t1.33.336q.588.336.924.938t.336 1.386V516zm-4.704 0v-9.996h1.26V516zm10.344.14a3 3 0 0 1-1.47-.364 2.7 2.7 0 0 1-1.008-1.036q-.364-.658-.364-1.526v-3.864h1.26v3.808q0 .546.182.952.195.392.56.602.364.21.854.21.742 0 1.162-.462.42-.476.42-1.302v-3.808h1.26v3.864q0 .868-.364 1.526a2.7 2.7 0 0 1-1.008 1.036q-.63.364-1.484.364m8.563-3.92v-1.148h2.646q.546 0 .966-.224a1.6 1.6 0 0 0 .672-.63q.252-.407.252-.966 0-.56-.252-.966a1.6 1.6 0 0 0-.672-.63 2 2 0 0 0-.966-.224h-2.646v-1.148h2.73q.896 0 1.596.364.715.364 1.12 1.036.42.658.42 1.568 0 .896-.42 1.568-.406.658-1.12 1.036-.7.364-1.596.364zm-.882 3.78v-9.716h1.316V516zm8.28 0v-6.65h1.26V516zm.63-7.98a.78.78 0 0 1-.574-.224.83.83 0 0 1-.224-.588.76.76 0 0 1 .224-.56.75.75 0 0 1 .574-.238q.35 0 .574.238a.76.76 0 0 1 .224.56.83.83 0 0 1-.224.588.78.78 0 0 1-.574.224m5.525 8.12a3.5 3.5 0 0 1-1.778-.462 3.46 3.46 0 0 1-1.246-1.246 3.54 3.54 0 0 1-.448-1.764q0-.98.448-1.764a3.36 3.36 0 0 1 1.246-1.232 3.5 3.5 0 0 1 1.778-.462q.77 0 1.428.294a3.1 3.1 0 0 1 1.134.826l-.84.84a1.9 1.9 0 0 0-.756-.546 2.3 2.3 0 0 0-.966-.196q-.63 0-1.12.294a2 2 0 0 0-.77.784q-.28.504-.28 1.162t.28 1.162.77.798 1.12.294q.532 0 .966-.182.448-.196.77-.56l.826.84a3.15 3.15 0 0 1-1.134.826 3.5 3.5 0 0 1-1.428.294m6.713 0a3.5 3.5 0 0 1-1.778-.462 3.46 3.46 0 0 1-1.246-1.246 3.54 3.54 0 0 1-.448-1.764q0-.98.448-1.764a3.36 3.36 0 0 1 1.246-1.232 3.5 3.5 0 0 1 1.778-.462q.77 0 1.428.294a3.1 3.1 0 0 1 1.134.826l-.84.84a1.9 1.9 0 0 0-.756-.546 2.3 2.3 0 0 0-.966-.196q-.63 0-1.12.294a2 2 0 0 0-.77.784q-.28.504-.28 1.162t.28 1.162.77.798 1.12.294q.532 0 .966-.182.448-.196.77-.56l.826.84a3.15 3.15 0 0 1-1.134.826 3.5 3.5 0 0 1-1.428.294m8.516-.14v-3.878q-.001-.756-.476-1.246-.476-.49-1.232-.49-.504 0-.896.224a1.63 1.63 0 0 0-.616.616q-.225.392-.224.896l-.518-.294q0-.756.336-1.344.335-.588.938-.924.601-.35 1.358-.35.756 0 1.33.336.588.336.924.938t.336 1.386V516zm-4.704 0v-9.996h1.26V516zm10.344.14a3 3 0 0 1-1.47-.364 2.7 2.7 0 0 1-1.009-1.036q-.364-.658-.364-1.526v-3.864h1.26v3.808q0 .546.182.952.197.392.56.602.365.21.855.21.742 0 1.162-.462.42-.476.42-1.302v-3.808h1.26v3.864q0 .868-.364 1.526a2.7 2.7 0 0 1-1.008 1.036q-.63.364-1.484.364m8.562-3.92v-1.148h2.646q.546 0 .966-.224.435-.224.672-.63.252-.407.252-.966 0-.56-.252-.966a1.6 1.6 0 0 0-.672-.63 2 2 0 0 0-.966-.224h-2.646v-1.148h2.73q.897 0 1.596.364.714.364 1.12 1.036.42.658.42 1.568 0 .896-.42 1.568-.405.658-1.12 1.036-.699.364-1.596.364zm-.882 3.78v-9.716h1.316V516zm10.964.14q-.994 0-1.792-.448a3.43 3.43 0 0 1-1.26-1.246q-.462-.784-.462-1.778 0-.98.448-1.764a3.4 3.4 0 0 1 1.232-1.232 3.4 3.4 0 0 1 1.75-.462q.924 0 1.624.42.713.42 1.106 1.162.405.743.406 1.68 0 .14-.014.308-.015.154-.056.364h-5.614v-1.05h4.942l-.462.406q0-.672-.238-1.134a1.7 1.7 0 0 0-.672-.728q-.435-.266-1.05-.266-.645 0-1.134.28a1.9 1.9 0 0 0-.756.784q-.266.504-.266 1.19 0 .7.28 1.232.279.518.798.812.518.28 1.19.28.56 0 1.022-.196.476-.197.812-.588l.812.826q-.477.56-1.176.854a3.7 3.7 0 0 1-1.47.294m7.254 0a3.13 3.13 0 0 1-1.652-.448 3.35 3.35 0 0 1-1.176-1.246 3.7 3.7 0 0 1-.42-1.764q0-.98.42-1.764a3.4 3.4 0 0 1 1.162-1.246 3.1 3.1 0 0 1 1.666-.462q.756 0 1.344.322.602.308.966.868.364.546.406 1.274v2.002a2.6 2.6 0 0 1-.406 1.274 2.5 2.5 0 0 1-.952.882q-.588.308-1.358.308m.21-1.19q.938 0 1.512-.63.574-.644.574-1.638 0-.686-.266-1.19a1.84 1.84 0 0 0-.728-.798 2.06 2.06 0 0 0-1.106-.294q-.63 0-1.12.294-.477.294-.756.812a2.44 2.44 0 0 0-.266 1.162q0 .672.266 1.19a2.1 2.1 0 0 0 .77.798q.49.294 1.12.294m2.002 1.05v-1.792l.238-1.624-.238-1.61v-1.624h1.274V516zm7.364 0-3.108-3.402 3.08-3.248h1.526l-3.43 3.584.056-.728 3.5 3.794zm-4.256 0v-9.996h1.26V516z"/><path stroke="#fff" stroke-linecap="round" stroke-linejoin="round" stroke-width="1.3" d="M140.334 509.667c0 3.328-3.693 6.795-4.933 7.866a.67.67 0 0 1-.801 0c-1.24-1.071-4.933-4.538-4.933-7.866a5.332 5.332 0 1 1 10.667 0"/><path stroke="#fff" stroke-linecap="round" stroke-linejoin="round" stroke-width="1.3" d="M135 511.667a2 2 0 1 0 0-4 2 2 0 0 0 0 4"/></svg>